<svg width="490" height="367" viewBox="0 0 490 367" fill="none" xmlns="http://www.w3.org/2000/svg">
<path d="M24.9984 223.036H0L1.19038 219.438C3.57119 212.842 13.0944 203.249 14.88 201.45C23.8081 188.858 45.8305 179.863 46.4257 179.863L48.8065 185.26C48.8065 185.26 27.3793 194.254 19.6417 205.047L19.0464 205.647C16.6656 207.446 11.904 212.842 8.92802 217.639H19.6417V206.846L20.8321 206.247C26.1889 202.049 44.6401 188.258 52.3778 189.457L51.1873 194.854C48.2113 194.254 35.7121 201.45 25.5937 209.245L24.9984 223.036Z" fill="#0067B2" fill-opacity="0.08"/>
<path d="M282.194 166.076L276.242 168.474C276.242 109.112 308.383 92.9219 309.573 92.3223L310.764 91.7227L322.073 98.3185L319.097 103.115L310.764 98.3185C308.383 100.117 302.431 103.715 297.074 112.11C290.527 121.704 282.194 136.694 282.194 166.076Z" fill="#0067B2" fill-opacity="0.08"/>
<path d="M491.705 161.911L486.348 159.512L490.515 150.518C486.348 151.117 480.396 152.317 477.42 155.914L473.254 151.717C480.396 143.922 495.277 143.922 495.872 143.922H500.038L491.705 161.911Z" fill="#0067B2" fill-opacity="0.08"/>
<path d="M419.076 287.218L419.671 283.021C420.267 274.027 425.028 261.435 425.028 260.835L426.814 256.638L435.147 265.032L439.908 260.235L433.956 236.85C430.98 236.85 426.219 238.049 422.647 241.647C415.505 248.843 401.22 245.844 400.625 245.844L401.815 240.448C405.387 241.047 414.91 241.647 419.076 238.049C426.219 231.454 436.337 231.454 436.932 231.454H439.313L447.051 262.634L435.742 273.427L430.385 267.431C429.195 270.429 428.004 275.226 427.409 279.423L436.932 276.425L450.027 266.831C452.408 254.839 454.788 226.057 444.67 218.262L448.241 213.465C463.716 225.457 455.384 267.431 455.384 269.23V270.429L439.908 281.822L419.076 287.218Z" fill="#0067B2" fill-opacity="0.08"/>
<path d="M456.568 304.589L455.378 302.79C455.378 302.191 450.021 294.995 455.973 281.204L457.163 278.805L470.258 281.804L480.376 278.206C480.971 272.809 481.567 262.016 480.376 257.819C478.591 250.623 465.496 248.225 460.735 247.625L461.33 241.629C462.52 241.629 483.352 242.828 486.328 256.02C488.114 263.215 486.328 280.005 486.328 280.604V282.403L471.448 287.2L461.925 284.802C460.139 290.198 460.139 293.796 460.735 296.195L471.448 290.798L487.519 286.601C489.304 283.003 495.851 268.612 492.875 243.428L498.827 240.43C502.994 272.21 492.28 289.599 492.28 290.798L491.685 291.997L473.234 296.195L456.568 304.589Z" fill="#0067B2" fill-opacity="0.08"/>
<path d="M383.966 274.631L383.371 268.635C408.37 265.637 420.869 251.246 420.869 251.246L425.035 254.844C424.44 255.443 410.75 271.034 383.966 274.631Z" fill="#0067B2" fill-opacity="0.08"/>
<path d="M93.4809 282.417L86.9336 272.823L90.5049 271.624C91.1001 271.624 97.0522 269.825 101.219 271.624L98.8378 277.02C98.2426 276.421 97.0522 276.421 96.457 276.421L98.2426 279.419L93.4809 282.417Z" fill="#0067B2" fill-opacity="0.08"/>
<path d="M87.5523 213.466C84.5763 213.466 82.1954 212.866 81.005 212.866H67.9106C58.9826 212.866 55.4115 203.272 55.4115 203.272V202.073L54.8162 172.691C54.221 167.295 55.4114 163.097 57.7922 160.699C60.7682 157.701 64.3394 157.701 64.9346 157.701H88.7427C81.6003 123.522 85.7667 73.1539 86.3619 63.56C84.5763 61.7611 82.1955 59.9622 79.2195 58.1634C76.2435 56.3645 73.8626 54.5656 72.077 52.7668C67.9106 49.169 64.3394 46.1709 60.7682 43.1728C59.5778 41.9736 57.197 41.3739 54.8162 41.3739C51.245 40.7743 48.269 38.9754 47.0786 35.3777C45.8882 32.3796 45.293 29.3815 45.293 26.3834C45.293 22.186 47.6738 19.7875 49.4594 17.9887L50.6498 16.7894C51.245 16.1898 51.8402 15.5902 51.8402 15.5902C54.8162 11.9924 58.9826 10.7932 63.149 11.9924C70.8866 14.9906 78.6243 15.5902 87.5523 16.1898C89.9331 16.1898 92.3139 16.7894 94.6947 16.7894C97.6707 16.7894 100.052 17.389 103.028 17.9887L111.36 0L114.336 4.19736C114.336 4.79698 120.288 12.5921 117.908 23.3853C122.669 28.7819 124.455 33.5788 129.216 47.9698C132.192 56.9641 136.359 68.9566 142.906 87.5449C150.644 109.731 167.904 127.72 190.522 139.112C201.236 144.509 212.545 147.507 224.449 150.505L225.639 151.105C242.9 155.902 263.732 164.896 275.636 172.092L272.065 177.488C260.161 170.892 241.114 161.298 224.449 156.501L223.258 155.902C210.759 152.904 199.45 149.306 188.141 143.909C164.333 131.917 146.477 112.729 138.144 89.3437C131.597 70.7554 127.431 58.763 124.455 49.7687C119.693 34.7781 118.503 31.1804 113.741 26.3834L113.146 25.7838L111.36 24.5845L111.956 23.3853C113.146 19.1879 112.551 15.5902 111.956 12.5921L106.599 24.5845H104.218C100.647 23.9849 97.6707 23.3853 94.6947 23.3853C92.3139 23.3853 89.9331 22.7856 87.5523 22.7856C79.2195 22.186 70.2914 21.5864 61.9586 17.9887C60.173 17.389 58.3874 17.9887 57.197 19.7875C56.6018 20.3872 56.0066 21.5864 54.8162 22.186L53.6258 23.3853C51.8402 25.1841 51.245 25.7838 51.245 27.5826C51.245 29.9811 51.2451 31.78 52.4355 34.1785C53.0307 35.3777 53.6258 35.9773 56.0066 36.577C59.5778 37.1766 62.5539 37.7762 64.3395 39.5751C68.5059 42.5732 72.0771 45.5713 76.2435 49.169C78.0291 50.3683 80.4099 52.1671 82.7907 53.966C85.7667 56.3645 89.3379 58.763 91.7187 60.5619L92.9091 61.7611V62.9603C92.9091 63.56 86.9571 124.122 95.8851 160.099L97.0755 163.697L66.125 163.097C66.125 163.097 64.3394 163.097 63.149 164.297C61.9586 165.496 61.3634 168.494 61.9586 172.092L62.5539 201.473C63.1491 202.672 65.5298 207.469 69.6963 207.469H83.981C86.3618 208.069 92.3139 208.669 96.4803 206.87L91.7187 200.873C89.9331 201.473 85.7666 202.073 83.981 205.67L83.3859 207.469H69.6963L69.101 205.071C68.5058 203.272 67.9106 201.473 67.9106 200.274C67.3154 200.274 66.7202 199.674 66.125 199.075C65.5298 198.475 63.7443 196.676 65.5299 186.483L66.125 184.684L67.9106 184.084C73.8626 182.285 92.9091 176.889 98.2659 179.287C98.8611 179.287 100.647 179.887 102.432 180.486C111.36 182.285 128.026 184.684 145.882 200.274L142.311 204.471C125.645 190.08 109.575 187.082 101.242 185.883C98.8611 185.283 97.0755 185.283 95.8851 184.684C93.5043 184.084 81.6003 186.483 70.8866 189.481C70.2914 191.879 70.2915 193.678 70.2915 194.877C71.4819 195.477 72.6722 197.276 73.8626 201.473H79.2195C83.3859 195.477 91.7187 194.877 92.3139 194.877H93.5043L103.623 207.469L101.837 209.268C97.6707 212.266 92.3139 213.466 87.5523 213.466Z" fill="#0067B2" fill-opacity="0.08"/>
<path d="M160.77 109.723L159.58 107.924C156.604 102.527 153.628 97.1306 150.652 91.1344C145.89 80.9408 142.319 70.1476 138.748 59.954C136.962 53.9578 134.581 47.9616 132.2 41.9654V41.3657C130.415 36.5688 128.629 32.3714 126.248 27.5744L121.487 32.3714L117.32 28.174L127.439 17.9805L129.224 20.9786C132.796 26.3752 135.176 32.971 137.557 38.9672V39.5669C139.938 45.5631 141.724 51.5593 144.104 57.5555C147.676 67.7491 151.247 77.9427 156.008 88.1363C158.984 94.1325 161.96 99.5291 164.936 104.326L166.127 106.125L160.77 109.723Z" fill="#0067B2" fill-opacity="0.08"/>
<path d="M298.175 159.49L292.223 161.889C292.223 160.09 294.604 113.319 318.412 98.9282C318.412 91.7327 318.412 89.3342 320.197 84.5373L322.578 77.9414L325.554 83.9376C325.554 83.9376 327.935 88.135 331.506 91.1331C345.196 88.7346 346.386 92.3323 346.981 93.5316C347.576 94.7308 349.957 96.5297 352.338 97.7289L359.48 98.3286C361.266 98.3286 366.028 97.7289 367.813 97.7289C374.36 97.1293 378.527 99.5278 381.503 105.524C381.503 105.524 381.503 106.124 382.098 106.124C385.669 112.12 383.884 116.317 382.098 118.716C379.717 122.313 375.551 124.112 370.789 123.513C369.599 123.513 366.623 123.513 366.028 124.112C363.647 125.911 349.957 136.105 333.292 133.706C332.101 137.904 330.911 145.699 330.911 149.296L324.959 150.496C324.959 144.499 327.935 130.708 327.935 130.109L328.53 127.11L331.506 127.71C348.172 131.308 362.456 119.915 362.456 119.315L363.052 118.716C364.837 117.516 369.599 117.516 370.789 117.516C373.765 117.516 375.551 116.917 376.741 115.118C377.932 113.919 378.527 112.12 376.741 108.522C376.146 107.923 376.146 107.323 376.146 106.723C374.36 103.126 372.575 101.926 368.408 101.926C366.028 101.926 361.861 102.526 359.48 102.526L350.552 101.926L349.957 101.327C348.767 100.727 344.005 97.7289 342.22 94.1312C340.434 93.5316 335.672 94.1312 331.506 94.7308H330.316L329.125 94.1312C326.744 92.932 324.959 91.1331 323.768 89.9338C323.768 91.7327 323.768 94.1312 323.768 97.7289V102.526L321.983 103.126C299.96 114.518 298.175 158.89 298.175 159.49Z" fill="#0067B2" fill-opacity="0.08"/>
<path d="M246.474 326.797L241.117 322.6C240.522 320.801 240.522 318.403 239.331 316.604C235.165 310.608 225.046 304.611 218.499 301.613L217.309 301.014L221.475 298.016L222.665 298.615C228.022 301.014 234.57 304.012 239.926 309.408C244.688 314.205 247.069 320.202 246.474 326.797Z" fill="#0067B2" fill-opacity="0.08"/>
<path d="M179.219 300.395C178.624 300.395 178.624 299.795 178.029 299.795C173.862 297.997 172.672 294.998 172.672 293.2C172.672 291.401 172.672 288.403 175.648 285.404C177.433 283.606 179.814 281.807 181.6 280.607C182.195 280.008 183.385 279.408 183.981 278.809L187.552 283.606C186.957 284.205 185.766 284.805 185.171 285.404C183.385 286.604 181.6 288.403 179.814 289.602C178.624 290.801 178.029 291.401 178.029 292C178.029 292.6 179.219 293.2 180.409 294.399C181.005 294.399 181.005 294.998 181.6 294.998L179.219 300.395Z" fill="#0067B2" fill-opacity="0.08"/>
<path d="M329.788 333.986L329.192 332.187C329.192 332.187 325.621 324.991 328.002 318.995C329.788 314.798 333.359 312.399 338.12 310.6L339.311 310.001L342.882 312.399C344.668 313.599 346.453 314.798 348.239 315.997C349.429 316.597 349.429 316.597 350.025 315.997C353.001 312.999 355.977 311.8 358.953 311.2C364.905 309.401 369.071 305.204 373.833 300.407C373.833 300.407 374.428 299.807 374.428 299.208C374.428 298.608 373.833 298.608 373.237 298.008C372.047 296.809 370.857 296.209 369.071 295.61C363.714 293.211 357.762 290.813 352.405 288.414L348.834 287.215C348.239 290.213 347.048 293.211 346.453 296.209C345.263 300.407 344.072 304.604 343.477 308.202L338.12 306.403C339.311 302.805 340.501 298.608 341.096 294.411C342.287 290.213 343.477 286.016 344.072 282.418L344.668 279.42L348.239 280.619C348.834 280.619 348.834 280.619 349.429 281.219L354.191 283.018C359.548 285.416 365.5 287.815 370.857 290.213C373.237 290.813 375.023 292.012 376.213 293.811C377.999 295.61 379.189 297.409 379.189 299.208C379.189 300.407 379.189 302.805 376.809 304.604C372.642 308.802 366.69 314.798 359.548 316.597C356.572 317.196 354.786 318.395 353.001 320.194C350.62 322.593 347.049 323.192 344.072 320.794C342.287 319.595 340.501 318.396 338.716 317.796C338.12 317.796 337.525 317.196 337.525 317.196C334.549 318.395 332.764 319.595 332.168 321.394C330.978 323.792 331.573 326.79 332.168 327.989H337.525C339.311 327.989 341.096 327.989 342.882 327.989L347.049 327.39C350.025 327.39 353 326.79 355.381 326.191C357.167 326.191 358.357 325.591 359.548 324.392C363.119 321.993 366.095 318.995 369.071 315.997C372.642 312.999 376.809 309.401 380.38 306.403C383.951 303.405 385.737 300.407 385.737 297.409C385.737 294.411 384.546 291.412 381.57 288.414C379.785 286.616 377.999 284.817 375.618 283.617L374.428 283.018C364.904 275.223 358.357 266.828 353.001 258.433C347.644 249.439 345.263 240.445 345.263 232.05C344.668 207.465 385.141 182.881 386.927 182.281L389.903 187.078C389.308 187.078 350.62 211.063 350.62 232.05C350.62 239.845 353 247.64 357.762 255.435C362.524 263.83 369.071 271.025 377.999 278.82L379.189 279.42C380.975 281.219 383.356 283.018 385.141 284.817C389.308 289.014 391.689 293.811 391.093 298.608C391.093 303.405 388.117 308.202 383.356 311.8C379.785 314.798 375.618 317.796 372.047 321.394C369.071 324.392 365.5 326.79 361.929 329.788C360.143 331.587 357.167 332.187 355.381 332.786C352.405 333.386 349.429 333.386 346.453 333.986L342.287 334.585C340.501 334.585 338.12 335.185 336.335 334.585L329.788 333.986Z" fill="#0067B2" fill-opacity="0.08"/>
<path d="M483.916 242.867C483.321 242.867 483.321 242.867 482.726 242.867C480.345 242.867 477.369 241.668 474.988 237.471V236.871C474.988 235.672 473.202 226.677 474.988 221.281C475.583 218.882 473.202 213.486 471.417 211.087L470.822 210.488L467.846 201.493C466.655 201.493 464.87 200.894 463.084 199.694L464.274 227.277L470.822 228.476V234.473L458.918 232.674L457.132 181.106L463.084 191.899C465.465 196.696 469.631 196.696 470.226 196.696H472.607L473.202 199.095L476.178 209.288C477.964 211.687 482.726 218.882 480.345 224.879C479.154 227.877 479.75 233.873 480.345 236.871C481.535 238.67 482.726 239.27 483.321 239.27C486.892 239.869 492.844 235.072 495.82 232.074L500.582 169.713L501.772 169.114C505.938 166.116 510.7 158.92 513.676 154.123L501.772 154.723L501.177 152.924C498.796 146.328 494.63 141.531 489.273 139.732C481.535 137.334 472.607 139.133 461.894 145.129C452.966 149.926 444.633 156.522 436.895 162.518C435.705 163.717 433.919 164.916 432.729 166.116C423.205 173.911 411.897 182.305 399.993 186.503L398.207 181.106C409.516 177.508 420.229 169.114 429.157 161.918C430.348 160.719 432.134 159.52 433.324 158.321C441.657 151.725 449.99 145.129 459.513 140.332C471.417 134.336 482.13 131.937 491.058 134.935C497.606 136.734 502.962 142.131 505.938 149.926L524.39 148.727L522.009 153.524C521.414 154.123 513.676 167.914 506.534 173.911L501.177 232.074L500.582 232.674C499.986 233.873 491.654 242.867 483.916 242.867Z" fill="#0067B2" fill-opacity="0.08"/>
<path d="M417.253 161.88L414.277 157.083C420.229 153.485 425.586 148.688 430.943 145.09C432.133 143.891 433.919 142.692 435.109 141.492C443.442 134.897 451.775 128.301 461.298 123.504C473.202 117.508 483.916 115.109 492.844 118.107C501.177 120.506 509.509 130.1 511.89 137.295L513.081 140.293L499.986 142.692L498.796 137.295L505.343 136.096C502.367 130.699 496.415 125.303 491.653 123.504C483.916 121.105 474.988 122.904 464.274 128.9C455.346 133.697 447.013 140.293 439.276 146.289C438.085 147.489 436.3 148.688 435.109 149.887C429.157 153.485 423.205 158.282 417.253 161.88Z" fill="#0067B2" fill-opacity="0.08"/>
<path d="M280.398 184.104L275.637 180.506C292.898 157.721 345.275 151.725 347.061 151.725L350.037 151.125V165.516H344.085V157.721C333.371 159.52 293.493 166.715 280.398 184.104Z" fill="#0067B2" fill-opacity="0.08"/>
<path d="M249.457 366.999C248.862 366.999 248.267 366.999 247.077 366.399C241.125 364.001 236.958 360.403 233.982 355.606C232.792 353.208 232.197 349.61 233.982 346.012C230.411 344.813 227.435 342.414 225.054 338.217C225.054 338.217 224.459 337.617 223.864 337.018L223.269 336.418C214.341 329.223 204.222 320.828 192.318 315.431C191.128 314.832 189.937 314.232 188.747 313.633L188.152 313.033C183.985 310.035 179.224 307.037 182.795 297.443C186.366 287.249 189.937 278.255 193.509 269.26C194.699 266.862 193.508 265.663 192.913 265.063C191.723 264.463 190.532 263.864 188.747 263.264L187.557 262.665C177.438 259.067 169.7 252.471 165.534 242.877C161.368 233.283 161.963 221.89 162.558 211.697C158.987 214.695 157.201 220.691 156.606 223.09C154.82 229.685 156.606 236.281 158.392 243.477C160.177 250.672 161.963 258.467 160.177 266.262C158.987 271.659 155.416 275.856 152.44 280.054C151.249 281.853 150.059 283.052 148.868 284.851C145.892 289.048 145.892 293.845 145.297 298.642C145.297 301.04 145.297 302.839 144.702 305.238L143.512 312.433L139.345 306.437C136.964 303.439 135.179 299.242 132.798 293.245C130.417 286.05 129.822 280.054 131.608 275.257C132.203 273.458 132.798 271.659 133.988 270.46C134.584 269.26 135.179 268.661 135.179 267.462C137.56 261.465 135.179 256.069 132.798 249.473C131.608 247.074 131.012 244.676 129.822 242.277C125.656 227.887 130.417 209.898 141.726 202.103C147.678 197.905 154.225 197.905 160.772 197.905C166.724 197.905 172.081 197.905 175.652 194.308C191.128 181.716 211.365 176.919 233.387 181.716C244.101 184.114 255.409 185.913 267.909 187.712C272.67 188.311 276.837 187.712 280.408 185.913C283.384 182.915 304.216 163.727 348.261 160.729C350.046 150.535 358.974 146.338 359.57 146.338L363.141 144.539L364.331 160.729H374.45L379.806 163.127L394.686 161.328C395.282 161.328 395.282 161.328 395.877 161.328C397.662 160.729 400.043 160.129 402.424 161.328C405.4 162.528 405.995 166.725 405.995 168.524L400.638 170.323C400.638 169.124 400.043 166.725 399.448 166.125C398.853 166.125 397.662 166.125 397.067 166.725C396.472 166.725 395.877 166.725 395.282 166.725L378.616 169.124L373.259 166.125H359.57L358.379 153.533C355.998 155.332 354.213 158.93 353.618 163.127V165.526H351.237C305.406 167.924 284.574 188.911 284.574 189.511L283.979 190.11C279.217 192.509 273.861 193.708 267.313 192.509C254.814 190.71 242.91 188.911 232.197 186.513C211.96 182.315 192.913 186.513 179.224 197.905C173.867 202.702 167.32 202.702 160.772 202.702C154.82 202.702 149.464 202.702 145.297 206.3C136.369 212.896 131.608 228.486 135.774 240.479C136.369 242.877 137.56 244.676 138.155 247.074C141.131 253.67 144.107 260.866 140.536 269.26C139.94 270.46 139.345 271.659 138.75 272.858C138.155 274.057 137.56 275.856 136.964 277.056C135.774 280.653 136.369 285.45 138.155 291.447C138.75 292.646 139.345 293.845 139.345 295.044C139.94 290.847 140.536 286.05 143.512 281.853C144.702 280.054 145.892 278.255 147.083 276.456C150.059 272.858 152.44 269.26 153.63 265.063C155.416 258.467 153.63 251.871 151.844 244.676C150.059 237.481 148.273 229.685 150.059 221.291C151.249 216.494 155.416 204.501 164.939 203.902H168.51L167.915 210.498C167.32 220.691 166.129 230.885 170.296 239.279C173.867 247.074 181.009 253.071 188.747 256.069L189.937 256.668C191.723 257.268 194.104 257.868 195.889 259.667C198.865 262.065 200.056 266.262 198.27 270.46C194.699 279.454 191.128 288.448 187.557 298.042C185.771 302.839 186.961 304.039 190.533 307.037L191.128 307.636C191.723 308.236 192.318 308.236 193.509 308.836C206.008 314.232 216.721 323.226 226.245 330.422L226.84 331.022C227.435 331.621 228.625 332.221 229.221 333.42C231.006 337.018 233.982 338.817 236.958 339.416C238.149 339.416 238.744 340.016 239.339 340.616C239.339 340.616 239.339 340.616 239.934 340.616L242.315 342.414L240.529 345.413C240.529 346.012 239.934 346.012 239.934 346.612C238.149 348.411 238.149 350.209 238.744 351.409C240.529 355.006 243.505 357.405 248.267 359.204C250.648 349.61 248.862 342.414 243.505 336.418C225.649 316.031 204.222 301.64 204.222 301.64L201.246 299.841L208.984 293.245C211.364 290.847 213.15 288.448 215.531 286.05C219.697 280.653 223.864 275.257 230.411 272.259C234.577 270.46 237.553 266.862 239.339 262.065L240.529 259.067L245.886 261.465C247.672 262.065 249.457 262.665 250.648 263.864C270.289 272.858 290.526 276.456 310.763 275.257C311.358 275.257 311.954 275.257 312.549 275.257C319.691 274.657 322.072 275.257 324.453 282.452C325.643 285.45 326.238 288.448 326.238 292.046C326.238 299.841 326.238 307.636 325.643 316.031C325.643 319.629 325.048 323.826 323.858 327.424C321.477 337.018 312.549 344.813 302.43 346.012C299.454 346.612 296.478 347.211 292.907 348.411C291.717 349.01 289.931 349.01 288.145 348.411C286.36 347.211 285.765 345.413 285.765 344.813C284.574 341.215 280.408 338.217 276.837 338.817C274.456 339.416 272.075 340.616 269.694 341.815C269.694 341.815 269.099 341.815 269.099 342.414C269.694 343.014 270.289 343.014 270.289 343.614L273.265 346.012C275.051 347.211 276.837 349.01 278.622 350.209C279.813 350.809 281.003 351.409 282.789 352.008C283.979 352.608 285.169 352.608 286.36 352.608C288.145 353.208 289.931 353.208 291.717 354.407C295.288 355.606 298.859 355.606 302.43 353.208C309.573 349.01 316.715 344.813 323.262 341.815C325.048 340.616 327.429 340.016 328.024 338.217L333.976 338.817C332.19 342.414 328.024 345.413 325.643 346.612C319.096 349.61 311.954 353.807 305.406 358.005C300.645 361.003 295.288 361.602 289.931 359.803C288.741 359.204 286.955 358.604 285.169 358.604C283.979 358.005 282.789 358.005 281.598 357.405C279.813 356.805 278.027 356.206 276.241 355.006C274.456 353.807 272.075 352.008 270.289 350.809L267.313 348.411C266.123 347.811 265.528 347.211 264.337 346.012C263.147 344.813 262.552 343.014 262.552 341.815C262.552 340.616 263.742 338.817 265.528 338.217C266.123 337.617 266.718 337.617 267.313 337.018C270.289 335.819 272.67 334.02 275.646 333.42C281.598 332.221 289.336 337.018 291.121 343.014C294.693 341.815 298.264 340.616 301.835 340.016C309.573 338.817 316.715 332.82 318.501 325.625C319.096 322.627 319.691 319.029 319.691 315.431C320.286 307.636 320.286 299.841 320.286 292.046C320.286 289.648 319.691 286.65 319.096 284.251C317.905 280.054 317.905 280.054 313.144 280.653C312.549 280.653 311.358 280.653 310.763 280.653C289.336 281.853 268.504 278.255 247.672 269.26C245.886 268.661 244.696 268.061 242.91 267.462C240.529 272.259 236.958 275.856 232.792 278.255C227.435 281.253 223.864 285.45 219.697 290.847C217.317 293.845 215.531 296.243 212.555 299.242L210.174 301.04C216.721 305.837 232.792 317.83 247.672 334.619C254.219 341.815 256.005 351.409 253.624 362.802C253.624 363.401 253.029 365.8 250.648 366.999C250.648 366.999 250.053 366.999 249.457 366.999Z" fill="#0067B2" fill-opacity="0.08"/>
<path d="M169.056 360.975H161.914H161.318C159.533 360.375 158.938 359.176 158.342 357.976C158.342 356.777 157.747 355.578 158.938 353.779L159.533 353.179C160.128 351.98 160.723 350.781 162.509 349.582C163.699 348.382 164.89 347.183 164.89 345.384C164.89 344.785 165.485 344.185 165.485 342.986C165.485 342.386 166.08 341.787 166.08 341.187C167.271 335.191 167.271 330.394 164.89 325.597L164.295 323.798C163.104 321.999 162.509 320.2 161.914 318.401C161.319 316.603 160.723 315.403 160.723 313.604C160.128 314.204 158.938 314.204 158.342 314.804C154.176 316.003 150.605 317.802 145.843 317.202C145.248 317.802 145.248 318.401 144.058 320.2C142.867 322.599 142.272 324.997 141.677 327.396C140.487 330.394 139.891 333.992 137.51 336.99C135.725 339.988 134.535 342.386 135.725 345.384C136.32 346.584 136.32 348.982 133.939 350.781C133.939 351.98 133.939 353.179 133.939 353.779C133.344 355.578 131.558 356.178 130.368 356.777C129.178 357.377 128.582 357.377 127.392 357.377L125.606 357.976H123.226H122.63C122.035 357.976 121.44 357.976 120.845 357.377C118.464 356.777 117.869 355.578 117.274 354.978C116.678 354.379 116.678 352.58 117.869 350.781C117.869 350.181 118.464 350.181 118.464 349.582C119.654 347.783 120.25 345.984 122.035 344.785C124.416 342.986 125.606 340.587 126.202 336.99V335.191C126.797 330.993 127.392 326.196 129.773 321.999C130.368 320.8 130.368 320.2 128.582 317.802C127.987 317.202 127.392 316.603 127.392 316.003C123.821 319.001 117.274 321.999 114.298 322.599C112.512 322.599 110.726 323.798 108.941 324.398H108.346C108.346 324.997 108.941 325.597 109.536 326.196C110.131 326.796 110.131 327.396 110.726 327.995C110.726 328.595 111.322 328.595 111.322 328.595C112.512 327.995 113.702 327.995 114.298 327.995C119.059 328.595 121.44 331.593 122.63 336.99C122.63 338.189 123.226 340.587 121.44 342.386C119.654 344.185 117.274 343.586 116.083 342.986C113.702 342.386 110.726 341.787 108.346 341.787C104.179 341.787 101.798 340.587 101.203 335.79C100.608 333.992 100.013 332.193 98.8224 330.394C97.0368 328.595 95.8464 326.796 95.2512 324.398C92.8704 320.2 94.656 317.202 95.8464 316.003C97.0368 314.804 100.013 312.405 103.584 310.007C104.774 308.807 106.56 308.208 107.155 307.608L107.75 307.009C110.726 304.61 112.512 303.411 112.512 302.212C111.917 301.612 111.917 300.413 111.322 299.813C109.536 295.616 107.75 290.819 104.774 287.221C101.798 290.219 100.013 295.016 98.8224 298.614C98.2272 301.012 97.632 301.612 97.0368 302.811C96.4416 304.01 95.2512 305.809 94.0608 310.606C94.0608 311.206 94.0608 311.206 94.0608 312.405C94.0608 313.005 94.0608 314.204 94.0608 314.804C93.4656 320.2 87.5136 323.198 81.5616 323.198C81.5616 323.198 81.5615 323.198 80.9663 323.198C77.3951 323.198 75.6096 321.399 74.4192 320.2L73.8239 319.001C73.8239 318.401 73.2288 318.401 73.2288 318.401C70.2528 316.003 69.6575 313.005 70.8479 309.407C73.2287 304.01 73.2287 298.614 73.8239 292.618C73.8239 290.819 74.4192 289.02 74.4192 287.821C74.4192 286.621 75.0143 284.823 75.0143 283.623L64.3008 281.824L66.0863 278.227C66.0863 277.627 70.2527 271.631 76.8 269.232C77.3952 263.236 80.3712 245.247 93.4656 234.454C102.394 227.259 112.512 224.86 126.202 227.259V233.255C114.298 230.857 104.179 233.255 97.0368 238.652C83.3472 249.445 82.1568 271.031 82.1568 271.031V273.43L79.776 274.029C77.3952 274.629 75.6095 275.828 73.8239 277.027L80.9663 278.227L80.3712 281.225C79.776 283.623 79.776 286.022 79.1808 287.821C79.1808 289.62 78.5856 290.819 78.5856 292.618C77.9904 298.614 77.3951 304.61 75.0143 311.206C74.4191 312.405 75.0144 313.005 75.6096 313.604C76.2048 314.204 76.8 314.804 77.3952 315.403L77.9903 316.003C79.1807 317.202 79.1808 317.202 80.3712 317.202C83.3472 317.202 86.9184 316.003 87.5136 314.204C87.5136 313.604 87.5136 313.604 87.5136 313.005C87.5136 311.806 87.5136 310.606 88.1088 309.407C89.8944 304.01 91.0848 302.212 91.68 300.413C92.2752 299.213 92.2752 298.614 92.8704 296.815C94.656 291.418 97.0368 284.823 102.989 280.625L105.37 279.426L107.155 281.225C111.322 286.022 113.702 292.018 116.083 297.415C116.678 298.614 117.274 299.813 117.869 301.012C119.059 304.61 115.488 307.608 110.726 311.806L110.131 312.405C109.536 313.005 107.75 314.204 106.56 315.403C104.179 317.202 100.608 319.601 99.4176 320.8C99.4176 320.8 98.8224 321.399 99.4176 323.198C100.013 324.398 101.203 326.196 102.394 327.995L102.989 328.595C102.989 327.995 102.394 327.995 102.394 327.396C101.798 326.196 101.798 324.398 102.394 323.198C102.989 321.999 104.179 320.8 105.37 320.2H105.965C107.75 319.001 110.131 318.401 113.107 317.802C116.083 317.202 123.226 313.604 125.011 311.206C125.606 310.606 126.202 310.007 126.202 310.007L129.773 307.608L130.368 311.806C130.368 313.005 131.559 314.204 132.749 316.003C134.535 318.401 136.915 321.999 134.534 326.796C132.749 329.794 132.154 333.392 131.558 336.99C131.558 336.99 131.558 336.39 132.154 336.39C133.939 333.992 134.535 330.993 135.725 327.995C136.32 325.597 137.511 323.198 138.701 320.2C140.487 316.603 142.272 314.204 144.058 313.604C145.248 313.604 145.843 313.604 146.438 313.604C150.01 314.204 152.986 313.005 156.557 311.806C157.747 311.206 159.533 310.606 160.723 310.606L164.89 309.407L165.485 312.405C165.485 313.005 166.08 314.204 166.08 314.804C166.675 316.603 166.675 317.802 167.271 319.601C167.866 321.399 168.461 322.599 169.651 324.398L170.247 326.196C172.627 330.394 173.223 334.591 173.223 339.388C173.818 338.189 174.413 336.99 175.008 336.39C175.603 335.191 175.603 334.591 175.008 333.992C172.032 329.794 171.437 324.997 173.223 319.601C174.413 316.603 174.413 316.003 176.199 314.204L179.77 310.606L181.555 314.204C184.531 319.601 186.317 320.8 191.674 321.399C195.245 321.999 195.84 324.398 195.84 325.597C195.84 326.196 196.435 326.796 196.435 327.396C197.031 329.794 197.626 331.593 195.84 335.191C194.65 338.189 194.65 338.789 195.84 339.988L196.435 337.589C196.435 336.99 199.411 329.794 199.411 329.195L203.578 331.593C203.578 332.792 202.983 335.191 202.387 335.79C204.768 336.39 205.363 338.789 206.554 341.187C207.149 342.386 207.149 343.586 207.149 344.785L208.339 350.181H204.768C200.602 350.181 197.031 348.982 194.65 346.584C188.698 341.787 188.103 339.988 190.483 332.792C191.079 330.394 191.079 330.394 190.483 328.595C190.483 327.995 189.888 327.396 189.888 326.796C184.531 326.196 180.96 324.398 177.984 320.2V320.8C176.794 324.997 177.389 327.995 179.175 330.394C180.96 333.392 180.96 336.39 179.175 339.388C177.389 341.787 176.199 343.586 176.199 345.984C176.199 347.183 176.199 348.982 176.199 350.181C176.199 351.381 176.794 353.779 174.413 355.578C175.008 356.777 175.008 358.576 174.413 359.775C173.223 361.574 171.437 362.174 169.651 362.773L169.056 360.975ZM165.485 354.978H167.866H168.461H169.056V354.379C168.461 352.58 169.056 350.181 170.842 348.982C170.842 348.982 170.842 348.982 170.842 348.382C170.842 347.783 170.842 347.183 170.842 347.183C170.247 350.181 168.461 351.98 166.08 354.379L165.485 354.978ZM123.226 353.179H124.416H125.011C125.606 353.179 126.202 353.179 126.797 352.58C126.202 350.781 127.392 348.982 128.582 347.783C128.582 347.183 127.987 346.584 127.987 345.984C126.797 347.783 125.606 348.982 124.416 350.181C123.821 350.781 123.226 351.98 122.63 353.179C122.63 353.179 122.63 353.179 123.226 353.179ZM197.626 338.789C198.221 338.789 198.221 339.388 198.816 339.388C199.411 339.988 200.602 340.587 201.792 341.187C201.792 340.587 201.792 340.587 201.197 339.988C200.602 338.789 200.602 338.189 200.602 338.189C200.602 338.189 200.007 338.189 199.411 338.189L197.626 338.789ZM106.56 336.99C106.56 336.99 107.155 336.99 108.346 336.99C111.322 336.99 114.298 337.589 116.678 338.189C116.083 335.191 114.893 334.591 113.702 334.591C113.702 334.591 113.702 334.591 113.107 334.591C111.322 335.191 107.75 335.79 105.37 331.593C105.37 330.993 104.774 330.993 104.179 330.394C104.179 330.394 104.179 330.394 104.179 329.794C105.37 331.593 105.965 333.992 106.56 335.79C105.965 336.39 105.965 336.99 106.56 336.99Z" fill="#0067B2" fill-opacity="0.08"/>
</svg>
