<svg width="24" height="28" viewBox="0 0 24 28" fill="none" xmlns="http://www.w3.org/2000/svg">
<g clip-path="url(#clip0_7084_2981)">
<path d="M12.325 8.1366C13.92 8.1366 15.3655 6.85156 17.595 6.85156C21.7954 6.85156 23.2523 9.4688 23.2523 9.4688C21.8069 10.412 20.162 12.086 20.162 14.9391C20.162 17.2734 21.3084 18.9475 24 20.598C24 20.598 21.5327 28.0017 17.6199 28.0017C14.6542 28.0017 15.028 26.752 12.7352 26.752C10.5171 26.752 9.79439 28.0017 7.72586 28.0017C5.05919 28.0017 0 22.3428 0 15.0098C0 9.82248 3.67601 6.85156 7.47664 6.85156C9.75801 6.85156 10.2814 8.1366 12.325 8.1366Z" fill="white"/>
<path d="M12.0508 6.34268C12.0508 3.63113 14.3935 0 17.8327 0V1.3454C17.8327 2.73514 16.0109 6.34268 12.0508 6.34268Z" fill="white"/>
</g>
<defs>
<clipPath id="clip0_7084_2981">
<rect width="24" height="28" fill="white"/>
</clipPath>
</defs>
</svg>
