<svg width="13" height="10" viewBox="0 0 13 10" fill="none" xmlns="http://www.w3.org/2000/svg">
<path d="M8.25342 9.89583L12.9994 5.10417C13.1026 5 13.1026 4.89583 12.9994 4.89583L8.25342 0C8.15024 0 8.04707 0 7.94389 0L6.7058 1.35417C6.60262 1.45833 6.60262 1.5625 6.7058 1.5625L8.76929 3.64583C8.87247 3.75 8.76929 3.95833 8.66612 3.95833H0.2058C0.102625 3.95833 -0.000549316 3.95833 -0.000549316 4.0625V5.83333C-0.000549316 5.9375 0.102625 6.04167 0.2058 6.04167H8.66612C8.76929 6.04167 8.87247 6.25 8.76929 6.35417L6.7058 8.4375C6.60262 8.54167 6.60262 8.64583 6.7058 8.64583L7.94389 9.89583C8.04707 10 8.15024 10 8.25342 9.89583Z" fill="white"/>
</svg>
