<svg width="154" height="66" viewBox="0 0 154 66" fill="none" xmlns="http://www.w3.org/2000/svg">
<path fill-rule="evenodd" clip-rule="evenodd" d="M9.26564 0.565544C8.98805 0.181068 9.1883 0.00347137 9.73241 0.00347137L9.73216 0.00148773H47.0686C48.8618 0.00148773 50.6648 1.19286 51.192 2.87933L53.3472 11.3673C56.9976 1.78445 67.7862 0.0114059 79.2202 0.0114059C85.218 0.0114059 93.9424 0.00148773 93.9424 0.00148773L114.83 0.000244141V45.7799C114.83 48.9995 116.766 50.8897 120.094 50.9914C122.409 51.0682 126.604 49.9719 126.867 45.6484V0.00272369L148.314 0.00148773V57.0772C148.314 57.0772 148.196 59.5974 150.393 61.9761C152.166 63.9084 153.24 65.1065 153.24 65.1065C153.516 65.4885 153.341 65.6522 152.797 65.6522H132.774C130.69 65.6522 129.227 64.474 128.523 62.8617L127.675 60.2026C125.885 63.4074 121.707 65.4166 117.438 65.7837C105.182 66.8478 98.2357 63.9556 95.009 57.7841C90.696 64.5459 81.9469 65.6472 71.1854 65.6472H44.9774L41.9847 53.545H22.7696L19.9074 65.6472H0L13.6821 10.5261C13.6821 10.5261 14.6784 6.60128 12.1234 3.66142C10.28 1.53516 9.26564 0.565544 9.26564 0.565544ZM39.0365 41.5899L32.386 14.6345L25.7577 41.5899H39.0365ZM94.1702 4.59205C94.2515 4.49234 94.35 4.43876 94.451 4.42735C94.749 4.39262 95.052 4.70367 94.882 5.04747L89.3227 16.316C89.2685 16.4222 89.3966 16.5241 89.4853 16.447L99.3674 7.78467C99.7443 7.45377 100.274 7.94937 99.9734 8.35146L92.3376 18.5688C92.2686 18.6638 92.377 18.79 92.478 18.7288L103.841 11.7668C104.264 11.5086 104.693 12.0863 104.331 12.4259L94.8722 21.2628C94.786 21.3447 94.8796 21.491 94.9879 21.4464L107.516 16.379C107.966 16.1967 108.289 16.824 107.883 17.0912L96.855 24.3237C96.754 24.3882 96.8205 24.5445 96.9363 24.5172L110.264 21.491C110.727 21.3844 110.939 22.0491 110.503 22.2401L98.2171 27.6476C98.1087 27.6972 98.1506 27.8584 98.2689 27.851L111.912 26.9704C112.39 26.9381 112.494 27.6302 112.033 27.7493L98.9191 31.1351C98.8034 31.1674 98.8132 31.3335 98.9339 31.3435L112.543 32.6234C113.016 32.668 113.016 33.3601 112.543 33.4023L98.9339 34.6822C98.8132 34.6946 98.8009 34.8657 98.9191 34.8955L112.033 38.2764C112.496 38.3955 112.39 39.0875 111.912 39.0578L98.2689 38.1747C98.1506 38.1697 98.1087 38.3359 98.2171 38.3831L110.503 43.7855C110.939 43.9765 110.727 44.6413 110.264 44.5371L97.6925 41.6821C97.6925 41.6821 97.1826 36.0092 90.6725 31.4898C87.3179 29.1611 83.2327 27.5946 79.6217 26.21L79.4701 26.1518C76.667 25.0877 74.029 24.0682 72.1225 22.8702C69.9968 21.5134 69.0017 20.0496 69.0017 18.2781C69.0017 16.9798 69.4253 15.9013 70.2751 15.0614C71.7432 13.6155 74.4108 12.9676 78.0168 12.9974C81.8864 13.0284 85.9925 14.7803 85.9925 14.7803L94.1702 4.59205ZM48.7275 12.4113C48.4565 12.1585 48.6339 11.7723 48.9147 11.7038C49.0083 11.6812 49.1142 11.6927 49.2176 11.7571L52.8114 13.9566C52.6931 14.5484 52.5503 15.3437 52.4665 15.9043L48.7275 12.4113ZM45.1781 17.0815C44.8751 16.8821 44.9785 16.4817 45.2396 16.3693C45.3258 16.3319 45.4318 16.3242 45.5426 16.3693L52.2867 19.0969C52.2843 19.907 52.3212 20.9991 52.4074 21.8234L45.1781 17.0815ZM42.5696 22.2401C42.1336 22.0491 42.3454 21.3844 42.811 21.491L52.735 23.7483C52.9961 24.9488 53.4542 26.261 53.9567 27.2507L42.5696 22.2401ZM41.0202 27.7443C40.5596 27.6252 40.6729 26.9406 41.1459 26.9704L54.2597 27.8162C57.6055 33.976 64.6554 36.44 70.8603 38.6086L70.9106 38.6261C76.965 40.7221 82.1672 42.5329 82.1672 47.2309C82.1672 48.4836 81.6697 49.5923 80.6721 50.5051C78.7533 52.2638 75.2482 53.1171 71.3909 52.7475C69.2184 52.5416 66.9376 51.4105 66.9376 51.4105L58.9027 61.4391C58.5825 61.8384 57.9643 61.4391 58.1909 60.9802L63.6936 49.8305C63.7601 49.699 63.5975 49.575 63.4867 49.6717L53.7203 58.2318C53.3434 58.5642 52.8089 58.0706 53.1094 57.6663L60.6836 47.536C60.7649 47.4244 60.6368 47.278 60.5186 47.35L49.2028 54.2779C48.7841 54.5359 48.358 53.9654 48.7176 53.6305L58.1663 44.7976C58.2599 44.7083 58.1613 44.5545 58.0406 44.6041L45.5426 49.6568C45.0943 49.8379 44.7741 49.2103 45.1781 48.9449L56.181 41.7367C56.2869 41.6647 56.2154 41.4936 56.0874 41.5233L42.811 44.5371C42.3454 44.6413 42.1336 43.9765 42.5696 43.7855L54.8558 38.3831C54.9666 38.3359 54.9272 38.1673 54.809 38.1747L41.1459 39.0578C40.6729 39.0875 40.5621 38.4054 41.0202 38.2863L54.1538 34.8955C54.2696 34.8633 54.2572 34.6946 54.139 34.6822L40.5104 33.4023C40.0424 33.3576 40.0424 32.668 40.5104 32.6234L54.1686 31.3435C54.2819 31.3311 54.2942 31.1698 54.1833 31.1401L41.0202 27.7443ZM98.0299 45.8096C98.0299 45.8096 98.0546 43.5772 97.8033 42.3221L107.883 48.935C108.289 49.2029 107.969 49.8354 107.516 49.6519L98.0299 45.8096ZM97.6629 50.4803C97.6629 50.4803 97.9117 48.6497 97.956 47.6476L104.36 53.6305C104.72 53.9654 104.289 54.5359 103.87 54.2779L97.6629 50.4803ZM96.2737 55.5281C96.2737 55.5281 96.722 54.4193 96.956 53.6405L99.9734 57.6762C100.274 58.078 99.7443 58.5766 99.3674 58.2467L96.2737 55.5281Z" fill="white"/>
</svg>
