<svg xmlns="http://www.w3.org/2000/svg" width="192" height="85" fill="none" viewBox="0 0 192 85">
    <path fill="#0067B3" d="M169.958 40.906c-3.186 0-6.373.797-9.029 1.86V20.453C160.929 9.031 151.635 0 140.481 0H20.448C9.295 0 0 9.297 0 20.453v41.438c0 11.422 9.295 20.453 20.448 20.453h119.768c5.045 0 9.56-1.86 13.278-4.781 3.983 4.515 9.825 7.437 16.464 7.437C182.174 85 192 75.172 192 62.953c0-12.219-9.826-22.047-22.042-22.047zm-29.477 36.125H20.448c-8.232 0-15.137-6.64-15.137-15.14V20.453c0-8.234 6.905-15.14 15.137-15.14h119.768c8.498 0 15.137 6.906 15.137 15.14V46.22c-4.515 3.984-7.702 9.828-7.702 16.468 0 3.72.797 7.172 2.656 10.094-2.39 2.922-6.108 4.25-9.826 4.25zm43.552-18.86l-16.73 16.735c-.266.266-1.062.266-1.328 0l-6.373-6.375-3.984-3.984c-.265-.266-.265-1.063 0-1.328l3.187-3.188c.266-.265 1.062-.265 1.328 0l.531.532 5.311 5.312c.266.266 1.062.266 1.328 0l12.216-12.219c.265-.265 1.062-.265 1.327 0l3.187 3.188c.531.531.531 1.062 0 1.328z"/>
    <path fill="#0067B3" d="M32.362 59h6.836l15.448-30.735v-5.629h-24.77v5.505h17.952v.248L32.362 59zm42.824.693c8.772.017 14.01-6.907 14.01-18.84 0-11.86-5.274-18.714-14.01-18.714s-13.991 6.836-14.009 18.715c0 11.914 5.238 18.839 14.01 18.839zm0-5.558c-4.527 0-7.368-4.545-7.35-13.281.017-8.665 2.84-13.228 7.35-13.228 4.528 0 7.351 4.563 7.369 13.228 0 8.736-2.823 13.28-7.369 13.28zm41.501-1.953c.018 4.226 2.699 7.83 7.688 7.83 4.972 0 7.706-3.604 7.689-7.83v-1.918c.017-4.261-2.646-7.83-7.689-7.83-4.918 0-7.67 3.604-7.688 7.83v1.918zm-18.483-20.81c.017 4.226 2.698 7.795 7.706 7.795 4.953 0 7.688-3.534 7.67-7.795v-1.918c.018-4.26-2.646-7.83-7.67-7.83-4.901 0-7.689 3.57-7.706 7.83v1.918zM99.802 59h4.456l25-36.364h-4.456L99.802 59zm21.52-8.736c.017-1.882.816-3.782 3.053-3.782 2.344 0 3.037 1.9 3.019 3.782v1.918c.018 1.882-.746 3.746-3.019 3.746-2.272 0-3.036-1.882-3.053-3.746v-1.918zm-18.449-20.81c.018-1.864.782-3.781 3.037-3.781 2.343 0 3.018 1.9 3 3.782v1.917c.018 1.882-.728 3.747-3 3.747-2.273 0-3.019-1.865-3.037-3.747v-1.918z"/>
</svg>
