<svg xmlns="http://www.w3.org/2000/svg" width="192" height="85" fill="none" viewBox="0 0 192 85">
    <g fill="#0067B3" clip-path="url(#clip0)">
        <path d="M170.344 40.906c-2.641 0-5.282.532-7.659 1.328v-21.78C162.685 9.03 153.442 0 142.349 0H20.336C9.243 0 0 9.297 0 20.453v41.438c0 11.422 9.243 20.453 20.336 20.453h121.749c4.754 0 8.98-1.594 12.413-4.25 3.961 4.25 9.507 6.906 15.846 6.906 12.148 0 21.92-9.828 21.92-22.047-.264-12.219-10.036-22.047-21.92-22.047zm-27.995 36.125H20.336c-8.187 0-15.054-6.64-15.054-15.14V20.453c0-8.234 6.867-15.14 15.054-15.14h121.749c8.451 0 15.054 6.906 15.054 15.14v24.703c-5.546 3.985-8.979 10.36-8.979 17.797 0 3.984 1.056 7.703 2.905 11.156-2.113 1.86-5.282 2.922-8.716 2.922zm41.2-17l-6.867 5.844c-.264.266-.264.531-.264.797l3.433 8.234c.265.531-.528 1.328-1.056.797l-7.659-5.047c-.264-.265-.528-.265-.792 0l-7.659 5.047c-.528.266-1.32-.266-1.056-.797l3.433-8.234c0-.266 0-.531-.264-.797l-2.641-2.39-3.698-3.454c-.528-.531-.264-1.328.529-1.328H166.646c.265 0 .529-.266.529-.531l3.169-7.969c.264-.531 1.056-.531 1.32 0l3.17 7.969c0 .266.264.531.528.531h7.659c.792.266 1.056 1.063.528 1.328z"/>
        <path d="M39.101 59.497c7.866 0 13.495-4.332 13.513-10.245-.018-4.545-3.374-8.345-7.6-9.055v-.249c3.675-.817 6.232-4.12 6.25-8.06-.018-5.594-5.167-9.749-12.163-9.749-7.049 0-12.198 4.137-12.18 9.748-.018 3.942 2.504 7.244 6.25 8.061v.249c-4.297.71-7.617 4.51-7.6 9.055-.017 5.913 5.594 10.245 13.53 10.245zm0-5.078c-4.119 0-6.782-2.273-6.747-5.628-.035-3.48 2.823-5.949 6.747-5.949 3.871 0 6.712 2.486 6.748 5.949-.036 3.355-2.681 5.628-6.748 5.628zm0-16.566c-3.373 0-5.788-2.184-5.752-5.345-.036-3.125 2.308-5.22 5.752-5.22 3.392 0 5.718 2.096 5.753 5.22-.035 3.179-2.432 5.345-5.753 5.345zm34.94 21.84c8.772.017 14.01-6.907 14.01-18.84 0-11.86-5.273-18.714-14.01-18.714-8.735 0-13.99 6.836-14.008 18.715 0 11.914 5.237 18.839 14.009 18.839zm0-5.558c-4.527 0-7.368-4.545-7.35-13.281.018-8.665 2.84-13.228 7.35-13.228 4.528 0 7.352 4.563 7.37 13.228 0 8.736-2.824 13.28-7.37 13.28zm41.502-1.953c.018 4.226 2.699 7.83 7.688 7.83 4.972 0 7.706-3.604 7.688-7.83v-1.918c.018-4.261-2.645-7.83-7.688-7.83-4.918 0-7.67 3.604-7.688 7.83v1.918zm-18.484-20.81c.018 4.226 2.699 7.795 7.706 7.795 4.954 0 7.688-3.534 7.671-7.795v-1.918c.017-4.26-2.646-7.83-7.671-7.83-4.9 0-7.688 3.57-7.706 7.83v1.918zM98.657 59h4.457l25-36.364h-4.457L98.657 59zm21.52-8.736c.018-1.882.817-3.782 3.054-3.782 2.344 0 3.036 1.9 3.018 3.782v1.918c.018 1.882-.745 3.746-3.018 3.746-2.273 0-3.036-1.882-3.054-3.746v-1.918zm-18.448-20.81c.018-1.864.781-3.781 3.036-3.781 2.344 0 3.019 1.9 3.001 3.782v1.917c.018 1.882-.728 3.747-3.001 3.747-2.273 0-3.018-1.865-3.036-3.747v-1.918z"/>
    </g>
    <defs>
        <clipPath id="clip0">
            <path fill="#fff" d="M0 0H192V85H0z"/>
        </clipPath>
    </defs>
</svg>
