<?xml version="1.0" encoding="utf-8"?>
<!-- Generator: Adobe Illustrator 24.0.2, SVG Export Plug-In . SVG Version: 6.00 Build 0)  -->
<svg version="1.1" id="Layer_1" xmlns="http://www.w3.org/2000/svg" xmlns:xlink="http://www.w3.org/1999/xlink" x="0px" y="0px"
	 viewBox="0 0 186.7 84.7" style="enable-background:new 0 0 186.7 84.7;" xml:space="preserve">
<style type="text/css">
	.st0{fill:#0067b2;}
</style>
<path class="st0" d="M164.4,40.9h-0.5V20.5C163.9,9,154.6,0,143.5,0H20.4C9.3,0,0,9.3,0,20.5v41.4c0,11.4,9.3,20.5,20.4,20.5h123.1
	c2.9,0,5.6-0.5,8.2-1.9c3.7,2.7,7.9,4.2,13,4.2c12.2,0,22-9.8,22-22C186.4,50.7,176.6,40.9,164.4,40.9L164.4,40.9z M143.5,77H20.4
	c-8.2,0-15.1-6.6-15.1-15.1V20.5c0-8.2,6.9-15.1,15.1-15.1h123.1c8.5,0,15.1,6.9,15.1,15.1v21.2c-9.3,2.7-15.9,11.2-15.9,21.2
	c0,5,1.9,9.8,4.8,13.5C146.1,76.8,144.8,77,143.5,77L143.5,77z M177.1,63.2l-3.2,3.2c-0.3,0.3-0.5,0.3-0.5,0l-5.3-5.3
	c-0.3-0.3-0.8,0-0.8,0.3v13.8c0,0.3-0.3,0.5-0.5,0.5h-4.5c-0.3,0-0.5-0.3-0.5-0.5V61.4c0-0.3-0.5-0.5-0.8-0.3l-2.6,2.7l-2.6,2.7
	c-0.3,0.3-0.5,0.3-0.5,0l-3.2-3.2c-0.3-0.3-0.3-0.5,0-0.5l6.6-6.6l5.3-5.3l0.3-0.3c0.3-0.3,0.5-0.3,0.5,0l12.2,12.2
	C177.1,62.7,177.1,63,177.1,63.2L177.1,63.2z"/>
<path class="st0" d="M39.2,54.7c3.2,0,5.6-1.1,7.1-3.3c1.5-2.2,2.3-5.1,2.3-8.9c-0.9,1-2.1,1.9-3.8,2.7c-1.6,0.9-3.4,1.3-5.4,1.3
	c-3.3,0-6-1.1-8.2-3.3c-2.2-2.2-3.3-5.1-3.3-8.7c0-3.6,1.2-6.5,3.6-8.7c2.4-2.2,5.4-3.3,9-3.3c5.8,0,9.9,2.6,12.1,7.8
	c1.3,3,1.9,6.4,1.9,10.1c0,3.8-0.4,6.9-1.2,9.4c-0.8,2.5-1.9,4.5-3.3,5.9c-2.7,2.9-6,4.3-10,4.3c-3.9,0-7.5-1.2-10.7-3.7l3.1-4.5
	c0.8,0.7,1.9,1.3,3.2,1.9C36.9,54.4,38.1,54.7,39.2,54.7z M40.3,41.1c2.1,0,3.9-0.6,5.3-1.7c1.4-1.2,2.1-2.7,2.1-4.5
	c0-1.9-0.7-3.5-2-4.8c-1.4-1.3-3.1-2-5.1-2c-2,0-3.7,0.6-5,1.8c-1.3,1.2-2,2.7-2,4.6c0,1.9,0.6,3.5,1.8,4.7
	C36.5,40.5,38.2,41.1,40.3,41.1z"/>
<path class="st0" d="M76.8,60.7c8.8,0,14-6.9,14-18.8c0-11.9-5.3-18.7-14-18.7c-8.7,0-14,6.8-14,18.7C62.8,53.8,68,60.7,76.8,60.7
	L76.8,60.7z M76.8,55.1c-4.5,0-7.4-4.5-7.3-13.3c0-8.7,2.8-13.2,7.3-13.2c4.5,0,7.4,4.6,7.4,13.2C84.2,50.6,81.4,55.1,76.8,55.1
	L76.8,55.1z M112.3,60.7c8.8,0,14-6.9,14-18.8c0-11.9-5.3-18.7-14-18.7s-14,6.8-14,18.7C98.3,53.8,103.5,60.7,112.3,60.7z
	 M112.3,55.1c-4.5,0-7.4-4.5-7.4-13.3c0-8.7,2.8-13.2,7.4-13.2c4.5,0,7.4,4.6,7.4,13.2C119.7,50.6,116.9,55.1,112.3,55.1L112.3,55.1
	z"/>
</svg>
