<svg width="20" height="22" viewBox="0 0 20 22" fill="none" xmlns="http://www.w3.org/2000/svg">
<path d="M19.8542 15.5458L17.655 11.5866V7.46429C17.655 3.34847 14.221 0 10.0001 0C5.77924 0 2.34529 3.34847 2.34529 7.46429V11.5866L0.145928 15.5457C0.0461893 15.7253 -0.00400971 15.927 0.000250212 16.1311C0.00451013 16.3353 0.0630827 16.5348 0.170229 16.7102C0.277375 16.8856 0.429418 17.0309 0.611462 17.1318C0.793506 17.2327 0.999305 17.2857 1.20869 17.2857H5.58682C5.5746 17.4163 5.56844 17.5474 5.56833 17.6786C5.56833 18.8247 6.03525 19.9239 6.86636 20.7343C7.69748 21.5447 8.82471 22 10.0001 22C11.1755 22 12.3027 21.5447 13.1338 20.7343C13.9649 19.9239 14.4318 18.8247 14.4318 17.6786C14.4318 17.546 14.4253 17.4152 14.4134 17.2857H18.7915C19.0009 17.2857 19.2066 17.2326 19.3886 17.1317C19.5707 17.0308 19.7227 16.8856 19.8298 16.7102C19.9369 16.5348 19.9955 16.3352 19.9998 16.1311C20.004 15.927 19.9538 15.7253 19.8541 15.5458H19.8542ZM12.8203 17.6786C12.8207 18.0565 12.7411 18.4304 12.5866 18.777C12.4321 19.1236 12.206 19.4354 11.9224 19.693C11.6388 19.9506 11.3039 20.1484 10.9384 20.2742C10.5729 20.3999 10.1847 20.4508 9.79817 20.4238C9.4116 20.3967 9.0349 20.2922 8.69158 20.1169C8.34826 19.9415 8.04569 19.699 7.80275 19.4046C7.55981 19.1101 7.38173 18.77 7.2796 18.4054C7.17748 18.0409 7.15351 17.6597 7.20919 17.2857H12.791C12.8104 17.4158 12.8202 17.5471 12.8203 17.6786ZM1.88509 15.7143L3.95684 11.9848V7.46429C3.95684 5.9014 4.59354 4.40253 5.72688 3.29741C6.86022 2.19228 8.39736 1.57143 10.0001 1.57143C11.6029 1.57143 13.1401 2.19228 14.2734 3.29741C15.4067 4.40253 16.0434 5.9014 16.0434 7.46429V11.9848L18.1151 15.7143H1.88509Z" fill="#0067B2"/>
</svg>
