<svg width="24" height="24" viewBox="0 0 24 24" fill="none" xmlns="http://www.w3.org/2000/svg">
<path d="M11.9985 13.9983C12.5289 13.9983 13.0375 13.7876 13.4125 13.4125C13.7876 13.0375 13.9983 12.5289 13.9983 11.9985C13.9983 11.4681 13.7876 10.9595 13.4125 10.5845C13.0375 10.2094 12.5289 9.99875 11.9985 9.99875C11.4681 9.99875 10.9595 10.2094 10.5845 10.5845C10.2094 10.9595 9.99875 11.4681 9.99875 11.9985C9.99875 12.5289 10.2094 13.0375 10.5845 13.4125C10.9595 13.7876 11.4681 13.9983 11.9985 13.9983ZM4.99937 11.9985C4.99937 10.1422 5.73678 8.36196 7.04937 7.04937C8.36196 5.73678 10.1422 4.99937 11.9985 4.99937C13.8548 4.99937 15.635 5.73678 16.9476 7.04937C18.2602 8.36196 18.9976 10.1422 18.9976 11.9985C18.9976 13.8548 18.2602 15.635 16.9476 16.9476C15.635 18.2602 13.8548 18.9976 11.9985 18.9976C10.1422 18.9976 8.36196 18.2602 7.04937 16.9476C5.73678 15.635 4.99937 13.8548 4.99937 11.9985ZM11.9985 6.99913C10.6726 6.99913 9.40097 7.52584 8.46341 8.46341C7.52584 9.40097 6.99913 10.6726 6.99913 11.9985C6.99913 13.3244 7.52584 14.596 8.46341 15.5336C9.40097 16.4712 10.6726 16.9979 11.9985 16.9979C13.3244 16.9979 14.596 16.4712 15.5336 15.5336C16.4712 14.596 16.9979 13.3244 16.9979 11.9985C16.9979 10.6726 16.4712 9.40097 15.5336 8.46341C14.596 7.52584 13.3244 6.99913 11.9985 6.99913ZM0 11.9995C0 5.37233 5.37233 0 11.9995 0C18.6267 0 24 5.37233 24 11.9995C24 18.6267 18.6277 24 11.9995 24C5.37233 24 0 18.6277 0 11.9985V11.9995ZM11.9995 1.99975C6.47719 1.99975 1.99975 6.47719 1.99975 11.9995C1.99975 17.5228 6.47719 22.0002 11.9995 22.0002C17.5228 22.0002 22.0002 17.5228 22.0002 11.9995C22.0002 6.47719 17.5228 1.99975 11.9985 1.99975H11.9995Z" fill="#126CAB"/>
</svg>
