<svg width="29" height="29" viewBox="0 0 29 29" fill="none" xmlns="http://www.w3.org/2000/svg">
<path d="M7.434 1.42819C8.66156 0.498521 10.1601 -0.00290289 11.7 0.000795006C12.2318 -0.0111304 12.758 0.111276 13.23 0.356688C13.7019 0.6021 14.1043 0.962588 14.4 1.40479C14.6957 0.962588 15.0981 0.6021 15.57 0.356688C16.042 0.111276 16.5682 -0.0111304 17.1 0.000795006C18.6399 -0.00290289 20.1384 0.498521 21.366 1.42819C22.311 2.16259 23.04 3.17959 23.2974 4.40899C23.8878 4.45399 24.4278 4.69879 24.8814 5.06779C25.569 5.62579 26.0694 6.46279 26.3844 7.34839C26.8776 8.72539 27.0108 10.4804 26.4996 11.9744C26.6292 12.0356 26.757 12.1076 26.8812 12.1904C27.3762 12.5198 27.7524 12.9914 28.0296 13.5476C28.575 14.6366 28.8 16.1558 28.8 18.0008C28.8 20.0546 28.017 21.4334 27.0234 22.2848C26.4739 22.7559 25.8255 23.0973 25.1262 23.2838C24.9462 24.2882 24.4422 25.451 23.652 26.4374C22.626 27.7244 21.0348 28.8008 18.9 28.8008C17.208 28.8008 15.8616 27.8648 14.9868 26.9468C14.7777 26.7276 14.5817 26.4962 14.4 26.2538C14.2183 26.4962 14.0224 26.7276 13.8132 26.9468C12.9384 27.8648 11.5938 28.8008 9.9 28.8008C7.7652 28.8008 6.1758 27.7244 5.148 26.4374C4.40957 25.5204 3.9038 24.4385 3.6738 23.2838C2.97447 23.0973 2.32605 22.7559 1.7766 22.2848C0.783 21.4334 0 20.0528 0 18.0008C0 16.1558 0.2268 14.6348 0.7704 13.5476C1.02803 13.0021 1.42395 12.5336 1.9188 12.1886C2.04037 12.1081 2.16794 12.0371 2.3004 11.9762C1.7892 10.4786 1.9224 8.72539 2.4156 7.34839C2.7306 6.46279 3.231 5.62579 3.9186 5.06779C4.3722 4.69879 4.9122 4.45579 5.5026 4.40899C5.7618 3.17959 6.4908 2.16259 7.4358 1.42819H7.434ZM13.5 4.50079V4.48279L13.4964 4.39279C13.4699 3.92354 13.3766 3.46047 13.2192 3.0176C13.1072 2.68326 12.9164 2.38077 12.663 2.1356C12.3971 1.90408 12.0521 1.78414 11.7 1.80079C10.5605 1.79689 9.4508 2.16468 8.5392 2.84839C7.704 3.49819 7.2 4.37839 7.2 5.40079C7.19989 5.54333 7.16593 5.68379 7.10092 5.81063C7.03591 5.93747 6.9417 6.04706 6.82605 6.13037C6.7104 6.21368 6.57662 6.26833 6.43572 6.28982C6.29482 6.31131 6.15083 6.29903 6.0156 6.25399C5.6772 6.14239 5.3748 6.20539 5.0526 6.46459C4.6998 6.75259 4.356 7.26379 4.1094 7.9532C3.6072 9.3608 3.6594 11.0654 4.3488 12.1022C4.44726 12.2499 4.49986 12.4233 4.5 12.6008H5.85C6.92413 12.6008 7.95426 13.0275 8.71378 13.787C9.4733 14.5465 9.9 15.5767 9.9 16.6508V17.2538C10.5005 17.4661 11.0066 17.8839 11.3289 18.4332C11.6511 18.9826 11.7688 19.6282 11.6611 20.256C11.5534 20.8837 11.2273 21.4532 10.7403 21.8637C10.2533 22.2742 9.63692 22.4994 9 22.4994C8.36308 22.4994 7.74667 22.2742 7.25971 21.8637C6.77274 21.4532 6.44659 20.8837 6.33888 20.256C6.23118 19.6282 6.34886 18.9826 6.67113 18.4332C6.9934 17.8839 7.49951 17.4661 8.1 17.2538V16.6508C8.1 15.4088 7.092 14.4008 5.85 14.4008H2.7C2.5924 14.4006 2.4857 14.3811 2.385 14.3432L2.3796 14.354C2.0232 15.065 1.8 16.2458 1.8 18.0008C1.8 19.547 2.367 20.4182 2.9484 20.9168C3.573 21.4532 4.266 21.6008 4.5 21.6008C4.73869 21.6008 4.96761 21.6956 5.1364 21.8644C5.30518 22.0332 5.4 22.2621 5.4 22.5008C5.4 23.1632 5.76 24.3206 6.552 25.3142C7.3242 26.2772 8.4348 27.0008 9.9 27.0008C10.908 27.0008 11.8116 26.4374 12.51 25.7048C12.8538 25.3448 13.122 24.9722 13.2966 24.6662C13.3761 24.5305 13.4441 24.3884 13.5 24.2414V9.90079H11.547C11.3347 10.5013 10.9169 11.0074 10.3676 11.3297C9.8182 11.6519 9.17259 11.7696 8.54484 11.6619C7.91709 11.5542 7.34763 11.2281 6.93711 10.7411C6.52658 10.2541 6.30141 9.63771 6.30141 9.00079C6.30141 8.36388 6.52658 7.74746 6.93711 7.2605C7.34763 6.77354 7.91709 6.44738 8.54484 6.33968C9.17259 6.23197 9.8182 6.34966 10.3676 6.67193C10.9169 6.9942 11.3347 7.5003 11.547 8.10079H13.5V4.50079ZM15.3 22.499V24.2396C15.3559 24.3866 15.4239 24.5287 15.5034 24.6644C15.6798 24.9704 15.9462 25.343 16.2882 25.703C16.9884 26.4356 17.8938 26.999 18.9 26.999C20.3652 26.999 21.4758 26.2754 22.248 25.3124C23.04 24.3188 23.4 23.1614 23.4 22.499C23.4 22.2603 23.4948 22.0314 23.6636 21.8626C23.8324 21.6938 24.0613 21.599 24.3 21.599C24.534 21.599 25.227 21.4514 25.8516 20.915C26.433 20.4164 27 19.5452 27 17.999C27 16.244 26.775 15.065 26.4204 14.3522C26.3018 14.0868 26.1156 13.8571 25.8804 13.6862C25.6777 13.5566 25.4404 13.492 25.2 13.5008C25.0372 13.5007 24.8775 13.4565 24.7378 13.3728C24.5982 13.2891 24.4839 13.1691 24.407 13.0256C24.3302 12.8821 24.2937 12.7204 24.3015 12.5578C24.3093 12.3952 24.361 12.2377 24.4512 12.1022C25.1424 11.0654 25.1928 9.3608 24.6906 7.9532C24.444 7.26379 24.1002 6.75079 23.7474 6.46459C23.4252 6.20539 23.1228 6.14059 22.7844 6.25399C22.6492 6.29903 22.5052 6.31131 22.3643 6.28982C22.2234 6.26833 22.0896 6.21368 21.9739 6.13037C21.8583 6.04706 21.7641 5.93747 21.6991 5.81063C21.6341 5.68379 21.6001 5.54333 21.6 5.40079C21.6 4.37839 21.096 3.49819 20.259 2.84839C19.3479 2.16505 18.2389 1.79728 17.1 1.80079C16.7479 1.78414 16.4029 1.90408 16.137 2.1356C15.8828 2.38048 15.6914 2.68302 15.579 3.0176C15.4076 3.48776 15.3134 3.98255 15.3 4.48279V20.7008H16.65C17.892 20.7008 18.9 19.6928 18.9 18.4508V15.1478C18.2995 14.9355 17.7934 14.5177 17.4711 13.9684C17.1489 13.419 17.0312 12.7734 17.1389 12.1456C17.2466 11.5179 17.5727 10.9484 18.0597 10.5379C18.5467 10.1274 19.1631 9.90221 19.8 9.90221C20.4369 9.90221 21.0533 10.1274 21.5403 10.5379C22.0273 10.9484 22.3534 11.5179 22.4611 12.1456C22.5688 12.7734 22.4511 13.419 22.1289 13.9684C21.8066 14.5177 21.3005 14.9355 20.7 15.1478V18.4508C20.7 19.5249 20.2733 20.5551 19.5138 21.3146C18.7543 22.0741 17.7241 22.5008 16.65 22.5008H15.3V22.499ZM8.1 9.00079C8.1 9.23949 8.19482 9.46841 8.3636 9.63719C8.53239 9.80597 8.7613 9.90079 9 9.90079C9.23869 9.90079 9.46761 9.80597 9.6364 9.63719C9.80518 9.46841 9.9 9.23949 9.9 9.00079C9.9 8.7621 9.80518 8.53318 9.6364 8.3644C9.46761 8.19562 9.23869 8.10079 9 8.10079C8.7613 8.10079 8.53239 8.19562 8.3636 8.3644C8.19482 8.53318 8.1 8.7621 8.1 9.00079ZM19.8 13.5008C20.0387 13.5008 20.2676 13.406 20.4364 13.2372C20.6052 13.0684 20.7 12.8395 20.7 12.6008C20.7 12.3621 20.6052 12.1332 20.4364 11.9644C20.2676 11.7956 20.0387 11.7008 19.8 11.7008C19.5613 11.7008 19.3324 11.7956 19.1636 11.9644C18.9948 12.1332 18.9 12.3621 18.9 12.6008C18.9 12.8395 18.9948 13.0684 19.1636 13.2372C19.3324 13.406 19.5613 13.5008 19.8 13.5008ZM9 18.9008C8.7613 18.9008 8.53239 18.9956 8.3636 19.1644C8.19482 19.3332 8.1 19.5621 8.1 19.8008C8.1 20.0395 8.19482 20.2684 8.3636 20.4372C8.53239 20.606 8.7613 20.7008 9 20.7008C9.23869 20.7008 9.46761 20.606 9.6364 20.4372C9.80518 20.2684 9.9 20.0395 9.9 19.8008C9.9 19.5621 9.80518 19.3332 9.6364 19.1644C9.46761 18.9956 9.23869 18.9008 9 18.9008Z" fill="url(#paint0_linear_7158_3155)"/>
<defs>
<linearGradient id="paint0_linear_7158_3155" x1="-1.44945" y1="6.38839" x2="27.4804" y2="6.87645" gradientUnits="userSpaceOnUse">
<stop stop-color="#FF6454"/>
<stop offset="1" stop-color="#FFA67B"/>
</linearGradient>
</defs>
</svg>
