<svg width="20" height="29" viewBox="0 0 20 29" fill="none" xmlns="http://www.w3.org/2000/svg">
<path d="M5.00502 22.7857H14.9952V24.8571H5.00502V22.7857ZM7.00305 26.9286H12.9972V29H7.00305V26.9286ZM10.0001 0C7.35055 0 4.80951 1.0912 2.93598 3.03354C1.06246 4.97588 0.00992409 7.61026 0.00992409 10.3571C-0.0576353 11.8624 0.220491 13.3627 0.821422 14.7348C1.42235 16.1068 2.32892 17.3114 3.46653 18.2493C4.46555 19.2125 5.00502 19.7614 5.00502 20.7143H7.00305C7.00305 18.8086 5.89414 17.7418 4.8152 16.7164C3.88148 15.9751 3.13732 15.0078 2.64791 13.8991C2.1585 12.7905 1.93877 11.5743 2.00796 10.3571C2.00796 8.15963 2.84999 6.05213 4.34881 4.49826C5.84763 2.94439 7.88046 2.07143 10.0001 2.07143C12.1198 2.07143 14.1526 2.94439 15.6514 4.49826C17.1502 6.05213 17.9923 8.15963 17.9923 10.3571C18.0603 11.5752 17.839 12.7919 17.3478 13.9007C16.8567 15.0094 16.1106 15.9763 15.175 16.7164C14.1061 17.7521 12.9972 18.7879 12.9972 20.7143H14.9952C14.9952 19.7614 15.5247 19.2125 16.5337 18.2389C17.6705 17.3026 18.5767 16.0999 19.1776 14.7296C19.7785 13.3594 20.0571 11.8608 19.9903 10.3571C19.9903 8.99702 19.7319 7.65022 19.2298 6.39364C18.7278 5.13705 17.9919 3.99529 17.0642 3.03354C16.1366 2.07179 15.0353 1.30889 13.8232 0.788391C12.6111 0.267895 11.312 0 10.0001 0Z" fill="url(#paint0_linear_7158_3226)"/>
<defs>
<linearGradient id="paint0_linear_7158_3226" x1="-1.00656" y1="6.43257" x2="19.0866" y2="6.66636" gradientUnits="userSpaceOnUse">
<stop stop-color="#FF6454"/>
<stop offset="1" stop-color="#FFA67B"/>
</linearGradient>
</defs>
</svg>
