<svg width="16" height="16" viewBox="0 0 16 16" fill="none" xmlns="http://www.w3.org/2000/svg">
<path d="M10.8546 7.14689C10.9012 7.19334 10.9381 7.24851 10.9633 7.30926C10.9886 7.37001 11.0015 7.43513 11.0015 7.50089C11.0015 7.56666 10.9886 7.63178 10.9633 7.69253C10.9381 7.75327 10.9012 7.80845 10.8546 7.85489L7.85463 10.8549C7.80819 10.9015 7.75301 10.9384 7.69227 10.9636C7.63152 10.9888 7.5664 11.0018 7.50063 11.0018C7.43486 11.0018 7.36974 10.9888 7.309 10.9636C7.24825 10.9384 7.19308 10.9015 7.14663 10.8549L5.64663 9.35489C5.60014 9.30841 5.56327 9.25322 5.53811 9.19248C5.51295 9.13174 5.5 9.06664 5.5 9.00089C5.5 8.93515 5.51295 8.87005 5.53811 8.80931C5.56327 8.74857 5.60014 8.69338 5.64663 8.64689C5.74052 8.55301 5.86786 8.50026 6.00063 8.50026C6.06638 8.50026 6.13148 8.51321 6.19222 8.53837C6.25295 8.56353 6.30814 8.60041 6.35463 8.64689L7.50063 9.79389L10.1466 7.14689C10.1931 7.10033 10.2483 7.06339 10.309 7.03818C10.3697 7.01297 10.4349 7 10.5006 7C10.5664 7 10.6315 7.01297 10.6923 7.03818C10.753 7.06339 10.8082 7.10033 10.8546 7.14689Z" fill="#F17E56"/>
<path d="M3.5 0C3.63261 0 3.75979 0.0526784 3.85355 0.146447C3.94732 0.240215 4 0.367392 4 0.5V1H12V0.5C12 0.367392 12.0527 0.240215 12.1464 0.146447C12.2402 0.0526784 12.3674 0 12.5 0C12.6326 0 12.7598 0.0526784 12.8536 0.146447C12.9473 0.240215 13 0.367392 13 0.5V1H14C14.5304 1 15.0391 1.21071 15.4142 1.58579C15.7893 1.96086 16 2.46957 16 3V14C16 14.5304 15.7893 15.0391 15.4142 15.4142C15.0391 15.7893 14.5304 16 14 16H2C1.46957 16 0.960859 15.7893 0.585786 15.4142C0.210714 15.0391 0 14.5304 0 14V3C0 2.46957 0.210714 1.96086 0.585786 1.58579C0.960859 1.21071 1.46957 1 2 1H3V0.5C3 0.367392 3.05268 0.240215 3.14645 0.146447C3.24021 0.0526784 3.36739 0 3.5 0V0ZM1 4V14C1 14.2652 1.10536 14.5196 1.29289 14.7071C1.48043 14.8946 1.73478 15 2 15H14C14.2652 15 14.5196 14.8946 14.7071 14.7071C14.8946 14.5196 15 14.2652 15 14V4H1Z" fill="#F17E56"/>
</svg>
