<svg width="18" height="18" viewBox="0 0 18 18" fill="none" xmlns="http://www.w3.org/2000/svg">
<path d="M10.8525 11.31L8.25 9.75V5.25H9.375V9.1875L11.685 10.56C11.3775 10.77 11.0925 11.025 10.8525 11.31ZM9.81 14.94C9.54 14.9775 9.2775 15 9 15C5.685 15 3 12.315 3 9C3 5.685 5.685 3 9 3C12.315 3 15 5.685 15 9C15 9.2775 14.9775 9.54 14.94 9.81C15.4575 9.885 15.9375 10.05 16.38 10.29C16.455 9.87 16.5 9.4425 16.5 9C16.5 4.875 13.125 1.5 9 1.5C4.875 1.5 1.5 4.875 1.5 9C1.5 13.125 4.8525 16.5 9 16.5C9.4425 16.5 9.87 16.455 10.29 16.38C10.05 15.9375 9.885 15.4575 9.81 14.94ZM15.84 11.595L14.25 13.1925L12.66 11.6025L11.6025 12.66L13.1925 14.25L11.6025 15.84L12.66 16.905L14.25 15.3075L15.84 16.905L16.905 15.84L15.3075 14.25L16.905 12.66L15.84 11.595Z" fill="#8C8A8A"/>
</svg>
