<svg width="18" height="18" viewBox="0 0 18 18" fill="none" xmlns="http://www.w3.org/2000/svg">
<path d="M17.625 12.75L13.875 16.5L11.25 13.875L12.375 12.75L13.875 14.25L16.5 11.625L17.625 12.75ZM9.825 14.925C9.525 15 9.3 15 9 15C5.7 15 3 12.3 3 9C3 5.7 5.7 3 9 3C12.3 3 15 5.7 15 9C15 9.3 15 9.525 14.925 9.825C15.45 9.9 15.9 10.05 16.35 10.275C16.425 9.825 16.5 9.45 16.5 9C16.5 4.875 13.125 1.5 9 1.5C4.875 1.5 1.5 4.875 1.5 9C1.5 13.125 4.875 16.5 9 16.5C9.45 16.5 9.9 16.425 10.275 16.35C10.05 15.975 9.9 15.45 9.825 14.925ZM11.7 10.575L9.375 9.225V5.25H8.25V9.75L10.875 11.325C11.1 11.025 11.4 10.8 11.7 10.575Z" fill="#0067B2"/>
</svg>
