<svg width="14" height="15" viewBox="0 0 14 15" fill="none" xmlns="http://www.w3.org/2000/svg">
<path d="M10.0938 7.5C10.0938 7.6409 10.0378 7.77602 9.93815 7.87565C9.83853 7.97528 9.7034 8.03125 9.5625 8.03125H4.25C4.10911 8.03125 3.97398 7.97528 3.87435 7.87565C3.77472 7.77602 3.71875 7.6409 3.71875 7.5C3.71875 7.3591 3.77472 7.22398 3.87435 7.12435C3.97398 7.02472 4.10911 6.96875 4.25 6.96875H9.5625C9.7034 6.96875 9.83853 7.02472 9.93815 7.12435C10.0378 7.22398 10.0938 7.3591 10.0938 7.5ZM13.8125 7.5C13.8125 8.86593 13.4075 10.2012 12.6486 11.3369C11.8897 12.4726 10.8111 13.3578 9.54916 13.8805C8.28721 14.4033 6.89859 14.54 5.55891 14.2735C4.21923 14.0071 2.98865 13.3493 2.0228 12.3835C1.05694 11.4176 0.399184 10.187 0.132705 8.84734C-0.133774 7.50766 0.00299239 6.11904 0.52571 4.85709C1.04843 3.59514 1.93362 2.51653 3.06935 1.75766C4.20507 0.998794 5.54033 0.59375 6.90625 0.59375C8.73731 0.595684 10.4928 1.32393 11.7876 2.61868C13.0823 3.91343 13.8106 5.66894 13.8125 7.5ZM12.75 7.5C12.75 6.34422 12.4073 5.21439 11.7652 4.25339C11.123 3.29239 10.2104 2.54338 9.14256 2.10108C8.07475 1.65878 6.89977 1.54305 5.76619 1.76854C4.63262 1.99402 3.59136 2.55058 2.7741 3.36784C1.95683 4.18511 1.40027 5.22636 1.17479 6.35994C0.949307 7.49352 1.06503 8.6685 1.50733 9.73631C1.94963 10.8041 2.69864 11.7168 3.65964 12.3589C4.62064 13.001 5.75047 13.3438 6.90625 13.3438C8.45557 13.342 9.94093 12.7257 11.0365 11.6302C12.132 10.5347 12.7482 9.04932 12.75 7.5Z" fill="#FF6857"/>
</svg>
