<svg width="248px" xmlns="http://www.w3.org/2000/svg" viewBox="0 0 241.45 56.56"><defs><style>.cls-1{fill:#0461a5;}.cls-2{fill:#498dc1;}</style></defs><g id="Layer_2" data-name="Layer 2"><g id="Layer_1-2" data-name="Layer 1"><path class="cls-1" d="M6.72,26.05v4.71H15v3.32H6.72v6.49H2.59V22.74H16.07v3.31Z"/><path class="cls-1" d="M20.14,22.74h4.13V37.21h8.94v3.36H20.14Z"/><path class="cls-1" d="M50.6,37.26v3.31H36.8V22.74H50.27v3.31H40.9v3.87h8.28v3.21H40.9v4.13Z"/><path class="cls-1" d="M55.16,22.74h4.13V40.57H55.16Z"/><path class="cls-1" d="M66.56,40.3a9.45,9.45,0,0,1-3.17-1.49l1.4-3.1a9.47,9.47,0,0,0,2.72,1.35,10.58,10.58,0,0,0,3.16.5,5,5,0,0,0,2.6-.52,1.58,1.58,0,0,0,.84-1.39,1.33,1.33,0,0,0-.5-1,3.73,3.73,0,0,0-1.27-.68c-.52-.17-1.22-.35-2.1-.56a27.32,27.32,0,0,1-3.34-1,5.46,5.46,0,0,1-2.23-1.55A4.18,4.18,0,0,1,63.74,28a5,5,0,0,1,.84-2.82,5.72,5.72,0,0,1,2.54-2,10.4,10.4,0,0,1,4.14-.73,13.73,13.73,0,0,1,3.33.4A10.45,10.45,0,0,1,77.45,24l-1.28,3.14a9.85,9.85,0,0,0-4.94-1.4,4.59,4.59,0,0,0-2.56.56,1.7,1.7,0,0,0-.83,1.47,1.45,1.45,0,0,0,1,1.37,15.68,15.68,0,0,0,2.92.88,29.22,29.22,0,0,1,3.33,1,5.64,5.64,0,0,1,2.23,1.53,4.11,4.11,0,0,1,.93,2.83,4.86,4.86,0,0,1-.85,2.79,5.84,5.84,0,0,1-2.56,2,10.48,10.48,0,0,1-4.15.74A14.65,14.65,0,0,1,66.56,40.3Z"/><path class="cls-1" d="M85.91,39.69a8.88,8.88,0,0,1-3.46-3.28,9.58,9.58,0,0,1,0-9.5,8.83,8.83,0,0,1,3.46-3.29,10.3,10.3,0,0,1,5-1.18,10.47,10.47,0,0,1,4.19.81,8.41,8.41,0,0,1,3.14,2.34L95.55,28A5.69,5.69,0,0,0,91.07,26a5.87,5.87,0,0,0-2.95.73,5.19,5.19,0,0,0-2,2,6.42,6.42,0,0,0,0,5.91,5.12,5.12,0,0,0,2,2,5.87,5.87,0,0,0,2.95.73,5.65,5.65,0,0,0,4.48-2.11l2.65,2.44A8.17,8.17,0,0,1,95,40.06a10.49,10.49,0,0,1-4.2.82A10.27,10.27,0,0,1,85.91,39.69Z"/><path class="cls-1" d="M118.6,22.74V40.57h-4.12V33.26h-8.1v7.31h-4.13V22.74h4.13v7h8.1v-7Z"/><path class="cls-1" d="M137.91,37.26v3.31H124.1V22.74h13.48v3.31h-9.37v3.87h8.27v3.21h-8.27v4.13Z"/><path class="cls-1" d="M153.83,40.57l-3.44-5h-3.8v5h-4.12V22.74h7.71a9.87,9.87,0,0,1,4.12.79A6.15,6.15,0,0,1,157,25.77a6.26,6.26,0,0,1,.94,3.44,5.82,5.82,0,0,1-3.67,5.63l4,5.73Zm-1.05-13.66A4.29,4.29,0,0,0,150,26.1h-3.37v6.22H150a4.24,4.24,0,0,0,2.82-.82,2.8,2.8,0,0,0,1-2.29A2.8,2.8,0,0,0,152.78,26.91Z"/><path class="cls-2" d="M54.43,53.51a3.33,3.33,0,0,1-1.35-.81l.35-.69a3.38,3.38,0,0,0,1.23.75,4.59,4.59,0,0,0,1.59.28A2.89,2.89,0,0,0,58,52.62a1.28,1.28,0,0,0,.58-1.09,1.12,1.12,0,0,0-.31-.82,2.21,2.21,0,0,0-.77-.47,12.49,12.49,0,0,0-1.25-.36,12.31,12.31,0,0,1-1.54-.47,2.54,2.54,0,0,1-1-.69,1.85,1.85,0,0,1-.4-1.26,2.08,2.08,0,0,1,.34-1.17,2.27,2.27,0,0,1,1-.85,4.16,4.16,0,0,1,1.76-.32,5.36,5.36,0,0,1,1.43.2,4,4,0,0,1,1.22.56l-.31.72a3.87,3.87,0,0,0-1.15-.53,4.19,4.19,0,0,0-1.19-.18,2.79,2.79,0,0,0-1.7.43,1.36,1.36,0,0,0-.56,1.12,1.09,1.09,0,0,0,.31.82,2.06,2.06,0,0,0,.78.48q.46.16,1.26.36a11.47,11.47,0,0,1,1.52.46,2.55,2.55,0,0,1,1,.68,1.86,1.86,0,0,1,.4,1.24,2.15,2.15,0,0,1-.35,1.18A2.37,2.37,0,0,1,58,53.5a4.42,4.42,0,0,1-1.77.31A5.56,5.56,0,0,1,54.43,53.51Z"/><path class="cls-2" d="M68.41,53.25a4,4,0,0,1-1.6-1.56,4.56,4.56,0,0,1,0-4.45,4.07,4.07,0,0,1,1.6-1.56,4.77,4.77,0,0,1,2.3-.56,4.63,4.63,0,0,1,1.76.32,3.68,3.68,0,0,1,1.36.92l-.57.58a3.39,3.39,0,0,0-2.53-1,3.7,3.7,0,0,0-1.84.46,3.38,3.38,0,0,0-1.3,1.27,3.56,3.56,0,0,0-.47,1.81,3.53,3.53,0,0,0,.47,1.8,3.38,3.38,0,0,0,1.3,1.27,3.7,3.7,0,0,0,1.84.47,3.38,3.38,0,0,0,2.53-1l.57.57a3.69,3.69,0,0,1-1.37.94,4.83,4.83,0,0,1-1.76.32A4.6,4.6,0,0,1,68.41,53.25Z"/><path class="cls-2" d="M88.49,45.19v8.55H87.6V49.8H82.25v3.94h-.91V45.19h.91V49H87.6V45.19Z"/><path class="cls-2" d="M98.29,53.24a4.1,4.1,0,0,1-1.62-1.55,4.56,4.56,0,0,1,0-4.45,4.17,4.17,0,0,1,1.62-1.55,4.64,4.64,0,0,1,2.3-.57,4.73,4.73,0,0,1,2.29.56,4.14,4.14,0,0,1,1.6,1.56,4.49,4.49,0,0,1,0,4.45,4.07,4.07,0,0,1-1.6,1.56,4.94,4.94,0,0,1-4.59,0Zm4.13-.69a3.39,3.39,0,0,0,1.28-1.27,3.81,3.81,0,0,0,0-3.63,3.39,3.39,0,0,0-1.28-1.27,4,4,0,0,0-3.67,0,3.45,3.45,0,0,0-1.3,1.27,3.74,3.74,0,0,0,0,3.63,3.45,3.45,0,0,0,1.3,1.27,3.89,3.89,0,0,0,3.67,0Z"/><path class="cls-2" d="M112.67,45.19h.91V53h4.78v.78h-5.69Z"/><path class="cls-2" d="M130.83,51.46h-4.76l-1,2.28h-.94L128,45.19h.89l3.91,8.55h-.95Zm-.33-.74-2.05-4.59-2,4.59Z"/><path class="cls-2" d="M145.64,53.74,143.69,51a5.12,5.12,0,0,1-.69,0h-2.29v2.71h-.9V45.19H143a3.87,3.87,0,0,1,2.57.78,2.66,2.66,0,0,1,.93,2.15,2.76,2.76,0,0,1-.51,1.69,2.8,2.8,0,0,1-1.45,1l2.09,2.93Zm-.72-4a2.21,2.21,0,0,0,0-3.17A3,3,0,0,0,143,46h-2.27v4.29H143A3,3,0,0,0,144.92,49.7Z"/><path class="cls-2" d="M154.74,53.51a3.4,3.4,0,0,1-1.35-.81l.36-.69a3.38,3.38,0,0,0,1.23.75,4.55,4.55,0,0,0,1.59.28,2.91,2.91,0,0,0,1.72-.42,1.3,1.3,0,0,0,.58-1.09,1.09,1.09,0,0,0-.32-.82,2.08,2.08,0,0,0-.76-.47,12,12,0,0,0-1.26-.36,13.47,13.47,0,0,1-1.54-.47,2.5,2.5,0,0,1-1-.69,1.85,1.85,0,0,1-.41-1.26,2.16,2.16,0,0,1,.34-1.17,2.32,2.32,0,0,1,1.05-.85,4.2,4.2,0,0,1,1.76-.32,5.38,5.38,0,0,1,1.44.2,3.86,3.86,0,0,1,1.21.56l-.3.72a3.87,3.87,0,0,0-1.15-.53,4.26,4.26,0,0,0-1.2-.18,2.75,2.75,0,0,0-1.69.43,1.34,1.34,0,0,0-.57,1.12,1.09,1.09,0,0,0,.32.82,1.91,1.91,0,0,0,.78.48q.47.16,1.26.36a12,12,0,0,1,1.52.46,2.51,2.51,0,0,1,1,.68,1.82,1.82,0,0,1,.41,1.24,2.15,2.15,0,0,1-.35,1.18,2.37,2.37,0,0,1-1.07.84,4.42,4.42,0,0,1-1.77.31A5.62,5.62,0,0,1,154.74,53.51Z"/><rect class="cls-2" y="48.99" width="44.3" height="0.74"/><path class="cls-1" d="M163.8,34.29h-3.86l.21-.59a9.92,9.92,0,0,1,2.08-2.76c1.39-1.92,4.77-3.31,4.91-3.37l.34.82s-3.33,1.37-4.54,3.1l-.06.06a13.89,13.89,0,0,0-1.58,1.85h1.63l0-1.63.17-.13C164,31,166.8,28.82,168,29.1l-.2.86c-.5-.11-2.41,1.05-3.95,2.25Z"/><path class="cls-1" d="M203.83,25.54l-.89.39c0-9.18,5-11.68,5.2-11.78l.21-.1,1.72,1-.44.77-1.3-.74a8,8,0,0,0-2.15,2.11C205.11,18.69,203.83,21,203.83,25.54Z"/><path class="cls-1" d="M236.41,24.9l-.8-.39.65-1.35a3.45,3.45,0,0,0-2.07.83l-.66-.6c1.11-1.21,3.38-1.17,3.48-1.16l.69,0Z"/><path class="cls-1" d="M225.12,44.21l.06-.66a18.84,18.84,0,0,1,.83-3.4l.24-.69,1.27,1.33.73-.7-.89-3.6a3.14,3.14,0,0,0-1.79.74c-1.14,1.08-3.38.65-3.47.63l.17-.87c.52.1,2,.23,2.69-.41a4.07,4.07,0,0,1,2.76-1h.33l1.19,4.77-1.75,1.68-.86-.9a18.49,18.49,0,0,0-.46,1.82l1.45-.43,2-1.48c.34-1.82.78-6.28-.8-7.52l.55-.7c2.4,1.89,1.15,8.29,1.09,8.56l0,.17L228,43.35Z"/><path class="cls-1" d="M231,46.9l-.22-.29s-.88-1.19.09-3.3L231,43l2,.48,1.53-.52a13.05,13.05,0,0,0,0-3.19c-.28-1.12-2.33-1.49-3.1-1.53l.06-.89c.13,0,3.41.22,3.91,2.21a15.94,15.94,0,0,1,0,3.78l0,.28-2.32.79L231.49,44a2.9,2.9,0,0,0-.19,1.72L233,44.9l2.51-.6a11.28,11.28,0,0,0,.8-6.63l.93-.48c.61,4.86-1,7.63-1.06,7.74l-.1.15-2.83.68Z"/><path class="cls-1" d="M219.58,42.25l-.1-.88a9.5,9.5,0,0,0,5.83-2.69l.68.57A10.19,10.19,0,0,1,219.58,42.25Z"/><path class="cls-1" d="M174.43,43.48l-1-1.53.59-.16a2.72,2.72,0,0,1,1.69,0l-.39.79a1.22,1.22,0,0,0-.41-.06l.29.43Z"/><path class="cls-1" d="M173.57,32.84a5.15,5.15,0,0,1-1-.09h-2.06a2.29,2.29,0,0,1-1.95-1.51l0-.15-.1-4.56a2.28,2.28,0,0,1,.46-1.86,1.52,1.52,0,0,1,1.12-.48l3.67,0c-1.15-5.29-.49-13.09-.36-14.53a12.2,12.2,0,0,0-1.08-.79,10.94,10.94,0,0,1-1.12-.82,16.18,16.18,0,0,0-1.8-1.44,2.25,2.25,0,0,0-.93-.3,1.45,1.45,0,0,1-1.22-.89,3,3,0,0,1-.26-1.4,1.68,1.68,0,0,1,.67-1.28l.2-.18c.08-.08.16-.15.23-.23a1.49,1.49,0,0,1,1.79-.51,13.35,13.35,0,0,0,3.76.64c.36,0,.73,0,1.09.09s.87.1,1.26.17L177.21,0l.44.61a4,4,0,0,1,.55,3c.73.87,1,1.6,1.72,3.83.46,1.38,1.09,3.26,2.14,6.12a14.59,14.59,0,0,0,7.37,8,27.25,27.25,0,0,0,5.29,1.8l.18.05a36.35,36.35,0,0,1,7.75,3.24l-.57.82a34.78,34.78,0,0,0-7.41-3.2l-.18,0A27.72,27.72,0,0,1,189,22.32a15.48,15.48,0,0,1-7.81-8.44c-1.05-2.88-1.68-4.77-2.14-6.15-.77-2.3-1-2.85-1.64-3.63l-.07-.1-.13-.25,0-.17a3,3,0,0,0,0-1.64l-.84,1.81-.34-.06c-.56-.09-1-.17-1.52-.22l-1.07-.08a14.1,14.1,0,0,1-4-.7.61.61,0,0,0-.77.24,2.61,2.61,0,0,1-.34.33l-.19.17c-.26.25-.37.36-.38.66a2.23,2.23,0,0,0,.19,1,.57.57,0,0,0,.52.36,3.15,3.15,0,0,1,1.32.44,18,18,0,0,1,1.89,1.52,9.21,9.21,0,0,0,1,.74,9.72,9.72,0,0,1,1.38,1.05l.14.15,0,.21c0,.09-.95,9.45.45,15l.14.56L170,25.08h0a.63.63,0,0,0-.45.2,1.59,1.59,0,0,0-.23,1.2l.11,4.5c.09.21.45.88,1.09.88h2.18a3.93,3.93,0,0,0,1.95-.11l-.73-.89a1.56,1.56,0,0,0-1.17.71l-.13.25-2.12,0-.06-.36a3.88,3.88,0,0,0-.21-.71.61.61,0,0,1-.24-.15c-.1-.11-.33-.37,0-1.95l0-.27.27-.08c.9-.25,3.92-1.07,4.75-.75a4,4,0,0,0,.69.15,13.08,13.08,0,0,1,6.78,3.07l-.57.68a12.29,12.29,0,0,0-6.36-2.87,6.52,6.52,0,0,1-.86-.19,13.81,13.81,0,0,0-3.91.69,4.63,4.63,0,0,0-.08.88,1.57,1.57,0,0,1,.54,1l.86,0a2.76,2.76,0,0,1,2-1h.22l1.57,1.93-.27.28A2.83,2.83,0,0,1,173.57,32.84Z"/><path class="cls-1" d="M184.87,16.83l-.2-.31a23,23,0,0,1-1.42-2.63c-.73-1.57-1.31-3.21-1.87-4.8-.32-.9-.66-1.84-1-2.74l0-.1a18.49,18.49,0,0,0-.91-2.1l-.75.77L178,4.3l1.56-1.61.3.49a16.62,16.62,0,0,1,1.27,2.75l0,.09c.36.92.69,1.87,1,2.78.56,1.56,1.13,3.19,1.85,4.71A21.27,21.27,0,0,0,185.42,16l.2.31Z"/><path class="cls-1" d="M206.27,24.5l-1,.35c0-.29.37-7.54,4.09-9.7a5,5,0,0,1,.3-2.18l.36-1,.46.95a3.09,3.09,0,0,0,.93,1.07c2.1-.36,2.33.2,2.4.39a2.53,2.53,0,0,0,.8.67l1.15,0c.31,0,1,0,1.31-.08a1.93,1.93,0,0,1,2.12,1.23l.06.11a1.72,1.72,0,0,1,0,2,1.8,1.8,0,0,1-1.76.76,3.56,3.56,0,0,0-.75.06,7.35,7.35,0,0,1-5.09,1.46,11.91,11.91,0,0,0-.33,2.37l-.91.18a17.32,17.32,0,0,1,.47-3.16l.1-.43.43.1a6.39,6.39,0,0,0,4.83-1.26l.09-.06a3.28,3.28,0,0,1,1.24-.14,1,1,0,0,0,.95-.39.81.81,0,0,0,0-1c-.06-.1-.09-.17-.12-.23a1,1,0,0,0-1.22-.72c-.34,0-1,.09-1.41.09l-1.4-.06-.09,0a3.46,3.46,0,0,1-1.23-1.08,5.48,5.48,0,0,0-1.63.09l-.16,0-.13-.08a3.13,3.13,0,0,1-.83-.67c0,.28,0,.65,0,1.24v.27l-.24.12C206.56,17.58,206.27,24.43,206.27,24.5Z"/><path class="cls-1" d="M198.2,50.31l-.88-.68a2.21,2.21,0,0,0-.27-.88,9,9,0,0,0-3.21-2.3l-.16-.07.6-.48.16.07a8.7,8.7,0,0,1,2.69,1.65A3,3,0,0,1,198.2,50.31Z"/><path class="cls-1" d="M187.79,46.24l-.2-.09a1.35,1.35,0,0,1-.84-1,1.33,1.33,0,0,1,.48-1.18,9.7,9.7,0,0,1,1-.77l.35-.26.54.71-.36.27a6.55,6.55,0,0,0-.85.69c-.16.16-.25.31-.23.4s.15.23.36.33l.16.08Z"/><path class="cls-1" d="M211.16,51.45l-.13-.23a2.61,2.61,0,0,1-.18-2,2.31,2.31,0,0,1,1.62-1.27l.18,0,.55.33c.3.17.57.34.84.52s.17.07.24,0a3.09,3.09,0,0,1,1.4-.74A5.7,5.7,0,0,0,218,46.31s.09-.1.09-.16a.37.37,0,0,0-.15-.22,2.85,2.85,0,0,0-.64-.38l-2.62-1.06-.54-.22c-.13.45-.26.92-.39,1.4-.17.64-.35,1.28-.5,1.84l-.86-.23c.15-.56.33-1.2.5-1.85s.36-1.28.51-1.85l.12-.44.51.14.2.06.78.32c.88.35,1.76.7,2.63,1.07a3.24,3.24,0,0,1,.87.52,1.18,1.18,0,0,1,.47.85,1.09,1.09,0,0,1-.35.84,6.57,6.57,0,0,1-2.72,1.89,2.23,2.23,0,0,0-1,.51,1,1,0,0,1-1.37.1c-.25-.17-.51-.32-.79-.48l-.21-.13a1.33,1.33,0,0,0-.86.69,1.46,1.46,0,0,0,0,1h.81a4.62,4.62,0,0,0,.83,0l.66-.06c.46,0,.9-.08,1.34-.15a1.43,1.43,0,0,0,.62-.24c.52-.41,1-.83,1.52-1.25s1.18-1,1.79-1.47a2,2,0,0,0,.86-1.37,1.91,1.91,0,0,0-.69-1.4c-.28-.27-.57-.52-.88-.78l-.15-.12a14.76,14.76,0,0,1-3.33-3.82,8.34,8.34,0,0,1-1.23-4.08c-.06-3.77,6.23-7.56,6.5-7.72l.45.76c-.06,0-6.11,3.69-6.06,7a7.49,7.49,0,0,0,1.11,3.64A13.73,13.73,0,0,0,219,43l.15.12c.31.26.63.52.93.82A2.73,2.73,0,0,1,221,46a2.78,2.78,0,0,1-1.2,2c-.6.47-1.19,1-1.77,1.45s-1,.85-1.53,1.27a2.27,2.27,0,0,1-1,.42c-.47.07-1,.11-1.41.15l-.64.06a5.86,5.86,0,0,1-.95.05Z"/><path class="cls-1" d="M235.12,37.35h-.18a1.51,1.51,0,0,1-1.18-.86l0-.12a5.24,5.24,0,0,1,0-2.4c.14-.36-.26-1.18-.58-1.62l-.07-.13-.42-1.38a2,2,0,0,1-.75-.24l.17,4.25,1,.15v.91l-1.85-.3-.32-8,.91,1.64a1.22,1.22,0,0,0,1.13.71l.36,0,.11.35.5,1.61c.25.35,1,1.52.65,2.4a4.5,4.5,0,0,0,0,1.83.63.63,0,0,0,.48.35c.58.06,1.47-.63,2-1.14l.76-9.66.16-.12a9.92,9.92,0,0,0,1.9-2.3l-1.88.1-.11-.32A3,3,0,0,0,236,21a5.89,5.89,0,0,0-4.24.79,25,25,0,0,0-3.9,2.72l-.68.54a17.51,17.51,0,0,1-5.12,3.14l-.27-.85a16.43,16.43,0,0,0,4.84-3l.68-.54a26.2,26.2,0,0,1,4-2.81,6.72,6.72,0,0,1,4.89-.86,3.8,3.8,0,0,1,2.33,2.27l2.87-.15-.4.71a13.92,13.92,0,0,1-2.41,3.16l-.75,9.57-.1.11C237.64,36,236.35,37.35,235.12,37.35Z"/><path class="cls-1" d="M224.79,24.93l-.47-.76a31,31,0,0,0,2.57-1.88l.68-.54a26.2,26.2,0,0,1,4-2.81,6.72,6.72,0,0,1,4.89-.86,5.2,5.2,0,0,1,2.94,3l.17.5-2.06.36-.16-.88,1-.17a4.23,4.23,0,0,0-2.11-1.9,5.84,5.84,0,0,0-4.24.79,25,25,0,0,0-3.9,2.72l-.68.54A30.29,30.29,0,0,1,224.79,24.93Z"/><path class="cls-1" d="M203.5,28.33l-.71-.54c2.69-3.49,10.8-4.4,11.15-4.44l.49-.05v2.18h-.89V24.3C211.75,24.55,205.6,25.61,203.5,28.33Z"/><path class="cls-1" d="M198.66,56.56a.86.86,0,0,1-.33-.06,3.44,3.44,0,0,1-2-1.65,1.4,1.4,0,0,1,0-1.44,2.6,2.6,0,0,1-1.44-1.2.79.79,0,0,0-.16-.15l-.08-.06a20.57,20.57,0,0,0-4.84-3.25,2.83,2.83,0,0,1-.52-.29l-.11-.08a1.73,1.73,0,0,1-.82-2.37c.56-1.53,1.12-2.94,1.71-4.3.17-.4,0-.55-.1-.61a2.3,2.3,0,0,0-.67-.29l-.16-.05a5.76,5.76,0,0,1-3.44-3,9.5,9.5,0,0,1-.44-4.77,3.55,3.55,0,0,0-1,1.77,6.42,6.42,0,0,0,.27,3.14,7.29,7.29,0,0,1,.27,3.54,5.78,5.78,0,0,1-1.18,2.12c-.2.26-.38.5-.55.75a4.33,4.33,0,0,0-.52,2.17c0,.33,0,.66-.09,1l-.15,1.08-.65-.88a8.39,8.39,0,0,1-1-2.08,4.31,4.31,0,0,1-.2-2.81,5.8,5.8,0,0,1,.33-.76,4,4,0,0,0,.22-.47,3.44,3.44,0,0,0-.39-2.78c-.15-.35-.3-.72-.42-1.1a6,6,0,0,1,1.83-6.23,4.68,4.68,0,0,1,2.93-.68,3.54,3.54,0,0,0,2.34-.53,10.34,10.34,0,0,1,9-2c1.68.35,3.44.65,5.38.91a3.25,3.25,0,0,0,2-.26c.46-.46,3.7-3.41,10.53-3.87a3.31,3.31,0,0,1,1.73-2.26l.58-.27.22,2.5h1.54l.8.41,2.27-.3.19,0a1.6,1.6,0,0,1,1,0c.49.22.56.84.59,1.14l-.83.31a3.34,3.34,0,0,0-.14-.64h0a2.76,2.76,0,0,0-.4.06l-.25.05-2.55.34-.86-.44h-2.13L215.75,24a2.11,2.11,0,0,0-.7,1.49l0,.41-.4,0c-7.17.37-10.34,3.63-10.37,3.66l-.11.09a4.18,4.18,0,0,1-2.57.4c-2-.27-3.75-.58-5.45-.93a9.47,9.47,0,0,0-8.21,1.78,4.21,4.21,0,0,1-2.9.74,3.88,3.88,0,0,0-2.41.51,5.11,5.11,0,0,0-1.51,5.25,10.48,10.48,0,0,0,.39,1,4.33,4.33,0,0,1,.4,3.46c-.08.19-.16.36-.25.54s-.21.43-.29.64a3.56,3.56,0,0,0,.2,2.24c.07.2.14.38.21.56a4.19,4.19,0,0,1,.63-2.05A9.81,9.81,0,0,1,183,43a4.9,4.9,0,0,0,1-1.79,6.42,6.42,0,0,0-.27-3.11,7.2,7.2,0,0,1-.26-3.58c.19-.76.81-2.56,2.3-2.65l.51,0-.09,1.06a9.05,9.05,0,0,0,.35,4.47,4.92,4.92,0,0,0,2.91,2.56l.15.05a3,3,0,0,1,.95.44,1.35,1.35,0,0,1,.37,1.66c-.58,1.34-1.14,2.74-1.69,4.26-.29.77-.11.9.5,1.34l.11.08a2.9,2.9,0,0,0,.36.2,21.37,21.37,0,0,1,5.05,3.37l.07.06a1.28,1.28,0,0,1,.36.37,1.68,1.68,0,0,0,1.22.89.82.82,0,0,1,.35.16l.06.05.41.25-.33.44-.12.16a.58.58,0,0,0-.15.76,2.54,2.54,0,0,0,1.46,1.19h0a3.77,3.77,0,0,0-.74-3.55,33.69,33.69,0,0,0-6.1-5.35l-.49-.32,1.18-1a12.56,12.56,0,0,0,1-1.16,7.14,7.14,0,0,1,2.31-2.15,2.73,2.73,0,0,0,1.35-1.58l.16-.44.81.34.77.32a19.61,19.61,0,0,0,9.35,1.73l.31,0c1.08-.13,1.47,0,1.86,1.13a4.72,4.72,0,0,1,.25,1.47c0,1.2,0,2.44-.07,3.66a8.81,8.81,0,0,1-.26,1.72,4.11,4.11,0,0,1-3.34,2.88,7.36,7.36,0,0,0-1.46.39,1,1,0,0,1-.73,0,.88.88,0,0,1-.4-.57,1.34,1.34,0,0,0-1.37-.92,5,5,0,0,0-1.12.46l-.1,0,.21.16.45.35c.28.22.55.42.83.61a2.87,2.87,0,0,0,.62.25l.51.14a6.62,6.62,0,0,1,.81.23,1.68,1.68,0,0,0,1.62-.17c1.1-.67,2.19-1.27,3.26-1.79.29-.14.62-.25.76-.52l.9.13a3.21,3.21,0,0,1-1.27,1.19c-1,.51-2.11,1.1-3.19,1.75a2.6,2.6,0,0,1-2.4.25,4.91,4.91,0,0,0-.71-.21l-.56-.15a3.48,3.48,0,0,1-.84-.36c-.31-.2-.6-.43-.88-.65l-.44-.33-.44-.35a.8.8,0,0,1-.27-.68.74.74,0,0,1,.42-.54l.3-.15a6.06,6.06,0,0,1,1.34-.54,2.24,2.24,0,0,1,2.41,1.52,8.59,8.59,0,0,1,1.62-.42,3.23,3.23,0,0,0,2.59-2.23,7.75,7.75,0,0,0,.24-1.53c0-1.21.08-2.43.07-3.62a3.79,3.79,0,0,0-.2-1.18c-.22-.62-.21-.62-.91-.54a2.19,2.19,0,0,1-.36,0,20.59,20.59,0,0,1-9.77-1.8l-.73-.31a3.44,3.44,0,0,1-1.6,1.64,6.33,6.33,0,0,0-2,1.92A13.78,13.78,0,0,1,193,46l-.33.28a35.22,35.22,0,0,1,5.8,5.18,4.67,4.67,0,0,1,.94,4.34,1,1,0,0,1-.43.65A.79.79,0,0,1,198.66,56.56Z"/><path class="cls-1" d="M186.25,55.62h-1.13l-.08,0a.7.7,0,0,1-.44-.45.72.72,0,0,1,.11-.62l.06-.11a2.18,2.18,0,0,1,.42-.52,1.13,1.13,0,0,0,.42-.63c0-.11.06-.21.1-.32a1.61,1.61,0,0,0,.09-.29,3.17,3.17,0,0,0-.22-2.37l-.13-.23a5.7,5.7,0,0,1-.41-.82,4.89,4.89,0,0,1-.21-.72l-.4.15a3.93,3.93,0,0,1-2,.37h0a3.27,3.27,0,0,0-.27.48,6.19,6.19,0,0,0-.4,1.08,5.93,5.93,0,0,1-.61,1.49,1.57,1.57,0,0,0-.32,1.33.8.8,0,0,1-.25.84.76.76,0,0,1,0,.44.79.79,0,0,1-.51.44,2.12,2.12,0,0,1-.45.12l-.26,0H179l-.13,0-.29-.06a.68.68,0,0,1-.54-.37.65.65,0,0,1,.06-.62l.12-.2a2.42,2.42,0,0,1,.56-.74,1.8,1.8,0,0,0,.64-1.2l0-.31A5.88,5.88,0,0,1,180,49.7c.11-.19.08-.29-.22-.69l-.22-.32a5.26,5.26,0,0,1-2,1,3.74,3.74,0,0,0-.85.32l-.05,0a1.44,1.44,0,0,0,.18.29,1.51,1.51,0,0,1,.18.26.48.48,0,0,0,.1.12l0,0a.79.79,0,0,1,.49,0,1.47,1.47,0,0,1,1.28,1.41.93.93,0,0,1-.19.82.92.92,0,0,1-.85.13,5.25,5.25,0,0,0-1.17-.17c-.65,0-1-.16-1.15-.94a1.59,1.59,0,0,0-.39-.84,4.89,4.89,0,0,1-.59-.89,1.14,1.14,0,0,1,.09-1.32,8.44,8.44,0,0,1,1.24-1l.52-.38.11-.08a5.89,5.89,0,0,0,.79-.7l-.18-.4a10.28,10.28,0,0,0-1-2,4.63,4.63,0,0,0-.9,1.75,5.3,5.3,0,0,1-.28.65,7.74,7.74,0,0,0-.5,1.24.91.91,0,0,0,0,.25,2,2,0,0,1,0,.35c-.1.87-1.05,1.26-1.91,1.26h-.07a1.26,1.26,0,0,1-1-.51l-.13-.14a.86.86,0,0,0-.13-.14,1.17,1.17,0,0,1-.37-1.4,8.81,8.81,0,0,0,.49-2.58c0-.26,0-.51.08-.77s.06-.44.1-.66l-1.64-.25.33-.56a3.28,3.28,0,0,1,1.63-1.4,8.28,8.28,0,0,1,2.62-5.36A6,6,0,0,1,179.56,35v.9a5.5,5.5,0,0,0-4.56.88c-2.14,1.71-2.32,5-2.32,5v.37l-.36,0a1.7,1.7,0,0,0-.91.5l1.15.17-.09.46c-.06.32-.13.69-.17,1s-.06.49-.08.74a9.87,9.87,0,0,1-.56,2.83.29.29,0,0,0,.11.38,1.42,1.42,0,0,1,.24.25l.12.12c.16.18.19.22.34.22.44,0,1-.15,1.08-.47a1.34,1.34,0,0,0,0-.2,1.42,1.42,0,0,1,.06-.59,8.28,8.28,0,0,1,.55-1.35,5.77,5.77,0,0,0,.23-.54A4.41,4.41,0,0,1,176,43.36l.33-.2.24.3A9.67,9.67,0,0,1,178,46c.08.17.15.35.23.53.23.51-.34,1-1.11,1.62l-.09.07c-.11.09-.33.25-.58.42a11,11,0,0,0-1.07.82s-.09.1,0,.35a3.42,3.42,0,0,0,.48.71l.09.11a1.28,1.28,0,0,1-.11-.2.84.84,0,0,1,0-.66.92.92,0,0,1,.48-.51l.06,0a4.31,4.31,0,0,1,1.08-.39,4.36,4.36,0,0,0,1.82-1,.64.64,0,0,1,.22-.18l.59-.34.12.61a1.87,1.87,0,0,0,.34.61,1.44,1.44,0,0,1,.29,1.65,4.26,4.26,0,0,0-.44,1.56l.06-.09a5.19,5.19,0,0,0,.51-1.28,6.4,6.4,0,0,1,.43-1.17c.29-.6.52-.93.85-1a1.07,1.07,0,0,1,.36,0,3.14,3.14,0,0,0,1.56-.31l.65-.23.68-.22.14.45.09.36a4.7,4.7,0,0,0,.2.72,6.52,6.52,0,0,0,.35.7l.14.25a3.77,3.77,0,0,1,.45,2c.1-.17.21-.34.32-.49s.1-.27,0-.38a2.59,2.59,0,0,1-.27-2.25,1.54,1.54,0,0,1,.48-.86l.53-.56.3.53a1.69,1.69,0,0,0,1.6,1.14.72.72,0,0,1,.66.64c0,.13.05.23.08.32a1.66,1.66,0,0,1-.06,1.19c-.15.44-.2.58,0,.77l.08-.37c0-.07.45-1.18.47-1.31l.67.33c0,.2-.14.6-.15.68.32.12.48.42.61.83,0,.19.09.38.13.59l.18.85-.57,0a2.55,2.55,0,0,1-1.57-.53c-.91-.74-1.05-1-.65-2.12a.79.79,0,0,0,0-.67c0-.09,0-.19-.07-.31a2.37,2.37,0,0,1-1.81-1l0,.11a1.69,1.69,0,0,0,.16,1.52,1.17,1.17,0,0,1,0,1.37,2.41,2.41,0,0,0-.49,1,2.22,2.22,0,0,0,0,.63.91.91,0,0,1-.25.85.87.87,0,0,1,0,.69,1,1,0,0,1-.76.43Zm-.62-.89H186l.12,0h.09l0-.08a.66.66,0,0,1,.28-.8s0,0,0-.08l0-.22a2,2,0,0,1-.7,1.08A.67.67,0,0,0,185.63,54.73Zm-6.53-.33h.18l.13,0,.26-.06a.77.77,0,0,1,.27-.69l0,0a1.8,1.8,0,0,1-.06-.32,2.39,2.39,0,0,1-.59.68,1.63,1.63,0,0,0-.31.42h0Zm7.93-.18Zm-6.52-.17Zm10.15-1.88.17.14a1.41,1.41,0,0,0,.47.25c0-.06,0-.13-.05-.19a1.21,1.21,0,0,0-.1-.26l-.15,0Zm-14.21-.23h.25a5.58,5.58,0,0,1,1.3.18c-.09-.5-.29-.57-.49-.6h0a.91.91,0,0,1-1.21-.46,1.43,1.43,0,0,0-.14-.2l-.05-.06a2.48,2.48,0,0,1,.36,1C176.43,51.85,176.45,51.91,176.45,51.94Zm3.49-3.64Z"/></g></g></svg>