<svg width="26" height="26" viewBox="0 0 26 26" fill="none" xmlns="http://www.w3.org/2000/svg">
<path d="M11.6298 0.0610999L11.6363 0.0701999C12.0848 0.0233999 12.5398 0 13 0C20.1786 0 26 5.8201 26 13C26 20.1799 20.1786 26 13 26C11.0194 26.0019 9.06454 25.5505 7.28531 24.6802C5.50608 23.81 3.94964 22.5441 2.73522 20.9794H2.73132V20.9755C0.956426 18.6963 -0.00502088 15.8888 1.97192e-05 13C1.97192e-05 6.2894 5.08432 0.767 11.6116 0.0728L11.6298 0.0610999ZM13 1.95L12.792 1.9513C12.9519 2.2698 13.1235 2.6442 13.2782 3.0563C13.7293 4.2562 14.144 6.0229 13.4082 7.5894C12.7296 9.0363 11.557 9.4094 10.6912 9.6343L10.582 9.6616C9.72791 9.8826 9.39901 9.9671 9.16111 10.3298C8.94011 10.6639 8.97391 11.0864 9.24041 11.9548L9.30021 12.1472C9.40681 12.4826 9.53421 12.8882 9.59921 13.2691C9.68241 13.7423 9.70581 14.3442 9.40161 14.9266C9.14572 15.4456 8.73755 15.8742 8.23161 16.1551C7.78831 16.3956 7.32941 16.4879 6.98621 16.5477L6.86531 16.5698C6.19582 16.6868 5.87602 16.744 5.56532 17.0768C5.32222 17.3368 5.16622 17.7957 5.07522 18.4795C5.03752 18.7577 5.01542 19.0346 4.99202 19.3193L4.97902 19.4714C4.95302 19.786 4.92182 20.1487 4.85032 20.4594V20.462C5.88458 21.5942 7.14374 22.4981 8.54727 23.1159C9.9508 23.7338 11.4678 24.0519 13.0013 24.05C15.0501 24.05 16.9702 23.491 18.616 22.5186C18.4738 22.3741 18.3393 22.2222 18.213 22.0636C17.771 21.5072 17.1912 20.5504 17.3927 19.4207C17.4889 18.8773 17.7801 18.4223 18.0622 18.0739C18.3505 17.731 18.6633 17.4095 18.9982 17.1119L19.2036 16.9221C19.4363 16.7102 19.6326 16.5308 19.8016 16.354C20.0252 16.12 20.0746 16.0134 20.0772 16.0069C20.1656 15.7157 20.0577 15.5077 19.9394 15.4167C19.8683 15.3632 19.7813 15.3353 19.6924 15.3374C19.5832 15.3374 19.4064 15.3686 19.1711 15.5194C19.0121 15.6236 18.8303 15.688 18.6412 15.7073C18.452 15.7265 18.261 15.7 18.0843 15.6299C17.8183 15.5162 17.5966 15.3191 17.4525 15.0683C17.2653 14.7602 17.16 14.3585 17.0911 14.0647C17.0391 13.8385 16.9871 13.5811 16.9416 13.3458L16.8896 13.078C16.8474 12.8403 16.7892 12.6058 16.7154 12.376L16.6894 12.3279C16.6635 12.2813 16.6358 12.2357 16.6062 12.1914C16.5122 12.051 16.4137 11.9136 16.3111 11.7793L16.1681 11.5934C15.9339 11.2927 15.7101 10.984 15.4973 10.6678C15.2425 10.2804 14.9552 9.7734 14.8642 9.2326C14.8062 8.91364 14.8308 8.58514 14.9357 8.2784C15.0579 7.9352 15.2802 7.6518 15.5688 7.4347C16.1967 6.9641 17.1197 5.9111 17.9387 4.888C18.3131 4.4213 18.6459 3.9845 18.8955 3.653C17.1317 2.53748 15.0869 1.94681 13 1.95ZM20.4451 4.836C20.189 5.1779 19.8458 5.6264 19.461 6.1074C18.6784 7.0837 17.641 8.2979 16.796 8.9505C16.8298 9.0805 16.926 9.2911 17.1275 9.5979C17.2978 9.8579 17.4928 10.1127 17.6995 10.3831L17.8672 10.6041C18.0908 10.9018 18.4015 11.3165 18.5432 11.7013C18.6534 12.0247 18.7395 12.3558 18.8006 12.6919L18.8643 13.0117C18.8968 13.1807 18.928 13.3406 18.9618 13.4927C19.7431 13.2691 20.5231 13.4043 21.1328 13.8749C21.9232 14.4859 22.2534 15.5467 21.944 16.5711C21.801 17.0417 21.4708 17.4291 21.2121 17.7008C20.9911 17.9309 20.7285 18.1714 20.4893 18.3898L20.3177 18.5458C20.0187 18.8214 19.7678 19.0658 19.5793 19.2985C19.3869 19.5377 19.3258 19.6872 19.3128 19.7613C19.2608 20.046 19.3999 20.4243 19.7392 20.8507C19.8863 21.0343 20.049 21.2048 20.2254 21.3603C21.427 20.3241 22.3907 19.0407 23.0508 17.5979C23.7109 16.155 24.0517 14.5867 24.05 13C24.0516 11.4631 23.7317 9.94277 23.1109 8.5368C22.49 7.13082 21.582 5.87023 20.4451 4.836ZM1.95002 13C1.95002 14.8174 2.38942 16.5334 3.16682 18.0453C3.27732 17.3212 3.50742 16.4229 4.13922 15.7469C4.91922 14.9123 5.87472 14.755 6.47661 14.6562L6.64561 14.6289C6.96801 14.5717 7.15391 14.521 7.29821 14.443C7.41261 14.3793 7.54261 14.2766 7.67261 14.0257C7.69211 13.9893 7.72721 13.8866 7.67781 13.6032C7.62071 13.3232 7.54603 13.047 7.45421 12.7764C7.42821 12.6984 7.40221 12.6139 7.37621 12.5268C7.13571 11.7416 6.75221 10.4442 7.53221 9.2573C8.21081 8.2277 9.30021 7.9651 9.99311 7.7974L10.2037 7.7454C10.9356 7.5569 11.3516 7.3814 11.6441 6.76C12.0276 5.9423 11.8625 4.8295 11.4543 3.744C11.2488 3.20475 10.9965 2.6845 10.7003 2.1892C8.22484 2.71728 6.00559 4.07894 4.41341 6.04663C2.82123 8.01431 1.95258 10.4688 1.95262 13H1.95002Z" fill="#126CAB"/>
</svg>
