<svg width="60" height="60" viewBox="0 0 60 60" fill="none" xmlns="http://www.w3.org/2000/svg">
<rect width="60" height="60" fill="#0067B2"/>
<path d="M20.4545 41V39.0833C20.4545 36.5417 21.4602 34.1041 23.2503 32.3069C25.0405 30.5097 27.4684 29.5 30 29.5M30 29.5C32.5316 29.5 34.9595 30.5097 36.7497 32.3069C38.5398 34.1041 39.5455 36.5417 39.5455 39.0833V41M30 29.5C31.519 29.5 32.9757 28.8942 34.0498 27.8159C35.1239 26.7375 35.7273 25.275 35.7273 23.75C35.7273 22.225 35.1239 20.7625 34.0498 19.6841C32.9757 18.6058 31.519 18 30 18C28.481 18 27.0243 18.6058 25.9502 19.6841C24.8761 20.7625 24.2727 22.225 24.2727 23.75C24.2727 25.275 24.8761 26.7375 25.9502 27.8159C27.0243 28.8942 28.481 29.5 30 29.5ZM9 41V39.0833C9 37.5583 9.60341 36.0958 10.6775 35.0175C11.7516 33.9391 13.2083 33.3333 14.7273 33.3333M14.7273 33.3333C15.7399 33.3333 16.7111 32.9295 17.4271 32.2106C18.1432 31.4917 18.5455 30.5167 18.5455 29.5C18.5455 28.4833 18.1432 27.5083 17.4271 26.7894C16.7111 26.0705 15.7399 25.6667 14.7273 25.6667C13.7146 25.6667 12.7435 26.0705 12.0274 26.7894C11.3114 27.5083 10.9091 28.4833 10.9091 29.5C10.9091 30.5167 11.3114 31.4917 12.0274 32.2106C12.7435 32.9295 13.7146 33.3333 14.7273 33.3333ZM51 41V39.0833C51 37.5583 50.3966 36.0958 49.3225 35.0175C48.2484 33.9391 46.7917 33.3333 45.2727 33.3333M45.2727 33.3333C46.2854 33.3333 47.2565 32.9295 47.9726 32.2106C48.6886 31.4917 49.0909 30.5167 49.0909 29.5C49.0909 28.4833 48.6886 27.5083 47.9726 26.7894C47.2565 26.0705 46.2854 25.6667 45.2727 25.6667C44.2601 25.6667 43.2889 26.0705 42.5729 26.7894C41.8568 27.5083 41.4545 28.4833 41.4545 29.5C41.4545 30.5167 41.8568 31.4917 42.5729 32.2106C43.2889 32.9295 44.2601 33.3333 45.2727 33.3333Z" stroke="white" stroke-width="3" stroke-linecap="round" stroke-linejoin="round"/>
</svg>
