<svg width="15" height="15" viewBox="0 0 15 15" fill="none" xmlns="http://www.w3.org/2000/svg">
<path d="M7.5 0.726562C6.16034 0.726562 4.85077 1.12382 3.73688 1.86809C2.623 2.61237 1.75483 3.67023 1.24216 4.90792C0.729497 6.1456 0.595361 7.50751 0.856715 8.82143C1.11807 10.1354 1.76318 11.3423 2.71046 12.2895C3.65774 13.2368 4.86465 13.8819 6.17857 14.1433C7.49249 14.4046 8.8544 14.2705 10.0921 13.7578C11.3298 13.2452 12.3876 12.377 13.1319 11.2631C13.8762 10.1492 14.2734 8.83966 14.2734 7.5C14.2713 5.70422 13.557 3.98259 12.2872 2.71279C11.0174 1.44298 9.29578 0.728671 7.5 0.726562ZM7.5 13.4766C6.31795 13.4766 5.16244 13.126 4.1796 12.4693C3.19676 11.8126 2.43073 10.8792 1.97838 9.78713C1.52603 8.69506 1.40767 7.49337 1.63828 6.33403C1.86889 5.17469 2.4381 4.10977 3.27394 3.27393C4.10977 2.43809 5.17469 1.86888 6.33403 1.63828C7.49337 1.40767 8.69506 1.52602 9.78714 1.97838C10.8792 2.43073 11.8126 3.19676 12.4693 4.1796C13.126 5.16244 13.4766 6.31795 13.4766 7.5C13.4748 9.08454 12.8446 10.6037 11.7241 11.7241C10.6037 12.8446 9.08455 13.4748 7.5 13.4766ZM10.5547 7.5C10.5547 7.60567 10.5127 7.70702 10.438 7.78174C10.3633 7.85646 10.2619 7.89844 10.1563 7.89844H7.89844V10.1562C7.89844 10.2619 7.85646 10.3633 7.78174 10.438C7.70702 10.5127 7.60568 10.5547 7.5 10.5547C7.39433 10.5547 7.29299 10.5127 7.21827 10.438C7.14354 10.3633 7.10157 10.2619 7.10157 10.1562V7.89844H4.84375C4.73808 7.89844 4.63674 7.85646 4.56202 7.78174C4.48729 7.70702 4.44532 7.60567 4.44532 7.5C4.44532 7.39433 4.48729 7.29298 4.56202 7.21826C4.63674 7.14354 4.73808 7.10156 4.84375 7.10156H7.10157V4.84375C7.10157 4.73808 7.14354 4.63673 7.21827 4.56201C7.29299 4.48729 7.39433 4.44531 7.5 4.44531C7.60568 4.44531 7.70702 4.48729 7.78174 4.56201C7.85646 4.63673 7.89844 4.73808 7.89844 4.84375V7.10156H10.1563C10.2619 7.10156 10.3633 7.14354 10.438 7.21826C10.5127 7.29298 10.5547 7.39433 10.5547 7.5Z" fill="#0067B2"/>
</svg>
