<svg width="15" height="12" viewBox="0 0 15 12" fill="none" xmlns="http://www.w3.org/2000/svg">
<path d="M13.9485 5.32079C12.5343 2.0373 9.87391 0 7.00348 0C4.13306 0 1.47266 2.0373 0.0584481 5.32079C0.019898 5.40912 0 5.50446 0 5.60084C0 5.69721 0.019898 5.79255 0.0584481 5.88088C1.47266 9.16437 4.13306 11.2017 7.00348 11.2017C9.87391 11.2017 12.5343 9.16437 13.9485 5.88088C13.9871 5.79255 14.007 5.69721 14.007 5.60084C14.007 5.50446 13.9871 5.40912 13.9485 5.32079ZM7.00348 9.80146C4.77715 9.80146 2.68384 8.19822 1.47266 5.60084C2.68384 3.00345 4.77715 1.40021 7.00348 1.40021C9.22982 1.40021 11.3231 3.00345 12.5343 5.60084C11.3231 8.19822 9.22982 9.80146 7.00348 9.80146ZM7.00348 2.80042C6.44961 2.80042 5.90818 2.96466 5.44766 3.27237C4.98713 3.58009 4.62819 4.01745 4.41623 4.52916C4.20428 5.04087 4.14882 5.60394 4.25688 6.14717C4.36493 6.6904 4.63164 7.18938 5.02329 7.58103C5.41493 7.97268 5.91392 8.23939 6.45715 8.34744C7.00038 8.4555 7.56345 8.40004 8.07516 8.18808C8.58687 7.97613 9.02423 7.61719 9.33195 7.15666C9.63966 6.69614 9.8039 6.15471 9.8039 5.60084C9.8039 4.85812 9.50886 4.14582 8.98368 3.62064C8.4585 3.09546 7.7462 2.80042 7.00348 2.80042ZM7.00348 7.00104C6.72655 7.00104 6.45583 6.91892 6.22557 6.76507C5.99531 6.61121 5.81584 6.39253 5.70986 6.13667C5.60388 5.88082 5.57615 5.59928 5.63018 5.32767C5.68421 5.05605 5.81756 4.80656 6.01339 4.61074C6.20921 4.41492 6.4587 4.28156 6.73032 4.22753C7.00193 4.1735 7.28347 4.20123 7.53932 4.30721C7.79518 4.41319 8.01386 4.59266 8.16772 4.82292C8.32157 5.05318 8.40369 5.3239 8.40369 5.60084C8.40369 5.97219 8.25617 6.32834 7.99358 6.59093C7.73099 6.85352 7.37484 7.00104 7.00348 7.00104Z" fill="#ACB1C6"/>
</svg>
