<svg xmlns="http://www.w3.org/2000/svg" width="87" height="87" fill="none" viewBox="0 0 87 87">
    <circle cx="43.258" cy="43.258" r="43.258" fill="#00477B"/>
    <path fill="#F2F2F2" d="M56.546 22.677c-5.155-1.065-9.12-.32-12.822.533-2.908.532-5.684 1.065-8.724.745v17.571c.793 0 1.454.107 2.115.107 2.776 0 5.155-.533 7.534-.959 3.57-.745 6.874-1.384 11.236-.532.529.106.925 0 1.454-.213.397-.213.661-.639.661-1.065V23.955c-.132-.639-.66-1.171-1.454-1.278zM31 22.151c-1.167 0-2 .642-2 1.392v30.605c0 .749 1 1.284 2 1.284 1.167 0 2-.642 2-1.284V23.542c0-.749-.833-1.39-2-1.39z"/>
</svg>
