<svg width="25" height="28" viewBox="0 0 25 28" fill="none" xmlns="http://www.w3.org/2000/svg">
<path d="M23.6231 12.5973C24.6855 13.216 24.6855 14.7797 23.6231 15.3985L18.1059 18.6116L13.6133 14.0085L18.1112 9.38672L23.6231 12.5973Z" fill="#FFCE00"/>
<path d="M18.1197 9.38848L13.6225 14.0103L0.4375 0.503749C0.910602 -0.000980487 1.69127 -0.178912 2.36649 0.214294L18.1197 9.38848Z" fill="#00E464"/>
<path d="M13.6125 14.0117L18.1058 18.6148L2.35606 27.7864C1.69508 28.1714 0.932451 28.009 0.457031 27.5281L13.6125 14.0117Z" fill="#E94335"/>
<path d="M3.60411e-05 1.619C-0.00270223 1.20511 0.152836 0.806455 0.433575 0.507812L13.6185 14.0144L0.463537 27.5302C0.315441 27.3811 0.198125 27.2032 0.118516 27.007C0.0389073 26.8108 -0.00137935 26.6003 3.60411e-05 26.3879V1.619Z" fill="#01D0FF"/>
</svg>
