<svg width="32" height="24" viewBox="0 0 32 24" fill="none" xmlns="http://www.w3.org/2000/svg">
<path d="M20.1041 16.4812L15.9151 18.723C15.821 18.7729 15.6798 18.7729 15.5386 18.723L8.57264 15.0365C8.29023 14.8871 7.96076 15.0864 7.96076 15.4351V19.9187C7.96076 20.0681 8.0549 20.2176 8.1961 20.3172L12.2439 22.4594C12.6675 22.7084 13.1382 22.8579 13.5618 23.0073C15.3974 23.5553 17.4213 23.4059 19.1628 22.4594L23.2106 20.3172C23.3518 20.2674 23.4459 20.1179 23.4459 19.9187V15.4351C23.4459 15.1362 23.1164 14.8871 22.834 15.0365L20.1041 16.4812Z" fill="white"/>
<path d="M19.5421 2.44645L16.1939 0.728225C16.0983 0.679133 15.9548 0.679133 15.8113 0.728225L1.03164 8.2884C0.74466 8.43568 0.74466 8.8775 1.03164 9.02478L15.8591 16.634C15.9548 16.6831 16.0983 16.6831 16.2417 16.634L20.4987 14.474L26.5731 11.3321C26.8601 11.1848 27.1471 11.3812 27.1471 11.7248V21.6905C27.1471 21.936 27.3384 22.1324 27.5776 22.1324H30.6866C30.9257 22.1324 31.117 21.936 31.117 21.6905V9.27024C31.117 9.12296 31.2127 8.97569 31.3562 8.8775L31.7867 8.68114L19.5421 2.44645Z" fill="white"/>
</svg>
