<svg width="32" height="23" viewBox="0 0 32 23" fill="none" xmlns="http://www.w3.org/2000/svg">
<path d="M19.5421 2.44645L16.1939 0.728225C16.0983 0.679133 15.9548 0.679133 15.8113 0.728225L1.03164 8.2884C0.74466 8.43568 0.74466 8.8775 1.03164 9.02478L15.8591 16.634C15.9548 16.6831 16.0983 16.6831 16.2417 16.634L20.4987 14.474L26.5731 11.3321C26.8601 11.1848 27.1471 11.3812 27.1471 11.7248V21.6905C27.1471 21.936 27.3384 22.1324 27.5776 22.1324H30.6866C30.9257 22.1324 31.117 21.936 31.117 21.6905V9.27024C31.117 9.12296 31.2127 8.97569 31.3562 8.8775L31.7867 8.68114L19.5421 2.44645Z" fill="white"/>
</svg>
