<svg width="10" height="11" viewBox="0 0 10 11" fill="none" xmlns="http://www.w3.org/2000/svg">
<path d="M6.87451 0.453125C6.87451 0.353669 6.91402 0.258286 6.98435 0.18796C7.05467 0.117634 7.15006 0.078125 7.24951 0.078125C7.74333 0.0787558 8.22833 0.20896 8.65606 0.45573C9.0838 0.7025 9.43929 1.05719 9.68701 1.48438C9.71192 1.52701 9.72806 1.57419 9.73446 1.62315C9.74087 1.67211 9.73742 1.72186 9.72432 1.76946C9.71122 1.81707 9.68872 1.86157 9.65817 1.90036C9.62761 1.93915 9.58961 1.97143 9.54639 1.99531C9.49042 2.03078 9.42513 2.04874 9.35889 2.04688C9.29329 2.04664 9.22889 2.02921 9.17214 1.9963C9.11538 1.9634 9.06825 1.91619 9.03545 1.85938C8.85445 1.54587 8.59412 1.28553 8.28063 1.10451C7.96713 0.923487 7.61152 0.828167 7.24951 0.828125C7.15006 0.828125 7.05467 0.788616 6.98435 0.71829C6.91402 0.647964 6.87451 0.552581 6.87451 0.453125ZM9.73389 7.00625C9.52249 7.79408 9.08227 8.50154 8.46886 9.03921C7.85546 9.57689 7.09642 9.92063 6.28769 10.027C5.47896 10.1333 4.65685 9.99755 3.92528 9.63676C3.19372 9.27596 2.58554 8.70638 2.17764 8L0.208889 4.5875C0.036627 4.28624 -0.00978267 3.92916 0.079745 3.59387C0.169273 3.25858 0.387503 2.97217 0.687014 2.79688C0.856473 2.69928 1.04529 2.64007 1.24014 2.62344L1.08076 2.35156C0.994418 2.20241 0.938404 2.03766 0.915943 1.86678C0.893482 1.6959 0.905018 1.52227 0.949885 1.35587C0.994753 1.18947 1.07207 1.03357 1.17739 0.89715C1.28271 0.760728 1.41395 0.646467 1.56358 0.560937C1.71166 0.472801 1.87612 0.415714 2.04696 0.39315C2.2178 0.370586 2.39144 0.383018 2.55733 0.429688C2.75748 0.482533 2.94224 0.582138 3.09639 0.720313C3.21321 0.535642 3.37228 0.3814 3.56045 0.270313C3.86271 0.0969663 4.22134 0.0504456 4.55782 0.140936C4.8943 0.231426 5.18122 0.451554 5.35576 0.753125L6.1667 2.15938C6.29321 1.97813 6.46329 1.83163 6.66129 1.73338C6.85928 1.63513 7.07881 1.58828 7.29967 1.59715C7.52052 1.60602 7.73559 1.67033 7.92506 1.78414C8.11454 1.89796 8.27233 2.05763 8.38389 2.24844L9.32139 3.875C9.5944 4.34348 9.77146 4.8616 9.84228 5.39917C9.9131 5.93675 9.87626 6.48305 9.73389 7.00625ZM8.66983 4.25L7.73233 2.62344C7.69583 2.56035 7.64723 2.50509 7.58931 2.46085C7.53139 2.4166 7.46529 2.38424 7.39483 2.36563C7.28755 2.33512 7.17359 2.33747 7.06767 2.37238C6.96174 2.40729 6.86871 2.47314 6.80059 2.56145C6.73246 2.64976 6.69238 2.75646 6.6855 2.86778C6.67862 2.9791 6.70528 3.08992 6.76201 3.18594L7.23076 4.00156L7.24483 4.03438C7.24951 4.04375 7.2542 4.04844 7.2542 4.05781V4.06719C7.25941 4.07742 7.2626 4.08856 7.26358 4.1C7.26732 4.11075 7.27045 4.12171 7.27295 4.13281V4.23125C7.26826 4.23125 7.26826 4.23594 7.26826 4.24063C7.26826 4.24531 7.26358 4.25938 7.26358 4.26875H7.25889C7.25791 4.28019 7.25472 4.29133 7.24951 4.30156V4.31094L7.24014 4.33438H7.23545L7.22139 4.3625L7.20264 4.38594L7.1792 4.40938L7.15108 4.4375H7.14639L7.12295 4.45625L7.09014 4.475C6.74588 4.67401 6.49472 5.00157 6.39188 5.38569C6.28904 5.76981 6.34293 6.17904 6.5417 6.52344C6.58252 6.60854 6.58975 6.70591 6.56193 6.79611C6.53412 6.88631 6.47332 6.9627 6.39166 7.01004C6.31 7.05738 6.21349 7.07218 6.12139 7.05149C6.0293 7.03081 5.9484 6.97615 5.89483 6.89844C5.62934 6.43805 5.53502 5.89868 5.6285 5.37551C5.72198 4.85235 5.99727 4.37902 6.40576 4.03906L6.11045 3.52344L4.7042 1.09062C4.66727 1.02661 4.61808 0.970488 4.55946 0.925476C4.50084 0.880464 4.43393 0.847439 4.36254 0.828287C4.21837 0.789607 4.06474 0.809783 3.93545 0.884375C3.87143 0.921309 3.81531 0.970491 3.7703 1.02911C3.72529 1.08774 3.69227 1.15465 3.67311 1.22603C3.63443 1.3702 3.65461 1.52383 3.7292 1.65312L4.94795 3.7625C4.99737 3.84835 5.01082 3.95027 4.98535 4.046C4.95988 4.14173 4.89756 4.2235 4.81201 4.27344C4.75118 4.30934 4.68134 4.32709 4.61074 4.3246C4.54014 4.32211 4.47173 4.29948 4.41358 4.25937C4.36583 4.22956 4.32698 4.18747 4.30108 4.1375L3.08233 2.02812H3.07764L2.70733 1.41406C2.63078 1.28624 2.50843 1.19238 2.36514 1.15156C2.22112 1.11304 2.06769 1.13328 1.93858 1.20781C1.87414 1.24436 1.81769 1.29349 1.7726 1.35227C1.72751 1.41105 1.69468 1.47829 1.67608 1.55C1.63756 1.69402 1.65779 1.84745 1.73233 1.97656L2.48233 3.275L3.51358 5.06094C3.56322 5.1475 3.5768 5.25013 3.55136 5.34663C3.52592 5.44312 3.46351 5.52573 3.37764 5.57656L3.33545 5.59531H3.32139L3.29326 5.60469H3.2792L3.23701 5.61406H3.13389L3.09639 5.60469H3.0917L3.04951 5.59063H3.04014L3.01201 5.57656H2.99795L2.96514 5.55313H2.96045L2.92764 5.525L2.91826 5.51562L2.89483 5.49219V5.48281L2.8667 5.44062L1.83545 3.65469C1.76086 3.52539 1.63796 3.43103 1.49379 3.39235C1.34962 3.35367 1.19599 3.37385 1.0667 3.44844C0.937408 3.52303 0.843042 3.64593 0.804363 3.7901C0.765684 3.93427 0.785859 4.08789 0.860451 4.21719L2.8292 7.62969C3.27883 8.40202 4.01605 8.96482 4.87958 9.19498C5.7431 9.42514 6.66264 9.30391 7.43701 8.85781C8.21109 8.40985 8.7757 7.67296 9.00686 6.809C9.23801 5.94503 9.11679 5.02465 8.66983 4.25ZM3.0167 9.94062C2.4245 9.5332 1.93115 8.99821 1.57295 8.375C1.55059 8.32837 1.51882 8.28688 1.47965 8.25312C1.44048 8.21935 1.39475 8.19406 1.34533 8.17882C1.29591 8.16359 1.24388 8.15873 1.1925 8.16457C1.14112 8.17041 1.0915 8.18681 1.04676 8.21275C1.00202 8.23868 0.963129 8.27359 0.93253 8.31528C0.90193 8.35697 0.880283 8.40453 0.86895 8.45499C0.857616 8.50544 0.85684 8.5577 0.866671 8.60847C0.876502 8.65924 0.896728 8.70742 0.926076 8.75C1.33655 9.46991 1.90366 10.0883 2.58545 10.5594C2.64962 10.6013 2.72442 10.6241 2.80108 10.625C2.86155 10.6246 2.92108 10.61 2.97483 10.5823C3.02859 10.5546 3.07506 10.5147 3.11045 10.4656C3.16696 10.3834 3.18881 10.2821 3.17127 10.1839C3.15372 10.0856 3.09819 9.99825 3.0167 9.94062Z" fill="#FF6F5A"/>
</svg>
