<svg xmlns="http://www.w3.org/2000/svg" width="298" height="521" fill="none" viewBox="0 0 298 521">
    <g fill="#fff" opacity=".25">
        <path d="M-49.934 235.81l-8.525 3.405c0-84.279 46.034-107.264 47.739-108.116l1.704-.851 16.197 9.364-4.262 6.811-11.935-6.811c-3.41 2.554-11.934 7.662-19.606 19.58-9.377 13.621-21.312 34.904-21.312 76.618zM250.13 229.852l-7.672-3.406 5.967-12.769c-5.967.851-14.492 2.554-18.755 7.662l-5.967-5.959c10.23-11.067 31.542-11.068 32.394-11.068h5.967l-11.934 25.54zM146.138 407.777l.853-5.959c.852-12.77 7.672-30.647 7.672-31.498l2.557-5.959 11.935 11.918 6.82-6.811-8.525-33.201c-4.262 0-11.082 1.703-16.197 6.811-10.229 10.216-30.689 5.959-31.541 5.959l1.705-7.662c5.115.852 18.754 1.703 24.721-3.405 10.23-9.364 24.722-9.364 25.574-9.364h3.41l11.082 44.268-16.196 15.323-7.673-8.513c-1.705 4.257-3.41 11.067-4.262 17.026l13.639-4.256 18.755-13.621c3.41-17.026 6.819-57.889-7.672-68.956l5.114-6.811c22.165 17.027 10.23 76.618 10.23 79.172v1.703l-22.164 16.174-29.837 7.662zM199.835 432.464l-1.705-2.554c0-.851-7.672-11.067.853-30.647l1.705-3.405 18.754 4.256 14.492-5.108c.852-7.661 1.705-22.985 0-28.944-2.557-10.216-21.312-13.621-28.131-14.472l.852-8.513c1.705 0 31.541 1.702 35.804 20.431 2.557 10.216 0 34.052 0 34.904v2.553l-21.312 6.811-13.639-3.405c-2.558 7.662-2.558 12.769-1.705 16.175l15.344-7.662 23.016-5.959c2.558-5.108 11.935-25.54 7.673-61.294l8.524-4.257c5.968 45.119-9.377 69.807-9.377 71.51l-.852 1.702-26.427 5.96-23.869 11.918z"/>
        <path d="M95.832 389.901l-.852-8.513c35.803-4.256 53.705-24.688 53.705-24.688l5.968 5.108c-.853.851-20.46 22.985-58.82 28.093zM-26.918 226.452l-8.525 3.405c0-2.554 3.41-68.956 37.509-89.387 0-10.216 0-13.621 2.557-20.432l3.41-9.364 4.262 8.513s3.41 5.959 8.525 10.216c19.607-3.406 21.312 1.702 22.164 3.405.853 1.702 4.262 4.256 7.672 5.959l10.23.851c2.557 0 9.377-.851 11.934-.851 9.378-.851 15.345 2.554 19.607 11.067 0 0 0 .851.853.851 5.114 8.513 2.557 14.472 0 17.878-3.41 5.108-9.377 7.661-16.197 6.81-1.705 0-5.968 0-6.82.851-3.41 2.554-23.017 17.027-46.886 13.621-1.704 5.96-3.41 17.027-3.41 22.134l-8.524 1.703c0-8.513 4.262-28.093 4.262-28.944l.853-4.257 4.262.851c23.869 5.108 44.328-11.067 44.328-11.918l.853-.851c2.557-1.703 9.377-1.703 11.082-1.703 4.262 0 6.82-.851 8.524-3.405 1.705-1.703 2.558-4.257 0-9.365-.852-.851-.852-1.702-.852-2.553-2.557-5.108-5.115-6.811-11.082-6.811-3.41 0-9.377.851-12.787.851l-12.787-.851-.852-.851c-1.706-.852-8.525-5.108-11.083-10.216-2.557-.851-9.377 0-15.344.851h-1.705l-1.705-.851c-3.41-1.702-5.967-4.256-7.672-5.959v17.877l-2.558.852c-31.54 16.175-34.098 79.171-34.098 80.023z"/>
        <path d="M18.26 474.177l-.853-2.554s-5.115-10.216-1.705-18.729c2.557-5.959 7.672-9.364 14.492-11.918l1.705-.852 5.114 3.406 7.673 5.107c1.705.852 1.705.852 2.557 0 4.262-4.256 8.525-5.959 12.787-6.81 8.525-2.554 14.492-8.513 21.312-15.324 0 0 .852-.851.852-1.702s-.852-.851-1.705-1.703c-1.705-1.702-3.41-2.554-5.967-3.405-7.672-3.405-16.197-6.81-23.869-10.216l-5.115-1.702c-.852 4.256-2.557 8.513-3.41 12.769-1.705 5.959-3.41 11.919-4.262 17.026l-7.672-2.553c1.705-5.108 3.41-11.067 4.262-17.027 1.705-5.959 3.41-11.918 4.262-17.026l.853-4.256 5.115 1.702c.852 0 .852 0 1.705.852l6.82 2.554c7.672 3.405 16.196 6.81 23.868 10.215 3.41.852 5.968 2.554 7.673 5.108 2.557 2.554 4.262 5.108 4.262 7.662 0 1.702 0 5.108-3.41 7.662-5.967 5.959-14.492 14.472-24.721 17.026-4.263.851-6.82 2.554-9.378 5.108-3.41 3.405-8.524 4.256-12.787.851-2.557-1.703-5.114-3.405-7.672-4.257-.852 0-1.705-.851-1.705-.851-4.262 1.703-6.82 3.405-7.672 5.959-1.705 3.405-.852 7.662 0 9.365h15.344l5.968-.852c4.262 0 8.524-.851 11.934-1.702 2.558 0 4.263-.852 5.968-2.554 5.114-3.406 9.377-7.662 13.64-11.919 5.114-4.256 11.081-9.364 16.196-13.62 5.115-4.257 7.672-8.514 7.672-12.77 0-4.257-1.705-8.513-5.967-12.77-2.558-2.554-5.115-5.108-8.525-6.81l-1.705-.851c-13.64-11.067-23.016-22.986-30.689-34.904-7.672-12.77-11.082-25.539-11.082-37.458-.852-34.903 57.116-69.807 59.673-70.658l4.262 6.81c-.852 0-56.262 34.053-56.262 63.848 0 11.067 3.41 22.134 10.23 33.201 6.819 11.919 16.196 22.134 28.983 33.201l1.705.852c2.557 2.554 5.967 5.108 8.525 7.661 5.967 5.96 9.377 12.77 8.524 19.581 0 6.81-4.262 13.62-11.082 18.728-5.115 4.257-11.082 8.513-16.197 13.621-4.262 4.257-9.377 7.662-14.492 11.919-2.557 2.553-6.82 3.405-9.377 4.256-4.262.851-8.524.851-12.787 1.703l-5.967.851c-2.557 0-5.967.851-8.525 0l-9.377-.851zM239.052 344.781h-1.705c-3.41 0-7.673-1.703-11.082-7.662v-.851c0-1.703-2.558-14.473 0-22.134.852-3.406-2.558-11.067-5.115-14.473l-.853-.851-4.262-12.77c-1.705 0-4.262-.851-6.82-2.553l1.705 39.16 9.377 1.702v8.513l-17.049-2.554-2.557-73.212 8.524 15.324c3.41 6.81 9.377 6.81 10.23 6.81h3.41l.852 3.405 4.262 14.472c2.558 3.406 9.378 13.621 5.968 22.134-1.705 4.257-.853 12.77 0 17.027 1.705 2.554 3.41 3.405 4.262 3.405 5.115.851 13.64-5.959 17.902-10.216l6.82-88.536 1.705-.851c5.967-4.257 12.787-14.472 17.049-21.283l-17.049.852-.853-2.554c-3.41-9.365-9.377-16.175-17.049-18.729-11.082-3.405-23.869-.851-39.214 7.662-12.787 6.81-24.721 16.174-35.803 24.688-1.705 1.702-4.263 3.405-5.968 5.107-13.639 11.067-29.836 22.986-46.885 28.945l-2.558-7.662c16.197-5.108 31.542-17.026 44.329-27.242 1.705-1.702 4.262-3.405 5.967-5.108 11.934-9.364 23.869-18.728 37.508-25.539 17.05-8.513 32.394-11.918 45.181-7.662 9.377 2.554 17.049 10.216 21.312 21.283l26.426-1.703-3.41 6.811c-.852.851-11.934 20.431-22.164 28.944l-7.672 82.577-.852.851c-.853 1.703-12.787 14.473-23.869 14.473z"/>
        <path d="M143.574 229.853l-4.262-6.811c8.525-5.107 16.197-11.918 23.869-17.026 1.705-1.702 4.262-3.405 5.967-5.108 11.935-9.364 23.87-18.728 37.509-25.539 17.049-8.513 32.394-11.918 45.181-7.662 11.934 3.406 23.869 17.027 27.278 27.242l1.705 4.257-18.754 3.405-1.705-7.662 9.378-1.702c-4.263-7.662-12.788-15.324-19.607-17.878-11.082-3.405-23.869-.851-39.214 7.662-12.787 6.81-24.721 16.175-35.803 24.688-1.705 1.703-4.263 3.405-5.968 5.108-8.524 5.108-17.049 11.918-25.574 17.026zM-52.48 261.355l-6.82-5.108c24.722-32.349 99.74-40.862 102.297-40.862l4.262-.852v20.432h-8.525v-11.067c-15.344 2.554-72.46 12.769-91.214 37.457z"/>
        <path d="M-96.815 520.997c-.852 0-1.705 0-3.41-.851-8.524-3.405-14.492-8.513-18.754-15.324-1.705-3.405-2.557-8.513 0-13.621-5.115-1.702-9.377-5.108-12.787-11.067l-1.705-1.702-.852-.852c-12.787-10.215-27.279-22.134-44.329-29.795l-5.114-2.554-.853-.852c-5.967-4.256-12.787-8.513-7.672-22.134 5.115-14.472 10.23-27.241 15.344-40.011 1.705-3.405 0-5.108-.852-5.959-1.705-.851-3.41-1.703-5.967-2.554l-1.705-.851c-14.492-5.108-25.574-14.473-31.541-28.093-5.968-13.621-5.115-29.796-4.263-44.268-5.115 4.256-7.672 12.769-8.524 16.174-2.558 9.365-.001 18.729 2.557 28.945 2.557 10.215 5.115 21.282 2.557 32.349-1.705 7.662-6.82 13.621-11.082 19.581-1.705 2.553-3.41 4.256-5.115 6.81-4.262 5.959-4.262 12.77-5.114 19.58 0 3.405 0 5.959-.853 9.364l-1.705 10.216-5.967-8.513c-3.41-4.256-5.967-10.216-9.377-18.729-3.41-10.215-4.263-18.728-1.705-25.539.852-2.554 1.705-5.108 3.41-6.81.852-1.703 1.705-2.554 1.705-4.257 3.41-8.513 0-16.175-3.41-25.539-1.705-3.405-2.558-6.811-4.262-10.216-5.968-20.431.852-45.97 17.049-57.037 8.525-5.96 17.902-5.96 27.279-5.96 8.524 0 16.197 0 21.311-5.107 22.165-17.878 51.148-24.688 82.69-17.878 15.344 3.405 31.54 5.959 49.443 8.513 6.82.852 12.787 0 17.901-2.554 4.263-4.256 34.1-31.498 97.181-35.755 2.558-14.472 15.345-20.431 16.197-20.431l5.115-2.554 1.705 22.985h14.492l7.672 3.406 21.312-2.554h1.705c2.557-.852 5.967-1.703 9.377 0 4.262 1.702 5.115 7.661 5.115 10.215l-7.672 2.554c0-1.702-.853-5.108-1.705-5.959-.853 0-2.558 0-3.41.851h-2.558l-23.869 3.406-7.672-4.257H60.891l-1.704-17.877c-3.41 2.554-5.968 7.661-6.82 13.621v3.405h-3.41c-65.64 3.405-95.476 33.201-95.476 34.052l-.853.851c-6.82 3.406-14.492 5.108-23.869 3.406-17.902-2.554-34.951-5.108-50.295-8.513-28.984-5.96-56.263 0-75.87 16.174-7.672 6.811-17.049 6.811-26.426 6.811-8.525 0-16.197 0-22.164 5.108-12.787 9.364-19.607 31.498-13.64 48.524.853 3.405 2.558 5.959 3.41 9.365 4.262 9.364 8.525 19.58 3.41 31.498l-2.557 5.108c-.853 1.702-1.705 4.256-2.558 5.959-1.705 5.108-.852 11.918 1.705 20.431.852 1.703 1.705 3.406 1.705 5.108.852-5.959 1.705-12.769 5.967-18.729l5.115-7.661c4.262-5.108 7.672-10.216 9.377-16.175 2.558-9.365 0-18.729-2.557-28.945-2.558-10.215-5.115-21.282-2.558-33.201 1.705-6.81 7.673-23.836 21.312-24.687h5.115l-.853 9.364c-.852 14.472-2.557 28.944 3.41 40.863 5.115 11.067 15.345 19.58 26.427 23.836l1.705.852c2.557.851 5.967 1.702 8.524 4.256 4.263 3.405 5.968 9.364 3.41 15.324-5.115 12.769-10.229 25.539-15.344 39.16-2.558 6.81-.853 8.513 4.262 12.769l.852.852c.853.851 1.705.851 3.41 1.702 17.902 7.662 33.247 20.432 46.886 30.647l.852.852c.853.851 2.558 1.702 3.41 3.405 2.558 5.108 6.82 7.662 11.082 8.513 1.705 0 2.558.851 3.41 1.703h.853l3.41 2.553-2.558 4.257c0 .851-.852.851-.852 1.703-2.558 2.554-2.558 5.107-1.705 6.81 2.557 5.108 6.82 8.513 13.64 11.067 3.41-13.621.852-23.837-6.821-32.35-25.573-28.944-56.262-49.375-56.262-49.375l-4.263-2.554 11.082-9.365c3.41-3.405 5.968-6.81 9.378-10.215 5.967-7.662 11.934-15.324 21.311-19.58 5.968-2.554 10.23-7.662 12.787-14.473l1.705-4.256 7.672 3.405c2.558.851 5.115 1.703 6.82 3.405 28.131 12.77 57.115 17.878 86.1 16.175h2.557c10.23-.851 13.64 0 17.049 10.216 1.705 4.256 2.557 8.513 2.557 13.621 0 11.067 0 22.134-.852 34.052 0 5.108-.853 11.067-2.558 16.175-3.41 13.621-16.196 24.688-30.688 26.39-4.263.852-8.525 1.703-13.64 3.406-1.705.851-4.262.851-6.82 0-2.557-1.703-3.41-4.257-3.41-5.108-1.704-5.108-7.672-9.365-12.786-8.513-3.41.851-6.82 2.554-10.23 4.256 0 0-.852 0-.852.851.852.852 1.705.852 1.705 1.703l4.262 3.405c2.557 1.703 5.115 4.257 7.672 5.959 1.705.852 3.41 1.703 5.967 2.554 1.705.852 3.41.852 5.115.852 2.557.851 5.115.851 7.672 2.554 5.115 1.702 10.23 1.702 15.345-1.703 10.23-5.959 20.459-11.918 29.836-16.175 2.557-1.702 5.967-2.554 6.82-5.108l8.524.852c-2.557 5.108-8.524 9.364-11.934 11.067-9.377 4.256-19.607 10.215-28.984 16.174-6.82 4.257-14.492 5.108-22.164 2.554-1.705-.851-4.262-1.702-6.82-1.702-1.705-.852-3.41-.852-5.115-1.703-2.557-.851-5.115-1.702-7.672-3.405-2.557-1.703-5.967-4.257-8.524-5.959l-4.263-3.405c-1.705-.852-2.557-1.703-4.262-3.406-1.705-1.702-2.558-4.256-2.558-5.959 0-1.702 1.705-4.256 4.263-5.108.852-.851 1.705-.851 2.557-1.702 4.263-1.703 7.672-4.257 11.935-5.108 8.524-1.703 19.606 5.108 22.164 13.621 5.114-1.703 10.23-3.405 15.344-4.257 11.082-1.702 21.312-10.215 23.87-20.431.852-4.257 1.704-9.364 1.704-14.472.853-11.067.853-22.134.853-33.201 0-3.406-.853-7.662-1.705-11.067-1.705-5.959-1.705-5.959-8.525-5.108h-3.41c-30.689 1.702-60.525-3.405-90.361-16.175-2.558-.851-4.263-1.703-6.82-2.554-3.41 6.811-8.525 11.918-14.492 15.324-7.672 4.256-12.787 10.215-18.754 17.877-3.41 4.257-5.967 7.662-10.23 11.918l-3.41 2.554c9.378 6.811 32.394 23.837 53.706 47.673 9.377 10.216 11.934 23.837 8.524 40.012 0 .851-.852 4.256-4.262 5.959h-1.705z"/>
    </g>
</svg>
