<svg xmlns="http://www.w3.org/2000/svg" width="255" height="521" fill="none" viewBox="0 0 255 521">
    <g fill="#fff" opacity=".25">
        <path d="M35.804 316.683H0l1.705-5.108c3.41-9.364 17.05-22.985 19.607-25.539 12.787-17.878 44.328-30.647 45.18-30.647l3.41 7.661s-30.688 12.77-41.77 28.094l-.853.851c-3.41 2.554-10.23 10.216-14.492 17.026h15.344v-15.324l1.705-.851c7.672-5.959 34.099-25.539 45.181-23.836l-1.705 7.661c-4.262-.851-22.164 9.365-36.656 20.432l-.852 19.58zM133.844 400.964l-9.377-13.62 5.115-1.703c.853 0 9.377-2.554 15.345 0l-3.41 7.662c-.853-.852-2.558-.852-3.41-.852l2.557 4.257-6.82 4.256zM125.316 303.065c-4.262 0-7.672-.851-9.377-.851H97.185c-12.787 0-17.902-13.621-17.902-13.621v-1.702l-.853-41.714c-.852-7.662.853-13.621 4.263-17.027 4.262-4.256 9.377-4.256 10.23-4.256h34.098c-10.23-48.525-4.262-120.035-3.41-133.655-2.557-2.554-5.967-5.108-10.229-7.662-4.263-2.554-7.673-5.108-10.23-7.662-5.967-5.108-11.082-9.364-16.197-13.62-1.705-1.703-5.115-2.555-8.525-2.555-5.114-.851-9.377-3.405-11.082-8.513-1.705-4.256-2.557-8.513-2.557-12.77 0-5.959 3.41-9.364 5.967-11.918l1.705-1.702 1.705-1.703c4.262-5.108 10.23-6.81 16.197-5.108 11.082 4.257 22.164 5.108 34.951 5.96 3.41 0 6.82.85 10.23.85 4.262 0 7.672.852 11.934 1.703L159.415 0l4.262 5.96c0 .85 8.525 11.918 5.115 27.241 6.82 7.662 9.377 14.472 16.197 34.904 4.262 12.77 10.229 29.795 19.606 56.186 11.082 31.498 35.804 57.037 68.198 73.212 15.344 7.662 31.541 11.919 48.59 16.175l1.705.851c24.722 6.811 54.558 19.581 71.607 29.796l-5.114 7.662c-17.05-9.364-44.329-22.985-68.198-29.796l-1.705-.851c-17.901-4.257-34.098-9.364-50.295-17.026-34.099-17.026-59.673-44.268-71.607-77.469-9.377-26.391-15.345-43.417-19.607-56.186-6.82-21.283-8.525-26.391-15.345-33.202l-.852-.85-2.557-1.703.852-1.703c1.705-5.96.853-11.067 0-15.323l-7.672 17.026h-3.41c-5.115-.852-9.377-1.703-13.639-1.703-3.41 0-6.82-.851-10.23-.851-11.934-.852-24.722-1.703-36.656-6.81-2.557-.852-5.115 0-6.82 2.553-.852.851-1.705 2.554-3.41 3.405l-1.705 1.703c-2.557 2.554-3.41 3.405-3.41 5.96 0 3.404 0 5.958 1.706 9.364.852 1.702 1.704 2.553 5.114 3.405 5.115.851 9.377 1.702 11.935 4.256 5.967 4.257 11.082 8.513 17.049 13.621 2.558 1.703 5.967 4.257 9.377 6.81 4.263 3.406 9.377 6.811 12.787 9.365l1.705 1.703v1.702c0 .852-8.524 86.834 4.263 137.912l1.705 5.108-44.329-.851s-2.557 0-4.262 1.702c-1.705 1.703-2.557 5.959-1.705 11.067l.853 41.714c.852 1.703 4.262 8.513 10.23 8.513H120.2c3.41.852 11.935 1.703 17.902-.851l-6.82-8.513c-2.557.851-8.524 1.703-11.082 6.81l-.852 2.554H99.742l-.853-3.405c-.852-2.554-1.704-5.108-1.704-6.81-.853 0-1.705-.852-2.558-1.703-.852-.851-3.41-3.405-.852-17.877l.852-2.554 2.558-.852c8.524-2.554 35.803-10.215 43.475-6.81.853 0 3.41.851 5.968 1.702 12.787 2.554 36.656 5.96 62.23 28.094l-5.115 5.959c-23.869-20.432-46.886-24.688-58.82-26.391-3.41-.851-5.968-.851-7.672-1.702-3.41-.852-20.46 2.554-35.804 6.81-.853 3.405-.852 5.959-.852 7.662 1.705.851 3.409 3.405 5.114 9.364h7.673c5.967-8.513 17.901-9.364 18.754-9.364h1.705l14.492 17.877-2.558 2.554c-5.967 4.257-13.639 5.959-20.459 5.959z"/>
        <path d="M230.171 155.788l-1.705-2.554c-4.262-7.662-8.524-15.323-12.787-23.836-6.819-14.473-11.934-29.796-17.049-44.268-2.557-8.513-5.967-17.027-9.377-25.54v-.85c-2.557-6.811-5.115-12.77-8.525-19.581l-6.819 6.81-5.968-5.959 14.492-14.472 2.558 4.257c5.114 7.661 8.524 17.026 11.934 25.539v.851c3.41 8.513 5.967 17.026 9.377 25.54 5.115 14.472 10.23 28.944 17.05 43.416 4.262 8.513 8.524 16.175 12.787 22.985l1.704 2.554-7.672 5.108zM256.595 426.505c-.853 0-.853-.852-1.705-.852-5.967-2.554-7.672-6.81-7.672-9.364 0-2.554 0-6.811 4.262-11.067 2.557-2.554 5.967-5.108 8.525-6.811.852-.851 2.557-1.702 3.409-2.554l5.115 6.811c-.852.851-2.557 1.702-3.41 2.554-2.557 1.702-5.114 4.256-7.672 5.959-1.705 1.703-2.557 2.554-2.557 3.405s1.705 1.703 3.41 3.405c.852 0 .852.852 1.705.852l-3.41 7.662z"/>
        <path d="M357.185 520.997c-.852 0-1.705 0-3.41-.851-8.524-3.405-14.492-8.513-18.754-15.324-1.705-3.405-2.557-8.513 0-13.621-5.115-1.702-9.377-5.108-12.787-11.067l-1.705-1.702-.852-.852c-12.787-10.215-27.279-22.134-44.328-29.795l-5.115-2.554-.853-.852c-5.967-4.256-12.787-8.513-7.672-22.134 5.115-14.472 10.23-27.241 15.344-40.011 1.705-3.405 0-5.108-.852-5.959-1.705-.851-3.41-1.703-5.967-2.554l-1.705-.851c-14.492-5.108-25.574-14.473-31.541-28.093-5.968-13.621-5.115-29.796-4.263-44.268-5.115 4.256-7.672 12.769-8.524 16.174-2.558 9.365-.001 18.729 2.557 28.945 2.557 10.215 5.115 21.282 2.557 32.349-1.705 7.662-6.819 13.621-11.082 19.581-1.705 2.553-3.41 4.256-5.115 6.81-4.262 5.959-4.262 12.77-5.114 19.58 0 3.405 0 5.959-.853 9.364l-1.705 10.216-5.967-8.513c-3.41-4.256-5.967-10.216-9.377-18.729-3.41-10.215-4.263-18.728-1.705-25.539.852-2.554 1.705-5.108 3.41-6.81.852-1.703 1.705-2.554 1.705-4.257 3.41-8.513 0-16.175-3.41-25.539-1.705-3.405-2.557-6.811-4.262-10.216-5.968-20.431.852-45.97 17.049-57.037 8.525-5.96 17.902-5.96 27.279-5.96 8.524 0 16.197 0 21.311-5.107 22.165-17.878 51.148-24.688 82.69-17.878 15.344 3.405 31.541 5.959 49.443 8.513 6.819.852 12.787 0 17.901-2.554 4.263-4.256 34.099-31.498 97.182-35.755 2.557-14.472 15.344-20.431 16.196-20.431l5.115-2.554 1.705 22.985h14.492l7.672 3.406 21.312-2.554h1.705c2.557-.852 5.967-1.703 9.377 0 4.262 1.702 5.115 7.661 5.115 10.215l-7.672 2.554c0-1.702-.853-5.108-1.705-5.959-.853 0-2.558 0-3.41.851h-2.558l-23.869 3.406-7.672-4.257h-19.607l-1.705-17.877c-3.409 2.554-5.967 7.661-6.819 13.621v3.405h-3.41c-65.64 3.405-95.476 33.201-95.476 34.052l-.853.851c-6.82 3.406-14.492 5.108-23.869 3.406-17.902-2.554-34.951-5.108-50.295-8.513-28.984-5.96-56.263 0-75.87 16.174-7.672 6.811-17.049 6.811-26.426 6.811-8.525 0-16.197 0-22.164 5.108-12.787 9.364-19.607 31.498-13.64 48.524.853 3.405 2.558 5.959 3.41 9.365 4.262 9.364 8.525 19.58 3.41 31.498l-2.557 5.108c-.853 1.702-1.705 4.256-2.558 5.959-1.705 5.108-.852 11.918 1.705 20.431.853 1.703 1.705 3.406 1.705 5.108.852-5.959 1.705-12.769 5.967-18.729l5.115-7.661c4.262-5.108 7.672-10.216 9.377-16.175 2.558-9.365 0-18.729-2.557-28.945-2.558-10.215-5.115-21.282-2.558-33.201 1.705-6.81 7.673-23.836 21.312-24.687h5.115l-.853 9.364c-.852 14.472-2.557 28.944 3.41 40.863 5.115 11.067 15.345 19.58 26.427 23.836l1.705.852c2.557.851 5.967 1.702 8.524 4.256 4.263 3.405 5.968 9.364 3.41 15.324-5.115 12.769-10.229 25.539-15.344 39.16-2.558 6.81-.853 8.513 4.262 12.769l.852.852c.853.851 1.705.851 3.41 1.702 17.902 7.662 33.247 20.432 46.886 30.647l.852.852c.853.851 2.558 1.702 3.41 3.405 2.558 5.108 6.82 7.662 11.082 8.513 1.705 0 2.558.851 3.41 1.703h.853l3.41 2.553-2.558 4.257c0 .851-.852.851-.852 1.703-2.558 2.554-2.558 5.107-1.705 6.81 2.557 5.108 6.82 8.513 13.639 11.067 3.41-13.621.853-23.837-6.819-32.35-25.574-28.944-56.263-49.375-56.263-49.375l-4.262-2.554 11.081-9.365c3.41-3.405 5.968-6.81 9.378-10.215 5.967-7.662 11.934-15.324 21.311-19.58 5.968-2.554 10.23-7.662 12.787-14.473l1.705-4.256 7.672 3.405c2.558.851 5.115 1.703 6.82 3.405 28.131 12.77 57.115 17.878 86.099 16.175h2.558c10.229-.851 13.639 0 17.049 10.216 1.705 4.256 2.557 8.513 2.557 13.621 0 11.067 0 22.134-.852 34.052 0 5.108-.853 11.067-2.558 16.175-3.409 13.621-16.196 24.688-30.688 26.39-4.263.852-8.525 1.703-13.64 3.406-1.705.851-4.262.851-6.82 0-2.557-1.703-3.409-4.257-3.409-5.108-1.705-5.108-7.673-9.365-12.787-8.513-3.41.851-6.82 2.554-10.23 4.256 0 0-.852 0-.852.851.852.852 1.704.852 1.704 1.703l4.263 3.405c2.557 1.703 5.115 4.257 7.672 5.959 1.705.852 3.41 1.703 5.967 2.554 1.705.852 3.41.852 5.115.852 2.557.851 5.115.851 7.672 2.554 5.115 1.702 10.23 1.702 15.345-1.703 10.229-5.959 20.459-11.918 29.836-16.175 2.557-1.702 5.967-2.554 6.82-5.108l8.524.852c-2.557 5.108-8.524 9.364-11.934 11.067-9.377 4.256-19.607 10.215-28.984 16.174-6.82 4.257-14.492 5.108-22.164 2.554-1.705-.851-4.262-1.702-6.82-1.702-1.705-.852-3.41-.852-5.115-1.703-2.557-.851-5.114-1.702-7.672-3.405-2.557-1.703-5.967-4.257-8.525-5.959l-4.262-3.405c-1.705-.852-2.557-1.703-4.262-3.406-1.705-1.702-2.558-4.256-2.558-5.959 0-1.702 1.705-4.256 4.263-5.108.852-.851 1.705-.851 2.557-1.702 4.262-1.703 7.672-4.257 11.935-5.108 8.524-1.703 19.606 5.108 22.164 13.621 5.115-1.703 10.229-3.405 15.344-4.257 11.082-1.702 21.312-10.215 23.869-20.431.853-4.257 1.705-9.364 1.705-14.472.853-11.067.853-22.134.853-33.201 0-3.406-.853-7.662-1.705-11.067-1.705-5.959-1.705-5.959-8.525-5.108h-3.41c-30.689 1.702-60.525-3.405-90.361-16.175-2.558-.851-4.262-1.703-6.82-2.554-3.41 6.811-8.525 11.918-14.492 15.324-7.672 4.256-12.787 10.215-18.754 17.877-3.41 4.257-5.967 7.662-10.23 11.918l-3.41 2.554c9.378 6.811 32.394 23.837 53.706 47.673 9.377 10.216 11.934 23.837 8.524 40.012 0 .851-.852 4.256-4.262 5.959h-1.705z"/>
        <path d="M242.097 512.49h-11.082c-2.558-.852-3.41-2.554-4.262-4.257 0-1.703-.853-3.405.852-5.959l.853-.851c.852-1.703 1.705-3.406 4.262-5.108 1.705-1.703 3.41-3.405 3.41-5.959 0-.852.852-1.703.852-3.406 0-.851.853-1.702.853-2.554 1.705-8.513 1.705-15.323-1.705-22.134l-.853-2.553c-1.705-2.554-2.557-5.108-3.41-7.662-.852-2.554-1.705-4.257-1.705-6.811-.852.852-2.557.852-3.409 1.703-5.968 1.703-11.082 4.256-17.902 3.405-.853.851-.853 1.703-2.558 4.257-1.705 3.405-2.557 6.81-3.409 10.215-1.705 4.257-2.558 9.365-5.968 13.621-2.557 4.257-4.262 7.662-2.557 11.919.852 1.702.852 5.107-2.557 7.661v4.257c-.853 2.554-3.41 3.405-5.115 4.256-1.705.852-2.558.852-4.263.852l-2.557.851H175.605c-.853 0-1.705 0-2.558-.851-3.41-.852-4.262-2.554-5.115-3.405-.852-.852-.852-3.406.853-5.96 0-.851.852-.851.852-1.702 1.705-2.554 2.558-5.108 5.115-6.811 3.41-2.554 5.115-5.959 5.967-11.067v-2.554c.853-5.959 1.705-12.769 5.115-18.728.853-1.703.853-2.554-1.705-5.96-.852-.851-1.705-1.702-1.705-2.553-5.114 4.256-14.492 8.513-18.754 9.364-2.557 0-5.115 1.703-7.672 2.554h-.853c0 .851.853 1.702 1.705 2.554.853.851.853 1.702 1.705 2.554 0 .851.853.851.853.851 1.705-.851 3.41-.851 4.262-.851 6.82.851 10.23 5.108 11.935 12.769 0 1.703.852 5.108-1.705 7.662-2.558 2.554-5.968 1.703-7.672.851-3.41-.851-7.673-1.702-11.083-1.702-5.967 0-9.377-1.703-10.229-8.513-.853-2.554-1.705-5.108-3.41-7.662-2.557-2.554-4.262-5.108-5.115-8.513-3.41-5.959-.852-10.216.853-11.918 1.705-1.703 5.967-5.108 11.082-8.514 1.705-1.702 4.262-2.553 5.115-3.405l.852-.851c4.262-3.405 6.82-5.108 6.82-6.811-.853-.851-.853-2.553-1.705-3.405-2.558-5.959-5.115-12.769-9.377-17.877-4.263 4.256-6.82 11.067-8.525 16.175-.853 3.405-1.705 4.256-2.557 5.959-.853 1.702-2.558 4.256-4.263 11.067v5.959c-.852 7.662-9.377 11.918-17.902 11.918h-.852c-5.115 0-7.672-2.554-9.377-4.256l-.853-1.703c0-.851-.852-.851-.852-.851-4.262-3.405-5.115-7.662-3.41-12.77 3.41-7.662 3.41-15.323 4.262-23.836 0-2.554.853-5.108.853-6.811 0-1.703.852-4.256.852-5.959l-15.344-2.554 2.557-5.108c0-.851 5.968-9.364 15.345-12.769.852-8.514 5.115-34.053 23.869-49.376 12.787-10.216 27.279-13.621 46.885-10.216v8.513c-17.049-3.405-31.541 0-41.77 7.662-19.607 15.323-21.312 45.97-21.312 45.97v3.406l-3.41.851c-3.41.851-5.967 2.554-8.525 4.257l10.23 1.702-.852 4.257c-.853 3.405-.853 6.81-1.705 9.364 0 2.554-.853 4.257-.853 6.811-.852 8.513-1.705 17.026-5.115 26.39-.852 1.703 0 2.554.853 3.405l2.557 2.554.853.852c1.705 1.702 1.705 1.702 3.41 1.702 4.262 0 9.377-1.702 10.229-4.256v-1.703c0-1.703 0-3.405.853-5.108 2.557-7.662 4.262-10.216 5.114-12.769.853-1.703.853-2.554 1.705-5.108 2.558-7.662 5.968-17.026 14.492-22.986l3.41-1.702 2.558 2.554c5.967 6.81 9.377 15.323 12.787 22.985l2.557 5.108c1.705 5.108-3.41 9.364-10.23 15.323l-.852.852c-.853.851-3.41 2.554-5.115 4.256-3.41 2.554-8.525 5.959-10.23 7.662 0 0-.852.851 0 3.405.853 1.703 2.558 4.257 4.263 6.811l.852.851c0-.851-.852-.851-.852-1.703-.853-1.702-.853-4.256 0-5.959.852-1.702 2.557-3.405 4.262-4.256h.853c2.557-1.703 5.967-2.554 10.229-3.406 4.263-.851 14.492-5.959 17.05-9.364l1.704-1.703 5.115-3.405.853 5.959c0 1.703 1.705 3.406 3.41 5.96 2.557 3.405 5.967 8.513 2.557 15.323-2.558 4.257-3.41 9.364-4.262 14.472 0 0 0-.851.852-.851 2.557-3.405 3.41-7.662 5.115-11.918.852-3.406 2.557-6.811 4.262-11.067 2.558-5.108 5.115-8.513 7.672-9.365h3.41c5.115.852 9.377-.851 14.492-2.554 1.705-.851 4.263-1.702 5.967-1.702l5.968-1.703.852 4.257c0 .851.853 2.554.853 3.405.852 2.554.852 4.256 1.705 6.81.852 2.554 1.705 4.257 3.409 6.811l.853 2.554c3.41 5.959 4.262 11.918 4.262 18.729.853-1.703 1.705-3.406 2.558-4.257.852-1.703.852-2.554 0-3.405-4.263-5.959-5.115-12.77-2.558-20.432 1.705-4.256 1.705-5.107 4.263-7.661l5.114-5.108 2.558 5.108c4.262 7.661 6.82 9.364 14.492 10.215 5.114.852 5.967 4.257 5.967 5.959 0 .852.852 1.703.852 2.554.853 3.406 1.705 5.96-.852 11.067-1.705 4.257-1.705 5.108 0 6.811l.852-3.405c0-.852 4.263-11.067 4.263-11.919l5.967 3.406c0 1.702-.852 5.107-1.705 5.959 3.41.851 4.262 4.256 5.967 7.661.853 1.703.853 3.406.853 5.108l1.705 7.662h-5.115c-5.967 0-11.082-1.703-14.492-5.108-8.525-6.81-9.377-9.364-5.967-19.58.852-3.405.852-3.405 0-5.959 0-.851-.853-1.703-.853-2.554-7.672-.851-12.787-3.405-17.049-9.364v.851c-1.705 5.959-.853 10.216 1.705 13.621 2.557 4.256 2.557 8.513 0 12.77-2.558 3.405-4.262 5.959-4.262 9.364v5.959c0 1.703.852 5.108-2.558 7.662.853 1.702.853 4.256 0 5.959-1.705 2.554-4.262 3.405-6.82 4.257l-.852-2.554zm-5.115-8.513h5.115v-.852c-.853-2.554 0-5.959 2.557-7.662v-.851-1.702c-.852 4.256-3.41 6.81-6.819 10.215l-.853.852zm-60.525-2.554h2.558c.852 0 1.704 0 2.557-.852-.853-2.554.852-5.108 2.557-6.81 0-.851-.852-1.703-.852-2.554-1.705 2.554-3.41 4.256-5.115 5.959-.852.851-1.705 2.554-2.557 4.257h.852zm106.558-20.432c.853 0 .853.852 1.705.852.853.851 2.558 1.702 4.263 2.553 0-.851 0-.851-.853-1.702-.852-1.703-.852-2.554-.852-2.554h-1.705l-2.558.851zm-130.427-2.554h2.557c4.263 0 8.525.852 11.935 1.703-.853-4.257-2.557-5.108-4.262-5.108h-.853c-2.557.851-7.672 1.703-11.082-4.256 0-.852-.852-.852-1.705-1.703v-.851c1.705 2.554 2.558 5.959 3.41 8.513-.852.851-.852 1.702 0 1.702z"/>
    </g>
</svg>
