<svg width="453" height="459" viewBox="0 0 453 459" fill="none" xmlns="http://www.w3.org/2000/svg">
<g opacity="0.25">
<path d="M147.623 207.539L140.12 210.536C140.12 136.361 180.634 116.131 182.135 115.382L183.636 114.633L197.891 122.875L194.139 128.868L183.636 122.875C180.634 125.122 173.132 129.618 166.379 140.107C158.126 152.095 147.623 170.826 147.623 207.539Z" fill="#4A8DC1"/>
<path d="M411.712 202.296L404.96 199.299L410.212 188.06C404.96 188.809 397.457 190.308 393.706 194.803L388.454 189.559C397.457 179.818 416.214 179.818 416.964 179.818H422.216L411.712 202.296Z" fill="#4A8DC1"/>
<path d="M320.189 358.89L320.939 353.645C321.689 342.406 327.692 326.672 327.692 325.923L329.942 320.678L340.446 331.168L346.448 325.174L338.946 295.953C335.194 295.953 329.192 297.451 324.691 301.947C315.687 310.938 297.681 307.192 296.931 307.192L298.431 300.448C302.933 301.198 314.937 301.947 320.189 297.451C329.192 289.21 341.947 289.21 342.697 289.21H345.698L355.451 328.171L341.196 341.657L334.444 334.165C332.943 337.911 331.443 343.905 330.693 349.149L342.697 345.403L359.203 333.415C362.204 318.43 365.205 282.467 352.45 272.726L356.952 266.732C376.459 281.717 365.955 334.165 365.955 336.412V337.911L346.448 352.146L320.189 358.89Z" fill="#4A8DC1"/>
<path d="M367.448 380.618L365.948 378.371C365.948 377.621 359.195 368.631 366.698 351.398L368.199 348.401L384.704 352.147L397.459 347.652C398.209 340.908 398.959 327.422 397.459 322.177C395.208 313.186 378.702 310.189 372.7 309.44L373.45 301.948C374.951 301.948 401.21 303.446 404.961 319.93C407.212 328.921 404.961 349.899 404.961 350.649V352.896L386.205 358.89L374.201 355.893C371.95 362.637 371.95 367.132 372.7 370.129L386.205 363.386L406.462 358.141C408.713 353.646 416.966 335.664 413.214 304.195L420.717 300.449C425.969 340.159 412.464 361.887 412.464 363.386L411.714 364.884L388.456 370.129L367.448 380.618Z" fill="#4A8DC1"/>
<path d="M275.913 343.156L275.163 335.664C306.674 331.917 322.43 313.936 322.43 313.936L327.682 318.431C326.932 319.18 309.675 338.661 275.913 343.156Z" fill="#4A8DC1"/>
<path d="M-97.7077 266.731C-101.459 266.731 -104.46 265.982 -105.961 265.982H-122.466C-133.72 265.982 -138.222 253.994 -138.222 253.994V252.496L-138.972 215.783C-139.723 209.04 -138.222 203.795 -135.221 200.798C-131.47 197.052 -126.968 197.052 -126.218 197.052H-96.2072C-105.21 154.345 -99.9584 91.408 -99.2082 79.42C-101.459 77.1723 -104.46 74.9246 -108.211 72.6768C-111.963 70.4291 -114.964 68.1814 -117.215 65.9336C-122.466 61.4381 -126.968 57.6919 -131.47 53.9457C-132.97 52.4472 -135.971 51.6979 -138.972 51.6979C-143.474 50.9487 -147.225 48.701 -148.726 44.2055C-150.226 40.4593 -150.977 36.713 -150.977 32.9668C-150.977 27.7221 -147.975 24.7251 -145.725 22.4774L-144.224 20.9789C-143.474 20.2296 -142.724 19.4804 -142.724 19.4804C-138.972 14.9849 -133.72 13.4864 -128.469 14.9849C-118.715 18.7311 -108.962 19.4804 -97.7077 20.2296C-94.7066 20.2296 -91.7056 20.9789 -88.7045 20.9789C-84.9532 20.9789 -81.952 21.7281 -78.2007 22.4774L-67.6971 0L-63.9457 5.24472C-63.9457 5.99397 -56.443 15.7342 -59.4441 29.2206C-53.442 35.9638 -51.1912 41.9578 -45.1891 59.9397C-41.4378 71.1783 -36.1859 86.1633 -27.933 109.39C-18.1795 137.112 3.57819 159.589 32.0883 173.825C45.593 180.568 59.8481 184.314 74.8534 188.061L76.3539 188.81C98.1116 194.804 124.371 206.043 139.376 215.034L134.875 221.777C119.869 213.535 95.8608 201.547 74.8534 195.553L73.3529 194.804C57.5973 191.058 43.3422 186.562 29.0871 179.819C-0.923477 164.834 -23.4314 140.858 -33.9351 111.638C-42.188 88.411 -47.4399 73.4261 -51.1912 62.1874C-57.1934 43.4562 -58.6939 38.9608 -64.696 32.9668L-65.4462 32.2176L-67.6971 30.7191L-66.9467 29.2206C-65.4462 23.9759 -66.1965 19.4804 -66.9467 15.7342L-73.6992 30.7191H-76.7002C-81.2018 29.9698 -84.9532 29.2206 -88.7045 29.2206C-91.7056 29.2206 -94.7066 28.4713 -97.7077 28.4713C-108.211 27.7221 -119.465 26.9728 -129.969 22.4774C-132.22 21.7281 -134.471 22.4774 -135.971 24.7251C-136.722 25.4744 -137.472 26.9728 -138.972 27.7221L-140.473 29.2206C-142.724 31.4683 -143.474 32.2176 -143.474 34.4653C-143.474 37.4623 -143.474 39.71 -141.973 42.707C-141.223 44.2055 -140.473 44.9547 -137.472 45.704C-132.97 46.4532 -129.219 47.2025 -126.968 49.4502C-121.716 53.1964 -117.215 56.9427 -111.963 61.4381C-109.712 62.9366 -106.711 65.1844 -103.71 67.4321C-99.9585 70.4291 -95.4569 73.4261 -92.4558 75.6738L-90.9553 77.1723V78.6708C-90.9553 79.42 -98.458 155.094 -87.204 200.049L-85.7034 204.544L-124.717 203.795C-124.717 203.795 -126.968 203.795 -128.469 205.293C-129.969 206.792 -130.719 210.538 -129.969 215.034L-129.219 251.747C-128.469 253.245 -125.467 259.239 -120.216 259.239H-102.209C-99.2082 259.988 -91.7055 260.737 -86.4537 258.49L-92.4558 250.997C-94.7066 251.747 -99.9585 252.496 -102.209 256.991L-102.96 259.239H-120.216L-120.966 256.242C-121.716 253.994 -122.466 251.747 -122.466 250.248C-123.217 250.248 -123.967 249.499 -124.717 248.75C-125.468 248 -127.718 245.753 -125.467 233.015L-124.717 230.768L-122.466 230.018C-114.964 227.771 -90.9553 221.027 -84.2029 224.024C-83.4526 224.024 -81.2018 224.774 -78.951 225.523C-67.6971 227.771 -46.6896 230.768 -24.1816 250.248L-28.6833 255.493C-49.6907 237.511 -69.9478 233.765 -80.4515 232.266C-83.4526 231.517 -85.7035 231.517 -87.204 230.768C-90.2051 230.018 -105.21 233.015 -118.715 236.762C-119.465 239.759 -119.465 242.006 -119.465 243.505C-117.965 244.254 -116.464 246.502 -114.964 251.747H-108.211C-102.959 244.254 -92.4558 243.505 -91.7055 243.505H-90.205L-77.4505 259.239L-79.7013 261.487C-84.9532 265.233 -91.7055 266.731 -97.7077 266.731Z" fill="#4A8DC1"/>
<path d="M-5.42297 137.111L-6.92348 134.863C-10.6748 128.12 -14.4261 121.377 -18.1775 113.885C-24.1796 101.147 -28.6812 87.6609 -33.1828 74.9237C-35.4336 67.4313 -38.4347 59.9388 -41.4357 52.4464V51.6971C-43.6865 45.7032 -45.9373 40.4585 -48.9384 34.4645L-54.9405 40.4585L-60.1924 35.2137L-47.4379 22.4766L-45.1871 26.2228C-40.6855 32.966 -37.6845 41.2077 -34.6834 48.7002V49.4494C-31.6823 56.9419 -29.4315 64.4343 -26.4304 71.9268C-21.9288 84.6639 -17.4272 97.4011 -11.4251 110.138C-7.67379 117.631 -3.92246 124.374 -0.171131 130.368L1.32938 132.616L-5.42297 137.111Z" fill="#4A8DC1"/>
<path d="M167.881 199.304L160.378 202.301C160.378 200.053 163.379 141.612 193.39 123.63C193.39 114.639 193.39 111.642 195.64 105.648L198.642 97.4062L202.393 104.899C202.393 104.899 205.394 110.143 209.895 113.89C227.152 110.893 228.652 115.388 229.402 116.887C230.153 118.385 233.154 120.633 236.155 122.131L245.158 122.881C247.409 122.881 253.411 122.131 255.662 122.131C263.915 121.382 269.166 124.379 272.918 131.872C272.918 131.872 272.918 132.621 273.668 132.621C278.17 140.113 275.919 145.358 273.668 148.355C270.667 152.85 265.415 155.098 259.413 154.349C257.913 154.349 254.161 154.349 253.411 155.098C250.41 157.346 233.154 170.083 212.146 167.086C210.646 172.331 209.145 182.071 209.145 186.566L201.643 188.065C201.643 180.572 205.394 163.34 205.394 162.591L206.144 158.844L209.895 159.594C230.903 164.089 248.909 149.853 248.909 149.104L249.66 148.355C251.91 146.856 257.913 146.856 259.413 146.856C263.164 146.856 265.415 146.107 266.916 143.859C268.416 142.361 269.167 140.113 266.916 135.618C266.165 134.869 266.165 134.119 266.165 133.37C263.915 128.875 261.664 127.376 256.412 127.376C253.411 127.376 248.159 128.125 245.158 128.125L233.904 127.376L233.154 126.627C231.653 125.878 225.651 122.131 223.4 117.636C221.149 116.887 215.147 117.636 209.895 118.385H208.395L206.894 117.636C203.893 116.137 201.643 113.89 200.142 112.391C200.142 114.639 200.142 117.636 200.142 122.131V128.125L197.891 128.875C170.131 143.11 167.881 198.554 167.881 199.304Z" fill="#4A8DC1"/>
<path d="M102.61 408.341L95.8574 403.096C95.1071 400.848 95.1071 397.851 93.6066 395.604C88.3547 388.111 75.6001 380.619 67.3472 376.872L65.8467 376.123L71.0985 372.377L72.599 373.126C79.3515 376.123 87.6045 379.869 94.3569 386.613C100.359 392.607 103.36 400.099 102.61 408.341Z" fill="#4A8DC1"/>
<path d="M17.8319 375.371C17.0816 375.371 17.0817 374.622 16.3314 374.622C11.0796 372.374 9.5791 368.628 9.5791 366.38C9.5791 364.133 9.5791 360.386 13.3304 356.64C15.5812 354.392 18.5822 352.145 20.833 350.646C21.5833 349.897 23.0837 349.148 23.834 348.398L28.3356 354.392C27.5854 355.142 26.0848 355.891 25.3345 356.64C23.0837 358.139 20.833 360.386 18.5822 361.885C17.0817 363.383 16.3314 364.133 16.3314 364.882C16.3314 365.631 17.832 366.38 19.3325 367.879C20.0828 367.879 20.0827 368.628 20.833 368.628L17.8319 375.371Z" fill="#4A8DC1"/>
<path d="M207.641 417.329L206.891 415.081C206.891 415.081 202.389 406.09 205.39 398.598C207.641 393.353 212.142 390.356 218.145 388.108L219.645 387.359L224.147 390.356C226.397 391.854 228.648 393.353 230.899 394.851C232.4 395.601 232.4 395.601 233.15 394.851C236.901 391.105 240.653 389.607 244.404 388.857C251.907 386.61 257.158 381.365 263.161 375.371C263.161 375.371 263.911 374.622 263.911 373.872C263.911 373.123 263.161 373.123 262.41 372.374C260.91 370.875 259.409 370.126 257.158 369.377C250.406 366.38 242.903 363.383 236.151 360.386L231.649 358.887C230.899 362.634 229.399 366.38 228.648 370.126C227.148 375.371 225.647 380.616 224.897 385.111L218.145 382.863C219.645 378.368 221.146 373.123 221.896 367.878C223.396 362.634 224.897 357.389 225.647 352.894L226.397 349.147L230.899 350.646C231.649 350.646 231.649 350.646 232.4 351.395L238.402 353.643C245.154 356.64 252.657 359.637 259.409 362.634C262.41 363.383 264.661 364.881 266.162 367.129C268.412 369.377 269.913 371.625 269.913 373.872C269.913 375.371 269.913 378.368 266.912 380.616C261.66 385.86 254.157 393.353 245.154 395.601C241.403 396.35 239.152 397.848 236.901 400.096C233.9 403.093 229.399 403.842 225.647 400.845C223.396 399.347 221.146 397.848 218.895 397.099C218.145 397.099 217.394 396.35 217.394 396.35C213.643 397.848 211.392 399.347 210.642 401.594C209.141 404.591 209.892 408.338 210.642 409.836H217.394C219.645 409.836 221.896 409.836 224.147 409.836L229.399 409.087C233.15 409.087 236.901 408.338 239.902 407.588C242.153 407.588 243.654 406.839 245.154 405.341C249.656 402.344 253.407 398.598 257.158 394.851C261.66 391.105 266.912 386.61 271.413 382.863C275.915 379.117 278.166 375.371 278.166 371.625C278.166 367.878 276.665 364.132 272.914 360.386C270.663 358.138 268.412 355.891 265.411 354.392L263.911 353.643C251.906 343.903 243.654 333.413 236.901 322.924C230.149 311.685 227.148 300.446 227.148 289.957C226.398 259.238 277.416 228.519 279.666 227.77L283.418 233.764C282.667 233.764 233.9 263.733 233.9 289.957C233.9 299.697 236.901 309.437 242.903 319.177C248.905 329.667 257.158 338.658 268.412 348.398L269.913 349.147C272.164 351.395 275.165 353.643 277.416 355.891C282.667 361.135 285.668 367.129 284.918 373.123C284.918 379.117 281.167 385.111 275.165 389.607C270.663 393.353 265.411 397.099 260.91 401.594C257.158 405.341 252.657 408.338 248.155 412.084C245.904 414.332 242.153 415.081 239.902 415.83C236.151 416.579 232.4 416.579 228.648 417.329L223.396 418.078C221.146 418.078 218.145 418.827 215.894 418.078L207.641 417.329Z" fill="#4A8DC1"/>
<path d="M401.963 303.446C401.213 303.446 401.213 303.446 400.462 303.446C397.461 303.446 393.71 301.947 390.709 296.703V295.953C390.709 294.455 388.458 283.216 390.709 276.473C391.459 273.476 388.458 266.733 386.207 263.736L385.457 262.986L381.706 251.748C380.205 251.748 377.955 250.999 375.704 249.5L377.204 283.965L385.457 285.464V292.956L370.452 290.709L368.201 226.273L375.704 239.76C378.705 245.754 383.957 245.754 384.707 245.754H387.708L388.458 248.751L392.21 261.488C394.46 264.485 400.463 273.476 397.461 280.968C395.961 284.715 396.711 292.207 397.461 295.953C398.962 298.201 400.463 298.95 401.213 298.95C405.714 299.699 413.217 293.706 416.968 289.959L422.97 212.038L424.471 211.289C429.723 207.542 435.725 198.551 439.476 192.557L424.471 193.307L423.721 191.059C420.72 182.817 415.468 176.823 408.715 174.576C398.962 171.579 387.708 173.826 374.203 181.319C362.949 187.313 352.446 195.554 342.692 203.047C341.192 204.545 338.941 206.044 337.44 207.542C325.436 217.283 311.181 227.772 296.176 233.017L293.925 226.273C308.18 221.778 321.685 211.289 332.939 202.298C334.439 200.799 336.69 199.301 338.191 197.802C348.694 189.56 359.198 181.319 371.202 175.325C386.207 167.832 399.712 164.835 410.966 168.582C419.219 170.829 425.971 177.572 429.723 187.313L452.981 185.814L449.98 191.808C449.23 192.557 439.476 209.79 430.473 217.283L423.721 289.959L422.97 290.709C422.22 292.207 411.717 303.446 401.963 303.446Z" fill="#4A8DC1"/>
<path d="M317.933 202.296L314.182 196.302C321.684 191.807 328.437 185.813 335.189 181.317C336.69 179.819 338.94 178.32 340.441 176.822C350.945 168.58 361.448 160.338 373.453 154.344C388.458 146.852 401.963 143.855 413.217 147.601C423.72 150.598 434.224 162.586 437.225 171.577L438.726 175.323L422.22 178.32L420.719 171.577L428.972 170.078C425.221 163.335 417.718 156.592 411.716 154.344C401.963 151.347 390.709 153.595 377.204 161.087C365.95 167.081 355.446 175.323 345.693 182.816C344.192 184.314 341.941 185.813 340.441 187.311C332.938 191.807 325.436 197.801 317.933 202.296Z" fill="#4A8DC1"/>
<path d="M145.382 230.021L139.38 225.526C161.138 197.054 227.161 189.562 229.412 189.562L233.163 188.812V206.794H225.66V197.054C212.156 199.302 161.888 208.293 145.382 230.021Z" fill="#4A8DC1"/>
<path d="M106.362 458.536C105.612 458.536 104.862 458.536 103.361 457.787C95.8584 454.79 90.6066 450.295 86.8553 444.301C85.3548 441.304 84.6045 436.808 86.8553 432.313C82.3537 430.814 78.6024 427.817 75.6013 422.573C75.6013 422.573 74.8509 421.823 74.1007 421.074L73.3505 420.325C62.0965 411.334 49.342 400.845 34.3367 394.101C32.8362 393.352 31.3356 392.603 29.8351 391.854L29.0848 391.104C23.8329 387.358 17.8308 383.612 22.3324 371.624C26.834 358.887 31.3356 347.648 35.8372 336.409C37.3378 333.412 35.8372 331.914 35.0869 331.165C33.5864 330.416 32.0859 329.666 29.8351 328.917L28.3346 328.168C15.5801 323.672 5.82663 315.431 0.574768 303.443C-4.67709 291.455 -3.92683 277.219 -3.17656 264.482C-7.67815 268.228 -9.92895 275.721 -10.6792 278.718C-12.93 286.959 -10.6793 295.201 -8.42851 304.192C-6.17772 313.183 -3.9269 322.923 -6.17769 332.663C-7.67822 339.406 -12.1798 344.651 -15.9312 349.896C-17.4317 352.144 -18.9322 353.642 -20.4327 355.89C-24.184 361.135 -24.1841 367.129 -24.9343 373.123C-24.9343 376.12 -24.9343 378.367 -25.6845 381.364L-27.1851 390.355L-32.437 382.863C-35.438 379.116 -37.6888 373.872 -40.6898 366.379C-43.6909 357.388 -44.4413 349.896 -42.1905 343.902C-41.4402 341.654 -40.6899 339.406 -39.1893 337.908C-38.4391 336.409 -37.6888 335.66 -37.6888 334.162C-34.6878 326.669 -37.6888 319.926 -40.6898 311.684C-42.1904 308.687 -42.9406 305.69 -44.4412 302.693C-49.693 284.712 -43.6909 262.234 -29.4359 252.494C-21.9332 247.249 -13.6803 247.249 -5.42738 247.249C2.07528 247.249 8.82766 247.249 13.3293 242.754C32.8362 227.02 58.3452 221.026 86.105 227.02C99.6098 230.017 113.865 232.264 129.62 234.512C135.623 235.261 140.874 234.512 145.376 232.264C149.127 228.518 175.387 204.542 230.906 200.796C233.157 188.059 244.411 182.814 245.161 182.814L249.663 180.566L251.163 200.796H263.918L270.67 203.793L289.427 201.545C290.177 201.545 290.177 201.545 290.927 201.545C293.178 200.796 296.179 200.047 299.18 201.545C302.932 203.044 303.682 208.288 303.682 210.536L296.93 212.784C296.93 211.285 296.179 208.288 295.429 207.539C294.679 207.539 293.178 207.539 292.428 208.288C291.678 208.288 290.927 208.288 290.177 208.288L269.17 211.285L262.417 207.539H245.161L243.661 191.805C240.66 194.053 238.409 198.548 237.659 203.793V206.79H234.658C176.887 209.787 150.628 236.011 150.628 236.76L149.878 237.509C143.875 240.506 137.123 242.005 128.87 240.506C113.115 238.258 98.1092 236.011 84.6045 233.014C59.0954 227.769 35.0869 233.014 17.8308 247.249C11.0784 253.243 2.82554 253.243 -5.42738 253.243C-12.93 253.243 -19.6825 253.243 -24.9343 257.739C-36.1883 265.98 -42.1904 285.461 -36.9385 300.446C-36.1882 303.443 -34.6878 305.69 -33.9375 308.687C-30.1862 316.929 -26.4349 325.92 -30.9365 336.409C-31.6867 337.908 -32.4369 339.406 -33.1872 340.905C-33.9374 342.403 -34.6877 344.651 -35.438 346.15C-36.9385 350.645 -36.1883 356.639 -33.9375 364.132C-33.1872 365.63 -32.437 367.129 -32.437 368.627C-31.6867 363.382 -30.9365 357.388 -27.1851 352.144C-25.6846 349.896 -24.184 347.648 -22.6835 345.4C-18.9322 340.905 -15.9311 336.409 -14.4305 331.165C-12.1797 322.923 -14.4306 314.681 -16.6814 305.69C-18.9322 296.699 -21.183 286.959 -18.9322 276.47C-17.4317 270.476 -12.1798 255.491 -0.175545 254.742H4.3261L3.57578 262.983C2.82552 275.721 1.32494 288.458 6.5768 298.947C11.0784 308.687 20.0816 316.18 29.8351 319.926L31.3356 320.675C33.5864 321.425 36.5874 322.174 38.8382 324.422C42.5896 327.419 44.0902 332.663 41.8394 337.908C37.3378 349.147 32.8362 360.385 28.3346 372.373C26.0838 378.367 27.5843 379.866 32.0859 383.612L32.8361 384.361C33.5864 385.11 34.3367 385.11 35.8372 385.86C51.5928 392.603 65.0976 403.842 77.1018 412.833L77.852 413.582C78.6023 414.331 80.1029 415.08 80.8531 416.579C83.1039 421.074 86.8553 423.322 90.6066 424.071C92.1071 424.071 92.8574 424.82 93.6076 425.57C93.6076 425.57 93.6077 425.57 94.3579 425.57L97.359 427.817L95.1081 431.564C95.1081 432.313 94.3579 432.313 94.3579 433.062C92.1071 435.31 92.1071 437.558 92.8573 439.056C95.1081 443.552 98.8595 446.549 104.862 448.796C107.863 436.808 105.612 427.817 98.8595 420.325C76.3515 394.851 49.342 376.869 49.342 376.869L45.5907 374.621L55.3441 366.379C58.3451 363.382 60.596 360.385 63.597 357.388C68.8489 350.645 74.1007 343.902 82.3537 340.156C87.6055 337.908 91.3568 333.412 93.6076 327.419L95.1081 323.672L101.861 326.669C104.111 327.419 106.362 328.168 107.863 329.666C132.621 340.905 158.13 345.4 183.639 343.902C184.39 343.902 185.14 343.902 185.89 343.902C194.893 343.153 197.895 343.902 200.896 352.893C202.396 356.639 203.146 360.385 203.146 364.881C203.146 374.621 203.146 384.361 202.396 394.851C202.396 399.346 201.646 404.591 200.145 409.086C197.144 421.074 185.89 430.814 173.136 432.313C169.384 433.062 165.633 433.811 161.132 435.31C159.631 436.059 157.38 436.059 155.129 435.31C152.879 433.811 152.128 431.564 152.128 430.814C150.628 426.319 145.376 422.573 140.874 423.322C137.873 424.071 134.872 425.57 131.871 427.068C131.871 427.068 131.121 427.068 131.121 427.817C131.871 428.567 132.621 428.567 132.621 429.316L136.373 432.313C138.624 433.811 140.874 436.059 143.125 437.558C144.626 438.307 146.126 439.056 148.377 439.805C149.878 440.555 151.378 440.555 152.879 440.555C155.129 441.304 157.38 441.304 159.631 442.802C164.133 444.301 168.634 444.301 173.136 441.304C182.139 436.059 191.142 430.814 199.395 427.068C201.646 425.57 204.647 424.82 205.397 422.573L212.9 423.322C210.649 427.817 205.397 431.564 202.396 433.062C194.143 436.808 185.14 442.053 176.887 447.298C170.885 451.044 164.133 451.793 157.38 449.546C155.88 448.796 153.629 448.047 151.378 448.047C149.878 447.298 148.377 447.298 146.877 446.549C144.626 445.799 142.375 445.05 140.124 443.552C137.873 442.053 134.872 439.805 132.621 438.307L128.87 435.31C127.37 434.561 126.619 433.811 125.119 432.313C123.618 430.814 122.868 428.567 122.868 427.068C122.868 425.57 124.368 423.322 126.619 422.573C127.37 421.823 128.12 421.823 128.87 421.074C132.621 419.576 135.623 417.328 139.374 416.579C146.877 415.08 156.63 421.074 158.881 428.567C163.382 427.068 167.884 425.57 172.385 424.82C182.139 423.322 191.142 415.83 193.393 406.839C194.143 403.092 194.893 398.597 194.893 394.101C195.644 384.361 195.644 374.621 195.644 364.881C195.644 361.884 194.893 358.138 194.143 355.141C192.643 349.896 192.643 349.896 186.641 350.645C185.89 350.645 184.39 350.645 183.639 350.645C156.63 352.144 130.371 347.648 104.111 336.409C101.861 335.66 100.36 334.911 98.1093 334.162C95.1082 340.156 90.6065 344.651 85.3547 347.648C78.6023 351.394 74.1007 356.639 68.8489 363.382C65.8478 367.129 63.597 370.126 59.8457 373.872L56.8447 376.119C65.0976 382.113 85.3547 397.098 104.111 418.077C112.364 427.068 114.615 439.056 111.614 453.292C111.614 454.041 110.864 457.038 107.863 458.536C107.863 458.536 107.112 458.536 106.362 458.536Z" fill="#4A8DC1"/>
<path d="M5.07207 451.047H-3.9311H-4.68141C-6.93221 450.298 -7.68247 448.8 -8.43274 447.301C-8.43274 445.803 -9.18295 444.304 -7.68243 442.057L-6.93211 441.307C-6.18185 439.809 -5.43158 438.31 -3.18079 436.812C-1.68025 435.313 -0.179771 433.815 -0.179771 431.567C-0.179771 430.818 0.570541 430.069 0.570541 428.57C0.570541 427.821 1.32074 427.072 1.32074 426.322C2.82127 418.83 2.82129 412.836 -0.179771 406.842L-0.930084 404.594C-2.43061 402.346 -3.18083 400.099 -3.9311 397.851C-4.68137 395.603 -5.4316 394.105 -5.4316 391.857C-6.18187 392.606 -7.68247 392.606 -8.43274 393.356C-13.6846 394.854 -18.1861 397.102 -24.1882 396.353C-24.9385 397.102 -24.9385 397.851 -26.4391 400.099C-27.9396 403.096 -28.6898 406.093 -29.4401 409.09C-30.9406 412.836 -31.691 417.331 -34.692 421.078C-36.9428 424.824 -38.4433 427.821 -36.9427 431.567C-36.1925 433.066 -36.1925 436.063 -39.1936 438.31C-39.1936 439.809 -39.1936 441.307 -39.1936 442.057C-39.9438 444.304 -42.1947 445.053 -43.6952 445.803C-45.1957 446.552 -45.946 446.552 -47.4465 446.552L-49.6973 447.301H-52.6984H-53.4487C-54.1989 447.301 -54.9491 447.301 -55.6994 446.552C-58.7004 445.803 -59.4508 444.304 -60.201 443.555C-60.9513 442.806 -60.9512 440.558 -59.4507 438.31C-59.4507 437.561 -58.7005 437.561 -58.7005 436.812C-57.2 434.564 -56.4497 432.316 -54.1989 430.818C-51.1978 428.57 -49.6973 425.573 -48.947 421.078V418.83C-48.1968 413.585 -47.4465 407.591 -44.4454 402.346C-43.6951 400.848 -43.6952 400.099 -45.946 397.102C-46.6963 396.353 -47.4465 395.603 -47.4465 394.854C-51.9481 398.6 -60.201 402.346 -63.9523 403.096C-66.2031 403.096 -68.4539 404.594 -70.7047 405.343H-71.455C-71.455 406.093 -70.7048 406.842 -69.9545 407.591C-69.2042 408.34 -69.2043 409.09 -68.454 409.839C-68.454 410.588 -67.7037 410.588 -67.7037 410.588C-66.2031 409.839 -64.7026 409.839 -63.9523 409.839C-57.9502 410.588 -54.9492 414.334 -53.4487 421.078C-53.4487 422.576 -52.6984 425.573 -54.9492 427.821C-57.2 430.069 -60.201 429.319 -61.7015 428.57C-64.7026 427.821 -68.4539 427.072 -71.455 427.072C-76.7069 427.072 -79.7079 425.573 -80.4582 419.579C-81.2084 417.331 -81.9588 415.084 -83.4593 412.836C-85.7101 410.588 -87.2106 408.34 -87.9608 405.343C-90.9619 400.099 -88.7112 396.352 -87.2106 394.854C-85.7101 393.356 -81.9587 390.359 -77.4571 387.362C-75.9566 385.863 -73.7058 385.114 -72.9555 384.365L-72.2053 383.615C-68.454 380.618 -66.2032 379.12 -66.2032 377.621C-66.9534 376.872 -66.9534 375.374 -67.7037 374.624C-69.9545 369.38 -72.2053 363.386 -75.9566 358.89C-79.708 362.636 -81.9588 368.63 -83.4593 373.126C-84.2096 376.123 -84.9597 376.872 -85.71 378.371C-86.4603 379.869 -87.9608 382.117 -89.4613 388.111C-89.4613 388.86 -89.4613 388.86 -89.4613 390.359C-89.4613 391.108 -89.4613 392.606 -89.4613 393.356C-90.2116 400.099 -97.7143 403.845 -105.217 403.845C-105.217 403.845 -105.217 403.845 -105.967 403.845C-110.469 403.845 -112.72 401.597 -114.22 400.099L-114.97 398.6C-114.97 397.851 -115.721 397.851 -115.721 397.851C-119.472 394.854 -120.222 391.108 -118.722 386.612C-115.721 379.869 -115.721 373.126 -114.97 365.633C-114.97 363.386 -114.22 361.138 -114.22 359.639C-114.22 358.141 -113.47 355.893 -113.47 354.395L-126.975 352.147L-124.724 347.652C-124.724 346.902 -119.472 339.41 -111.219 336.413C-110.469 328.92 -106.717 306.443 -90.2116 292.957C-78.9577 283.966 -66.2031 280.969 -48.947 283.966V291.458C-63.9523 288.461 -76.7068 291.458 -85.71 298.201C-102.966 311.688 -104.467 338.661 -104.467 338.661V341.658L-107.468 342.407C-110.469 343.156 -112.72 344.655 -114.97 346.153L-105.967 347.652L-106.717 351.398C-107.468 354.395 -107.468 357.392 -108.218 359.639C-108.218 361.887 -108.968 363.386 -108.968 365.633C-109.719 373.126 -110.469 380.618 -113.47 388.86C-114.22 390.359 -113.47 391.108 -112.72 391.857C-111.969 392.606 -111.219 393.356 -110.469 394.105L-109.719 394.854C-108.218 396.352 -108.218 396.353 -106.717 396.353C-102.966 396.353 -98.4646 394.854 -97.7143 392.606C-97.7143 391.857 -97.7143 391.857 -97.7143 391.108C-97.7143 389.609 -97.7143 388.111 -96.964 386.612C-94.7132 379.869 -93.2127 377.621 -92.4625 375.374C-91.7122 373.875 -91.7122 373.126 -90.962 370.878C-88.7112 364.135 -85.71 355.893 -78.2073 350.649L-75.2063 349.15L-72.9555 351.398C-67.7037 357.392 -64.7026 364.884 -61.7015 371.627C-60.9513 373.126 -60.201 374.624 -59.4507 376.123C-57.9502 380.618 -62.4519 384.365 -68.454 389.609L-69.2042 390.359C-69.9544 391.108 -72.2053 392.606 -73.7058 394.105C-76.7069 396.353 -81.2085 399.35 -82.709 400.848C-82.709 400.848 -83.4593 401.597 -82.709 403.845C-81.9587 405.343 -80.4582 407.591 -78.9577 409.839L-78.2073 410.588C-78.2073 409.839 -78.9577 409.839 -78.9577 409.09C-79.7079 407.591 -79.7079 405.343 -78.9577 403.845C-78.2074 402.346 -76.7069 400.848 -75.2063 400.099H-74.456C-72.2052 398.6 -69.2042 397.851 -65.4529 397.102C-61.7015 396.353 -52.6983 391.857 -50.4475 388.86C-49.6973 388.111 -48.947 387.362 -48.947 387.362L-44.4454 384.365L-43.6952 389.609C-43.6952 391.108 -42.1946 392.606 -40.6941 394.854C-38.4433 397.851 -35.4423 402.346 -38.4434 408.34C-40.6942 412.087 -41.4444 416.582 -42.1947 421.078C-42.1947 421.078 -42.1946 420.328 -41.4444 420.328C-39.1936 417.331 -38.4433 413.585 -36.9427 409.839C-36.1925 406.842 -34.6919 403.845 -33.1914 400.099C-30.9406 395.603 -28.6899 392.606 -26.4391 391.857C-24.9385 391.857 -24.1883 391.857 -23.438 391.857C-18.9365 392.606 -15.185 391.108 -10.6834 389.609C-9.18291 388.86 -6.93214 388.111 -5.4316 388.111L-0.179771 386.612L0.570541 390.359C0.570541 391.108 1.32074 392.606 1.32074 393.356C2.071 395.603 2.07098 397.102 2.82124 399.349C3.57152 401.597 4.32185 403.096 5.82237 405.343L6.57257 407.591C9.57364 412.836 10.3239 418.081 10.3239 424.075C11.0742 422.576 11.8245 421.078 12.5747 420.328C13.325 418.83 13.325 418.081 12.5747 417.331C8.82339 412.087 8.0731 406.093 10.3239 399.349C11.8244 395.603 11.8244 394.854 14.0752 392.606L18.5769 388.111L20.8277 392.606C24.579 399.349 26.8298 400.848 33.5822 401.597C38.0838 402.346 38.834 405.343 38.834 406.842C38.834 407.591 39.5843 408.34 39.5843 409.09C40.3346 412.087 41.0848 414.334 38.834 418.83C37.3335 422.576 37.3335 423.325 38.834 424.824L39.5843 421.827C39.5843 421.078 43.3357 412.087 43.3357 411.337L48.5875 414.334C48.5875 415.833 47.8372 418.83 47.087 419.579C50.088 420.328 50.8383 423.325 52.3388 426.322C53.0891 427.821 53.0891 429.319 53.0891 430.818L54.5896 437.561H50.088C44.8362 437.561 40.3346 436.063 37.3335 433.066C29.8309 427.072 29.0806 424.824 32.0817 415.833C32.8319 412.836 32.8319 412.836 32.0817 410.588C32.0817 409.839 31.3314 409.09 31.3314 408.34C24.579 407.591 20.0774 405.343 16.326 400.099V400.848C14.8255 406.093 15.5758 409.839 17.8266 412.836C20.0774 416.582 20.0774 420.328 17.8266 424.075C15.5758 427.072 14.0752 429.319 14.0752 432.316C14.0752 433.815 14.0752 436.063 14.0752 437.561C14.0752 439.059 14.8256 442.056 11.8245 444.304C12.5748 445.803 12.5748 448.05 11.8245 449.549C10.324 451.797 8.07318 452.546 5.82237 453.295L5.07207 451.047ZM0.570541 443.555H3.57156H4.32187H5.07207V442.806C4.32181 440.558 5.07208 437.561 7.32289 436.063C7.32289 436.063 7.32289 436.063 7.32289 435.313C7.32289 434.564 7.32289 433.815 7.32289 433.815C6.57262 437.561 4.32181 439.809 1.32074 442.806L0.570541 443.555ZM-52.6984 441.307H-51.1979H-50.4475C-49.6973 441.307 -48.947 441.307 -48.1967 440.558C-48.947 438.31 -47.4465 436.063 -45.946 434.564C-45.946 433.815 -46.6962 433.066 -46.6962 432.316C-48.1967 434.564 -49.6973 436.063 -51.1979 437.561C-51.9481 438.31 -52.6984 439.809 -53.4487 441.307C-53.4487 441.307 -53.4486 441.307 -52.6984 441.307ZM41.0848 423.325C41.8351 423.325 41.8351 424.075 42.5853 424.075C43.3356 424.824 44.8362 425.573 46.3367 426.322C46.3367 425.573 46.3367 425.573 45.5865 424.824C44.8362 423.325 44.8362 422.576 44.8362 422.576C44.8362 422.576 44.0859 422.576 43.3357 422.576L41.0848 423.325ZM-73.7058 421.078C-73.7058 421.078 -72.9555 421.078 -71.455 421.078C-67.7037 421.078 -63.9524 421.827 -60.9513 422.576C-61.7016 418.83 -63.2021 418.081 -64.7027 418.081C-64.7027 418.081 -64.7026 418.081 -65.4529 418.081C-67.7037 418.83 -72.2053 419.579 -75.2063 414.334C-75.2063 413.585 -75.9566 413.585 -76.7068 412.836C-76.7068 412.836 -76.7068 412.836 -76.7068 412.087C-75.2063 414.334 -74.4561 417.331 -73.7058 419.579C-74.4561 420.328 -74.4561 421.078 -73.7058 421.078Z" fill="#4A8DC1"/>
</g>
</svg>
