<svg width="19" height="19" viewBox="0 0 19 19" fill="none" xmlns="http://www.w3.org/2000/svg">
<path d="M18.7537 9.80779L10.2047 0.300893C9.84468 -0.100298 9.15316 -0.100298 8.79315 0.300893L0.244107 9.80779C0.121055 9.9443 0.0402835 10.1137 0.0116154 10.2953C-0.0170528 10.4769 0.00761696 10.6629 0.0826253 10.8307C0.234608 11.1739 0.57467 11.3945 0.949879 11.3945H2.84967V18.0493C2.84967 18.3014 2.94974 18.5433 3.12788 18.7215C3.30602 18.8998 3.54763 19 3.79956 19H6.64924C6.90117 19 7.14278 18.8998 7.32092 18.7215C7.49906 18.5433 7.59914 18.3014 7.59914 18.0493V14.2466H11.3987V18.0493C11.3987 18.3014 11.4988 18.5433 11.6769 18.7215C11.8551 18.8998 12.0967 19 12.3486 19H15.1983C15.4502 19 15.6918 18.8998 15.87 18.7215C16.0481 18.5433 16.1482 18.3014 16.1482 18.0493V11.3945H18.048C18.2319 11.3953 18.4121 11.3425 18.5666 11.2425C18.7211 11.1426 18.8432 10.9998 18.9181 10.8316C18.9929 10.6634 19.0172 10.477 18.988 10.2952C18.9588 10.1134 18.8774 9.94408 18.7537 9.80779Z" fill="white"/>
</svg>
