<svg width="28" height="28" viewBox="0 0 28 28" fill="none" xmlns="http://www.w3.org/2000/svg">
<path d="M25.4384 11.7138H24.4987V11.6654H13.9987V16.332H20.5921C19.6302 19.0486 17.0454 20.9987 13.9987 20.9987C10.1329 20.9987 6.9987 17.8644 6.9987 13.9987C6.9987 10.1329 10.1329 6.9987 13.9987 6.9987C15.7831 6.9987 17.4065 7.67186 18.6426 8.77145L21.9425 5.47153C19.8589 3.52961 17.0717 2.33203 13.9987 2.33203C7.55578 2.33203 2.33203 7.55578 2.33203 13.9987C2.33203 20.4416 7.55578 25.6654 13.9987 25.6654C20.4416 25.6654 25.6654 20.4416 25.6654 13.9987C25.6654 13.2164 25.5849 12.4529 25.4384 11.7138Z" fill="#FFC107"/>
<path d="M3.67969 8.56845L7.51277 11.3795C8.54994 8.8117 11.0618 6.9987 14.0012 6.9987C15.7856 6.9987 17.409 7.67186 18.6451 8.77145L21.945 5.47153C19.8614 3.52961 17.0742 2.33203 14.0012 2.33203C9.52002 2.33203 5.63385 4.86195 3.67969 8.56845Z" fill="#FF3D00"/>
<path d="M13.9995 25.6651C17.013 25.6651 19.7512 24.5119 21.8214 22.6364L18.2106 19.5809C16.9999 20.5017 15.5205 20.9997 13.9995 20.9984C10.965 20.9984 8.38845 19.0635 7.41778 16.3633L3.61328 19.2945C5.54411 23.0728 9.46528 25.6651 13.9995 25.6651Z" fill="#4CAF50"/>
<path d="M25.4398 11.7164H24.5V11.668H14V16.3346H20.5934C20.1333 17.6275 19.3045 18.7573 18.2093 19.5844L18.2111 19.5832L21.8219 22.6387C21.5664 22.8709 25.6667 19.8346 25.6667 14.0013C25.6667 13.2191 25.5862 12.4555 25.4398 11.7164Z" fill="#1976D2"/>
</svg>
