<svg xmlns="http://www.w3.org/2000/svg" width="41" height="41" fill="none" viewBox="0 0 41 41">
    <circle cx="20.151" cy="20.151" r="20.151" fill="#FA9359"/>
    <g fill="#0067B2" clip-path="url(#clip0)">
        <path d="M28.2 14.2L27 13l-5.1 5.2v-3.8h-1.7V21h6.6v-1.7H23l5.2-5.1z"/>
        <path d="M25.1 24.3h-3.2c-.5 0-.8.4-.8.8v.8c-3.3 0-5.7-2.5-5.7-5.7h.8c.5 0 .8-.4.8-.8V16c0-.5-.4-.8-.8-.8h-3.4c-.4 0-.8.4-.8.8v4.1c0 5 4 9 9 9h4.1c.5 0 .8-.4.8-.8V25c.1-.4-.3-.7-.8-.7z"/>
    </g>
    <defs>
        <clipPath id="clip0">
            <path fill="#fff" d="M0 0H16.2V16.2H0z" transform="translate(12 13)"/>
        </clipPath>
    </defs>
</svg>
