<svg xmlns="http://www.w3.org/2000/svg" width="104" height="103" fill="none" viewBox="0 0 104 103">
    <circle cx="51.562" cy="51.5" r="51.5" fill="#00477B"/>
    <path fill="#F2F2F2" d="M74.356 36.056c1.056-2.548-.154-5.47-2.702-6.525-2.548-1.056-5.47.154-6.525 2.702-1.056 2.549.154 5.47 2.703 6.525 2.548 1.056 5.47-.154 6.525-2.702zM70.027 40.217c-3.967 0-7.324 2.72-8.323 6.381 2.192 2.358 3.523 5.493 3.523 8.961v7.158c0 .305-.027.583-.11.86.304.472.832.777 1.442.777h6.88c.944 0 1.72-.777 1.72-1.72v-6.908h1.72c.944 0 1.72-.777 1.72-1.72v-5.16c.028-4.772-3.828-8.629-8.572-8.629zM34.678 38.84c2.749-.227 4.793-2.64 4.565-5.388-.227-2.749-2.64-4.792-5.389-4.565-2.748.227-4.792 2.64-4.564 5.389.227 2.748 2.64 4.792 5.388 4.565zM38.926 55.56c0-3.496 1.36-6.659 3.58-9.017-.888-3.773-4.3-6.603-8.351-6.603-4.745 0-8.6 3.857-8.6 8.6v5.161c0 .943.776 1.72 1.72 1.72h1.72v6.88c0 .944.776 1.72 1.72 1.72h6.88c.582 0 1.082-.277 1.387-.72-.028-.195-.056-.417-.056-.639V55.56zM52.105 42.409c3.263 0 5.91-2.646 5.91-5.91 0-3.263-2.647-5.909-5.91-5.909-3.264 0-5.91 2.646-5.91 5.91 0 3.263 2.646 5.909 5.91 5.909zM52.104 44.906c-3.995 0-7.518 2.22-9.321 5.493-.833 1.47-1.304 3.19-1.332 4.994v7.324c0 .639.5 1.138 1.138 1.138h3.634v9.1c0 .638.5 1.137 1.137 1.137h9.516c.638 0 1.138-.5 1.138-1.137v-9.128h3.606c.639 0 1.138-.5 1.138-1.137v-7.13c0-1.86-.5-3.635-1.332-5.16-1.83-3.274-5.327-5.494-9.322-5.494z"/>
</svg>
