<svg xmlns="http://www.w3.org/2000/svg" width="53" height="70" fill="none" viewBox="0 0 53 70">
    <path fill="#fff" d="M11.66.984v16.877c0 2.94-1.422 4.518-3.916 4.518-2.273 0-3.916-1.314-3.916-3.32H.984c0 3.632 2.844 5.857 6.76 5.857 4.149 0 6.806-2.525 6.806-7.055V.984h-2.89zM25.238 25.008c3.123 0 4.755-1.66 5.314-2.813h.14v2.398h2.75V12.927c0-5.626-4.335-6.271-6.62-6.271-2.703 0-5.78.922-7.179 4.15l2.611.922c.606-1.291 2.04-2.674 4.662-2.674 2.529 0 3.776 1.325 3.776 3.596v.092c0 1.315-1.352 1.2-4.615 1.614-3.322.427-6.947 1.153-6.947 5.21 0 3.459 2.704 5.442 6.108 5.442zm.42-2.444c-2.192 0-3.777-.968-3.777-2.859 0-2.075 1.911-2.72 4.056-2.997 1.165-.138 4.289-.461 4.755-1.014v2.49c0 2.213-1.772 4.38-5.035 4.38zM41.213 13.941c0-3.09 1.935-4.841 4.569-4.841 2.552 0 4.102 1.648 4.102 4.426v11.067h2.75V13.342c0-4.519-2.435-6.686-6.06-6.686-2.704 0-4.382 1.199-5.221 2.997h-.233V6.886h-2.657v17.707h2.75V13.94zM16.109 69.451c8.67 0 13.907-6.216 13.923-16.92.017-10.624-5.286-16.713-13.923-16.713-8.654 0-13.907 6.074-13.924 16.714C2.152 63.203 7.421 69.435 16.11 69.45zm0-5.693c-3.957 0-6.516-3.742-6.499-11.226.017-7.374 2.56-11.084 6.499-11.084 3.923 0 6.482 3.71 6.482 11.084.017 7.484-2.542 11.226-6.482 11.226zM50.232 36.262H43.38l-8.537 5.09v6.09l7.897-4.662h.202v25.957h7.29V36.262z"/>
</svg>
