<svg width="126" height="30" viewBox="0 0 126 30" fill="none" xmlns="http://www.w3.org/2000/svg">
<path d="M3.49199 13.6132V16.0749H7.75618V17.8125H3.49199V21.1913H1.33594V11.9238H8.33112V13.6615H3.49199V13.6132Z" fill="white"/>
<path d="M10.4414 11.9258H12.5975V19.4556H17.2449V21.1933H10.4414V11.9258Z" fill="white"/>
<path d="M26.2014 19.5039V21.2415H19.0625V11.9258H26.0577V13.6634H21.1706V15.6907H25.4348V17.3801H21.1706V19.5521H26.2014V19.5039Z" fill="white"/>
<path d="M28.5508 11.9258H30.7068V21.2415H28.5508V11.9258Z" fill="white"/>
<path d="M34.4415 21.0468C33.7707 20.8537 33.1958 20.6124 32.8125 20.2745L33.5312 18.6334C33.9145 18.923 34.3936 19.1643 34.9206 19.3574C35.4477 19.5505 36.0226 19.647 36.5497 19.647C37.1725 19.647 37.6037 19.5505 37.8912 19.3574C38.1787 19.1643 38.3224 18.923 38.3224 18.6334C38.3224 18.392 38.2266 18.2472 38.0828 18.1024C37.8912 17.9576 37.6995 17.8611 37.4121 17.7645C37.1246 17.668 36.7892 17.5715 36.3101 17.4749C35.5914 17.3301 35.0165 17.1371 34.5853 16.9923C34.154 16.8474 33.7707 16.5578 33.4354 16.1717C33.1 15.7856 32.9562 15.3029 32.9562 14.6754C32.9562 14.1444 33.1 13.6618 33.3874 13.2273C33.6749 12.7929 34.1061 12.4551 34.6811 12.1654C35.256 11.9241 35.9747 11.7793 36.8371 11.7793C37.4121 11.7793 37.987 11.8276 38.562 11.9724C39.1369 12.1172 39.616 12.3102 40.0472 12.5999L39.3765 14.241C38.5141 13.7583 37.6516 13.5169 36.8371 13.5169C36.2622 13.5169 35.7831 13.6135 35.4956 13.8066C35.2081 13.9996 35.0644 14.241 35.0644 14.5788C35.0644 14.9167 35.2081 15.1581 35.5435 15.3029C35.8789 15.4477 36.358 15.5925 37.0767 15.7855C37.7954 15.9304 38.3703 16.1234 38.8015 16.2682C39.2327 16.413 39.616 16.7026 39.9514 17.0888C40.2868 17.4749 40.4305 17.9576 40.4305 18.5851C40.4305 19.1161 40.2868 19.5987 39.9993 20.0331C39.7119 20.4676 39.2807 20.8054 38.6578 21.095C38.0349 21.3847 37.3642 21.4812 36.5017 21.4812C35.831 21.3847 35.1123 21.2881 34.4415 21.0468Z" fill="white"/>
<path d="M44.4592 20.7577C43.6926 20.3233 43.1176 19.7924 42.6864 19.0683C42.2552 18.3443 42.0156 17.5238 42.0156 16.6067C42.0156 15.6896 42.2552 14.869 42.6864 14.145C43.1176 13.421 43.7405 12.8418 44.4592 12.4556C45.2257 12.0212 46.0882 11.8281 47.0464 11.8281C47.8609 11.8281 48.5796 11.9729 49.2025 12.2625C49.8253 12.5521 50.4003 12.9383 50.8315 13.4692L49.442 14.7242C48.8192 14.0002 48.0526 13.614 47.1422 13.614C46.5673 13.614 46.0403 13.7588 45.609 14.0002C45.1778 14.2415 44.7945 14.6277 44.555 15.0621C44.3154 15.4965 44.1717 16.0274 44.1717 16.6067C44.1717 17.1859 44.3154 17.7168 44.555 18.1512C44.7945 18.5857 45.1778 18.9718 45.609 19.2131C46.0403 19.4545 46.5673 19.5993 47.1422 19.5993C48.0526 19.5993 48.8192 19.2131 49.442 18.4891L50.8315 19.7441C50.4003 20.275 49.8253 20.7095 49.2025 20.9991C48.5317 21.2887 47.813 21.4335 47.0464 21.4335C46.0882 21.3852 45.2257 21.1439 44.4592 20.7577Z" fill="white"/>
<path d="M61.4151 11.9238V21.2396H59.259V17.4264H55.0428V21.2396H52.8867V11.9238H55.0428V15.5922H59.259V11.9238H61.4151Z" fill="white"/>
<path d="M71.385 19.5039V21.2415H64.2461V11.9258H71.2413V13.6634H66.4021V15.6907H70.6663V17.3801H66.4021V19.5521H71.385V19.5039Z" fill="white"/>
<path d="M79.6237 21.1913L77.8509 18.5848H77.7551H75.8865V21.1913H73.7305V11.9238H77.7072C78.5217 11.9238 79.2404 12.0686 79.8153 12.3582C80.4382 12.6478 80.8694 13.034 81.2048 13.5167C81.5402 13.9994 81.6839 14.6268 81.6839 15.3026C81.6839 15.9784 81.5402 16.6058 81.2048 17.0885C80.8694 17.5712 80.3903 17.9573 79.8153 18.247L81.8756 21.2396H79.6237V21.1913ZM79.0966 14.0959C78.7613 13.8063 78.2821 13.6615 77.6114 13.6615H75.8865V16.8954H77.6114C78.2342 16.8954 78.7613 16.7506 79.0966 16.461C79.432 16.1714 79.5758 15.7853 79.5758 15.2543C79.5758 14.7716 79.432 14.3372 79.0966 14.0959Z" fill="white"/>
<path d="M28.1718 27.9485C27.8843 27.8519 27.6448 27.7071 27.4531 27.5141L27.6448 27.1279C27.7885 27.2727 28.0281 27.4175 28.2676 27.5141C28.5551 27.6106 28.7947 27.6589 29.0821 27.6589C29.4654 27.6589 29.7529 27.5623 29.9925 27.4175C30.1841 27.2727 30.2799 27.0797 30.2799 26.8383C30.2799 26.6452 30.232 26.5004 30.1362 26.4039C30.0404 26.3074 29.8966 26.2108 29.7529 26.1626C29.6092 26.1143 29.3696 26.066 29.0821 25.9695C28.7468 25.873 28.5072 25.8247 28.2676 25.7281C28.076 25.6316 27.8843 25.5351 27.7406 25.3903C27.5969 25.2455 27.5489 25.0041 27.5489 24.7145C27.5489 24.4732 27.5969 24.2801 27.7406 24.087C27.8364 23.894 28.0281 23.7492 28.2676 23.6526C28.5072 23.5561 28.7947 23.5078 29.178 23.5078C29.4175 23.5078 29.6571 23.5561 29.9446 23.6043C30.1841 23.6526 30.3758 23.7492 30.5674 23.894L30.4237 24.2801C30.232 24.1353 30.0404 24.087 29.8487 23.9905C29.6571 23.9422 29.4175 23.894 29.2259 23.894C28.8426 23.894 28.5551 23.9905 28.3635 24.1353C28.1718 24.2801 28.076 24.4732 28.076 24.7145C28.076 24.9076 28.1239 25.0524 28.2197 25.1489C28.3155 25.2455 28.4593 25.342 28.603 25.3903C28.7468 25.4385 28.9863 25.4868 29.2738 25.5833C29.6092 25.6799 29.8487 25.7281 30.0404 25.8247C30.232 25.9212 30.4237 26.0178 30.5674 26.1626C30.7112 26.3074 30.7591 26.5487 30.7591 26.79C30.7591 27.0314 30.7112 27.2245 30.5674 27.4175C30.4237 27.6106 30.2799 27.7554 29.9925 27.8519C29.7529 27.9485 29.4175 27.9967 29.0821 27.9967C28.7947 28.0933 28.4593 28.045 28.1718 27.9485Z" fill="white"/>
<path d="M35.4067 27.8042C35.0713 27.6112 34.7838 27.3216 34.5922 26.9837C34.4005 26.6458 34.3047 26.2597 34.3047 25.8252C34.3047 25.3908 34.4005 25.0047 34.5922 24.6668C34.7838 24.3289 35.0713 24.0393 35.4067 23.8462C35.7421 23.6532 36.1733 23.5566 36.6045 23.5566C36.9399 23.5566 37.2273 23.6049 37.5148 23.7014C37.8023 23.798 38.0418 23.9911 38.2335 24.1841L37.946 24.4737C37.6106 24.1359 37.1794 23.9428 36.6524 23.9428C36.317 23.9428 35.9816 24.0393 35.6941 24.1841C35.4067 24.3289 35.1671 24.5703 35.0234 24.8599C34.8796 25.1495 34.7838 25.4391 34.7838 25.8252C34.7838 26.1631 34.8796 26.501 35.0234 26.7906C35.1671 27.0802 35.4067 27.2733 35.6941 27.4664C35.9816 27.6594 36.317 27.7077 36.6524 27.7077C37.1794 27.7077 37.6106 27.5146 37.946 27.1767L38.2335 27.4664C38.0418 27.6594 37.8023 27.8525 37.5148 27.949C37.2273 28.0456 36.9399 28.0938 36.6045 28.0938C36.1733 28.0938 35.7421 27.9973 35.4067 27.8042Z" fill="white"/>
<path d="M45.8036 23.6035V28.0442H45.3244V25.9687H42.5455V28.0442H42.0664V23.6035H42.5455V25.5825H45.3244V23.6035H45.8036Z" fill="white"/>
<path d="M50.8832 27.8042C50.5478 27.6112 50.2604 27.3216 50.0687 26.9837C49.8771 26.6458 49.7812 26.2597 49.7812 25.8252C49.7812 25.3908 49.8771 25.0047 50.0687 24.6668C50.2604 24.3289 50.5478 24.0393 50.8832 23.8462C51.2186 23.6532 51.6498 23.5566 52.081 23.5566C52.5122 23.5566 52.8955 23.6532 53.2788 23.8462C53.6142 24.0393 53.9017 24.3289 54.0934 24.6668C54.285 25.0047 54.3808 25.3908 54.3808 25.8252C54.3808 26.2597 54.285 26.6458 54.0934 26.9837C53.9017 27.3216 53.6142 27.6112 53.2788 27.8042C52.9435 27.9973 52.5122 28.0938 52.081 28.0938C51.6498 28.0938 51.2186 27.9973 50.8832 27.8042ZM53.0393 27.4664C53.3268 27.3216 53.5663 27.0802 53.7101 26.7906C53.8538 26.501 53.9496 26.2114 53.9496 25.8252C53.9496 25.4874 53.8538 25.1495 53.7101 24.8599C53.5663 24.5703 53.3268 24.3772 53.0393 24.1841C52.7518 24.0393 52.4643 23.9428 52.081 23.9428C51.6977 23.9428 51.4103 24.0393 51.1228 24.1841C50.8353 24.3289 50.5958 24.5703 50.452 24.8599C50.3083 25.1495 50.2125 25.4391 50.2125 25.8252C50.2125 26.1631 50.3083 26.501 50.452 26.7906C50.5958 27.0802 50.8353 27.2733 51.1228 27.4664C51.4103 27.6594 51.7456 27.7077 52.081 27.7077C52.4164 27.7077 52.7518 27.6112 53.0393 27.4664Z" fill="white"/>
<path d="M58.3086 23.6035H58.7877V27.658H61.2792V28.0442H58.3565V23.6035H58.3086Z" fill="white"/>
<path d="M67.7427 26.8863H65.2991L64.7721 28.093H64.293L66.3053 23.6523H66.7844L68.7967 28.093H68.3176L67.7427 26.8863ZM67.551 26.5002L66.4969 24.0868L65.4429 26.5002H67.551Z" fill="white"/>
<path d="M75.414 28.0925L74.4079 26.6444C74.3121 26.6444 74.1683 26.6444 74.0725 26.6444H72.8268V28.0442H72.3477V23.6035H74.0246C74.5995 23.6035 75.0307 23.7483 75.3661 23.9897C75.7015 24.231 75.8453 24.6171 75.8453 25.0998C75.8453 25.4377 75.7494 25.7273 75.6057 25.9687C75.414 26.21 75.1745 26.4031 74.8391 26.4996L75.9411 28.0442H75.414V28.0925ZM75.0307 25.9687C75.2703 25.7756 75.3661 25.486 75.3661 25.1481C75.3661 24.8102 75.2703 24.5206 75.0307 24.3275C74.7912 24.1345 74.4558 24.0379 74.0246 24.0379H72.8268V26.2583H74.0246C74.4558 26.2583 74.7912 26.1617 75.0307 25.9687Z" fill="white"/>
<path d="M80.1093 27.9485C79.8218 27.8519 79.5823 27.7071 79.3906 27.5141L79.5823 27.1279C79.726 27.2727 79.9656 27.4175 80.2051 27.5141C80.4926 27.6106 80.7322 27.6589 81.0197 27.6589C81.403 27.6589 81.6904 27.5623 81.93 27.4175C82.1216 27.2727 82.2175 27.0797 82.2175 26.8383C82.2175 26.6452 82.1695 26.5004 82.0737 26.4039C81.9779 26.3074 81.8342 26.2108 81.6904 26.1626C81.5467 26.1143 81.3071 26.066 81.0197 25.9695C80.6843 25.873 80.4447 25.8247 80.2051 25.7281C80.0135 25.6316 79.8218 25.5351 79.6781 25.3903C79.5344 25.2455 79.4864 25.0041 79.4864 24.7145C79.4864 24.4732 79.5344 24.2801 79.6781 24.087C79.7739 23.894 79.9656 23.7492 80.2051 23.6526C80.4447 23.5561 80.7322 23.5078 81.1155 23.5078C81.355 23.5078 81.5946 23.5561 81.8821 23.6043C82.1216 23.6526 82.3133 23.7492 82.5049 23.894L82.3612 24.2801C82.1695 24.1353 81.9779 24.087 81.7862 23.9905C81.5946 23.9422 81.355 23.894 81.1634 23.894C80.7801 23.894 80.4926 23.9905 80.301 24.1353C80.1093 24.2801 80.0135 24.4732 80.0135 24.7145C80.0135 24.9076 80.0614 25.0524 80.1572 25.1489C80.2531 25.2455 80.3968 25.342 80.5405 25.3903C80.6843 25.4385 80.9238 25.4868 81.2113 25.5833C81.5467 25.6799 81.7862 25.7281 81.9779 25.8247C82.1695 25.9212 82.3612 26.0178 82.5049 26.1626C82.6487 26.3074 82.6966 26.5487 82.6966 26.79C82.6966 27.0314 82.6487 27.2245 82.5049 27.4175C82.3612 27.6106 82.2175 27.7554 81.93 27.8519C81.6904 27.9485 81.355 27.9967 81.0197 27.9967C80.7322 28.0933 80.3968 28.045 80.1093 27.9485Z" fill="white"/>
<path d="M22.95 25.584H0V25.9701H22.95V25.584Z" fill="white"/>
<path d="M84.7975 17.9558H82.7852L82.881 17.6662C83.0726 17.1352 83.8392 16.3629 83.983 16.2181C84.7016 15.2045 86.4744 14.4805 86.5223 14.4805L86.714 14.9149C86.714 14.9149 84.9891 15.6389 84.3663 16.5077L84.3183 16.556C84.1267 16.7008 83.7434 17.1352 83.5038 17.5214H84.3663V16.6525L84.4621 16.6043C84.8933 16.2664 86.3786 15.1562 87.0014 15.2528L86.9056 15.6872C86.666 15.6389 85.6599 16.2181 84.8454 16.8456L84.7975 17.9558Z" fill="white"/>
<path d="M105.503 13.3681L105.023 13.5611C105.023 8.78259 107.611 7.47935 107.707 7.43108L107.802 7.38281L108.713 7.91376L108.473 8.29991L107.802 7.91376C107.611 8.05857 107.132 8.34818 106.7 9.02393C106.173 9.79622 105.503 11.0029 105.503 13.3681Z" fill="white"/>
<path d="M122.364 13.0359L121.933 12.8429L122.268 12.1188C121.933 12.1671 121.454 12.2636 121.214 12.5533L120.879 12.2154C121.454 11.5879 122.652 11.5879 122.7 11.5879H123.035L122.364 13.0359Z" fill="white"/>
<path d="M116.52 23.1206L116.568 22.7827C116.616 22.0587 117 21.045 117 20.9968L117.143 20.6589L117.814 21.3347L118.197 20.9485L117.718 19.0661C117.479 19.0661 117.095 19.1626 116.808 19.4522C116.233 20.0314 115.083 19.7901 115.035 19.7901L115.131 19.3557C115.418 19.4039 116.185 19.4522 116.52 19.1626C117.095 18.6316 117.91 18.6316 117.958 18.6316H118.149L118.772 21.1416L117.862 22.0104L117.431 21.5277C117.335 21.7691 117.239 22.1552 117.191 22.4931L117.958 22.2517L119.012 21.4795C119.204 20.5141 119.395 18.1972 118.581 17.5697L118.868 17.1836C120.114 18.149 119.443 21.5277 119.443 21.6725V21.7691L118.197 22.6862L116.52 23.1206Z" fill="white"/>
<path d="M119.544 24.5202L119.448 24.3754C119.448 24.3271 119.017 23.7479 119.496 22.6377L119.591 22.4446L120.646 22.686L121.46 22.3964C121.508 21.9619 121.556 21.0931 121.46 20.7552C121.316 20.176 120.262 19.983 119.879 19.9347L119.927 19.452C120.023 19.452 121.7 19.5485 121.939 20.6104C122.083 21.1897 121.939 22.5412 121.939 22.5894V22.7342L120.741 23.1204L119.975 22.9273C119.831 23.3617 119.831 23.6513 119.879 23.8444L120.741 23.41L122.035 23.0721C122.179 22.7825 122.706 21.6241 122.466 19.5968L122.945 19.3555C123.281 21.9137 122.418 23.3135 122.418 23.41L122.37 23.5065L120.885 23.8444L119.544 24.5202Z" fill="white"/>
<path d="M113.692 22.1071L113.645 21.6244C115.657 21.383 116.663 20.2246 116.663 20.2246L116.998 20.5142C116.95 20.5625 115.849 21.8175 113.692 22.1071Z" fill="white"/>
<path d="M90.3083 22.7379L89.7812 21.9656L90.0687 21.869C90.1166 21.869 90.5958 21.7242 90.9312 21.869L90.7395 22.3035C90.6916 22.2552 90.5958 22.2552 90.5479 22.2552L90.6916 22.4965L90.3083 22.7379Z" fill="white"/>
<path d="M89.8354 17.1834C89.5958 17.1834 89.4042 17.1352 89.3083 17.1352H88.2543C87.5356 17.1352 87.2481 16.3629 87.2481 16.3629V16.2664L87.2002 13.9012C87.1523 13.4668 87.2481 13.1289 87.4398 12.9359C87.6793 12.6945 87.9668 12.6945 88.0147 12.6945H89.9312C89.3562 9.94323 89.6916 5.88871 89.7395 5.11642C89.5958 4.97162 89.4042 4.82681 89.1646 4.68201C88.925 4.5372 88.7334 4.3924 88.5896 4.24759C88.2543 3.95799 87.9668 3.71664 87.6793 3.4753C87.5835 3.37877 87.3918 3.3305 87.2002 3.3305C86.9127 3.28223 86.6732 3.13743 86.5773 2.84782C86.4815 2.60648 86.4336 2.36514 86.4336 2.1238C86.4336 1.78592 86.6252 1.59285 86.769 1.44804L86.8648 1.35151C86.9127 1.30324 86.9606 1.25497 86.9606 1.25497C87.2002 0.965362 87.5356 0.868826 87.871 0.965362C88.4938 1.2067 89.1167 1.25497 89.8354 1.30324C90.027 1.30324 90.2187 1.35151 90.4103 1.35151C90.6499 1.35151 90.8415 1.39978 91.0811 1.44804L91.7519 0L91.9914 0.337877C91.9914 0.386145 92.4705 1.01363 92.2789 1.88246C92.6622 2.31687 92.8059 2.70301 93.1892 3.86145C93.4288 4.58547 93.7642 5.55083 94.2912 7.04714C94.9141 8.83307 96.3035 10.2811 98.1242 11.1982C98.9866 11.6326 99.8969 11.874 100.855 12.1153L100.951 12.1636C102.34 12.5497 104.017 13.2737 104.976 13.8529L104.688 14.2874C103.73 13.7564 102.197 12.9841 100.855 12.598L100.759 12.5497C99.7532 12.3084 98.8429 12.0188 97.9325 11.5843C96.016 10.619 94.5787 9.07441 93.9079 7.19195C93.3809 5.69564 93.0455 4.73028 92.8059 4.00625C92.4226 2.79955 92.3268 2.50994 91.9435 2.1238L91.8956 2.07553L91.7519 1.97899L91.7998 1.88246C91.8956 1.54458 91.8477 1.25497 91.7998 1.01363L91.3686 1.97899H91.1769C90.8894 1.93072 90.6499 1.88246 90.4103 1.88246C90.2187 1.88246 90.027 1.83419 89.8354 1.83419C89.1646 1.78592 88.4459 1.73765 87.7751 1.44804C87.6314 1.39978 87.4877 1.44804 87.3918 1.59285C87.3439 1.64112 87.296 1.73765 87.2002 1.78592L87.1044 1.88246C86.9606 2.02726 86.9127 2.07553 86.9127 2.22033C86.9127 2.41341 86.9127 2.55821 87.0085 2.75128C87.0565 2.84782 87.1044 2.89609 87.296 2.94436C87.5835 2.99262 87.8231 3.04089 87.9668 3.1857C88.3022 3.42704 88.5896 3.66838 88.925 3.95799C89.0688 4.05452 89.2604 4.19933 89.4521 4.34413C89.6916 4.5372 89.9791 4.73028 90.1707 4.87508L90.2666 4.97162V5.06815C90.2666 5.11642 89.7874 9.9915 90.5061 12.8876L90.602 13.1772L88.1105 13.1289C88.1105 13.1289 87.9668 13.1289 87.871 13.2255C87.7751 13.322 87.7272 13.5633 87.7751 13.8529L87.8231 16.2181C87.871 16.3146 88.0626 16.7008 88.398 16.7008H89.5479C89.7395 16.749 90.2187 16.7973 90.554 16.6525L90.1707 16.1698C90.027 16.2181 89.6916 16.2664 89.5479 16.556L89.5 16.7008H88.398L88.3501 16.5077C88.3022 16.3629 88.2543 16.2181 88.2543 16.1215C88.2063 16.1215 88.1584 16.0733 88.1105 16.025C88.0626 15.9767 87.9189 15.8319 88.0626 15.0114L88.1105 14.8666L88.2543 14.8183C88.7334 14.6735 90.2666 14.2391 90.6978 14.4322C90.7457 14.4322 90.8894 14.4804 91.0332 14.5287C91.7519 14.6735 93.0934 14.8666 94.5308 16.1215L94.2433 16.4594C92.9017 15.301 91.6081 15.0597 90.9373 14.9631C90.7457 14.9148 90.602 14.9148 90.5061 14.8666C90.3145 14.8183 89.3562 15.0114 88.4938 15.2527C88.4459 15.4458 88.4459 15.5906 88.4459 15.6871C88.5417 15.7354 88.6376 15.8802 88.7334 16.2181H89.1646C89.5 15.7354 90.1708 15.6871 90.2187 15.6871H90.3145L91.129 16.7008L90.9853 16.8456C90.6499 17.0869 90.2187 17.1834 89.8354 17.1834Z" fill="white"/>
<path d="M95.7281 8.83424L95.6322 8.68944C95.3927 8.25502 95.1531 7.82061 94.9136 7.33793C94.5303 6.51737 94.2428 5.64854 93.9553 4.82799C93.8116 4.34531 93.6199 3.86262 93.4283 3.37994V3.33168C93.2845 2.94553 93.1408 2.60765 92.9492 2.22151L92.5659 2.60765L92.2305 2.26978L93.045 1.44922L93.1887 1.69056C93.4762 2.12497 93.6678 2.65592 93.8595 3.1386V3.18687C94.0511 3.66955 94.1949 4.15223 94.3865 4.63491C94.674 5.45547 94.9615 6.27603 95.3448 7.09659C95.5843 7.57927 95.8239 8.01368 96.0634 8.39983L96.1593 8.54463L95.7281 8.83424Z" fill="white"/>
<path d="M106.788 12.8359L106.309 13.029C106.309 12.8842 106.5 9.1193 108.417 7.96087C108.417 7.38165 108.417 7.18858 108.56 6.80243L108.752 6.27148L108.992 6.75417C108.992 6.75417 109.183 7.09204 109.471 7.33338C110.573 7.14031 110.669 7.42992 110.717 7.52646C110.764 7.62299 110.956 7.7678 111.148 7.86433L111.723 7.9126C111.866 7.9126 112.25 7.86433 112.393 7.86433C112.92 7.81606 113.256 8.00914 113.495 8.49182C113.495 8.49182 113.495 8.54009 113.543 8.54009C113.831 9.02277 113.687 9.36064 113.543 9.55372C113.352 9.84332 113.016 9.98813 112.633 9.93986C112.537 9.93986 112.298 9.93986 112.25 9.98813C112.058 10.1329 110.956 10.9535 109.615 10.7604C109.519 11.0983 109.423 11.7258 109.423 12.0154L108.944 12.1119C108.944 11.6292 109.183 10.5191 109.183 10.4708L109.231 10.2295L109.471 10.2777C110.812 10.5673 111.962 9.65025 111.962 9.60198L112.01 9.55372C112.154 9.45718 112.537 9.45718 112.633 9.45718C112.873 9.45718 113.016 9.40891 113.112 9.26411C113.208 9.16757 113.256 9.02277 113.112 8.73316C113.064 8.68489 113.064 8.63662 113.064 8.58835C112.92 8.29875 112.777 8.20221 112.441 8.20221C112.25 8.20221 111.914 8.25048 111.723 8.25048L111.004 8.20221L110.956 8.15394C110.86 8.10567 110.477 7.86433 110.333 7.57472C110.189 7.52646 109.806 7.57472 109.471 7.62299H109.375L109.279 7.57472C109.088 7.47819 108.944 7.33338 108.848 7.23685C108.848 7.38165 108.848 7.57472 108.848 7.86433V8.25048L108.704 8.29875C106.931 9.21584 106.788 12.7877 106.788 12.8359Z" fill="white"/>
<path d="M102.629 26.3052L102.198 25.9673C102.15 25.8225 102.15 25.6294 102.054 25.4846C101.719 25.0019 100.904 24.5192 100.377 24.2779L100.281 24.2296L100.617 23.9883L100.712 24.0366C101.144 24.2296 101.671 24.471 102.102 24.9054C102.485 25.2915 102.677 25.7742 102.629 26.3052Z" fill="white"/>
<path d="M97.2145 24.1791C97.1666 24.1791 97.1666 24.1308 97.1187 24.1308C96.7833 23.986 96.6875 23.7446 96.6875 23.5998C96.6875 23.455 96.6875 23.2137 96.9271 22.9724C97.0708 22.8276 97.2624 22.6827 97.4062 22.5862C97.4541 22.5379 97.5499 22.4897 97.5978 22.4414L97.8853 22.8276C97.8374 22.8758 97.7416 22.9241 97.6936 22.9724C97.5499 23.0689 97.4062 23.2137 97.2624 23.3102C97.1666 23.4068 97.1187 23.455 97.1187 23.5033C97.1187 23.5516 97.2145 23.5998 97.3104 23.6964C97.3583 23.6964 97.3583 23.7446 97.4062 23.7446L97.2145 24.1791Z" fill="white"/>
<path d="M109.331 26.8818L109.283 26.7369C109.283 26.7369 108.995 26.1577 109.187 25.6751C109.331 25.3372 109.618 25.1441 110.001 24.9993L110.097 24.951L110.385 25.1441C110.529 25.2406 110.672 25.3372 110.816 25.4337C110.912 25.482 110.912 25.482 110.96 25.4337C111.199 25.1924 111.439 25.0958 111.678 25.0476C112.158 24.9028 112.493 24.5649 112.876 24.1787C112.876 24.1787 112.924 24.1305 112.924 24.0822C112.924 24.0339 112.876 24.0339 112.828 23.9857C112.732 23.8891 112.637 23.8409 112.493 23.7926C112.062 23.5995 111.583 23.4065 111.151 23.2134L110.864 23.1168C110.816 23.3582 110.72 23.5995 110.672 23.8409C110.576 24.1787 110.481 24.5166 110.433 24.8062L110.001 24.6614C110.097 24.3718 110.193 24.0339 110.241 23.6961C110.337 23.3582 110.433 23.0203 110.481 22.7307L110.529 22.4894L110.816 22.5859C110.864 22.5859 110.864 22.5859 110.912 22.6342L111.295 22.779C111.726 22.972 112.205 23.1651 112.637 23.3582C112.828 23.4064 112.972 23.503 113.068 23.6478C113.212 23.7926 113.307 23.9374 113.307 24.0822C113.307 24.1787 113.307 24.3718 113.116 24.5166C112.78 24.8545 112.301 25.3372 111.726 25.482C111.487 25.5302 111.343 25.6268 111.199 25.7716C111.008 25.9647 110.72 26.0129 110.481 25.8199C110.337 25.7233 110.193 25.6268 110.049 25.5785C110.001 25.5785 109.954 25.5302 109.954 25.5302C109.714 25.6268 109.57 25.7233 109.522 25.8681C109.427 26.0612 109.474 26.3025 109.522 26.3991H109.954C110.097 26.3991 110.241 26.3991 110.385 26.3991L110.72 26.3508C110.96 26.3508 111.199 26.3025 111.391 26.2543C111.535 26.2543 111.63 26.206 111.726 26.1095C112.014 25.9164 112.253 25.6751 112.493 25.4337C112.78 25.1924 113.116 24.9028 113.403 24.6614C113.691 24.4201 113.834 24.1787 113.834 23.9374C113.834 23.6961 113.739 23.4547 113.499 23.2134C113.355 23.0686 113.212 22.9238 113.02 22.8272L112.924 22.779C112.158 22.1515 111.631 21.4757 111.199 20.8C110.768 20.076 110.576 19.3519 110.576 18.6762C110.529 16.6972 113.787 14.7182 113.93 14.6699L114.17 15.0561C114.122 15.0561 111.008 16.9868 111.008 18.6762C111.008 19.3037 111.199 19.9311 111.583 20.5586C111.966 21.2344 112.493 21.8136 113.212 22.4411L113.307 22.4894C113.451 22.6342 113.643 22.779 113.787 22.9238C114.122 23.2616 114.314 23.6478 114.266 24.0339C114.266 24.4201 114.026 24.8062 113.643 25.0958C113.355 25.3372 113.02 25.5785 112.732 25.8681C112.493 26.1095 112.205 26.3025 111.918 26.5439C111.774 26.6887 111.535 26.7369 111.391 26.7852C111.151 26.8335 110.912 26.8335 110.672 26.8818L110.337 26.93C110.193 26.93 110.001 26.9783 109.858 26.93L109.331 26.8818Z" fill="white"/>
<path d="M121.743 19.55C121.695 19.55 121.695 19.55 121.647 19.55C121.456 19.55 121.216 19.4534 121.024 19.1156V19.0673C121.024 18.9708 120.881 18.2467 121.024 17.8123C121.072 17.6192 120.881 17.1848 120.737 16.9918L120.689 16.9435L120.449 16.2195C120.354 16.2195 120.21 16.1712 120.066 16.0747L120.162 18.295L120.689 18.3915V18.8742L119.731 18.7294L119.587 14.5784L120.066 15.4472C120.258 15.8333 120.593 15.8333 120.641 15.8333H120.833L120.881 16.0264L121.12 16.847C121.264 17.04 121.647 17.6192 121.456 18.1019C121.36 18.3433 121.408 18.8259 121.456 19.0673C121.551 19.2121 121.647 19.2604 121.695 19.2604C121.983 19.3086 122.462 18.9225 122.701 18.6811L123.085 13.6613L123.18 13.613C123.516 13.3717 123.899 12.7924 124.139 12.4063L123.18 12.4546L123.133 12.3098C122.941 11.7788 122.606 11.3927 122.174 11.2479C121.551 11.0548 120.833 11.1996 119.97 11.6823C119.252 12.0684 118.581 12.5994 117.958 13.082C117.862 13.1786 117.718 13.2751 117.623 13.3717C116.856 13.9991 115.946 14.6749 114.987 15.0128L114.844 14.5784C115.754 14.2887 116.617 13.613 117.335 13.0338C117.431 12.9372 117.575 12.8407 117.671 12.7442C118.341 12.2132 119.012 11.6823 119.779 11.2961C120.737 10.8134 121.599 10.6204 122.318 10.8617C122.845 11.0065 123.276 11.4409 123.516 12.0684L125.001 11.9719L124.809 12.358C124.762 12.4063 124.139 13.5165 123.564 13.9991L123.133 18.6811L123.085 18.7294C123.037 18.8259 122.366 19.55 121.743 19.55Z" fill="white"/>
<path d="M116.372 13.0298L116.133 12.6437C116.612 12.3541 117.043 11.9679 117.474 11.6783C117.57 11.5818 117.714 11.4852 117.81 11.3887C118.481 10.8578 119.151 10.3268 119.918 9.94066C120.876 9.45798 121.739 9.2649 122.457 9.50624C123.128 9.69932 123.799 10.4716 123.99 11.0508L124.086 11.2922L123.032 11.4852L122.936 11.0508L123.463 10.9543C123.224 10.5199 122.745 10.0855 122.361 9.94066C121.739 9.74758 121.02 9.89239 120.157 10.3751C119.439 10.7612 118.768 11.2922 118.145 11.7748C118.049 11.8714 117.906 11.9679 117.81 12.0645C117.331 12.3541 116.851 12.7402 116.372 13.0298Z" fill="white"/>
<path d="M105.356 14.8188L104.973 14.5292C106.362 12.695 110.578 12.2123 110.722 12.2123L110.962 12.1641V13.3225H110.483V12.695C109.62 12.8398 106.41 13.419 105.356 14.8188Z" fill="white"/>
<path d="M102.867 29.5403C102.82 29.5403 102.772 29.5403 102.676 29.492C102.197 29.2989 101.861 29.0093 101.622 28.6232C101.526 28.4301 101.478 28.1405 101.622 27.8509C101.334 27.7544 101.095 27.5613 100.903 27.2234C100.903 27.2234 100.855 27.1751 100.807 27.1269L100.759 27.0786C100.041 26.4994 99.2262 25.8236 98.2679 25.3892C98.1721 25.341 98.0763 25.2927 97.9804 25.2444L97.9325 25.1961C97.5971 24.9548 97.2138 24.7135 97.5013 23.9412C97.7888 23.1206 98.0763 22.3966 98.3637 21.6726C98.4596 21.4795 98.3637 21.383 98.3158 21.3347C98.22 21.2864 98.1242 21.2382 97.9804 21.1899L97.8846 21.1416C97.0701 20.852 96.4472 20.3211 96.1119 19.5488C95.7765 18.7765 95.8244 17.8594 95.8723 17.0388C95.5848 17.2802 95.4411 17.7629 95.3932 17.9559C95.2494 18.4869 95.3932 19.0178 95.5369 19.5971C95.6806 20.1763 95.8244 20.8038 95.6806 21.4312C95.5848 21.8657 95.2973 22.2035 95.0578 22.5414C94.962 22.6862 94.8661 22.7827 94.7703 22.9276C94.5308 23.2654 94.5308 23.6516 94.4828 24.0377C94.4828 24.2308 94.4828 24.3756 94.4349 24.5687L94.3391 25.1479L94.0037 24.6652C93.8121 24.4239 93.6683 24.086 93.4767 23.6033C93.285 23.0241 93.2371 22.5414 93.3809 22.1553C93.4288 22.0105 93.4767 21.8657 93.5725 21.7691C93.6204 21.6726 93.6683 21.6243 93.6683 21.5278C93.86 21.0451 93.6683 20.6107 93.4767 20.0797C93.3809 19.8867 93.333 19.6936 93.2371 19.5005C92.9017 18.3421 93.285 16.894 94.1954 16.2666C94.6745 15.9287 95.2015 15.9287 95.7286 15.9287C96.2077 15.9287 96.6389 15.9287 96.9264 15.6391C98.1721 14.6254 99.8011 14.2393 101.574 14.6254C102.436 14.8185 103.347 14.9633 104.353 15.1081C104.736 15.1564 105.071 15.1081 105.359 14.9633C105.598 14.722 107.275 13.1774 110.821 12.9361C110.965 12.1155 111.683 11.7776 111.731 11.7776L112.019 11.6328L112.115 12.9361H112.929L113.36 13.1291L114.558 12.9843C114.606 12.9843 114.606 12.9843 114.654 12.9843C114.798 12.9361 114.989 12.8878 115.181 12.9843C115.42 13.0809 115.468 13.4187 115.468 13.5635L115.037 13.7083C115.037 13.6118 114.989 13.4187 114.941 13.3705C114.893 13.3705 114.798 13.3705 114.75 13.4187C114.702 13.4187 114.654 13.4187 114.606 13.4187L113.264 13.6118L112.833 13.3705H111.731L111.635 12.3568C111.444 12.5016 111.3 12.7912 111.252 13.1291V13.3222H111.06C107.371 13.5153 105.694 15.2047 105.694 15.2529L105.646 15.3012C105.263 15.4943 104.832 15.5908 104.305 15.4943C103.299 15.3495 102.34 15.2047 101.478 15.0116C99.849 14.6737 98.3158 15.0116 97.2138 15.9287C96.7826 16.3148 96.2556 16.3148 95.7286 16.3148C95.2494 16.3148 94.8182 16.3148 94.4828 16.6044C93.7642 17.1354 93.3809 18.3903 93.7163 19.3557C93.7642 19.5488 93.86 19.6936 93.9079 19.8867C94.1475 20.4176 94.387 20.9968 94.0995 21.6726C94.0516 21.7691 94.0037 21.8657 93.9558 21.9622C93.9079 22.0587 93.86 22.2035 93.8121 22.3001C93.7162 22.5897 93.7642 22.9758 93.9079 23.4585C93.9558 23.555 94.0037 23.6516 94.0037 23.7481C94.0516 23.4102 94.0995 23.0241 94.3391 22.6862C94.4349 22.5414 94.5308 22.3966 94.6266 22.2518C94.8661 21.9622 95.0578 21.6726 95.1536 21.3347C95.2974 20.8038 95.1536 20.2728 95.0099 19.6936C94.8661 19.1144 94.7224 18.4869 94.8661 17.8111C94.962 17.425 95.2974 16.4596 96.0639 16.4114H96.3514L96.3035 16.9423C96.2556 17.7629 96.1598 18.5834 96.4952 19.2592C96.7826 19.8867 97.3576 20.3693 97.9804 20.6107L98.0763 20.6589C98.22 20.7072 98.4116 20.7555 98.5554 20.9003C98.7949 21.0934 98.8908 21.4312 98.747 21.7691C98.4596 22.4931 98.1721 23.2172 97.8846 23.9894C97.7409 24.3756 97.8367 24.4721 98.1242 24.7135L98.1721 24.7617C98.22 24.81 98.2679 24.81 98.3637 24.8583C99.3699 25.2927 100.232 26.0167 100.999 26.5959L101.047 26.6442C101.095 26.6925 101.191 26.7407 101.238 26.8373C101.382 27.1269 101.622 27.2717 101.861 27.3199C101.957 27.3199 102.005 27.3682 102.053 27.4165C102.053 27.4165 102.053 27.4165 102.101 27.4165L102.293 27.5613L102.149 27.8026C102.149 27.8509 102.101 27.8509 102.101 27.8992C101.957 28.044 101.957 28.1888 102.005 28.2853C102.149 28.5749 102.388 28.768 102.772 28.9128C102.963 28.1405 102.82 27.5613 102.388 27.0786C100.951 25.4375 99.2262 24.2791 99.2262 24.2791L98.9866 24.1343L99.6094 23.6033C99.8011 23.4102 99.9448 23.2172 100.136 23.0241C100.472 22.5897 100.807 22.1553 101.334 21.9139C101.67 21.7691 101.909 21.4795 102.053 21.0934L102.149 20.852L102.58 21.0451C102.724 21.0934 102.867 21.1416 102.963 21.2382C104.544 21.9622 106.173 22.2518 107.802 22.1553C107.85 22.1553 107.898 22.1553 107.946 22.1553C108.521 22.107 108.713 22.1553 108.904 22.7345C109 22.9758 109.048 23.2172 109.048 23.5068C109.048 24.1343 109.048 24.7617 109 25.4375C109 25.7271 108.952 26.065 108.857 26.3546C108.665 27.1269 107.946 27.7544 107.132 27.8509C106.892 27.8992 106.653 27.9474 106.365 28.044C106.269 28.0922 106.126 28.0922 105.982 28.044C105.838 27.9474 105.79 27.8026 105.79 27.7544C105.694 27.4648 105.359 27.2234 105.071 27.2717C104.88 27.3199 104.688 27.4165 104.496 27.513C104.496 27.513 104.449 27.513 104.449 27.5613C104.496 27.6096 104.544 27.6096 104.544 27.6578L104.784 27.8509C104.928 27.9474 105.071 28.0922 105.215 28.1888C105.311 28.237 105.407 28.2853 105.551 28.3336C105.646 28.3818 105.742 28.3818 105.838 28.3818C105.982 28.4301 106.126 28.4301 106.269 28.5266C106.557 28.6232 106.844 28.6232 107.132 28.4301C107.707 28.0922 108.282 27.7544 108.809 27.513C108.952 27.4165 109.144 27.3682 109.192 27.2234L109.671 27.2717C109.527 27.5613 109.192 27.8026 109 27.8992C108.473 28.1405 107.898 28.4784 107.371 28.8163C106.988 29.0576 106.557 29.1059 106.126 28.9611C106.03 28.9128 105.886 28.8645 105.742 28.8645C105.646 28.8163 105.551 28.8163 105.455 28.768C105.311 28.7197 105.167 28.6715 105.024 28.5749C104.88 28.4784 104.688 28.3336 104.544 28.237L104.305 28.044C104.209 27.9957 104.161 27.9474 104.065 27.8509C103.969 27.7544 103.922 27.6096 103.922 27.513C103.922 27.4165 104.017 27.2717 104.161 27.2234C104.209 27.1751 104.257 27.1751 104.305 27.1269C104.544 27.0303 104.736 26.8855 104.976 26.8373C105.455 26.7407 106.078 27.1269 106.221 27.6096C106.509 27.513 106.796 27.4165 107.084 27.3682C107.707 27.2717 108.282 26.789 108.425 26.2098C108.473 25.9684 108.521 25.6788 108.521 25.3892C108.569 24.7617 108.569 24.1343 108.569 23.5068C108.569 23.3137 108.521 23.0724 108.473 22.8793C108.377 22.5414 108.377 22.5414 107.994 22.5897C107.946 22.5897 107.85 22.5897 107.802 22.5897C106.078 22.6862 104.401 22.3966 102.724 21.6726C102.58 21.6243 102.484 21.576 102.34 21.5278C102.149 21.9139 101.861 22.2035 101.526 22.3966C101.095 22.6379 100.807 22.9758 100.472 23.4102C100.28 23.6516 100.136 23.8446 99.8969 24.086L99.7053 24.2308C100.232 24.6169 101.526 25.5823 102.724 26.9338C103.251 27.513 103.395 28.2853 103.203 29.2024C103.203 29.2507 103.155 29.4437 102.963 29.5403C102.963 29.5403 102.915 29.5403 102.867 29.5403Z" fill="white"/>
<path d="M96.3974 29.0608H95.8224H95.7745C95.6308 29.0125 95.5829 28.916 95.535 28.8195C95.535 28.7229 95.4871 28.6264 95.5829 28.4816L95.6308 28.4333C95.6787 28.3368 95.7266 28.2402 95.8704 28.1437C95.9662 28.0472 96.062 27.9506 96.062 27.8058C96.062 27.7576 96.1099 27.7093 96.1099 27.6128C96.1099 27.5645 96.1578 27.5162 96.1578 27.468C96.2537 26.9853 96.2537 26.5991 96.062 26.213L96.0141 26.0682C95.9183 25.9234 95.8704 25.7786 95.8224 25.6338C95.7745 25.489 95.7266 25.3924 95.7266 25.2476C95.6787 25.2959 95.5829 25.2959 95.535 25.3442C95.1996 25.4407 94.9121 25.5855 94.5288 25.5372C94.4809 25.5855 94.4809 25.6338 94.3851 25.7786C94.2893 25.9716 94.2413 26.1647 94.1934 26.3578C94.0976 26.5991 94.0497 26.8887 93.858 27.1301C93.7143 27.3714 93.6185 27.5645 93.7143 27.8058C93.7622 27.9024 93.7622 28.0954 93.5706 28.2402C93.5706 28.3368 93.5706 28.4333 93.5706 28.4816C93.5227 28.6264 93.3789 28.6747 93.2831 28.7229C93.1873 28.7712 93.1394 28.7712 93.0435 28.7712L92.8998 28.8195H92.7082H92.6602C92.6123 28.8195 92.5644 28.8195 92.5165 28.7712C92.3249 28.7229 92.2769 28.6264 92.229 28.5781C92.1811 28.5299 92.1811 28.385 92.2769 28.2402C92.2769 28.192 92.3249 28.192 92.3249 28.1437C92.4207 27.9989 92.4686 27.8541 92.6123 27.7576C92.804 27.6128 92.8998 27.4197 92.9477 27.1301V26.9853C92.9956 26.6474 93.0435 26.2613 93.2352 25.9234C93.2831 25.8268 93.2831 25.7786 93.1394 25.5855C93.0914 25.5372 93.0435 25.489 93.0435 25.4407C92.7561 25.682 92.229 25.9234 91.9895 25.9716C91.8457 25.9716 91.702 26.0682 91.5583 26.1164H91.5103C91.5103 26.1647 91.5583 26.213 91.6062 26.2613C91.6541 26.3095 91.6541 26.3578 91.702 26.4061C91.702 26.4543 91.7499 26.4543 91.7499 26.4543C91.8457 26.4061 91.9416 26.4061 91.9895 26.4061C92.3728 26.4543 92.5644 26.6957 92.6602 27.1301C92.6602 27.2266 92.7081 27.4197 92.5644 27.5645C92.4207 27.7093 92.229 27.661 92.1332 27.6128C91.9416 27.5645 91.702 27.5162 91.5103 27.5162C91.175 27.5162 90.9833 27.4197 90.9354 27.0335C90.8875 26.8887 90.8396 26.7439 90.7437 26.5991C90.6 26.4543 90.5042 26.3095 90.4563 26.1164C90.2646 25.7786 90.4084 25.5372 90.5042 25.4407C90.6 25.3442 90.8396 25.1511 91.127 24.958C91.2229 24.8615 91.3666 24.8132 91.4145 24.7649L91.4624 24.7167C91.702 24.5236 91.8457 24.4271 91.8457 24.3305C91.7978 24.2823 91.7978 24.1857 91.7499 24.1375C91.6062 23.7996 91.4624 23.4134 91.2229 23.1238C90.9833 23.3652 90.8396 23.7513 90.7437 24.0409C90.6958 24.234 90.6479 24.2823 90.6 24.3788C90.5521 24.4753 90.4563 24.6201 90.3605 25.0063C90.3605 25.0545 90.3605 25.0545 90.3605 25.1511C90.3605 25.1994 90.3605 25.2959 90.3605 25.3442C90.3125 25.7786 89.8334 26.0199 89.3543 26.0199C89.3543 26.0199 89.3543 26.0199 89.3064 26.0199C89.0189 26.0199 88.8752 25.8751 88.7794 25.7786L88.7314 25.682C88.7314 25.6338 88.6835 25.6338 88.6835 25.6338C88.444 25.4407 88.396 25.1994 88.4919 24.9097C88.6835 24.4753 88.6835 24.0409 88.7314 23.5582C88.7314 23.4134 88.7794 23.2686 88.7794 23.1721C88.7794 23.0756 88.8273 22.9308 88.8273 22.8342L87.9648 22.6894L88.1086 22.3998C88.1086 22.3515 88.444 21.8689 88.971 21.6758C89.0189 21.1931 89.2585 19.7451 90.3125 18.8762C91.0312 18.297 91.8457 18.1039 92.9477 18.297V18.7797C91.9895 18.5866 91.175 18.7797 90.6 19.2141C89.498 20.0829 89.4022 21.8206 89.4022 21.8206V22.0137L89.2106 22.0619C89.0189 22.1102 88.8752 22.2067 88.7314 22.3033L89.3064 22.3998L89.2585 22.6411C89.2106 22.8342 89.2106 23.0273 89.1626 23.1721C89.1626 23.3169 89.1147 23.4134 89.1147 23.5582C89.0668 24.0409 89.0189 24.5236 88.8273 25.0545C88.7793 25.1511 88.8273 25.1994 88.8752 25.2476C88.9231 25.2959 88.971 25.3442 89.0189 25.3924L89.0668 25.4407C89.1626 25.5372 89.1626 25.5372 89.2585 25.5372C89.498 25.5372 89.7855 25.4407 89.8334 25.2959C89.8334 25.2476 89.8334 25.2476 89.8334 25.1994C89.8334 25.1028 89.8334 25.0063 89.8813 24.9097C90.0251 24.4753 90.1209 24.3305 90.1688 24.1857C90.2167 24.0892 90.2167 24.0409 90.2646 23.8961C90.4084 23.4617 90.6 22.9308 91.0791 22.5929L91.2708 22.4963L91.4145 22.6411C91.7499 23.0273 91.9416 23.51 92.1332 23.9444C92.1811 24.0409 92.229 24.1375 92.2769 24.234C92.3728 24.5236 92.0853 24.7649 91.702 25.1028L91.6541 25.1511C91.6062 25.1994 91.4624 25.2959 91.3666 25.3924C91.175 25.5372 90.8875 25.7303 90.7917 25.8268C90.7917 25.8268 90.7437 25.8751 90.7917 26.0199C90.8396 26.1164 90.9354 26.2613 91.0312 26.4061L91.0791 26.4543C91.0791 26.4061 91.0312 26.4061 91.0312 26.3578C90.9833 26.2613 90.9833 26.1164 91.0312 26.0199C91.0791 25.9234 91.175 25.8268 91.2708 25.7786H91.3187C91.4624 25.682 91.6541 25.6338 91.8936 25.5855C92.1332 25.5372 92.7082 25.2476 92.8519 25.0545C92.8998 25.0063 92.9477 24.958 92.9477 24.958L93.2352 24.7649L93.2831 25.1028C93.2831 25.1994 93.3789 25.2959 93.4747 25.4407C93.6185 25.6338 93.8101 25.9234 93.6185 26.3095C93.4747 26.5509 93.4268 26.8405 93.3789 27.1301C93.3789 27.1301 93.3789 27.0818 93.4268 27.0818C93.5706 26.8887 93.6185 26.6474 93.7143 26.4061C93.7622 26.213 93.858 26.0199 93.9539 25.7786C94.0976 25.489 94.2413 25.2959 94.3851 25.2476C94.4809 25.2476 94.5288 25.2476 94.5767 25.2476C94.8642 25.2959 95.1038 25.1994 95.3912 25.1028C95.4871 25.0545 95.6308 25.0063 95.7266 25.0063L96.062 24.9097L96.1099 25.1511C96.1099 25.1994 96.1578 25.2959 96.1578 25.3442C96.2057 25.489 96.2057 25.5855 96.2537 25.7303C96.3016 25.8751 96.3495 25.9716 96.4453 26.1164L96.4932 26.2613C96.6849 26.5991 96.7328 26.937 96.7328 27.3231C96.7807 27.2266 96.8286 27.1301 96.8765 27.0818C96.9244 26.9853 96.9244 26.937 96.8765 26.8887C96.637 26.5509 96.589 26.1647 96.7328 25.7303C96.8286 25.489 96.8286 25.4407 96.9723 25.2959L97.2598 25.0063L97.4036 25.2959C97.6431 25.7303 97.7868 25.8268 98.2181 25.8751C98.5055 25.9234 98.5534 26.1164 98.5534 26.213C98.5534 26.2613 98.6014 26.3095 98.6014 26.3578C98.6493 26.5509 98.6972 26.6957 98.5534 26.9853C98.4576 27.2266 98.4576 27.2749 98.5534 27.3714L98.6014 27.1783C98.6014 27.1301 98.8409 26.5509 98.8409 26.5026L99.1763 26.6957C99.1763 26.7922 99.1284 26.9853 99.0805 27.0335C99.2721 27.0818 99.32 27.2749 99.4159 27.468C99.4638 27.5645 99.4638 27.661 99.4638 27.7576L99.5596 28.192H99.2721C98.9367 28.192 98.6493 28.0954 98.4576 27.9024C97.9785 27.5162 97.9306 27.3714 98.1222 26.7922C98.1701 26.5991 98.1701 26.5991 98.1222 26.4543C98.1222 26.4061 98.0743 26.3578 98.0743 26.3095C97.6431 26.2613 97.3556 26.1164 97.1161 25.7786V25.8268C97.0203 26.1647 97.0682 26.4061 97.2119 26.5991C97.3556 26.8405 97.3556 27.0818 97.2119 27.3231C97.0682 27.5162 96.9723 27.661 96.9723 27.8541C96.9723 27.9506 96.9723 28.0954 96.9723 28.192C96.9723 28.2885 97.0203 28.4816 96.8286 28.6264C96.8765 28.7229 96.8765 28.8677 96.8286 28.9643C96.7328 29.1091 96.589 29.1573 96.4453 29.2056L96.3974 29.0608ZM96.1099 28.5781H96.3016H96.3495H96.3974V28.5299C96.3495 28.385 96.3974 28.192 96.5411 28.0954C96.5411 28.0954 96.5411 28.0954 96.5411 28.0472C96.5411 27.9989 96.5411 27.9506 96.5411 27.9506C96.4932 28.192 96.3495 28.3368 96.1578 28.5299L96.1099 28.5781ZM92.7082 28.4333H92.804H92.8519C92.8998 28.4333 92.9477 28.4333 92.9956 28.385C92.9477 28.2402 93.0435 28.0954 93.1394 27.9989C93.1394 27.9506 93.0915 27.9024 93.0915 27.8541C92.9956 27.9989 92.8998 28.0954 92.804 28.192C92.7561 28.2402 92.7081 28.3368 92.6602 28.4333C92.6602 28.4333 92.6602 28.4333 92.7082 28.4333ZM98.6972 27.2749C98.7451 27.2749 98.7451 27.3231 98.793 27.3231C98.8409 27.3714 98.9367 27.4197 99.0326 27.468C99.0326 27.4197 99.0326 27.4197 98.9847 27.3714C98.9367 27.2749 98.9367 27.2266 98.9367 27.2266C98.9367 27.2266 98.8888 27.2266 98.8409 27.2266L98.6972 27.2749ZM91.3666 27.1301C91.3666 27.1301 91.4145 27.1301 91.5103 27.1301C91.7499 27.1301 91.9895 27.1783 92.1811 27.2266C92.1332 26.9853 92.0374 26.937 91.9416 26.937C91.9416 26.937 91.9416 26.937 91.8936 26.937C91.7499 26.9853 91.4624 27.0335 91.2708 26.6957C91.2708 26.6474 91.2229 26.6474 91.175 26.5991C91.175 26.5991 91.175 26.5991 91.175 26.5509C91.2708 26.6957 91.3187 26.8887 91.3666 27.0335C91.3187 27.0818 91.3187 27.1301 91.3666 27.1301Z" fill="white"/>
</svg>
