<svg xmlns="http://www.w3.org/2000/svg" width="87" height="87" fill="none" viewBox="0 0 87 87">
    <circle cx="43.247" cy="43.247" r="43.247" fill="#00477B"/>
    <path fill="#F2F2F2" d="M59.565 33.644c0-.127.127-.255.255-.382.64-.383 1.024-1.02 1.024-1.657s-.384-1.274-1.024-1.657c-.128-.127-.255-.254-.255-.382 0-.127 0-.255.127-.382.512-.51.768-1.274.512-1.911-.128-.638-.64-1.147-1.407-1.402-.128 0-.256-.128-.384-.255v-.382c.384-.637.384-1.402 0-1.912s-.895-.892-1.663-.892c-.128 0-.256-.127-.384-.127-.128-.128-.128-.255 0-.382.128-.637 0-1.275-.383-1.784-.512-.51-1.152-.765-2.047-.637-.384.127-.512-.128-.64-.51 0-1.147-.767-1.912-1.79-1.912-.385 0-.768.128-1.024.255-.256.128-.64 0-.64-.255-.256-.892-1.023-1.529-1.79-1.529-.513 0-1.024.255-1.408.637-.256.255-.512.255-.768-.127-.383-.51-1.023-.892-1.663-.892-.64 0-1.279.382-1.663 1.02-.128.254-.511.382-.767.127-.384-.382-.896-.637-1.407-.637-.768 0-1.535.51-1.791 1.529-.128.255-.384.382-.64.255-.384-.255-.767-.383-1.023-.383-1.024 0-1.791.765-1.791 1.912 0 .382-.256.51-.64.51-.895-.128-1.663.127-2.047.637-.384.51-.512 1.02-.384 1.784v.382c-.128.127-.255.127-.383.127-.768.128-1.407.383-1.791 1.02-.384.51-.256 1.274 0 1.911.128.128.128.255 0 .382 0 .128-.128.255-.384.255-.512.255-1.023.765-1.28 1.402-.255.637 0 1.274.512 1.911.256 0 .256.255.256.383 0 .127-.128.255-.256.382-.64.255-1.023.892-1.023 1.53 0 .636.384 1.273 1.023 1.656.128.127.256.255.256.382s0 .255-.128.382c-.511.51-.767 1.274-.511 1.912.128.637.64 1.146 1.407 1.401.128 0 .256.128.384.255v.382c-.384.638-.384 1.402 0 1.912.383.51.895.892 1.663.892.128 0 .255.127.383.127s.128.255 0 .383c-.128.637 0 1.274.384 1.784s1.151.764 1.919.637c-.128.127-.128.255-.256.255L28.862 58.11c-.128.382 0 .764.256 1.02.256.254.64.254 1.024.127l3.837-1.912 1.92 3.823c.127.255.51.51.767.51h.128c.384 0 .64-.255.767-.637l4.733-14.272c.128 0 .256.127.256.255.384.637 1.024 1.02 1.663 1.02.64 0 1.28-.383 1.663-1.02.128-.128.256-.255.384-.255l4.861 14.272c.128.382.384.637.768.637h.128c.384 0 .64-.255.767-.51l1.92-3.823 3.837 1.912c.384.127.768.127 1.024-.128.255-.255.383-.637.255-1.02l-5.373-14.144c0-.127-.128-.254-.255-.254.767.127 1.407-.128 1.79-.637.384-.51.512-1.02.384-1.785v-.382c.128-.127.256-.127.384-.127.768 0 1.407-.383 1.663-.892.384-.51.256-1.274 0-1.912-.128-.127-.128-.254 0-.382 0-.127.128-.255.384-.255.768-.255 1.28-.764 1.407-1.401.128-.638 0-1.275-.512-1.912-.127-.127-.255-.255-.127-.382zm-15.352 8.792c-6.012 0-10.745-4.842-10.745-10.703 0-5.862 4.86-10.704 10.745-10.704 6.013 0 10.746 4.842 10.746 10.704 0 5.861-4.733 10.703-10.746 10.703z"/>
    <path fill="#F2F2F2" d="M44.214 22.688c-4.99 0-8.955 3.95-8.955 8.92s3.965 8.92 8.955 8.92c4.989 0 8.955-3.95 8.955-8.92s-3.966-8.92-8.955-8.92z"/>
</svg>
