<svg width="60" height="60" viewBox="0 0 60 60" fill="none" xmlns="http://www.w3.org/2000/svg">
<rect width="60" height="60" fill="#0067B2"/>
<path d="M29.5 50C26.6642 50 23.9992 49.4615 21.505 48.3846C19.0108 47.3077 16.8412 45.8474 14.9962 44.0037C13.1512 42.1587 11.691 39.9892 10.6154 37.495C9.53983 35.0008 9.00137 32.3358 9 29.5C9 26.6642 9.53847 23.9992 10.6154 21.505C11.6923 19.0108 13.1526 16.8412 14.9962 14.9962C16.8412 13.1512 19.0108 11.691 21.505 10.6154C23.9992 9.53983 26.6642 9.00137 29.5 9C32.3358 9 35.0008 9.53847 37.495 10.6154C39.9892 11.6923 42.1587 13.1526 44.0037 14.9962C45.8487 16.8412 47.3097 19.0108 48.3866 21.505C49.4636 23.9992 50.0014 26.6642 50 29.5C50 32.3358 49.4615 35.0008 48.3846 37.495C47.3077 39.9892 45.8474 42.1587 44.0037 44.0037C42.1587 45.8487 39.9892 47.3097 37.495 48.3866C35.0008 49.4636 32.3358 50.0014 29.5 50ZM29.5 45.9C34.0783 45.9 37.9562 44.3112 41.1337 41.1337C44.3112 37.9562 45.9 34.0783 45.9 29.5C45.9 24.9217 44.3112 21.0437 41.1337 17.8662C37.9562 14.6887 34.0783 13.1 29.5 13.1C24.9217 13.1 21.0437 14.6887 17.8662 17.8662C14.6887 21.0437 13.1 24.9217 13.1 29.5C13.1 34.0783 14.6887 37.9562 17.8662 41.1337C21.0437 44.3112 24.9217 45.9 29.5 45.9ZM29.5 41.8C26.0833 41.8 23.1792 40.6042 20.7875 38.2125C18.3958 35.8208 17.2 32.9167 17.2 29.5C17.2 26.0833 18.3958 23.1792 20.7875 20.7875C23.1792 18.3958 26.0833 17.2 29.5 17.2C32.9167 17.2 35.8208 18.3958 38.2125 20.7875C40.6042 23.1792 41.8 26.0833 41.8 29.5C41.8 32.9167 40.6042 35.8208 38.2125 38.2125C35.8208 40.6042 32.9167 41.8 29.5 41.8ZM29.5 37.7C31.755 37.7 33.6854 36.8971 35.2912 35.2912C36.8971 33.6854 37.7 31.755 37.7 29.5C37.7 27.245 36.8971 25.3146 35.2912 23.7087C33.6854 22.1029 31.755 21.3 29.5 21.3C27.245 21.3 25.3146 22.1029 23.7087 23.7087C22.1029 25.3146 21.3 27.245 21.3 29.5C21.3 31.755 22.1029 33.6854 23.7087 35.2912C25.3146 36.8971 27.245 37.7 29.5 37.7ZM29.5 33.6C28.3725 33.6 27.4069 33.1982 26.6033 32.3946C25.7997 31.591 25.3986 30.6261 25.4 29.5C25.4 28.3725 25.8018 27.4069 26.6054 26.6033C27.409 25.7997 28.3739 25.3986 29.5 25.4C30.6275 25.4 31.593 25.8018 32.3966 26.6054C33.2002 27.409 33.6014 28.3739 33.6 29.5C33.6 30.6275 33.1982 31.593 32.3946 32.3966C31.591 33.2002 30.6261 33.6014 29.5 33.6Z" fill="white"/>
</svg>
