<svg width="158px" xmlns="http://www.w3.org/2000/svg" viewBox="0 0 154.12 36.1"><defs><style>.cls-1{fill:#0461a5;}.cls-2{fill:#498dc1;}</style></defs><g id="Layer_2" data-name="Layer 2"><g id="Layer_1-2" data-name="Layer 1"><path class="cls-1" d="M4.29,16.63v3H9.56v2.11H4.29V25.9H1.66V14.52h8.59v2.11Z"/><path class="cls-1" d="M12.86,14.52h2.63v9.23H21.2V25.9H12.86Z"/><path class="cls-1" d="M32.3,23.78V25.9H23.49V14.52h8.6v2.11h-6V19.1h5.28v2H26.11v2.63Z"/><path class="cls-1" d="M35.21,14.52h2.63V25.9H35.21Z"/><path class="cls-1" d="M42.48,25.72a6,6,0,0,1-2-.95l.89-2a5.89,5.89,0,0,0,1.74.86,6.52,6.52,0,0,0,2,.33,3.14,3.14,0,0,0,1.66-.34,1,1,0,0,0,.53-.88.86.86,0,0,0-.31-.68,2.44,2.44,0,0,0-.82-.43c-.33-.11-.77-.23-1.34-.36a19.64,19.64,0,0,1-2.13-.61,3.59,3.59,0,0,1-1.42-1,2.69,2.69,0,0,1-.59-1.83,3.19,3.19,0,0,1,.53-1.79,3.65,3.65,0,0,1,1.62-1.28,6.67,6.67,0,0,1,2.64-.47,8.87,8.87,0,0,1,2.13.26,6,6,0,0,1,1.82.75l-.81,2a6.3,6.3,0,0,0-3.15-.9,3,3,0,0,0-1.64.36,1.1,1.1,0,0,0-.53.94.93.93,0,0,0,.61.87,9.93,9.93,0,0,0,1.87.57,19.64,19.64,0,0,1,2.13.61,3.56,3.56,0,0,1,1.42,1,2.62,2.62,0,0,1,.59,1.8,3.11,3.11,0,0,1-.54,1.78,3.72,3.72,0,0,1-1.64,1.28,6.72,6.72,0,0,1-2.65.47A9.1,9.1,0,0,1,42.48,25.72Z"/><path class="cls-1" d="M54.84,25.33a5.56,5.56,0,0,1-2.21-2.09,6.09,6.09,0,0,1,0-6.07,5.56,5.56,0,0,1,2.21-2.09,7,7,0,0,1,5.83-.24,5.37,5.37,0,0,1,2,1.5L61,17.9a3.63,3.63,0,0,0-2.86-1.34,3.84,3.84,0,0,0-1.89.47A3.33,3.33,0,0,0,55,18.32a4.09,4.09,0,0,0,0,3.77,3.33,3.33,0,0,0,1.29,1.29,3.84,3.84,0,0,0,1.89.47A3.61,3.61,0,0,0,61,22.5l1.69,1.56a5.29,5.29,0,0,1-2,1.51,6.69,6.69,0,0,1-2.69.52A6.45,6.45,0,0,1,54.84,25.33Z"/><path class="cls-1" d="M75.7,14.52V25.9H73.07V21.23H67.9V25.9H65.27V14.52H67.9V19h5.17V14.52Z"/><path class="cls-1" d="M88,23.78V25.9H79.22V14.52h8.6v2.11h-6V19.1h5.29v2H81.83v2.63Z"/><path class="cls-1" d="M98.19,25.9,96,22.73H93.57V25.9H90.94V14.52h4.92a6.27,6.27,0,0,1,2.63.5,3.9,3.9,0,0,1,1.71,1.43,4,4,0,0,1,.6,2.19,3.72,3.72,0,0,1-2.34,3.6L101,25.9Zm-.67-8.73a2.76,2.76,0,0,0-1.8-.51H93.57v4h2.15a2.76,2.76,0,0,0,1.8-.52,1.83,1.83,0,0,0,.62-1.47A1.83,1.83,0,0,0,97.52,17.17Z"/><path class="cls-2" d="M34.74,34.15a2.16,2.16,0,0,1-.86-.51l.23-.45a2.07,2.07,0,0,0,.78.48,2.75,2.75,0,0,0,1,.19A1.82,1.82,0,0,0,37,33.59a.82.82,0,0,0,.37-.7.7.7,0,0,0-.2-.52,1.27,1.27,0,0,0-.49-.3,6.55,6.55,0,0,0-.8-.23,8.59,8.59,0,0,1-1-.3,1.71,1.71,0,0,1-.63-.44,1.2,1.2,0,0,1-.26-.8,1.35,1.35,0,0,1,.22-.76A1.6,1.6,0,0,1,34.9,29,2.84,2.84,0,0,1,36,28.8a3.2,3.2,0,0,1,.92.13,2.38,2.38,0,0,1,.77.35l-.19.46a2.85,2.85,0,0,0-.73-.34,3,3,0,0,0-.77-.11,1.72,1.72,0,0,0-1.08.28.85.85,0,0,0-.36.71.74.74,0,0,0,.2.53,1.31,1.31,0,0,0,.5.3c.2.07.47.15.8.23s.73.2,1,.29a1.6,1.6,0,0,1,.62.44,1.16,1.16,0,0,1,.26.79,1.3,1.3,0,0,1-.22.75,1.49,1.49,0,0,1-.68.54,2.93,2.93,0,0,1-1.13.2A3.51,3.51,0,0,1,34.74,34.15Z"/><path class="cls-2" d="M43.66,34a2.69,2.69,0,0,1-1-1,2.93,2.93,0,0,1,0-2.85,2.65,2.65,0,0,1,1-1,3,3,0,0,1,1.46-.36,3.19,3.19,0,0,1,1.13.2,2.4,2.4,0,0,1,.87.59l-.37.37a2.16,2.16,0,0,0-1.61-.65,2.38,2.38,0,0,0-1.18.3,2.19,2.19,0,0,0-1.13,2,2.28,2.28,0,0,0,.3,1.16,2.23,2.23,0,0,0,.83.81,2.37,2.37,0,0,0,1.18.29,2.13,2.13,0,0,0,1.61-.65l.37.37a2.35,2.35,0,0,1-.88.59,2.94,2.94,0,0,1-1.12.21A3,3,0,0,1,43.66,34Z"/><path class="cls-2" d="M56.48,28.85V34.3h-.57V31.78H52.5V34.3h-.58V28.85h.58v2.43h3.41V28.85Z"/><path class="cls-2" d="M62.73,34a2.82,2.82,0,0,1-1-3.83,2.58,2.58,0,0,1,1-1,3.18,3.18,0,0,1,2.94,0,2.69,2.69,0,0,1,1,1,2.93,2.93,0,0,1,0,2.85,2.69,2.69,0,0,1-1,1,3.18,3.18,0,0,1-2.94,0Zm2.64-.45a2.06,2.06,0,0,0,.82-.81,2.37,2.37,0,0,0,0-2.31,2.06,2.06,0,0,0-.82-.81,2.29,2.29,0,0,0-1.17-.3,2.32,2.32,0,0,0-1.17.3,2.09,2.09,0,0,0-.83.81,2.37,2.37,0,0,0,0,2.31,2.09,2.09,0,0,0,.83.81,2.31,2.31,0,0,0,1.17.29A2.28,2.28,0,0,0,65.37,33.54Z"/><path class="cls-2" d="M71.92,28.85h.58V33.8h3v.5H71.92Z"/><path class="cls-2" d="M83.51,32.84h-3l-.66,1.46h-.6l2.5-5.45h.57l2.49,5.45h-.61Zm-.21-.46L82,29.45l-1.31,2.93Z"/><path class="cls-2" d="M93,34.3l-1.24-1.75-.44,0H89.81V34.3h-.57V28.85h2a2.49,2.49,0,0,1,1.64.49,1.73,1.73,0,0,1,.59,1.38,1.7,1.7,0,0,1-1.25,1.71l1.33,1.87Zm-.46-2.58a1.22,1.22,0,0,0,.43-1,1.23,1.23,0,0,0-.43-1,1.87,1.87,0,0,0-1.24-.36H89.81v2.74h1.45A1.87,1.87,0,0,0,92.5,31.72Z"/><path class="cls-2" d="M98.77,34.15a2.16,2.16,0,0,1-.86-.51l.23-.45a2.07,2.07,0,0,0,.78.48,2.75,2.75,0,0,0,1,.19,1.86,1.86,0,0,0,1.1-.27.83.83,0,0,0,.36-.7.66.66,0,0,0-.2-.52,1.31,1.31,0,0,0-.48-.3,7.41,7.41,0,0,0-.81-.23,9.28,9.28,0,0,1-1-.3,1.71,1.71,0,0,1-.63-.44,1.2,1.2,0,0,1-.26-.8,1.43,1.43,0,0,1,.22-.76,1.6,1.6,0,0,1,.67-.54,2.84,2.84,0,0,1,1.12-.2,3.15,3.15,0,0,1,.92.13,2.54,2.54,0,0,1,.78.35l-.2.46a2.85,2.85,0,0,0-.73-.34,3,3,0,0,0-.77-.11,1.71,1.71,0,0,0-1.07.28.83.83,0,0,0-.37.71.74.74,0,0,0,.2.53,1.31,1.31,0,0,0,.5.3,8.14,8.14,0,0,0,.81.23,10.12,10.12,0,0,1,1,.29,1.6,1.6,0,0,1,.62.44,1.11,1.11,0,0,1,.26.79,1.3,1.3,0,0,1-.22.75,1.49,1.49,0,0,1-.68.54,2.93,2.93,0,0,1-1.13.2A3.51,3.51,0,0,1,98.77,34.15Z"/><rect class="cls-2" y="31.27" width="28.28" height="0.47"/><path class="cls-1" d="M104.55,21.89h-2.46l.13-.38a6.5,6.5,0,0,1,1.33-1.76,8.46,8.46,0,0,1,3.14-2.15l.21.52a8.2,8.2,0,0,0-2.9,2l0,0a8.35,8.35,0,0,0-1,1.18h1l0-1,.11-.08c.53-.43,2.35-1.8,3.11-1.63l-.13.56a6.55,6.55,0,0,0-2.52,1.43Z"/><path class="cls-1" d="M130.11,16.3l-.57.25c0-5.86,3.18-7.45,3.32-7.52L133,9l1.1.62-.29.5L133,9.61A5,5,0,0,0,131.61,11,8.52,8.52,0,0,0,130.11,16.3Z"/><path class="cls-1" d="M150.9,15.89l-.51-.24.42-.87a2.25,2.25,0,0,0-1.33.53l-.42-.38a3.33,3.33,0,0,1,2.22-.74h.44Z"/><path class="cls-1" d="M143.69,28.22l0-.42a12.45,12.45,0,0,1,.53-2.17l.15-.44.81.85.47-.45-.57-2.3a2,2,0,0,0-1.14.47,2.91,2.91,0,0,1-2.22.41l.11-.56a2.36,2.36,0,0,0,1.72-.26,2.57,2.57,0,0,1,1.76-.63h.22l.75,3.05-1.11,1.07-.55-.57a10.75,10.75,0,0,0-.3,1.16l.93-.28,1.28-.94c.21-1.17.49-4-.52-4.8l.36-.45c1.52,1.21.73,5.29.69,5.47l0,.11-1.54,1.13Z"/><path class="cls-1" d="M147.42,29.94l-.15-.19a2.08,2.08,0,0,1,.06-2.11l.1-.21,1.27.3,1-.33a8.57,8.57,0,0,0,0-2c-.18-.72-1.49-.95-2-1l0-.57c.09,0,2.18.14,2.49,1.41a9.44,9.44,0,0,1,0,2.41v.18l-1.49.51-1-.24a1.85,1.85,0,0,0-.12,1.1l1.06-.53,1.61-.38a7.23,7.23,0,0,0,.5-4.24l.6-.3a8.09,8.09,0,0,1-.68,4.94l-.06.09-1.8.44Z"/><path class="cls-1" d="M140.16,27l-.07-.56a6,6,0,0,0,3.72-1.72l.44.36A6.49,6.49,0,0,1,140.16,27Z"/><path class="cls-1" d="M111.34,27.75l-.66-1,.38-.11a1.77,1.77,0,0,1,1.08,0l-.26.51a.65.65,0,0,0-.26,0l.19.27Z"/><path class="cls-1" d="M110.79,21a4.88,4.88,0,0,1-.63-.05h-1.31a1.47,1.47,0,0,1-1.25-1l0-.1-.06-2.9a1.42,1.42,0,0,1,.3-1.19,1,1,0,0,1,.71-.31l2.34,0a37,37,0,0,1-.23-9.28,7.32,7.32,0,0,0-.69-.5,5.69,5.69,0,0,1-.71-.53,12.17,12.17,0,0,0-1.15-.92,1.62,1.62,0,0,0-.6-.19.92.92,0,0,1-.77-.56,2,2,0,0,1-.17-.9,1.06,1.06,0,0,1,.43-.82l.13-.11a1,1,0,0,0,.14-.15,1,1,0,0,1,1.14-.32,8.69,8.69,0,0,0,2.41.41l.69,0,.8.11L113.11,0l.28.39a2.48,2.48,0,0,1,.35,1.92,6.41,6.41,0,0,1,1.1,2.45c.3.87.7,2.08,1.37,3.9a9.27,9.27,0,0,0,4.7,5.08,17,17,0,0,0,3.38,1.15l.11,0A23.18,23.18,0,0,1,129.35,17l-.37.53a21.57,21.57,0,0,0-4.73-2l-.11,0a17.87,17.87,0,0,1-3.48-1.19,9.89,9.89,0,0,1-5-5.39c-.67-1.84-1.07-3-1.37-3.92a5.92,5.92,0,0,0-1-2.32l0-.06-.09-.17,0-.11a1.82,1.82,0,0,0,0-1l-.53,1.15-.22,0c-.36-.06-.66-.11-1-.14l-.69-.06a8.82,8.82,0,0,1-2.56-.44.38.38,0,0,0-.49.15,2.13,2.13,0,0,1-.22.21l-.12.11c-.17.16-.24.23-.24.42a1.45,1.45,0,0,0,.12.65.36.36,0,0,0,.33.23,1.8,1.8,0,0,1,.84.29,10.54,10.54,0,0,1,1.21,1,5.24,5.24,0,0,0,.65.48,5.35,5.35,0,0,1,.87.67l.1.09,0,.13c0,.06-.6,6,.29,9.57l.09.36-3.08,0h0a.39.39,0,0,0-.29.13,1,1,0,0,0-.15.76l.07,2.88c.06.13.29.56.7.56h1.39a2.34,2.34,0,0,0,1.24-.07L111,19.7a1,1,0,0,0-.75.46l-.08.16-1.35,0,0-.23a3.07,3.07,0,0,0-.14-.45.31.31,0,0,1-.15-.1c-.06-.07-.21-.23,0-1.24l0-.18.17,0a8.65,8.65,0,0,1,3-.48,2.52,2.52,0,0,0,.43.09,8.36,8.36,0,0,1,4.33,2l-.36.44a7.82,7.82,0,0,0-4.06-1.84,2.92,2.92,0,0,1-.55-.12,8.74,8.74,0,0,0-2.5.44,5.13,5.13,0,0,0-.05.56,1,1,0,0,1,.34.63h.56a1.76,1.76,0,0,1,1.27-.62h.14l1,1.23-.17.18A1.78,1.78,0,0,1,110.79,21Z"/><path class="cls-1" d="M118,10.75l-.13-.21a14.39,14.39,0,0,1-.9-1.67c-.47-1-.84-2-1.2-3.07-.2-.57-.41-1.17-.64-1.75l0-.06a13.29,13.29,0,0,0-.59-1.34l-.47.49-.41-.39,1-1,.19.31a10.37,10.37,0,0,1,.82,1.76l0,.06c.23.58.44,1.18.65,1.76.35,1,.72,2,1.17,3a16,16,0,0,0,.87,1.61l.13.2Z"/><path class="cls-1" d="M131.66,15.64l-.61.22c0-.19.24-4.81,2.61-6.19a3.19,3.19,0,0,1,.19-1.39l.23-.63.29.6a1.81,1.81,0,0,0,.6.68c1.34-.22,1.48.13,1.53.25a1.56,1.56,0,0,0,.51.43l.74,0,.83-.06a1.23,1.23,0,0,1,1.35.79l0,.07a1.1,1.1,0,0,1,0,1.27,1.16,1.16,0,0,1-1.12.49,2.58,2.58,0,0,0-.49,0,4.62,4.62,0,0,1-3.24.94,7.19,7.19,0,0,0-.21,1.51l-.59.11a12.11,12.11,0,0,1,.3-2l.07-.27.27.06a4.09,4.09,0,0,0,3.09-.8l.06,0a2.23,2.23,0,0,1,.78-.09.6.6,0,0,0,.61-.25c.1-.13.17-.31,0-.63a.85.85,0,0,1-.09-.15.65.65,0,0,0-.77-.45c-.22,0-.67.05-.9.05l-.9,0-.05,0a2.19,2.19,0,0,1-.79-.69,3.71,3.71,0,0,0-1,.06l-.1,0-.09,0a2.08,2.08,0,0,1-.53-.43c0,.18,0,.41,0,.79V10l-.16.08C131.85,11.22,131.66,15.59,131.66,15.64Z"/><path class="cls-1" d="M126.51,32.11l-.56-.43a1.63,1.63,0,0,0-.17-.57,5.83,5.83,0,0,0-2-1.46l-.1,0,.38-.32.1.05a5.57,5.57,0,0,1,1.71,1.05A2,2,0,0,1,126.51,32.11Z"/><path class="cls-1" d="M119.87,29.52l-.13-.06a.88.88,0,0,1-.54-.63.86.86,0,0,1,.31-.76,6.77,6.77,0,0,1,.6-.49l.23-.17.34.46-.23.17a4,4,0,0,0-.54.44c-.1.1-.16.2-.15.26s.1.14.23.21l.1.05Z"/><path class="cls-1" d="M134.78,32.84l-.08-.14a1.65,1.65,0,0,1-.11-1.31,1.47,1.47,0,0,1,1-.81l.12,0,.35.21c.18.11.36.21.53.33s.11,0,.15,0a2,2,0,0,1,.9-.47,3.65,3.65,0,0,0,1.49-1.06.21.21,0,0,0,.06-.1s0-.09-.1-.14a1.27,1.27,0,0,0-.41-.24c-.55-.24-1.11-.46-1.67-.69l-.34-.13c-.08.28-.17.59-.25.89s-.23.82-.32,1.18l-.55-.15L135.9,29c.11-.41.23-.82.33-1.19l.07-.27.33.09a.34.34,0,0,1,.12,0l.5.2,1.68.68a2.36,2.36,0,0,1,.56.33.81.81,0,0,1,.3.55.72.72,0,0,1-.23.53,4.14,4.14,0,0,1-1.73,1.21,1.42,1.42,0,0,0-.66.33.64.64,0,0,1-.87.06c-.16-.11-.33-.21-.5-.31l-.14-.08a.87.87,0,0,0-.55.44,1,1,0,0,0,0,.66h.52a3.14,3.14,0,0,0,.53,0l.42,0c.3,0,.58-.05.86-.1a.93.93,0,0,0,.4-.15l1-.8,1.14-.94a1,1,0,0,0,.11-1.77,6.77,6.77,0,0,0-.56-.49l-.09-.08a9,9,0,0,1-2.13-2.44,5.35,5.35,0,0,1-.79-2.6c0-2.41,4-4.83,4.15-4.93l.29.49s-3.9,2.35-3.87,4.43a4.75,4.75,0,0,0,.71,2.32,9,9,0,0,0,2,2.3l.09.07c.2.17.41.34.6.52a1.75,1.75,0,0,1,.61,1.34,1.78,1.78,0,0,1-.76,1.29c-.39.3-.77.62-1.13.93l-1,.8a1.4,1.4,0,0,1-.66.27c-.3,0-.61.08-.9.1l-.41,0a4.09,4.09,0,0,1-.61,0Z"/><path class="cls-1" d="M150.08,23.84H150a1,1,0,0,1-.75-.55l0-.07a3.36,3.36,0,0,1,0-1.54c.09-.23-.17-.75-.37-1l0-.09-.28-.88a1.49,1.49,0,0,1-.47-.15l.11,2.71.62.1v.57l-1.18-.19-.21-5.09.58,1a.78.78,0,0,0,.72.45l.23,0,.08.22.32,1c.15.22.63,1,.41,1.53a2.71,2.71,0,0,0,0,1.17.39.39,0,0,0,.3.22c.37,0,.94-.4,1.26-.73l.49-6.16.1-.08a5.8,5.8,0,0,0,1.21-1.47l-1.2.07-.07-.21a1.94,1.94,0,0,0-1.18-1.29,3.72,3.72,0,0,0-2.7.51,15.24,15.24,0,0,0-2.49,1.74L145,16a10.69,10.69,0,0,1-3.27,2l-.17-.54a10.43,10.43,0,0,0,3.09-1.91l.44-.34a16.48,16.48,0,0,1,2.58-1.8,4.27,4.27,0,0,1,3.11-.54,2.37,2.37,0,0,1,1.49,1.45l1.84-.1-.26.45a8.91,8.91,0,0,1-1.53,2l-.49,6.1-.06.08A3,3,0,0,1,150.08,23.84Z"/><path class="cls-1" d="M143.48,15.91l-.3-.48a19.87,19.87,0,0,0,1.64-1.2l.44-.34a15.24,15.24,0,0,1,2.58-1.8,4.25,4.25,0,0,1,3.12-.55,3.28,3.28,0,0,1,1.87,1.89l.11.31-1.31.23-.1-.56.62-.11a2.7,2.7,0,0,0-1.35-1.21,3.75,3.75,0,0,0-2.7.5,15.88,15.88,0,0,0-2.49,1.74l-.43.34A19.66,19.66,0,0,1,143.48,15.91Z"/><path class="cls-1" d="M129.89,18.09l-.45-.35c1.72-2.23,6.9-2.81,7.12-2.84l.31,0v1.4h-.57v-.76C135.16,15.67,131.23,16.34,129.89,18.09Z"/><path class="cls-1" d="M126.81,36.1a.6.6,0,0,1-.22,0A2.17,2.17,0,0,1,125.31,35a.89.89,0,0,1,0-.92,1.63,1.63,0,0,1-.92-.77.47.47,0,0,0-.1-.09l0,0a12.93,12.93,0,0,0-3.09-2.07,2.17,2.17,0,0,1-.34-.19l-.06-.05a1.11,1.11,0,0,1-.53-1.51c.36-1,.72-1.88,1.09-2.75.11-.25,0-.34-.06-.39a1.55,1.55,0,0,0-.43-.18l-.1,0a3.7,3.7,0,0,1-2.19-1.94,6,6,0,0,1-.28-3,2.25,2.25,0,0,0-.62,1.13,4.23,4.23,0,0,0,.17,2,4.65,4.65,0,0,1,.18,2.26,3.73,3.73,0,0,1-.76,1.35l-.35.48a2.69,2.69,0,0,0-.33,1.38c0,.21,0,.43-.06.65l-.09.69-.42-.57a4.77,4.77,0,0,1-.64-1.32,2.74,2.74,0,0,1-.13-1.8,3.48,3.48,0,0,1,.21-.48c0-.1.1-.2.14-.3a2.17,2.17,0,0,0-.25-1.77c-.09-.23-.19-.46-.27-.71a3.82,3.82,0,0,1,1.17-4,3,3,0,0,1,1.87-.44,2.21,2.21,0,0,0,1.49-.34A6.65,6.65,0,0,1,125.31,18c1.07.23,2.19.42,3.44.59a2.12,2.12,0,0,0,1.25-.17c.3-.29,2.36-2.18,6.72-2.47a2.09,2.09,0,0,1,1.11-1.44l.37-.18.14,1.6h1l.51.26,1.45-.19.12,0a1,1,0,0,1,.62,0,.87.87,0,0,1,.38.74l-.53.19a3,3,0,0,0-.09-.41h0l-.26,0a.44.44,0,0,1-.15,0l-1.63.22-.55-.28h-1.36l-.11-1.22a1.38,1.38,0,0,0-.45.95v.26H137c-4.57.24-6.59,2.32-6.61,2.34l-.07.06a2.62,2.62,0,0,1-1.64.25c-1.26-.17-2.39-.36-3.48-.59A6,6,0,0,0,120,19.72a2.74,2.74,0,0,1-1.85.47,2.47,2.47,0,0,0-1.54.32,3.28,3.28,0,0,0-1,3.35c.07.22.17.44.26.65a2.79,2.79,0,0,1,.25,2.21c0,.12-.11.23-.16.34a2.85,2.85,0,0,0-.18.41,2.23,2.23,0,0,0,.12,1.43c.05.13.09.25.14.36a2.7,2.7,0,0,1,.4-1.31,6.15,6.15,0,0,1,.37-.52,3.12,3.12,0,0,0,.65-1.14,4.09,4.09,0,0,0-.17-2A4.66,4.66,0,0,1,117.1,22c.13-.49.52-1.63,1.47-1.69l.32,0,0,.68a5.79,5.79,0,0,0,.22,2.85,3.18,3.18,0,0,0,1.86,1.64l.09,0a1.76,1.76,0,0,1,.61.28.84.84,0,0,1,.23,1.05c-.37.86-.72,1.75-1.07,2.72-.19.5-.07.58.32.86l.07,0a.82.82,0,0,0,.23.13,13.29,13.29,0,0,1,3.22,2.15l0,0a1.06,1.06,0,0,1,.23.24,1.07,1.07,0,0,0,.77.56.49.49,0,0,1,.23.11l0,0,.27.17-.21.28-.08.1a.37.37,0,0,0-.1.48,1.64,1.64,0,0,0,.94.77h0a2.44,2.44,0,0,0-.47-2.27,21.7,21.7,0,0,0-3.9-3.41l-.31-.21.75-.65a9.09,9.09,0,0,0,.63-.74,4.57,4.57,0,0,1,1.48-1.38,1.74,1.74,0,0,0,.86-1l.1-.28.52.22.49.21a12.66,12.66,0,0,0,6,1.1h.2c.68-.09.94,0,1.18.72a2.88,2.88,0,0,1,.16.93c0,.77,0,1.56,0,2.34a5,5,0,0,1-.16,1.1A2.63,2.63,0,0,1,132.07,34a5.9,5.9,0,0,0-.94.24.53.53,0,0,1-.46,0,.55.55,0,0,1-.25-.36.86.86,0,0,0-.88-.59,3.07,3.07,0,0,0-.72.3l-.06,0,.14.1.29.22c.18.14.35.27.53.39a1.68,1.68,0,0,0,.39.16l.32.09a3.39,3.39,0,0,1,.52.15,1.11,1.11,0,0,0,1-.11c.7-.43,1.4-.81,2.08-1.14.18-.09.4-.17.48-.34l.58.09a2.2,2.2,0,0,1-.81.76c-.67.32-1.35.7-2,1.11a1.64,1.64,0,0,1-1.53.16l-.45-.13-.36-.1a2,2,0,0,1-.54-.23l-.56-.41-.28-.21a3.45,3.45,0,0,1-.28-.23.47.47,0,0,1-.17-.43.45.45,0,0,1,.26-.34l.2-.1a3.15,3.15,0,0,1,.85-.34,1.42,1.42,0,0,1,1.54,1,6.25,6.25,0,0,1,1-.27A2.05,2.05,0,0,0,133.65,32a5.4,5.4,0,0,0,.15-1c0-.78,0-1.55,0-2.31a2.42,2.42,0,0,0-.12-.76c-.14-.39-.14-.39-.59-.34l-.23,0a13.13,13.13,0,0,1-6.23-1.15l-.46-.2a2.36,2.36,0,0,1-1,1.05,3.94,3.94,0,0,0-1.29,1.22,7.31,7.31,0,0,1-.69.8l-.21.18a22.5,22.5,0,0,1,3.7,3.31,3,3,0,0,1,.6,2.77.59.59,0,0,1-.27.41A.45.45,0,0,1,126.81,36.1Z"/><path class="cls-1" d="M118.88,35.5h-.72l0,0a.46.46,0,0,1-.28-.29.43.43,0,0,1,.07-.39l0-.07a1.35,1.35,0,0,1,.27-.33.76.76,0,0,0,.26-.4,1.72,1.72,0,0,1,.07-.21l.06-.19a2,2,0,0,0-.15-1.5l-.08-.15a4.34,4.34,0,0,1-.26-.53A3.88,3.88,0,0,1,118,31l-.25.09a2.41,2.41,0,0,1-1.26.23h0c0,.05-.08.13-.17.31a3.57,3.57,0,0,0-.25.69,4.24,4.24,0,0,1-.39,1,1,1,0,0,0-.21.84.5.5,0,0,1-.16.54.5.5,0,0,1,0,.28.6.6,0,0,1-.33.29l-.29.07-.16,0h-.23l-.09,0-.18,0a.45.45,0,0,1-.35-.24.42.42,0,0,1,0-.4l.08-.13a1.56,1.56,0,0,1,.35-.47,1.09,1.09,0,0,0,.41-.76l0-.2a3.57,3.57,0,0,1,.36-1.32c.06-.12,0-.18-.14-.44a1.43,1.43,0,0,1-.14-.2,3.36,3.36,0,0,1-1.29.64,2.77,2.77,0,0,0-.54.2l0,0a.73.73,0,0,0,.11.18.88.88,0,0,1,.12.17.37.37,0,0,0,.06.08h0a.5.5,0,0,1,.31,0,1,1,0,0,1,.82.9.57.57,0,0,1-.12.52.56.56,0,0,1-.54.08,3.86,3.86,0,0,0-.75-.1c-.42,0-.66-.1-.73-.6a1.08,1.08,0,0,0-.25-.54,2.69,2.69,0,0,1-.38-.57.73.73,0,0,1,.06-.84,5.66,5.66,0,0,1,.79-.62l.33-.24.07-.05a2.82,2.82,0,0,0,.5-.45,2.72,2.72,0,0,0-.11-.25,6.69,6.69,0,0,0-.64-1.25,2.92,2.92,0,0,0-.58,1.12,1.85,1.85,0,0,1-.18.41,5.58,5.58,0,0,0-.31.79.39.39,0,0,0,0,.16,1.77,1.77,0,0,1,0,.23c-.07.55-.67.8-1.22.8h-.05a.8.8,0,0,1-.62-.32l-.08-.09-.09-.09a.75.75,0,0,1-.24-.89,5.75,5.75,0,0,0,.32-1.65c0-.17,0-.33,0-.49l.06-.42-1-.17.21-.36a2.06,2.06,0,0,1,1-.88,5.26,5.26,0,0,1,1.67-3.42,3.76,3.76,0,0,1,3.26-.7v.58a3.46,3.46,0,0,0-2.91.56,4.87,4.87,0,0,0-1.48,3.22v.23L110,27a1.18,1.18,0,0,0-.58.32l.73.11,0,.29c0,.21-.09.45-.11.67s0,.32,0,.48a6.53,6.53,0,0,1-.36,1.81.18.18,0,0,0,.07.24,1.14,1.14,0,0,1,.16.15l.07.09c.1.11.12.13.22.13.28,0,.66-.09.68-.3a.48.48,0,0,0,0-.12,1.07,1.07,0,0,1,0-.38,4.42,4.42,0,0,1,.35-.86,2.78,2.78,0,0,0,.14-.35,2.82,2.82,0,0,1,1-1.57l.21-.13.16.19a6.06,6.06,0,0,1,.89,1.6l.15.34c.15.33-.22.65-.71,1l-.06.05c-.07.06-.2.16-.36.27a5.77,5.77,0,0,0-.69.52s0,.07,0,.22a2.32,2.32,0,0,0,.31.46l.05.07-.07-.13a.56.56,0,0,1,0-.42.54.54,0,0,1,.31-.32l0,0a2.58,2.58,0,0,1,.69-.25,2.69,2.69,0,0,0,1.16-.66.37.37,0,0,1,.15-.12l.37-.22.08.39a1.14,1.14,0,0,0,.22.4.89.89,0,0,1,.18,1,2.87,2.87,0,0,0-.28,1l0-.05a3.68,3.68,0,0,0,.32-.82,4.93,4.93,0,0,1,.28-.75c.18-.38.33-.59.54-.64a.59.59,0,0,1,.23,0,2.11,2.11,0,0,0,1-.2l.41-.15.43-.14.09.29.06.23a3.09,3.09,0,0,0,.13.46,3.84,3.84,0,0,0,.23.45l.08.15a2.36,2.36,0,0,1,.29,1.31,3.28,3.28,0,0,1,.2-.31.19.19,0,0,0,0-.24,1.61,1.61,0,0,1-.17-1.44,1,1,0,0,1,.3-.55l.34-.35.19.33c.3.55.45.66,1,.73a.46.46,0,0,1,.42.41l0,.2a1,1,0,0,1,0,.77c-.1.27-.13.36,0,.49l0-.24s.29-.75.3-.83l.43.21c0,.12-.09.38-.1.43.21.07.31.27.39.53l.09.37.11.55-.36,0a1.6,1.6,0,0,1-1-.34c-.58-.46-.67-.62-.41-1.35a.5.5,0,0,0,0-.43s0-.12,0-.19a1.51,1.51,0,0,1-1.15-.64.19.19,0,0,0,0,.07,1.07,1.07,0,0,0,.09,1,.74.74,0,0,1,0,.88,1.23,1.23,0,0,0-.31,1.07.59.59,0,0,1-.16.54.52.52,0,0,1,0,.44.6.6,0,0,1-.48.27Zm-.39-.57h.26l.08,0h0l0,0a.43.43,0,0,1,.18-.51.11.11,0,0,0,0-.05s0-.09,0-.14a1.37,1.37,0,0,1-.45.69A.24.24,0,0,0,118.49,34.93Zm-4.17-.21h.2l.16,0a.52.52,0,0,1,.17-.45h0a1.42,1.42,0,0,1,0-.2,1.55,1.55,0,0,1-.38.43,1,1,0,0,0-.19.27h.06Zm5.06-.11Zm-4.16-.11Zm6.48-1.2.1.09a1,1,0,0,0,.31.16.56.56,0,0,0,0-.12.84.84,0,0,0-.06-.17h-.09Zm-9.07-.15h.15a3.86,3.86,0,0,1,.84.11c-.06-.31-.19-.36-.32-.38h0a.58.58,0,0,1-.77-.3l-.09-.13,0,0a1.72,1.72,0,0,1,.23.62A.54.54,0,0,0,112.63,33.15Zm2.23-2.32Z"/></g></g></svg>