<svg width="132" height="59" viewBox="0 0 132 59" fill="none" xmlns="http://www.w3.org/2000/svg">
<g clip-path="url(#clip0_6316_2955)">
<path d="M37.5846 28.2102C36.8583 27.4727 36.132 27.1039 35.2242 26.7352C35.9504 26.182 36.6767 25.6289 37.0398 24.8914C37.5846 24.1539 37.7661 23.232 37.7661 22.1258C37.7661 21.0195 37.403 20.0977 36.8583 19.1758C36.3136 18.2539 35.5873 17.7008 34.4979 17.1477C33.5901 16.5945 32.3191 16.4102 31.0481 16.4102C29.7771 16.4102 28.6877 16.5945 27.7799 17.1477C26.872 17.7008 25.9642 18.2539 25.4195 19.1758C24.8748 20.0977 24.5116 21.0195 24.5116 22.1258C24.5116 23.232 24.6932 24.1539 25.2379 24.8914C25.7826 25.6289 26.3273 26.182 27.0536 26.7352C26.3273 27.1039 25.6011 27.4727 24.6932 28.2102C23.9669 28.7633 23.4222 29.6852 22.8775 30.607C22.3328 31.5289 22.1513 32.6352 22.1513 33.9258C22.1513 35.4008 22.5144 36.6914 23.2407 37.982C23.9669 39.2727 25.0564 40.1945 26.3273 40.932C27.5983 41.6695 29.0508 42.0383 30.8665 42.0383C32.5006 42.0383 34.1348 41.6695 35.4057 40.932C36.6767 40.1945 37.7661 39.0883 38.4924 37.982C39.2187 36.8758 39.5818 35.4008 39.5818 33.9258C39.5818 32.6352 39.4002 31.5289 38.8555 30.607C38.8555 29.6852 38.3108 28.9477 37.5846 28.2102ZM29.2324 20.4664C29.7771 19.9133 30.5034 19.5445 31.4112 19.5445C32.1375 19.5445 32.8638 19.9133 33.4085 20.4664C33.9532 21.0195 34.3163 21.757 34.3163 22.6789C34.3163 23.4164 33.9532 24.1539 33.4085 24.707C32.8638 25.2602 32.1375 25.4445 31.4112 25.4445C30.685 25.4445 29.9587 25.2602 29.2324 24.707C28.6877 24.1539 28.3246 23.4164 28.3246 22.6789C28.3246 21.757 28.6877 21.0195 29.2324 20.4664ZM35.7689 36.507C35.2242 37.2445 34.6795 37.982 33.9532 38.5352C33.2269 39.0883 32.3191 39.2727 31.4112 39.2727C30.5034 39.2727 29.5956 39.0883 28.8693 38.5352C28.143 37.982 27.4167 37.4289 27.0536 36.507C26.6905 35.7695 26.3273 34.8477 26.3273 33.9258C26.3273 33.0039 26.5089 32.082 27.0536 31.1602C27.5983 30.4227 28.143 29.6852 29.0508 29.3164C29.7771 28.9477 30.685 28.5789 31.5928 28.5789C32.5006 28.5789 33.4085 28.7633 34.1348 29.3164C34.861 29.8695 35.4057 30.4227 35.9504 31.1602C36.3136 31.8977 36.6767 32.8195 36.6767 33.7414C36.4951 34.8477 36.3136 35.5852 35.7689 36.507Z" fill="#F2F2F2"/>
<path d="M60.4621 19.9133C59.5542 18.807 58.4648 17.8852 57.1939 17.332C55.9229 16.7789 54.4703 16.4102 53.0178 16.4102C51.3837 16.4102 49.9311 16.5945 48.6602 17.1477C47.3892 17.7008 46.2998 18.4383 45.3919 19.5445C44.4841 20.6508 43.7578 21.9414 43.2131 23.6008C42.6684 25.2602 42.4868 27.1039 42.4868 29.132C42.4868 31.1602 42.6684 32.8195 43.2131 34.4789C43.7578 36.1383 44.4841 37.4289 45.3919 38.5352C46.2998 39.6414 47.3892 40.5633 48.6602 41.1164C49.9311 41.6695 51.3837 42.0383 52.8362 42.0383C54.2888 42.0383 55.7413 41.6695 57.0123 41.1164C58.2833 40.5633 59.3727 39.6414 60.2805 38.5352C61.1884 37.4289 61.9146 36.1383 62.4593 34.4789C63.004 32.8195 63.1856 31.1602 63.1856 29.132C63.1856 27.1039 63.004 25.4445 62.4593 23.7852C62.0962 22.3102 61.3699 21.0195 60.4621 19.9133ZM58.828 34.1102C58.2833 35.5852 57.557 36.6914 56.6492 37.4289C55.7413 38.1664 54.4703 38.5352 53.0178 38.5352C51.5653 38.5352 50.2943 38.1664 49.3864 37.4289C48.4786 36.6914 47.5708 35.5852 47.2076 34.1102C46.6629 32.6352 46.4813 31.1602 46.4813 29.3164C46.4813 27.4727 46.6629 25.8133 47.2076 24.5227C47.7523 23.232 48.4786 22.1258 49.3864 21.2039C50.2943 20.4664 51.5653 20.0977 53.0178 20.0977C54.4703 20.0977 55.7413 20.4664 56.6492 21.2039C57.557 21.9414 58.2833 23.0477 58.828 24.3383C59.3727 25.6289 59.5542 27.2883 59.5542 29.132C59.5542 30.9758 59.3727 32.6352 58.828 34.1102Z" fill="#F2F2F2"/>
<path d="M75.3508 30.9762C76.077 30.423 76.8033 29.6855 77.1665 28.7637C77.5296 27.8418 77.7112 26.5512 77.7112 25.2605C77.7112 23.9699 77.5296 22.8637 76.9849 21.9418C76.6217 21.0199 75.8955 20.098 75.1692 19.5449C74.4429 18.9918 73.3535 18.623 72.2641 18.623C71.1747 18.623 70.0853 18.9918 69.359 19.5449C68.6328 20.098 67.9065 20.8355 67.5433 21.9418C67.3618 22.6793 67.1802 23.9699 67.1802 25.0762C67.1802 26.1824 67.3618 27.473 67.7249 28.3949C68.088 29.3168 68.8143 30.2387 69.5406 30.7918C70.2669 31.3449 71.3563 31.7137 72.4457 31.7137C73.7167 31.7137 74.6245 31.5293 75.3508 30.9762ZM70.8116 28.0262C70.4484 27.2887 70.2669 26.3668 70.2669 25.0762C70.2669 23.7855 70.4484 22.6793 70.8116 22.1262C71.1747 21.3887 71.7194 21.2043 72.4457 21.2043C73.172 21.2043 73.7167 21.573 74.0798 22.1262C74.4429 22.8637 74.6245 23.7855 74.6245 25.0762C74.6245 26.3668 74.4429 27.2887 74.0798 28.0262C73.7167 28.7637 73.172 29.1324 72.4457 29.1324C71.7194 29.1324 71.1747 28.7637 70.8116 28.0262Z" fill="#F2F2F2"/>
<path d="M91.5102 32.6355C91.1471 31.7137 90.4208 30.9762 89.6946 30.423C88.9683 29.8699 87.8789 29.6855 86.7895 29.6855C85.7001 29.6855 84.6106 29.8699 83.8844 30.423C83.1581 30.9762 82.4318 31.7137 82.0687 32.6355C81.7056 33.5574 81.524 34.6637 81.524 36.1387C81.524 37.4293 81.7056 38.5355 82.0687 39.6418C82.4318 40.5637 83.1581 41.4855 83.8844 41.8543C84.6106 42.4074 85.7001 42.5918 86.7895 42.5918C87.8789 42.5918 88.9683 42.4074 89.6946 41.8543C90.4208 41.3012 91.1471 40.5637 91.5102 39.4574C91.8734 38.3512 92.0549 37.2449 92.0549 35.9543C92.0549 34.6637 91.8734 33.5574 91.5102 32.6355ZM88.4236 38.9043C88.0604 39.6418 87.5157 40.0105 86.7895 40.0105C86.0632 40.0105 85.5185 39.6418 85.1554 38.9043C84.7922 38.1668 84.6106 37.2449 84.6106 35.9543C84.6106 34.6637 84.7922 33.5574 85.1554 33.0043C85.5185 32.4512 86.0632 32.0824 86.7895 32.0824C87.5157 32.0824 88.0604 32.4512 88.4236 33.0043C88.7867 33.7418 88.9683 34.6637 88.9683 35.9543C88.9683 37.2449 88.7867 38.1668 88.4236 38.9043Z" fill="#F2F2F2"/>
<path d="M85.8817 18.623L70.0853 42.0387H73.7166L89.5131 18.623H85.8817Z" fill="#F2F2F2"/>
<path d="M117.111 28.3937C115.296 28.3937 113.48 28.7625 111.846 29.3156V14.1969C111.846 6.26875 105.491 0 97.8652 0H13.9807C6.35488 0 0 6.45312 0 14.1969V42.9594C0 50.8875 6.35488 57.1562 13.9807 57.1562H97.6836C100.952 57.1562 103.857 56.05 106.217 54.2062C108.941 57.1562 112.754 59 117.111 59C125.464 59 132.182 52.1781 132.182 43.6969C132 35.2156 125.282 28.3937 117.111 28.3937ZM97.8652 53.4688H13.9807C8.35213 53.4688 3.63136 48.8594 3.63136 42.9594V14.1969C3.63136 8.48125 8.35213 3.6875 13.9807 3.6875H97.6836C103.494 3.6875 108.033 8.48125 108.033 14.1969V31.3438C104.22 34.1094 101.86 38.5344 101.86 43.6969C101.86 46.4625 102.586 49.0438 103.857 51.4406C102.404 52.7313 100.226 53.4688 97.8652 53.4688ZM126.19 41.6688L121.469 45.725C121.287 45.9094 121.287 46.0938 121.287 46.2781L123.648 51.9938C123.829 52.3625 123.285 52.9156 122.922 52.5469L117.656 49.0438C117.475 48.8594 117.293 48.8594 117.111 49.0438L111.846 52.5469C111.483 52.7313 110.938 52.3625 111.12 51.9938L113.48 46.2781C113.48 46.0938 113.48 45.9094 113.298 45.725L111.483 44.0656L108.941 41.6688C108.578 41.3 108.759 40.7469 109.304 40.7469H111.846H114.569C114.751 40.7469 114.933 40.5625 114.933 40.3781L117.111 34.8469C117.293 34.4781 117.838 34.4781 118.019 34.8469L120.198 40.3781C120.198 40.5625 120.38 40.7469 120.561 40.7469H125.827C126.371 40.9313 126.553 41.4844 126.19 41.6688Z" fill="#F2F2F2"/>
</g>
<defs>
<clipPath id="clip0_6316_2955">
<rect width="132" height="59" fill="white"/>
</clipPath>
</defs>
</svg>
