<svg width="132" height="59" viewBox="0 0 132 59" fill="none" xmlns="http://www.w3.org/2000/svg">
<path d="M20.9958 20.2824H31.9502L23.1867 41.8543H27.2033L37.2448 16.7793H20.9958V20.2824Z" fill="#F2F2F2"/>
<path d="M57.6929 19.9133C56.78 18.807 55.6846 17.8852 54.4066 17.332C53.1286 16.7789 51.668 16.4102 50.2074 16.4102C48.5643 16.4102 47.1037 16.5945 45.8257 17.1477C44.5477 17.7008 43.4522 18.4383 42.5394 19.5445C41.6265 20.6508 40.8962 21.9414 40.3485 23.6008C39.8008 25.2602 39.6182 27.1039 39.6182 29.132C39.6182 31.1602 39.8008 32.8195 40.3485 34.4789C40.8962 36.1383 41.6265 37.4289 42.5394 38.5352C43.4522 39.6414 44.5477 40.5633 45.8257 41.1164C47.1037 41.6695 48.5643 42.0383 50.0248 42.0383C51.4854 42.0383 52.946 41.6695 54.224 41.1164C55.502 40.5633 56.5975 39.6414 57.5103 38.5352C58.4232 37.4289 59.1535 36.1383 59.7012 34.4789C60.2489 32.8195 60.4315 31.1602 60.4315 29.132C60.4315 27.1039 60.2489 25.4445 59.7012 23.7852C59.336 22.3102 58.6058 21.0195 57.6929 19.9133ZM56.0497 34.1102C55.502 35.5852 54.7717 36.6914 53.8589 37.4289C52.946 38.1664 51.668 38.5352 50.2074 38.5352C48.7468 38.5352 47.4688 38.1664 46.556 37.4289C45.6431 36.6914 44.7302 35.5852 44.3651 34.1102C43.8174 32.6352 43.6348 31.1602 43.6348 29.3164C43.6348 27.4727 43.8174 25.8133 44.3651 24.5227C44.9128 23.232 45.6431 22.1258 46.556 21.2039C47.4688 20.4664 48.7468 20.0977 50.2074 20.0977C51.668 20.0977 52.946 20.4664 53.8589 21.2039C54.7717 21.9414 55.502 23.0477 56.0497 24.3383C56.5975 25.6289 56.78 27.2883 56.78 29.132C56.78 30.9758 56.5975 32.6352 56.0497 34.1102Z" fill="#F2F2F2"/>
<path d="M72.6638 30.7906C73.3941 30.2375 74.1244 29.5 74.4896 28.5781C74.8547 27.6562 75.0373 26.3656 75.0373 25.075C75.0373 23.7844 74.8547 22.6781 74.307 21.7563C73.9419 20.8344 73.2116 19.9125 72.4813 19.3594C71.751 18.8062 70.6555 18.4375 69.5601 18.4375C68.4647 18.4375 67.3692 18.8062 66.6389 19.3594C65.9087 19.9125 65.1784 20.65 64.8132 21.7563C64.4481 22.6781 64.2655 23.7844 64.2655 25.075C64.2655 26.3656 64.4481 27.4719 64.8132 28.3937C65.1784 29.3156 65.9087 30.2375 66.6389 30.7906C67.3692 31.3438 68.4647 31.7125 69.5601 31.7125C71.0207 31.7125 71.9335 31.3438 72.6638 30.7906ZM68.0995 28.025C67.7344 27.2875 67.5518 26.3656 67.5518 25.075C67.5518 23.7844 67.7344 22.6781 68.0995 22.125C68.4647 21.5719 69.0124 21.2031 69.7427 21.2031C70.473 21.2031 71.0207 21.5719 71.3858 22.125C71.751 22.8625 71.9336 23.7844 71.9336 25.075C71.9336 26.3656 71.751 27.2875 71.3858 28.025C71.0207 28.7625 70.473 29.1313 69.7427 29.1313C69.0124 29.1313 68.4647 28.7625 68.0995 28.025Z" fill="#F2F2F2"/>
<path d="M88.7303 32.6355C88.3651 31.7137 87.6348 30.9762 86.9045 30.423C86.1742 29.8699 85.0788 29.6855 83.9834 29.6855C82.8879 29.6855 81.7925 29.8699 81.0622 30.423C80.3319 30.9762 79.6016 31.7137 79.2365 32.6355C78.8713 33.5574 78.6888 34.6637 78.6888 36.1387C78.6888 37.4293 78.8713 38.5355 79.2365 39.6418C79.6016 40.5637 80.3319 41.4855 81.0622 41.8543C81.7925 42.4074 82.8879 42.5918 83.9834 42.5918C85.0788 42.5918 86.1742 42.4074 86.9045 41.8543C87.6348 41.3012 88.3651 40.5637 88.7303 39.4574C89.0954 38.5355 89.278 37.2449 89.278 35.9543C89.4606 34.6637 89.278 33.5574 88.7303 32.6355ZM85.6265 38.9043C85.2614 39.6418 84.7137 40.0105 83.9834 40.0105C83.2531 40.0105 82.7054 39.6418 82.3402 38.9043C81.9751 38.1668 81.7925 37.2449 81.7925 35.9543C81.7925 34.6637 81.9751 33.5574 82.3402 33.0043C82.7054 32.4512 83.2531 32.0824 83.9834 32.0824C84.7137 32.0824 85.2614 32.4512 85.6265 33.0043C85.9917 33.7418 86.1742 34.6637 86.1742 35.9543C86.3568 37.2449 86.1743 38.1668 85.6265 38.9043Z" fill="#F2F2F2"/>
<path d="M83.2531 18.623L67.3693 41.8543L71.0208 42.0387L86.722 18.623H83.2531Z" fill="#F2F2F2"/>
<path d="M116.846 28.3937C114.656 28.3937 112.465 28.9469 110.639 29.6844V14.1969C110.639 6.26875 104.249 0 96.5809 0H14.0581C6.39004 0 0 6.45312 0 14.1969V42.9594C0 50.8875 6.39004 57.1562 14.0581 57.1562H96.3983C99.8672 57.1562 102.971 55.8656 105.527 53.8375C108.266 56.9719 112.282 59 116.846 59C125.245 59 132 52.1781 132 43.6969C132 35.2156 125.245 28.3937 116.846 28.3937ZM96.5809 53.4688H14.0581C8.39834 53.4688 3.65145 48.8594 3.65145 42.9594V14.1969C3.65145 8.48125 8.39834 3.6875 14.0581 3.6875H96.3983C102.241 3.6875 106.805 8.48125 106.805 14.1969V32.0812C103.701 34.8469 101.51 38.9031 101.51 43.5125C101.51 46.0938 102.058 48.4906 103.336 50.5187C101.693 52.5469 99.1369 53.4688 96.5809 53.4688ZM126.523 40.3781L115.021 51.9938C114.838 52.1781 114.29 52.1781 114.108 51.9938L109.726 47.5687L106.988 44.8031C106.805 44.6187 106.805 44.0656 106.988 43.8812L109.178 41.6688C109.361 41.4844 109.909 41.4844 110.091 41.6688L110.456 42.0375L114.108 45.725C114.29 45.9094 114.838 45.9094 115.021 45.725L123.419 37.2438C123.602 37.0594 124.149 37.0594 124.332 37.2438L126.523 39.4562C126.888 39.825 126.888 40.1937 126.523 40.3781Z" fill="#F2F2F2"/>
</svg>
