<svg width="702" height="492" viewBox="0 0 702 492" fill="none" xmlns="http://www.w3.org/2000/svg">
<path d="M33.4666 298.577H0L1.59363 293.76C4.78093 284.93 17.5302 272.086 19.9206 269.678C31.873 252.82 61.3556 240.779 62.1524 240.779L65.3397 248.004C65.3397 248.004 36.654 260.045 26.2953 274.495L25.4984 275.297C22.3111 277.706 15.9365 284.93 11.9524 291.352H26.2953V276.903L27.8889 276.1C35.0603 270.481 59.7619 252.018 70.1207 253.623L68.5269 260.848C64.5428 260.045 47.8096 269.678 34.2635 280.114L33.4666 298.577Z" fill="white" fill-opacity="0.04"/>
<path d="M377.753 222.29L369.785 225.501C369.785 146.03 412.814 124.355 414.407 123.553L416.001 122.75L431.141 131.58L427.157 138.002L416.001 131.58C412.814 133.988 404.845 138.805 397.674 150.043C388.909 162.887 377.753 182.956 377.753 222.29Z" fill="white" fill-opacity="0.04"/>
<path d="M658.241 216.758L651.07 213.547L656.647 201.506C651.07 202.309 643.101 203.914 639.117 208.731L633.539 203.111C643.101 192.676 663.022 192.676 663.819 192.676H669.397L658.241 216.758Z" fill="white" fill-opacity="0.04"/>
<path d="M560.976 384.501L561.772 378.882C562.569 366.841 568.944 349.983 568.944 349.18L571.334 343.561L582.49 354.8L588.864 348.378L580.896 317.071C576.912 317.071 570.537 318.676 565.757 323.493C556.195 333.126 537.071 329.112 536.274 329.112L537.868 321.887C542.649 322.69 555.398 323.493 560.976 318.676C570.537 309.846 584.083 309.846 584.88 309.846H588.068L598.426 351.589L583.287 366.038L576.115 358.011C574.522 362.024 572.928 368.446 572.131 374.065L584.88 370.052L602.41 357.208C605.598 341.153 608.785 302.621 595.239 292.186L600.02 285.764C620.738 301.819 609.582 358.011 609.582 360.419V362.024L588.864 377.276L560.976 384.501Z" fill="white" fill-opacity="0.04"/>
<path d="M611.207 407.745L609.614 405.337C609.614 404.534 602.442 394.901 610.411 376.438L612.004 373.227L629.534 377.241L643.08 372.424C643.877 365.2 644.674 350.75 643.08 345.131C640.69 335.498 623.16 332.287 616.785 331.484L617.582 323.457C619.176 323.457 647.064 325.063 651.049 342.723C653.439 352.356 651.049 374.833 651.049 375.635V378.044L631.128 384.466L618.379 381.255C615.988 388.479 615.988 393.296 616.785 396.507L631.128 389.282L652.642 383.663C655.033 378.846 663.798 359.58 659.814 325.865L667.782 321.852C673.36 364.397 659.017 387.677 659.017 389.282L658.22 390.887L633.519 396.507L611.207 407.745Z" fill="white" fill-opacity="0.04"/>
<path d="M514.032 367.627L513.235 359.6C546.702 355.586 563.435 336.32 563.435 336.32L569.013 341.137C568.216 341.94 549.889 362.811 514.032 367.627Z" fill="white" fill-opacity="0.04"/>
<path d="M125.168 378.057L116.403 365.213L121.184 363.607C121.981 363.607 129.949 361.199 135.527 363.607L132.339 370.832C131.543 370.029 129.949 370.029 129.152 370.029L131.543 374.043L125.168 378.057Z" fill="white" fill-opacity="0.04"/>
<path d="M117.191 285.777C113.206 285.777 110.019 284.974 108.425 284.974H90.8953C78.943 284.974 74.1621 272.13 74.1621 272.13V270.525L73.3652 231.19C72.5684 223.966 74.162 218.346 77.3493 215.135C81.3335 211.122 86.1144 211.122 86.9112 211.122H118.784C109.222 165.365 114.8 97.9347 115.597 85.0909C113.206 82.6826 110.019 80.2744 106.035 77.8662C102.051 75.4579 98.8636 73.0497 96.4731 70.6415C90.8953 65.825 86.1144 61.8113 81.3335 57.7976C79.7398 56.1921 76.5525 55.3893 73.3652 55.3893C68.5843 54.5866 64.6001 52.1783 63.0065 47.3619C61.4128 43.3482 60.616 39.3344 60.616 35.3207C60.616 29.7015 63.8034 26.4905 66.1938 24.0823L67.7875 22.4768C68.5843 21.6741 69.3811 20.8713 69.3811 20.8713C73.3652 16.0549 78.9429 14.4494 84.5207 16.0549C94.8794 20.0686 105.238 20.8713 117.191 21.6741C120.378 21.6741 123.565 22.4768 126.752 22.4768C130.737 22.4768 133.924 23.2796 137.908 24.0823L149.064 0L153.048 5.61921C153.048 6.42195 161.016 16.8576 157.829 31.307C164.203 38.5317 166.594 44.9537 172.968 64.2195C176.952 76.2607 182.53 92.3155 191.295 117.201C201.654 146.902 224.762 170.984 255.041 186.237C269.384 193.461 284.524 197.475 300.46 201.489L302.054 202.291C325.162 208.713 353.051 220.755 368.987 230.387L364.206 237.612C348.27 228.782 322.771 215.938 300.46 209.516L298.867 208.713C282.133 204.7 266.994 199.883 251.854 192.659C219.981 176.604 196.076 150.916 184.921 119.609C176.156 94.7238 170.578 78.6689 166.594 66.6277C160.219 46.5591 158.625 41.7427 152.251 35.3207L151.454 34.518L149.064 32.9125L149.86 31.307C151.454 25.6878 150.657 20.8713 149.86 16.8576L142.689 32.9125H139.502C134.721 32.1098 130.737 31.307 126.752 31.307C123.565 31.307 120.378 30.5043 117.191 30.5043C106.035 29.7015 94.0826 28.8988 82.9271 24.0823C80.5366 23.2796 78.1461 24.0823 76.5525 26.4905C75.7556 27.2933 74.9589 28.8988 73.3652 29.7015L71.7716 31.307C69.3811 33.7152 68.5842 34.518 68.5842 36.9262C68.5842 40.1372 68.5843 42.5454 70.178 45.7564C70.9748 47.3619 71.7715 48.1646 74.9588 48.9674C79.7398 49.7701 83.724 50.5729 86.1145 52.9811C91.6922 56.9948 96.4732 61.0085 102.051 65.825C104.441 67.4305 107.629 69.8387 110.816 72.2469C114.8 75.4579 119.581 78.6689 122.768 81.0771L124.362 82.6826V84.2881C124.362 85.0908 116.394 166.168 128.346 214.333L129.94 219.149L88.5048 218.346C88.5048 218.346 86.1144 218.346 84.5207 219.952C82.9271 221.557 82.1303 225.571 82.9271 230.387L83.724 269.722C84.5208 271.327 87.7081 277.749 93.2858 277.749H112.41C115.597 278.552 123.565 279.355 129.143 276.947L122.768 268.919C120.378 269.722 114.8 270.525 112.41 275.341L111.613 277.749H93.2858L92.489 274.538C91.6921 272.13 90.8953 269.722 90.8953 268.116C90.0985 268.116 89.3017 267.314 88.5048 266.511C87.708 265.708 85.3176 263.3 87.7081 249.653L88.5048 247.245L90.8953 246.442C98.8636 244.034 124.362 236.809 131.533 240.02C132.33 240.02 134.721 240.823 137.111 241.626C149.064 244.034 171.375 247.245 195.279 268.116L190.498 273.736C168.187 254.47 146.673 250.456 135.518 248.851C132.33 248.048 129.94 248.048 128.346 247.245C125.159 246.442 109.222 249.653 94.8795 253.667C94.0826 256.878 94.0827 259.286 94.0827 260.892C95.6764 261.694 97.2699 264.103 98.8636 269.722H106.035C111.613 261.694 122.768 260.892 123.565 260.892H125.159L138.705 277.749L136.314 280.158C130.737 284.171 123.565 285.777 117.191 285.777Z" fill="white" fill-opacity="0.04"/>
<path d="M215.221 146.884L213.628 144.476C209.643 137.251 205.659 130.027 201.675 121.999C195.301 108.353 190.52 93.9032 185.739 80.2565C183.348 72.2291 180.161 64.2016 176.974 56.1742V55.3715C174.583 48.9495 172.193 43.3303 169.005 36.9084L162.631 43.3303L157.053 37.7111L170.599 24.0645L172.989 28.0782C177.77 35.3029 180.958 44.133 184.145 52.1605V52.9632C187.332 60.9907 189.723 69.0181 192.91 77.0455C197.691 90.6922 202.472 104.339 208.847 117.985C212.831 126.013 216.815 133.238 220.799 139.66L222.393 142.068L215.221 146.884Z" fill="white" fill-opacity="0.04"/>
<path d="M399.151 213.488L391.183 216.699C391.183 214.29 394.37 151.676 426.243 132.41C426.243 122.778 426.243 119.567 428.634 113.145L431.821 104.314L435.805 112.342C435.805 112.342 438.992 117.961 443.773 121.975C462.1 118.764 463.694 123.58 464.491 125.186C465.288 126.791 468.475 129.2 471.662 130.805L481.224 131.608C483.615 131.608 489.989 130.805 492.38 130.805C501.145 130.002 506.722 133.213 510.707 141.241C510.707 141.241 510.707 142.043 511.503 142.043C516.284 150.071 513.894 155.69 511.503 158.901C508.316 163.717 502.738 166.126 496.364 165.323C494.77 165.323 490.786 165.323 489.989 166.126C486.802 168.534 468.475 182.181 446.164 178.97C444.57 184.589 442.976 195.024 442.976 199.841L435.008 201.446C435.008 193.419 438.992 174.956 438.992 174.153L439.789 170.139L443.773 170.942C466.084 175.759 485.208 160.506 485.208 159.704L486.005 158.901C488.396 157.296 494.77 157.296 496.364 157.296C500.348 157.296 502.738 156.493 504.332 154.085C505.926 152.479 506.723 150.071 504.332 145.254C503.535 144.452 503.535 143.649 503.535 142.846C501.145 138.03 498.754 136.424 493.176 136.424C489.989 136.424 484.411 137.227 481.224 137.227L469.272 136.424L468.475 135.621C466.881 134.819 460.507 130.805 458.116 125.989C455.726 125.186 449.351 125.989 443.773 126.791H442.18L440.586 125.989C437.399 124.383 435.008 121.975 433.415 120.369C433.415 122.778 433.415 125.989 433.415 130.805V137.227L431.024 138.03C401.542 153.282 399.151 212.685 399.151 213.488Z" fill="white" fill-opacity="0.04"/>
<path d="M329.961 437.51L322.79 431.891C321.993 429.483 321.993 426.272 320.399 423.864C314.822 415.836 301.276 407.809 292.51 403.795L290.917 402.992L296.495 398.979L298.088 399.781C305.26 402.992 314.025 407.006 321.196 414.231C327.571 420.653 330.758 428.68 329.961 437.51Z" fill="white" fill-opacity="0.04"/>
<path d="M239.908 402.149C239.111 402.149 239.111 401.346 238.314 401.346C232.736 398.938 231.143 394.924 231.143 392.516C231.143 390.108 231.143 386.094 235.127 382.08C237.517 379.672 240.705 377.264 243.095 375.658C243.892 374.855 245.486 374.053 246.282 373.25L251.063 379.672C250.266 380.475 248.673 381.277 247.876 382.08C245.486 383.686 243.095 386.094 240.705 387.699C239.111 389.305 238.314 390.108 238.314 390.91C238.314 391.713 239.908 392.516 241.502 394.121C242.298 394.121 242.298 394.924 243.095 394.924L239.908 402.149Z" fill="white" fill-opacity="0.04"/>
<path d="M441.524 447.114L440.727 444.705C440.727 444.705 435.946 435.073 439.133 427.045C441.524 421.426 446.305 418.215 452.679 415.807L454.273 415.004L459.054 418.215C461.444 419.82 463.835 421.426 466.225 423.031C467.819 423.834 467.819 423.834 468.616 423.031C472.6 419.018 476.584 417.412 480.568 416.609C488.537 414.201 494.114 408.582 500.489 402.16C500.489 402.16 501.286 401.357 501.286 400.555C501.286 399.752 500.489 399.752 499.692 398.949C498.098 397.344 496.505 396.541 494.114 395.738C486.943 392.527 478.975 389.316 471.803 386.105L467.022 384.5C466.225 388.513 464.632 392.527 463.835 396.541C462.241 402.16 460.648 407.779 459.851 412.596L452.679 410.187C454.273 405.371 455.867 399.752 456.664 394.133C458.257 388.513 459.851 382.894 460.648 378.078L461.444 374.064L466.225 375.669C467.022 375.669 467.022 375.669 467.819 376.472L474.194 378.88C481.365 382.091 489.333 385.302 496.505 388.513C499.692 389.316 502.083 390.922 503.676 393.33C506.067 395.738 507.66 398.146 507.66 400.555C507.66 402.16 507.66 405.371 504.473 407.779C498.895 413.398 490.927 421.426 481.365 423.834C477.381 424.637 474.991 426.242 472.6 428.651C469.413 431.862 464.632 432.664 460.648 429.453C458.257 427.848 455.867 426.242 453.476 425.44C452.679 425.44 451.883 424.637 451.883 424.637C447.898 426.242 445.508 427.848 444.711 430.256C443.118 433.467 443.914 437.481 444.711 439.086H451.883C454.273 439.086 456.663 439.086 459.054 439.086L464.632 438.283C468.616 438.283 472.6 437.481 475.787 436.678C478.178 436.678 479.771 435.875 481.365 434.27C486.146 431.059 490.13 427.045 494.114 423.031C498.895 419.018 504.473 414.201 509.254 410.187C514.035 406.174 516.425 402.16 516.425 398.146C516.425 394.133 514.832 390.119 510.848 386.105C508.457 383.697 506.067 381.289 502.879 379.683L501.286 378.88C488.537 368.445 479.772 357.206 472.6 345.968C465.429 333.927 462.241 321.886 462.241 310.647C461.445 277.735 515.629 244.822 518.019 244.02L522.003 250.441C521.206 250.441 469.413 282.551 469.413 310.647C469.413 321.083 472.6 331.519 478.975 341.954C485.349 353.193 494.114 362.826 506.067 373.261L507.66 374.064C510.051 376.472 513.238 378.88 515.629 381.289C521.206 386.908 524.394 393.33 523.597 399.752C523.597 406.174 519.613 412.596 513.238 417.412C508.457 421.426 502.879 425.44 498.098 430.256C494.114 434.27 489.333 437.481 484.552 441.494C482.162 443.903 478.178 444.705 475.787 445.508C471.803 446.311 467.819 446.311 463.835 447.114L458.257 447.916C455.867 447.916 452.679 448.719 450.289 447.916L441.524 447.114Z" fill="white" fill-opacity="0.04"/>
<path d="M647.807 325.097C647.01 325.097 647.01 325.097 646.213 325.097C643.026 325.097 639.042 323.491 635.855 317.872V317.069C635.855 315.464 633.464 303.423 635.855 296.198C636.652 292.987 633.464 285.762 631.074 282.551L630.277 281.749L626.293 269.708C624.699 269.708 622.309 268.905 619.918 267.299L621.512 304.225L630.277 305.831V313.858L614.34 311.45L611.95 242.414L619.918 256.864C623.106 263.286 628.683 263.286 629.48 263.286H632.667L633.464 266.497L637.448 280.143C639.839 283.354 646.213 292.987 643.026 301.015C641.432 305.028 642.229 313.056 643.026 317.069C644.62 319.478 646.213 320.28 647.01 320.28C651.791 321.083 659.759 314.661 663.744 310.647L670.118 227.162L671.712 226.359C677.29 222.346 683.664 212.713 687.648 206.291L671.712 207.094L670.915 204.685C667.728 195.855 662.15 189.433 654.978 187.025C644.62 183.814 632.667 186.222 618.324 194.25C606.372 200.672 595.217 209.502 584.858 217.529C583.264 219.135 580.874 220.74 579.28 222.346C566.531 232.781 551.391 244.02 535.455 249.639L533.064 242.414C548.204 237.598 562.547 226.359 574.499 216.726C576.093 215.121 578.483 213.515 580.077 211.91C591.233 203.08 602.388 194.25 615.137 187.828C631.074 179.8 645.417 176.589 657.369 180.603C666.134 183.011 673.305 190.236 677.289 200.672L701.991 199.066L698.804 205.488C698.007 206.291 687.648 224.754 678.086 232.781L670.915 310.647L670.118 311.45C669.321 313.056 658.166 325.097 647.807 325.097Z" fill="white" fill-opacity="0.04"/>
<path d="M558.583 216.713L554.599 210.291C562.567 205.475 569.738 199.053 576.91 194.236C578.503 192.631 580.894 191.025 582.487 189.42C593.643 180.59 604.799 171.759 617.548 165.337C633.484 157.31 647.827 154.099 659.78 158.113C670.935 161.324 682.09 174.168 685.278 183.801L686.872 187.814L669.341 191.025L667.748 183.801L676.513 182.195C672.529 174.97 664.56 167.746 658.186 165.337C647.827 162.126 635.875 164.535 621.532 172.562C609.58 178.984 598.424 187.814 588.065 195.842C586.472 197.447 584.081 199.053 582.487 200.658C574.519 205.475 566.551 211.897 558.583 216.713Z" fill="white" fill-opacity="0.04"/>
<path d="M375.382 246.454L369.008 241.637C392.116 211.133 462.236 203.105 464.627 203.105L468.611 202.303V221.569H460.642V211.133C446.3 213.541 392.912 223.174 375.382 246.454Z" fill="white" fill-opacity="0.04"/>
<path d="M333.979 491.279C333.182 491.279 332.385 491.279 330.791 490.476C322.823 487.265 317.245 482.449 313.261 476.027C311.668 472.816 310.871 467.999 313.261 463.183C308.48 461.577 304.496 458.366 301.309 452.747C301.309 452.747 300.512 451.944 299.715 451.142L298.918 450.339C286.966 440.706 273.42 429.468 257.483 422.243C255.89 421.44 254.296 420.637 252.702 419.835L251.906 419.032C246.328 415.018 239.953 411.004 244.734 398.161C249.515 384.514 254.296 372.473 259.077 360.432C260.671 357.221 259.077 355.615 258.28 354.812C256.687 354.01 255.093 353.207 252.702 352.404L251.109 351.601C237.563 346.785 227.204 337.955 221.626 325.111C216.049 312.267 216.845 297.015 217.642 283.368C212.861 287.382 210.471 295.409 209.674 298.62C207.283 307.451 209.674 316.281 212.064 325.914C214.455 335.547 216.845 345.982 214.455 356.418C212.861 363.643 208.08 369.262 204.096 374.881C202.502 377.289 200.909 378.895 199.315 381.303C195.331 386.922 195.331 393.344 194.534 399.766C194.534 402.977 194.534 405.385 193.737 408.596L192.144 418.229L186.566 410.202C183.379 406.188 180.988 400.569 177.801 392.541C174.614 382.908 173.817 374.881 176.207 368.459C177.004 366.051 177.801 363.643 179.395 362.037C180.191 360.432 180.988 359.629 180.988 358.023C184.175 349.996 180.988 342.771 177.801 333.941C176.207 330.73 175.41 327.519 173.817 324.308C168.239 305.042 174.614 280.96 189.753 270.524C197.722 264.905 206.487 264.905 215.252 264.905C223.22 264.905 230.391 264.905 235.172 260.089C255.89 243.231 282.982 236.809 312.464 243.231C326.807 246.442 341.947 248.85 358.68 251.258C365.055 252.061 370.632 251.258 375.413 248.85C379.398 244.837 407.286 219.149 466.252 215.135C468.642 201.488 480.594 195.869 481.391 195.869L486.172 193.461L487.766 215.135H501.312L508.483 218.346L528.404 215.938C529.201 215.938 529.201 215.938 529.998 215.938C532.388 215.135 535.575 214.332 538.763 215.938C542.747 217.543 543.544 223.162 543.544 225.571L536.372 227.979C536.372 226.373 535.575 223.162 534.778 222.36C533.982 222.36 532.388 222.36 531.591 223.162C530.794 223.162 529.997 223.162 529.201 223.162L506.89 226.373L499.718 222.36H481.391L479.798 205.502C476.61 207.91 474.22 212.727 473.423 218.346V221.557H470.236C408.88 224.768 380.991 252.864 380.991 253.667L380.194 254.469C373.82 257.68 366.648 259.286 357.883 257.68C341.15 255.272 325.214 252.864 310.871 249.653C283.779 244.034 258.28 249.653 239.953 264.905C232.782 271.327 224.017 271.327 215.252 271.327C207.283 271.327 200.112 271.327 194.534 276.144C182.582 284.974 176.207 305.845 181.785 321.9C182.582 325.111 184.175 327.519 184.972 330.73C188.956 339.56 192.941 349.193 188.16 360.432C187.363 362.037 186.566 363.643 185.769 365.248C184.972 366.854 184.176 369.262 183.379 370.867C181.785 375.684 182.582 382.106 184.972 390.133C185.769 391.739 186.566 393.344 186.566 394.95C187.363 389.33 188.16 382.908 192.144 377.289C193.737 374.881 195.331 372.473 196.925 370.065C200.909 365.248 204.096 360.432 205.69 354.812C208.08 345.982 205.69 337.152 203.299 327.519C200.909 317.886 198.518 307.451 200.909 296.212C202.502 289.79 208.08 273.735 220.829 272.933H225.61L224.814 281.763C224.017 295.409 222.423 309.056 228.001 320.294C232.782 330.73 242.344 338.758 252.702 342.771L254.296 343.574C256.687 344.377 259.874 345.18 262.264 347.588C266.248 350.799 267.842 356.418 265.452 362.037C260.671 374.078 255.89 386.119 251.109 398.963C248.718 405.385 250.312 406.991 255.093 411.004L255.89 411.807C256.687 412.61 257.483 412.61 259.077 413.413C275.81 420.637 290.153 432.679 302.902 442.311L303.699 443.114C304.496 443.917 306.09 444.72 306.887 446.325C309.277 451.142 313.261 453.55 317.245 454.353C318.839 454.353 319.636 455.155 320.433 455.958C320.433 455.958 320.433 455.958 321.229 455.958L324.417 458.366L322.026 462.38C322.026 463.183 321.229 463.183 321.229 463.986C318.839 466.394 318.839 468.802 319.636 470.408C322.026 475.224 326.01 478.435 332.385 480.843C335.572 467.999 333.182 458.366 326.01 450.339C302.106 423.046 273.42 403.78 273.42 403.78L269.436 401.372L279.794 392.541C282.982 389.33 285.372 386.119 288.56 382.908C294.137 375.684 299.715 368.459 308.48 364.445C314.058 362.037 318.042 357.221 320.433 350.799L322.026 346.785L329.198 349.996C331.588 350.799 333.979 351.601 335.572 353.207C361.867 365.248 388.959 370.065 416.052 368.459C416.848 368.459 417.645 368.459 418.442 368.459C428.004 367.656 431.191 368.459 434.379 378.092C435.972 382.106 436.769 386.119 436.769 390.936C436.769 401.372 436.769 411.807 435.972 423.046C435.972 427.862 435.175 433.481 433.582 438.298C430.394 451.142 418.442 461.577 404.896 463.183C400.912 463.986 396.928 464.788 392.147 466.394C390.553 467.197 388.163 467.197 385.772 466.394C383.382 464.788 382.585 462.38 382.585 461.577C380.991 456.761 375.413 452.747 370.633 453.55C367.445 454.353 364.258 455.958 361.071 457.564C361.071 457.564 360.274 457.564 360.274 458.366C361.071 459.169 361.867 459.169 361.867 459.972L365.852 463.183C368.242 464.788 370.633 467.197 373.023 468.802C374.617 469.605 376.21 470.408 378.601 471.21C380.194 472.013 381.788 472.013 383.382 472.013C385.772 472.816 388.163 472.816 390.553 474.421C395.334 476.027 400.115 476.027 404.896 472.816C414.458 467.197 424.02 461.577 432.785 457.564C435.175 455.958 438.363 455.155 439.159 452.747L447.128 453.55C444.737 458.366 439.159 462.38 435.972 463.986C427.207 467.999 417.645 473.618 408.88 479.238C402.506 483.251 395.334 484.054 388.163 481.646C386.569 480.843 384.178 480.04 381.788 480.04C380.194 479.238 378.601 479.238 377.007 478.435C374.617 477.632 372.226 476.829 369.836 475.224C367.445 473.618 364.258 471.21 361.867 469.605L357.883 466.394C356.29 465.591 355.493 464.788 353.899 463.183C352.306 461.577 351.509 459.169 351.509 457.564C351.509 455.958 353.102 453.55 355.493 452.747C356.29 451.944 357.086 451.944 357.883 451.142C361.867 449.536 365.055 447.128 369.039 446.325C377.007 444.72 387.366 451.142 389.756 459.169C394.537 457.564 399.318 455.958 404.099 455.155C414.458 453.55 424.02 445.522 426.41 435.89C427.207 431.876 428.004 427.059 428.004 422.243C428.801 411.807 428.801 401.372 428.801 390.936C428.801 387.725 428.004 383.711 427.207 380.5C425.613 374.881 425.613 374.881 419.239 375.684C418.442 375.684 416.848 375.684 416.052 375.684C387.366 377.289 359.477 372.473 331.588 360.432C329.198 359.629 327.604 358.826 325.214 358.023C322.026 364.445 317.245 369.262 311.667 372.473C304.496 376.486 299.715 382.106 294.137 389.33C290.95 393.344 288.56 396.555 284.575 400.569L281.388 402.977C290.153 409.399 311.667 425.454 331.588 447.931C340.353 457.564 342.744 470.408 339.556 485.66C339.556 486.462 338.759 489.673 335.572 491.279C335.572 491.279 334.775 491.279 333.979 491.279Z" fill="white" fill-opacity="0.04"/>
<path d="M226.357 483.241H216.795H215.999C213.608 482.439 212.811 480.833 212.014 479.228C212.014 477.622 211.218 476.017 212.811 473.608L213.608 472.806C214.405 471.2 215.202 469.595 217.592 467.989C219.186 466.384 220.78 464.778 220.78 462.37C220.78 461.567 221.576 460.765 221.576 459.159C221.576 458.356 222.373 457.554 222.373 456.751C223.967 448.723 223.967 442.301 220.78 435.879L219.983 433.471C218.389 431.063 217.592 428.655 216.795 426.247C215.999 423.838 215.202 422.233 215.202 419.825C214.405 420.627 212.811 420.627 212.014 421.43C206.437 423.036 201.656 425.444 195.281 424.641C194.484 425.444 194.484 426.247 192.891 428.655C191.297 431.866 190.5 435.077 189.703 438.288C188.11 442.301 187.313 447.118 184.126 451.132C181.735 455.145 180.142 458.356 181.735 462.37C182.532 463.976 182.532 467.186 179.345 469.595C179.345 471.2 179.345 472.806 179.345 473.608C178.548 476.017 176.157 476.819 174.564 477.622C172.97 478.425 172.173 478.425 170.58 478.425L168.189 479.228H165.002H164.205C163.408 479.228 162.611 479.228 161.815 478.425C158.627 477.622 157.83 476.017 157.034 475.214C156.237 474.411 156.237 472.003 157.83 469.595C157.83 468.792 158.627 468.792 158.627 467.989C160.221 465.581 161.018 463.173 163.408 461.567C166.595 459.159 168.189 455.948 168.986 451.132V448.723C169.783 443.104 170.58 436.682 173.767 431.063C174.564 429.458 174.564 428.655 172.173 425.444C171.376 424.641 170.58 423.838 170.58 423.036C165.799 427.049 157.034 431.063 153.049 431.866C150.659 431.866 148.269 433.471 145.878 434.274H145.081C145.081 435.077 145.878 435.879 146.675 436.682C147.472 437.485 147.472 438.288 148.268 439.09C148.268 439.893 149.065 439.893 149.065 439.893C150.659 439.09 152.253 439.09 153.049 439.09C159.424 439.893 162.611 443.907 164.205 451.132C164.205 452.737 165.002 455.948 162.611 458.356C160.221 460.765 157.034 459.962 155.44 459.159C152.253 458.356 148.268 457.554 145.081 457.554C139.503 457.554 136.316 455.948 135.519 449.526C134.722 447.118 133.926 444.71 132.332 442.301C129.941 439.893 128.348 437.485 127.551 434.274C124.364 428.655 126.754 424.641 128.348 423.036C129.941 421.43 133.926 418.219 138.707 415.008C140.3 413.403 142.691 412.6 143.488 411.797L144.284 410.994C148.268 407.783 150.659 406.178 150.659 404.572C149.862 403.77 149.862 402.164 149.065 401.362C146.675 395.742 144.284 389.32 140.3 384.504C136.316 388.518 133.926 394.94 132.332 399.756C131.535 402.967 130.738 403.77 129.942 405.375C129.145 406.981 127.551 409.389 125.957 415.811C125.957 416.614 125.957 416.614 125.957 418.219C125.957 419.022 125.957 420.627 125.957 421.43C125.161 428.655 117.192 432.669 109.224 432.669C109.224 432.669 109.224 432.669 108.427 432.669C103.646 432.669 101.256 430.26 99.6622 428.655L98.8653 427.049C98.8653 426.247 98.0686 426.247 98.0686 426.247C94.0844 423.036 93.2875 419.022 94.8812 414.205C98.0685 406.981 98.0685 399.756 98.8653 391.729C98.8653 389.32 99.6622 386.912 99.6622 385.307C99.6622 383.701 100.459 381.293 100.459 379.687L86.1162 377.279L88.5066 372.463C88.5066 371.66 94.0844 363.633 102.849 360.422C103.646 352.394 107.63 328.312 125.161 313.862C137.113 304.23 150.659 301.019 168.986 304.23V312.257C153.049 309.046 139.503 312.257 129.942 319.482C111.615 333.931 110.021 362.83 110.021 362.83V366.041L106.834 366.844C103.646 367.646 101.256 369.252 98.8653 370.857L108.427 372.463L107.63 376.476C106.834 379.687 106.834 382.898 106.037 385.307C106.037 387.715 105.24 389.32 105.24 391.729C104.443 399.756 103.646 407.783 100.459 416.614C99.6621 418.219 100.459 419.022 101.256 419.825C102.053 420.627 102.849 421.43 103.646 422.233L104.443 423.036C106.037 424.641 106.037 424.641 107.63 424.641C111.615 424.641 116.395 423.036 117.192 420.627C117.192 419.825 117.192 419.825 117.192 419.022C117.192 417.416 117.192 415.811 117.989 414.205C120.38 406.981 121.973 404.572 122.77 402.164C123.567 400.559 123.567 399.756 124.364 397.348C126.754 390.123 129.942 381.293 137.91 375.674L141.097 374.068L143.488 376.476C149.065 382.898 152.253 390.926 155.44 398.151C156.237 399.756 157.034 401.361 157.83 402.967C159.424 407.783 154.643 411.797 148.268 417.416L147.472 418.219C146.675 419.022 144.284 420.627 142.691 422.233C139.503 424.641 134.722 427.852 133.129 429.458C133.129 429.458 132.332 430.26 133.129 432.669C133.926 434.274 135.519 436.682 137.113 439.09L137.91 439.893C137.91 439.09 137.113 439.09 137.113 438.288C136.316 436.682 136.316 434.274 137.113 432.669C137.91 431.063 139.503 429.458 141.097 428.655H141.894C144.284 427.049 147.472 426.247 151.456 425.444C155.44 424.641 165.002 419.825 167.392 416.614C168.189 415.811 168.986 415.008 168.986 415.008L173.767 411.797L174.564 417.416C174.564 419.022 176.157 420.627 177.751 423.036C180.142 426.247 183.329 431.063 180.141 437.485C177.751 441.499 176.954 446.315 176.157 451.132C176.157 451.132 176.157 450.329 176.954 450.329C179.345 447.118 180.142 443.104 181.735 439.09C182.532 435.879 184.126 432.669 185.719 428.655C188.11 423.838 190.5 420.627 192.891 419.825C194.484 419.825 195.281 419.825 196.078 419.825C200.859 420.627 204.843 419.022 209.624 417.416C211.218 416.614 213.608 415.811 215.202 415.811L220.78 414.205L221.576 418.219C221.576 419.022 222.373 420.627 222.373 421.43C223.17 423.838 223.17 425.444 223.967 427.852C224.764 430.26 225.561 431.866 227.154 434.274L227.951 436.682C231.138 442.301 231.935 447.921 231.935 454.343C232.732 452.737 233.529 451.132 234.326 450.329C235.122 448.723 235.122 447.921 234.326 447.118C230.341 441.499 229.545 435.077 231.935 427.852C233.529 423.838 233.529 423.036 235.919 420.627L240.7 415.811L243.091 420.627C247.075 427.852 249.465 429.458 256.637 430.26C261.418 431.063 262.214 434.274 262.214 435.879C262.214 436.682 263.011 437.485 263.011 438.288C263.808 441.499 264.605 443.907 262.214 448.723C260.621 452.737 260.621 453.54 262.214 455.145L263.011 451.934C263.011 451.132 266.995 441.499 266.995 440.696L272.573 443.907C272.573 445.512 271.776 448.723 270.98 449.526C274.167 450.329 274.964 453.54 276.557 456.751C277.354 458.356 277.354 459.962 277.354 461.567L278.948 468.792H274.167C268.589 468.792 263.808 467.186 260.621 463.976C252.653 457.554 251.856 455.145 255.043 445.512C255.84 442.301 255.84 442.301 255.043 439.893C255.043 439.09 254.246 438.288 254.246 437.485C247.075 436.682 242.294 434.274 238.31 428.655V429.458C236.716 435.077 237.513 439.09 239.903 442.301C242.294 446.315 242.294 450.329 239.903 454.343C237.513 457.554 235.919 459.962 235.919 463.173C235.919 464.778 235.919 467.186 235.919 468.792C235.919 470.397 236.716 473.608 233.529 476.017C234.326 477.622 234.326 480.03 233.529 481.636C231.935 484.044 229.545 484.847 227.154 485.65L226.357 483.241ZM221.576 475.214H224.764H225.561H226.357V474.411C225.56 472.003 226.357 468.792 228.748 467.186C228.748 467.186 228.748 467.186 228.748 466.384C228.748 465.581 228.748 464.778 228.748 464.778C227.951 468.792 225.56 471.2 222.373 474.411L221.576 475.214ZM165.002 472.806H166.595H167.392C168.189 472.806 168.986 472.806 169.783 472.003C168.986 469.595 170.58 467.186 172.173 465.581C172.173 464.778 171.376 463.975 171.376 463.173C169.783 465.581 168.189 467.186 166.595 468.792C165.799 469.595 165.002 471.2 164.205 472.806C164.205 472.806 164.205 472.806 165.002 472.806ZM264.605 453.54C265.402 453.54 265.402 454.343 266.199 454.343C266.995 455.145 268.589 455.948 270.183 456.751C270.183 455.948 270.183 455.948 269.386 455.145C268.589 453.54 268.589 452.737 268.589 452.737C268.589 452.737 267.792 452.737 266.995 452.737L264.605 453.54ZM142.691 451.132C142.691 451.132 143.488 451.132 145.081 451.132C149.065 451.132 153.049 451.934 156.237 452.737C155.44 448.723 153.846 447.921 152.253 447.921C152.253 447.921 152.253 447.921 151.456 447.921C149.065 448.723 144.284 449.526 141.097 443.907C141.097 443.104 140.3 443.104 139.503 442.301C139.503 442.301 139.503 442.301 139.503 441.499C141.097 443.907 141.894 447.118 142.691 449.526C141.894 450.329 141.894 451.132 142.691 451.132Z" fill="white" fill-opacity="0.04"/>
</svg>
