<svg id="Layer_1" data-name="Layer 1" xmlns="http://www.w3.org/2000/svg" xmlns:xlink="http://www.w3.org/1999/xlink" viewBox="0 0 132 69.31"><defs><style>.cls-1{fill:none;}.cls-2{clip-path:url(#clip-path);}.cls-3{fill:#f2f2f2;}</style><clipPath id="clip-path"><rect class="cls-1" x="-1944.07" y="-691.73" width="1092.42" height="2025.36"/></clipPath></defs><g class="cls-2"><image width="3000" height="2000" transform="translate(-2905.43 -691.73) scale(1.01)" xlink:href="../Images/Student%20Wallet%20Playstore%20Images/New/iphone13-top.png"/></g><polygon class="cls-3" points="49.48 16.01 47.9 19.6 38.34 41.26 34.04 41.26 43.59 19.6 31.53 19.6 31.53 16.01 49.48 16.01"/><path class="cls-3" d="M62.43,15.62c-4,0-11.42,2.32-11.42,13.16s9.05,12.87,11.42,12.87,11.51-1.34,11.51-13S65,15.62,62.43,15.62Zm.14,22.51c-4.41,0-7.11-4.09-7.11-9.8s3.63-8.91,7.11-8.91c4.68,0,7.33,3.53,7.33,9.36S67,38.13,62.57,38.13Z"/><path class="cls-3" d="M88.6,15.62c-3.94,0-11.41,2.32-11.41,13.16s9,12.87,11.41,12.87,11.51-1.34,11.51-13S91.16,15.62,88.6,15.62Zm.14,22.51c-4.41,0-7.1-4.09-7.1-9.8s3.62-8.91,7.1-8.91c4.69,0,7.33,3.53,7.33,9.36S93.15,38.13,88.74,38.13Z"/><path class="cls-3" d="M115.39,38.87V14.06A14.11,14.11,0,0,0,101.32,0H14.06A14.11,14.11,0,0,0,0,14.06V43.21A14.1,14.1,0,0,0,14.06,57.27H99.13c1.6,6.88,8.27,12,16.26,12,9.17,0,16.61-6.81,16.61-15.22S124.56,38.87,115.39,38.87ZM98.77,54.09H14.65a11,11,0,0,1-11-11V14.68a11,11,0,0,1,11-11h85.8a11,11,0,0,1,11,11V39.3C104.16,40.93,98.77,46.93,98.77,54.09Zm23.34,3.22-4.56-4.56V63.27h-4.33V52.36l-5,5L107,56.06l-1.5-1.49,6.93-6.93.77-.76,2-2,2.36,2.36.38.37,6.92,6.93Z"/><polygon class="cls-3" points="26.64 16.01 26.64 41.26 22.7 41.26 22.7 19.6 15.27 19.6 15.27 16.01 26.64 16.01"/></svg>