<svg xmlns="http://www.w3.org/2000/svg" width="103" height="103" fill="none" viewBox="0 0 103 103">
    <circle cx="51.486" cy="51.512" r="51.486" fill="#00477B"/>
    <g fill="#F2F2F2" clip-path="url(#clip0)">
        <path d="M50.6 25.769c-3.651 0-6.617 3.034-6.617 6.804 0 3.769 2.966 6.804 6.65 6.804 3.682 0 6.617-3.067 6.617-6.804 0-3.738-2.966-6.804-6.65-6.804zM62.587 60.747l-2.778 1.438c-.062.032-.156.032-.25 0l-4.62-2.364c-.187-.096-.405.032-.405.255v2.875c0 .096.062.192.156.256l2.684 1.373c.281.16.593.256.874.352 1.218.351 2.56.255 3.715-.352l2.684-1.373c.094-.032.156-.128.156-.256v-2.875c0-.191-.218-.351-.405-.255l-1.81.926z"/>
        <path d="M62.119 51.356l-2.185-1.118c-.063-.032-.156-.032-.25 0l-9.645 4.92c-.187.095-.187.383 0 .478l9.676 4.952c.063.032.156.032.25 0l2.778-1.406 3.964-2.044c.188-.096.375.032.375.255v6.485c0 .16.125.287.28.287h2.03c.156 0 .28-.127.28-.287v-8.082c0-.096.063-.192.157-.255l.28-.128-7.99-4.057z"/>
        <path d="M50.601 42.22c-4.495 0-8.459 2.555-10.488 6.325-.936 1.693-1.467 3.673-1.498 5.75v7.761c0 1.087.874 1.95 1.904 1.95h2.81c.342 0 .655.287.655.67v9.168c0 1.086.874 1.949 1.904 1.949h9.426c1.062 0 1.904-.895 1.904-1.949v-6.708c0-.287-.156-.511-.437-.607l-.655-.287-3.153-1.598c-.218-.095-.343-.351-.343-.575V58.99c0-.255-.125-.479-.343-.575l-4.87-2.491c-.468-.256-.468-.927 0-1.182l9.677-4.951 3.652-1.853c-2.154-3.45-5.9-5.718-10.145-5.718z"/>
    </g>
    <defs>
        <clipPath id="clip0">
            <path fill="#fff" d="M0 0H31.464V50.056H0z" transform="translate(38.615 25.769)"/>
        </clipPath>
    </defs>
</svg>
