<svg width="26" height="27" viewBox="0 0 26 27" fill="none" xmlns="http://www.w3.org/2000/svg">
<path d="M23.1464 19.8418C22.333 18.9964 21.3824 18.3064 20.3385 17.8034C21.8107 16.5648 22.7499 14.6749 22.7499 12.5554C22.7499 8.81603 19.747 5.74825 16.146 5.80562C12.6003 5.863 9.74352 8.86328 9.74352 12.5554C9.74352 14.6749 10.686 16.5648 12.155 17.8034C11.1108 18.306 10.1602 18.9961 9.34702 19.8418C7.57253 21.6879 6.56504 24.1246 6.50004 26.7233C6.49917 26.7593 6.50526 26.7951 6.51794 26.8287C6.53061 26.8622 6.54963 26.8928 6.57386 26.9186C6.59809 26.9443 6.62704 26.9648 6.65902 26.9788C6.69099 26.9928 6.72534 27 6.76004 27H8.58003C8.71978 27 8.83678 26.8853 8.84003 26.7401C8.90178 24.7827 9.66552 22.9501 11.0078 21.5597C11.6946 20.8426 12.5116 20.2742 13.4114 19.8872C14.3112 19.5002 15.276 19.3024 16.25 19.3052C18.2292 19.3052 20.0915 20.1051 21.4922 21.5597C22.8312 22.9501 23.5949 24.7827 23.6599 26.7401C23.6632 26.8853 23.7802 27 23.9199 27H25.7399C25.7746 27 25.809 26.9928 25.8409 26.9788C25.8729 26.9648 25.9019 26.9443 25.9261 26.9186C25.9503 26.8928 25.9693 26.8622 25.982 26.8287C25.9947 26.7951 26.0008 26.7593 25.9999 26.7233C25.9349 24.1246 24.9274 21.6879 23.1464 19.8418ZM16.25 16.8753C15.1385 16.8753 14.092 16.4264 13.3087 15.6097C12.9157 15.2047 12.6052 14.7217 12.3958 14.1894C12.1864 13.6571 12.0824 13.0865 12.09 12.5116C12.0998 11.4046 12.5255 10.3347 13.2697 9.54164C14.0497 8.71141 15.093 8.24905 16.2077 8.23555C17.3095 8.22543 18.3787 8.67091 19.1652 9.47076C19.9712 10.2909 20.4132 11.3877 20.4132 12.5554C20.4132 13.7096 19.981 14.793 19.1945 15.6097C18.8086 16.0123 18.3497 16.3315 17.8443 16.5487C17.3389 16.7659 16.797 16.877 16.25 16.8753ZM8.10878 13.4464C8.07953 13.1528 8.06328 12.8558 8.06328 12.5554C8.06328 12.0188 8.11203 11.4957 8.20303 10.9861C8.22578 10.8646 8.16403 10.7397 8.05678 10.6891C7.61478 10.4832 7.20854 10.1997 6.85754 9.842C6.44395 9.42557 6.11849 8.92417 5.90193 8.36981C5.68537 7.81546 5.58247 7.22031 5.5998 6.62235C5.62905 5.53901 6.04829 4.50966 6.77954 3.73343C7.58228 2.87958 8.66128 2.41385 9.80852 2.42735C10.8453 2.43747 11.8463 2.85258 12.6035 3.58831C12.8603 3.83805 13.0813 4.1148 13.2665 4.41179C13.3315 4.51641 13.4582 4.56028 13.5687 4.51978C14.1407 4.31392 14.7452 4.16879 15.366 4.1013C15.548 4.08105 15.652 3.87855 15.5707 3.70981C14.5145 1.53975 12.3565 0.0412907 9.86052 0.000791878C6.25629 -0.0565814 3.25331 3.0112 3.25331 6.74722C3.25331 8.86666 4.19255 10.7566 5.6648 11.9952C4.6313 12.4913 3.67906 13.1764 2.85356 14.0336C1.07257 15.8797 0.0650809 18.3164 8.1269e-05 20.9184C-0.000786167 20.9544 0.00529788 20.9903 0.0179751 21.0238C0.0306523 21.0574 0.0496661 21.0879 0.0738961 21.1137C0.0981261 21.1395 0.127082 21.16 0.159058 21.174C0.191034 21.188 0.225382 21.1952 0.26008 21.1952H2.08332C2.22307 21.1952 2.34007 21.0804 2.34332 20.9353C2.40507 18.9779 3.16881 17.1453 4.51105 15.7548C5.46655 14.7626 6.63654 14.0741 7.91378 13.74C8.04053 13.7063 8.12503 13.5814 8.10878 13.4464Z" fill="#126CAB"/>
</svg>
