<svg width="19" height="19" viewBox="0 0 19 19" fill="none" xmlns="http://www.w3.org/2000/svg">
<path d="M10.4896 13.2525C10.4896 13.7987 10.07 14.25 9.5 14.25C8.94583 14.25 8.5025 13.8067 8.5025 13.2525C8.5025 12.6904 8.94583 12.2629 9.5 12.2629C10.0621 12.2629 10.4896 12.6983 10.4896 13.2525ZM9.49208 4.75C8.09083 4.75 7.13292 5.66042 6.77667 6.72125L8.075 7.2675C8.24917 6.73708 8.66083 6.09583 9.5 6.09583C10.7825 6.09583 11.0358 7.29917 10.5846 7.94042C10.1571 8.55 9.42083 8.96167 9.03292 9.65042C8.72417 10.1967 8.7875 10.83 8.7875 11.2179H10.2283C10.2283 10.4817 10.2838 10.3313 10.4025 10.1017C10.7113 9.53167 11.2812 9.2625 11.8829 8.38375C12.4213 7.59208 12.2154 6.51542 11.8671 5.94542C11.4633 5.28042 10.6637 4.75 9.49208 4.75ZM15.0417 3.95833H3.95833V15.0417H15.0417V3.95833ZM15.0417 2.375C15.9125 2.375 16.625 3.0875 16.625 3.95833V15.0417C16.625 15.9125 15.9125 16.625 15.0417 16.625H3.95833C3.0875 16.625 2.375 15.9125 2.375 15.0417V3.95833C2.375 3.0875 3.0875 2.375 3.95833 2.375H15.0417Z" fill="#00477B"/>
</svg>
