<svg xmlns="http://www.w3.org/2000/svg" width="106" height="106" fill="none" viewBox="0 0 106 106">
    <path fill="#fff" d="M86.824 77.62l-13.01-13.009c3.253-4.878 4.879-10.732 4.879-16.587.325-17.236-13.66-30.896-30.571-30.896-17.238 0-30.897 13.66-30.897 30.897 0 16.911 13.66 30.896 30.897 30.896 6.179 0 11.708-1.626 16.586-4.878l13.01 13.009c2.601 2.602 6.504 2.602 9.106 0 2.601-2.927 2.601-6.83 0-9.432zM65.359 65.262c-4.554 4.553-10.733 7.155-17.237 7.155-13.335 0-24.392-11.058-24.392-24.392 0-13.66 10.732-24.392 24.392-24.392 13.334 0 24.392 10.732 24.392 24.392 0 6.504-2.602 12.683-7.155 17.237z"/>
    <path fill="#fff" d="M48.122 33.063c-5.53 0-9.757 4.554-9.757 9.757h4.878c0-2.602 2.277-4.878 4.879-4.878 2.602.325 4.878 2.276 4.878 5.203 0 2.602-2.276 4.879-4.878 4.879H45.52v7.48h4.878v-2.927c4.228-.976 7.48-4.878 7.48-9.431 0-5.53-4.227-10.083-9.756-10.083zM48.121 57.781c-1.3 0-2.602.976-2.602 2.602 0 1.301.976 2.602 2.602 2.602 1.301 0 2.602-.976 2.602-2.602-.325-1.3-1.3-2.602-2.602-2.602z"/>
</svg>
