<svg xmlns="http://www.w3.org/2000/svg" width="103" height="103" fill="none" viewBox="0 0 103 103">
    <circle cx="51.486" cy="51.512" r="51.486" fill="#00477B"/>
    <g clip-path="url(#clip0)">
        <path fill="#F2F2F2" d="M69.041 34.006h-3.898V30.06h-3.898v9.868h-1.948v-5.92h-15.62v-3.948h-3.898v9.868h-1.95v-5.92h-3.897c-2.15 0-3.898 1.77-3.898 3.947v29.633c0 2.177 1.748 3.947 3.898 3.947h35.11c2.149 0 3.897-1.77 3.897-3.947V37.954c0-2.177-1.748-3.948-3.898-3.948zm-11.693 27.37L54.108 63c-1.633.842-3.582.842-5.244 0l-3.239-1.625v-3.947l5.847 2.96 5.847-2.96v3.947h.029zm5.36-8.65v9.637h-2.924v-8.156l-8.312 4.208-11.694-5.92 11.694-5.921 11.694 5.92-.459.233z"/>
    </g>
    <defs>
        <clipPath id="clip0">
            <path fill="#fff" d="M0 0H42.905V41.475H0z" transform="translate(30.034 30.06)"/>
        </clipPath>
    </defs>
</svg>
