<svg width="60" height="60" viewBox="0 0 60 60" fill="none" xmlns="http://www.w3.org/2000/svg">
<rect width="60" height="60" fill="#0067B2"/>
<path d="M12.7273 45C12.2379 45 11.8274 44.8347 11.4957 44.504C11.1641 44.1733 10.9989 43.7646 11 43.2778C11 42.7898 11.1658 42.3805 11.4975 42.0498C11.8291 41.7192 12.239 41.5544 12.7273 41.5556H47.2727C47.7621 41.5556 48.1726 41.7209 48.5043 42.0516C48.8359 42.3822 49.0011 42.791 49 43.2778C49 43.7657 48.8342 44.175 48.5025 44.5057C48.1709 44.8364 47.761 45.0011 47.2727 45H12.7273ZM16.1818 39.8333C15.2318 39.8333 14.4183 39.4958 13.7412 38.8207C13.0641 38.1456 12.7261 37.335 12.7273 36.3889V17.4444C12.7273 16.4972 13.0658 15.6861 13.7429 15.0109C14.42 14.3358 15.233 13.9989 16.1818 14H43.8182C44.7682 14 45.5817 14.3376 46.2588 15.0127C46.9359 15.6878 47.2739 16.4984 47.2727 17.4444V36.3889C47.2727 37.3361 46.9342 38.1473 46.2571 38.8224C45.58 39.4975 44.767 39.8345 43.8182 39.8333H16.1818ZM16.1818 36.3889H43.8182V17.4444H16.1818V36.3889Z" fill="white"/>
</svg>
