<svg width="30" height="28" viewBox="0 0 30 28" fill="none" xmlns="http://www.w3.org/2000/svg">
<path d="M22.3815 0L15.2509 12.8772H29.5144L22.3815 0ZM22.3815 4.77184L25.589 10.5647H19.1752L22.3815 4.77184ZM6.9375 14.0334C3.11147 14.0334 0 17.1449 0 20.9709C0 24.7969 3.11147 27.9084 6.9375 27.9084C10.7635 27.9084 13.875 24.7969 13.875 20.9709C13.875 17.1449 10.7635 14.0334 6.9375 14.0334ZM16.1875 15.1897V27.9084H28.9062V15.1897H16.1875ZM6.9375 16.3459C9.48819 16.3459 11.5625 18.4202 11.5625 20.9709C11.5625 23.5216 9.48819 25.5959 6.9375 25.5959C4.38681 25.5959 2.3125 23.5216 2.3125 20.9709C2.3125 18.4202 4.38681 16.3459 6.9375 16.3459ZM18.5 17.5022H26.5938V25.5959H18.5V17.5022Z" fill="url(#paint0_linear_7158_3239)"/>
<defs>
<linearGradient id="paint0_linear_7158_3239" x1="1" y1="16" x2="30" y2="16.5" gradientUnits="userSpaceOnUse">
<stop stop-color="#FF9254"/>
<stop offset="1" stop-color="#FFCA7B"/>
</linearGradient>
</defs>
</svg>
