<svg id="Layer_1" data-name="Layer 1" xmlns="http://www.w3.org/2000/svg" viewBox="0 0 1255 1396"><defs><style>.cls-1{fill:#fff;stroke:#000;stroke-miterlimit:10;stroke-width:10.61px;}.cls-2{fill:#0067b2;}</style></defs><path d="M1091.31,404.15h-7.4v-31H1072v-6.75h31.2v6.75h-11.9Zm35.68,0-11.57-29.48v29.48h-7V366.42h10.93l11,28.72,11-28.72h10.4v37.73h-7V375l-11.37,29.16Z"/><path class="cls-1" d="M958.05,320.35c-39.6,3.91-87.29,7.16-144.68,9.37-32.76,1.28-68.68,2.21-108.07,2.72q-36.67.51-77.43.51-35.72,0-68.25-.51c-42.9-.66-81.78-1.95-117-3.74-57.05-2.9-104.5-7.12-144-12.15-200.9-25.6-195-72.15-195-72.15V137.64a69,69,0,0,1,3.92-23.86c21.56,12.08,126.74,55.81,520.33,55.81,374.6,0,488-39.62,516.61-53.86a54.39,54.39,0,0,1,7.64,28V257.05C1152.12,263.88,1158,300.6,958.05,320.35Z"/><path class="cls-1" d="M1144.48,115.73c-28.65,14.24-142,53.86-516.61,53.86-393.59,0-498.77-43.73-520.33-55.81C128.45,56.05,240.76,21.25,622.8,21.25,989,21.25,1114.65,64.86,1144.48,115.73Z"/><path class="cls-1" d="M442.63,328.7C428,387.13,399.47,538.16,364.49,670.36,323,827.23,245.69,1055.85,237.42,1078.93c-8.5,23.68-14.66,39.92-27,65.81-11.82,24.84-52.61,15.07-72.35,12.53S91.9,1141.6,91.93,1127.8c0-6.85,14.33-73.11,32.83-153.69,9.51-41.47,49.9-184.47,86.34-310.46,30.46-105.38,72.85-290,87.57-347.1C338.13,321.58,385.58,325.8,442.63,328.7Z"/><path class="cls-1" d="M1126.64,1156.77c-19.74,2.53-58.77,5.21-69.28-5.1-6.39-6.26-19.92-44.35-28-67.52-44.86-129-72.6-213.33-117.3-368.64-37.6-130.66-83.75-326.13-98.71-385.79,57.39-2.21,105.08-5.46,144.68-9.37,15.75,61,70.4,258.55,97,362.57,42.65,166.53,50.69,211,70.52,290.16,19,76,25.76,109.95,34.71,157.7C1164.07,1150.77,1146.37,1154.24,1126.64,1156.77Z"/><path class="cls-1" d="M712,1061.83c-.35,92.16-12.78,266.48-16.7,285.82-7.66,37.69-13.16,31.69-69.16,31.69-47,0-50.63-12.55-54.66-39.95-1.29-8.74-8.58-121.9-13.32-274.52-7.82-251.74-.54-635.61,1.51-732.43q32.55.51,68.25.51,40.8,0,77.43-.51C712.73,908.41,712.3,962.92,712,1061.83Z"/><path class="cls-2" d="M272.43,266.46A30.19,30.19,0,0,1,260,262.21a21.32,21.32,0,0,1-7.81-8.37,18.66,18.66,0,0,1-1.8-11.06l13.33,1.7a9.76,9.76,0,0,0,2.45,7.48,12.21,12.21,0,0,0,7.86,3.66c3.55.46,6.42,0,8.61-1.45a8.71,8.71,0,0,0,3.84-6.58,8,8,0,0,0-2.58-7.25q-3.13-2.91-9.26-3.69l-7.2-.92,1.39-10.85,6.41.81a13.83,13.83,0,0,0,6-.34,8.13,8.13,0,0,0,5.92-7.06,8.15,8.15,0,0,0-1.68-6.54,9.6,9.6,0,0,0-6.42-3.12,9.1,9.1,0,0,0-7,1.66,9.68,9.68,0,0,0-3.49,6.53l-13.32-1.7a19.11,19.11,0,0,1,4.49-10A21.12,21.12,0,0,1,269,199a26.54,26.54,0,0,1,12.13-1.11,28.65,28.65,0,0,1,11.78,3.91,18.5,18.5,0,0,1,7,7.46,17,17,0,0,1,1.5,9.87,13.77,13.77,0,0,1-3.6,7.81,21,21,0,0,1-8.19,5.23,20.57,20.57,0,0,1,8.92,7.1,13.94,13.94,0,0,1,2.17,9.76A18.52,18.52,0,0,1,296,259.43a21.88,21.88,0,0,1-9.85,6.12A32.06,32.06,0,0,1,272.43,266.46Z"/><path class="cls-2" d="M343,251.81l-30.21-2.87L314,236.66l30.2,2.87Z"/><path class="cls-2" d="M401.59,277.44l-46-3.28,5.08-71.25L375.71,204l-4.1,57.65,30.95,2.2Z"/><path class="cls-2" d="M437.18,280.16a27.78,27.78,0,0,1-13.8-4.11,23.43,23.43,0,0,1-8.81-10.14A30.87,30.87,0,0,1,412,251.24a28.79,28.79,0,0,1,4.07-13.94,24.94,24.94,0,0,1,9.81-9.23,26.24,26.24,0,0,1,13.79-2.86,27.13,27.13,0,0,1,11.26,2.89,23.56,23.56,0,0,1,8.27,7,26,26,0,0,1,4.48,10.13,29.18,29.18,0,0,1-.09,12.09L420,255.22l.43-8.75,29,1.42a13,13,0,0,0-2.8-8.95,10.34,10.34,0,0,0-7.74-3.61,10.73,10.73,0,0,0-6.65,1.66,12.42,12.42,0,0,0-4.41,5.61,31.39,31.39,0,0,0-1,18.63,11.91,11.91,0,0,0,3.89,6,11.38,11.38,0,0,0,6.66,2.32,12.47,12.47,0,0,0,7.66-1.82,11.47,11.47,0,0,0,4.47-5.86l13.71.67A24.4,24.4,0,0,1,453.71,276Q446.92,280.64,437.18,280.16Z"/><path class="cls-2" d="M497.32,301.85A30.41,30.41,0,0,1,484.86,299a19.87,19.87,0,0,1-8.34-7.22,20.24,20.24,0,0,1-3.06-10.69l13.33.41a10,10,0,0,0,3.07,7q2.72,2.41,7.68,2.57,5.77.18,8.79-2.72t3.21-8.66l.23-7.76a15.56,15.56,0,0,1-6.24,5.74,17.9,17.9,0,0,1-8.82,1.87,20.79,20.79,0,0,1-11.53-3.74,23.43,23.43,0,0,1-7.87-9.54,29.32,29.32,0,0,1-2.58-13.47A31,31,0,0,1,476,239.3a22.18,22.18,0,0,1,8.13-8.91,22.43,22.43,0,0,1,21.07-.6,18.49,18.49,0,0,1,6.77,6.42l.22-7.26,12.63.39L523.26,280q-.32,10.64-7.22,16.45T497.32,301.85Zm-10.77-48.6q-.19,6.47,2.87,10.39a10.46,10.46,0,0,0,8.34,4.09,11.07,11.07,0,0,0,10.74-6.34,17.24,17.24,0,0,0,1.72-7.32c.13-4.3-.86-7.79-3-10.44a10.89,10.89,0,0,0-8.63-4.14,10.42,10.42,0,0,0-8.57,3.57Q486.75,246.8,486.55,253.25Z"/><path class="cls-2" d="M562.62,303.33a30.66,30.66,0,0,1-12.5-2.62,19.78,19.78,0,0,1-8.45-7.09A20.13,20.13,0,0,1,538.44,283l13.33.19a10,10,0,0,0,3.18,7c1.83,1.59,4.41,2.4,7.72,2.45,3.85.06,6.76-.9,8.75-2.86s3-4.86,3.06-8.71l.11-7.76a15.41,15.41,0,0,1-6.15,5.83,17.91,17.91,0,0,1-8.78,2,20.86,20.86,0,0,1-11.59-3.55,23.49,23.49,0,0,1-8-9.42,29.12,29.12,0,0,1-2.79-13.42,30.85,30.85,0,0,1,3-13.59,22.16,22.16,0,0,1,8-9A20.66,20.66,0,0,1,559.92,229a20.89,20.89,0,0,1,9.41,2.17,18.62,18.62,0,0,1,6.88,6.32l.1-7.26,12.64.18L588.21,281q-.15,10.65-7,16.57T562.62,303.33Zm-11.54-48.42q-.09,6.47,3,10.34a10.43,10.43,0,0,0,8.39,3.95,11.39,11.39,0,0,0,6.4-1.65,11.57,11.57,0,0,0,4.25-4.86,17.27,17.27,0,0,0,1.59-7.34q.11-6.47-3.13-10.39a10.88,10.88,0,0,0-8.7-4,10.43,10.43,0,0,0-8.5,3.71Q551.17,248.44,551.08,254.91Z"/><path class="cls-2" d="M628.43,284.54a27.67,27.67,0,0,1-14-3.46,23.45,23.45,0,0,1-9.28-9.72,30.85,30.85,0,0,1-3.25-14.53,29,29,0,0,1,3.41-14.12,25.15,25.15,0,0,1,9.38-9.68,26.3,26.3,0,0,1,13.63-3.5,27.08,27.08,0,0,1,11.39,2.37,23.47,23.47,0,0,1,8.59,6.63,26.2,26.2,0,0,1,4.95,9.91,29.33,29.33,0,0,1,.47,12.09l-43.67-.1,0-8.75,29,.06a13.09,13.09,0,0,0-3.22-8.81,10.34,10.34,0,0,0-7.9-3.25,10.73,10.73,0,0,0-6.57,2,12.55,12.55,0,0,0-4.14,5.81,31.47,31.47,0,0,0-.09,18.66,11.86,11.86,0,0,0,4.17,5.78,11.34,11.34,0,0,0,6.76,2,12.44,12.44,0,0,0,7.56-2.17,11.49,11.49,0,0,0,4.19-6.06l13.73,0a24.43,24.43,0,0,1-8.88,13.91Q638.17,284.56,628.43,284.54Z"/><path class="cls-2" d="M662.93,257.1A32.85,32.85,0,0,1,665.7,243a23.71,23.71,0,0,1,8.14-9.95,21.8,21.8,0,0,1,12.35-3.72,19.42,19.42,0,0,1,8.77,1.89,20.11,20.11,0,0,1,7,5.79l-.28-25.16,13.73-.16.81,71.42-12.64.15-.08-7.67a23.75,23.75,0,0,1-7.34,6.46,19.56,19.56,0,0,1-9.38,2.39,21.44,21.44,0,0,1-12.42-3.49,24,24,0,0,1-8.37-9.8A32.48,32.48,0,0,1,662.93,257.1Zm14.22-.16q.09,7.47,3.81,11.3a11.9,11.9,0,0,0,15.09,1.92,12.5,12.5,0,0,0,4.47-5.28,19,19,0,0,0,1.6-8.42,18.29,18.29,0,0,0-1.84-8.34,12.29,12.29,0,0,0-4.63-5,12.07,12.07,0,0,0-6.24-1.62,11.74,11.74,0,0,0-8.71,3.93Q677.07,249.28,677.15,256.94Z"/><path class="cls-2" d="M814.15,258.06a21.15,21.15,0,0,1-3.07,12.1,23.41,23.41,0,0,1-9.61,8.54,36.23,36.23,0,0,1-15.35,3.51,37,37,0,0,1-15.67-2.49,24.63,24.63,0,0,1-10.68-8.24,26.66,26.66,0,0,1-4.83-13l15.31-.52a13.28,13.28,0,0,0,4.35,9.3q3.85,3.36,10.81,3.11a19.36,19.36,0,0,0,6.77-1.32,10.58,10.58,0,0,0,4.52-3.34,7.61,7.61,0,0,0,1.52-4.93,6.69,6.69,0,0,0-2.67-5.34,15.86,15.86,0,0,0-7.16-2.69l-11.81-1.88a30,30,0,0,1-7.64-2,22.86,22.86,0,0,1-6.2-3.76,17.12,17.12,0,0,1-4.27-5.63,18.92,18.92,0,0,1-1.76-7.7,19.4,19.4,0,0,1,3-11.45,22.75,22.75,0,0,1,9.17-8.08A32.44,32.44,0,0,1,782.6,209,32.8,32.8,0,0,1,797,211.47a26,26,0,0,1,10.43,8.05,23.81,23.81,0,0,1,4.72,12.73l-15.31.52a14,14,0,0,0-2.17-6.54,12.11,12.11,0,0,0-4.77-4.22,15.64,15.64,0,0,0-12.89.15,9.94,9.94,0,0,0-3.81,3.42,7.93,7.93,0,0,0-1.24,4.67,6,6,0,0,0,1.48,3.93,9.4,9.4,0,0,0,3.62,2.41,22.84,22.84,0,0,0,4.82,1.28l12.31,2.06q9.51,1.56,14.59,5.92T814.15,258.06Z"/><path class="cls-2" d="M862.18,264.31l.64,12a19.82,19.82,0,0,1-4.92,2.1,26.36,26.36,0,0,1-5.59.85,20.6,20.6,0,0,1-9.49-1.55,14,14,0,0,1-6.53-5.83,21,21,0,0,1-2.72-9.87l-1.26-24-10.73.57L821,226.74l10.72-.57-.82-15.69,13.71-.73.82,15.7,15.2-.8.62,11.82-15.19.8,1.09,20.86c.17,3.05,1,5.22,2.39,6.5a7.72,7.72,0,0,0,5.82,1.74,15.65,15.65,0,0,0,3.75-.65A12.34,12.34,0,0,0,862.18,264.31Z"/><path class="cls-2" d="M898.74,276.29a26.88,26.88,0,0,1-10.81-1.3,25.43,25.43,0,0,1-9-5.23,27.38,27.38,0,0,1-6.3-8.36,28.61,28.61,0,0,1-2.83-10.62,28.3,28.3,0,0,1,1.25-11,27.66,27.66,0,0,1,5-9.15,25.65,25.65,0,0,1,8.11-6.47,28.39,28.39,0,0,1,21.33-1.57,25.76,25.76,0,0,1,9,5.23,27.83,27.83,0,0,1,6.29,8.32,29.65,29.65,0,0,1,1.58,21.58,27.45,27.45,0,0,1-5,9.19,25.61,25.61,0,0,1-8.1,6.48A27.11,27.11,0,0,1,898.74,276.29Zm-.89-12.2a11.83,11.83,0,0,0,6.22-2.25,12.73,12.73,0,0,0,4.23-5.55,20.76,20.76,0,0,0-1.22-16.61,12.35,12.35,0,0,0-5-4.77,12.39,12.39,0,0,0-12.65.92,12.31,12.31,0,0,0-4.29,5.45,20.75,20.75,0,0,0,1.22,16.62,12.57,12.57,0,0,0,5,4.87A11.84,11.84,0,0,0,897.85,264.09Z"/><path class="cls-2" d="M962.26,270.69a27.14,27.14,0,0,1-10.85-1,25.45,25.45,0,0,1-9.12-5,27.42,27.42,0,0,1-6.56-8.16,29.79,29.79,0,0,1-2.26-21.52,27.83,27.83,0,0,1,4.73-9.3,25.67,25.67,0,0,1,7.9-6.73,28.45,28.45,0,0,1,21.27-2.23,25.76,25.76,0,0,1,9.12,4.95,27.73,27.73,0,0,1,6.55,8.12,29.71,29.71,0,0,1,2.26,21.51,27.68,27.68,0,0,1-4.72,9.35,25.67,25.67,0,0,1-7.9,6.73A27.07,27.07,0,0,1,962.26,270.69ZM961,258.52a11.81,11.81,0,0,0,6.14-2.44,12.78,12.78,0,0,0,4.06-5.68,18.24,18.24,0,0,0,.86-8.44,18,18,0,0,0-2.6-8.13,12.45,12.45,0,0,0-5.13-4.61,12.42,12.42,0,0,0-12.62,1.32,12.4,12.4,0,0,0-4.12,5.58,20.79,20.79,0,0,0,1.74,16.57,12.57,12.57,0,0,0,5.2,4.71A11.87,11.87,0,0,0,961,258.52Z"/><path class="cls-2" d="M1017.6,262.91l-13.8,1.9L994,194.05l13.8-1.9Z"/><path class="cls-2" d="M248,876.76l11.89,3L249,923.24,184.31,907l10.77-42.87,11.89,3-7.33,29.18,13.6,3.41,6.65-26.47,11.8,3L225,902.68l15.49,3.89Z"/><path class="cls-2" d="M266.57,853.19l-3.14,12.51-48.09-12.08,2.9-11.53,6.84,1.72a20.06,20.06,0,0,1-4.18-7.56,18.45,18.45,0,0,1,4.43-16.83,13.86,13.86,0,0,1,7.71-3.86,23.75,23.75,0,0,1-4.58-8.23,18,18,0,0,1,0-9.77,16.22,16.22,0,0,1,7.6-10.63q5.77-3.33,14.42-1.16l31.06,7.81L278.43,806l-27.11-6.81q-5.13-1.29-8.5.11a7.55,7.55,0,0,0-4.4,5.55,8.55,8.55,0,0,0,.17,4.83,9.36,9.36,0,0,0,2.91,4.23,13.92,13.92,0,0,0,5.73,2.73l26.83,6.74-3.12,12.43L243.83,829q-5.13-1.29-8.5.11a7.55,7.55,0,0,0-4.4,5.55,8.58,8.58,0,0,0,.15,4.92,9,9,0,0,0,2.92,4.18,14.19,14.19,0,0,0,5.74,2.68Z"/><path class="cls-2" d="M273.4,724.32a30.46,30.46,0,0,1,12.07,5.86,22.72,22.72,0,0,1,7.06,9.62,19.91,19.91,0,0,1,.45,12.13,17.87,17.87,0,0,1-3.77,7.38,18.85,18.85,0,0,1-6.9,5l23.59,5.93-3.15,12.52-65.46-16.45,2.9-11.53,7,1.76a19.65,19.65,0,0,1-4.22-8.14,18.58,18.58,0,0,1,.1-9A20,20,0,0,1,249.2,729,22.6,22.6,0,0,1,260,723.78,30.42,30.42,0,0,1,273.4,724.32Zm-3.24,12.88q-6.75-1.69-11.15.74a10.85,10.85,0,0,0-5.33,13,11.68,11.68,0,0,0,3.6,5.31,17.31,17.31,0,0,0,7.22,3.44,17.72,17.72,0,0,0,8,.38,10.82,10.82,0,0,0,8.61-8.17,10.93,10.93,0,0,0-1.48-8.8Q277,738.92,270.16,737.2Z"/><path class="cls-2" d="M245,688.46a7.12,7.12,0,0,1,4.69,3.62,8.89,8.89,0,0,1,.58,6.61,8.72,8.72,0,0,1-3.62,5.46,7.09,7.09,0,0,1-5.84,1,7.28,7.28,0,0,1-4.87-3.67,8.72,8.72,0,0,1-.61-6.52,8.86,8.86,0,0,1,3.64-5.54A7.28,7.28,0,0,1,245,688.46Zm58.75,16.87-3.15,12.52L252.5,705.76l3.14-12.51Z"/><path class="cls-2" d="M287.49,671.29l23.32,5.86-3.14,12.51-48.09-12.08,2.9-11.53,9.27,2.33a19.16,19.16,0,0,1-5.23-9.64,24.51,24.51,0,0,1,.12-11.55l13,3.26a34.6,34.6,0,0,0-1.82,9.35,10.78,10.78,0,0,0,2.12,7.19C281.42,669,284,670.4,287.49,671.29Z"/><path class="cls-2" d="M262.42,619a7,7,0,0,1,4.69,3.62,8.87,8.87,0,0,1,.59,6.61,8.71,8.71,0,0,1-3.62,5.45,7.09,7.09,0,0,1-5.84,1,7.3,7.3,0,0,1-4.88-3.67,8.78,8.78,0,0,1-.61-6.52A8.92,8.92,0,0,1,256.4,620,7.29,7.29,0,0,1,262.42,619Zm58.75,16.87L318,648.42l-48.09-12.08,3.15-12.52Z"/><path class="cls-2" d="M331.1,600.21a24,24,0,0,1-6.22,11.41,22.53,22.53,0,0,1-10.89,6,28.41,28.41,0,0,1-13.71-.29,27.64,27.64,0,0,1-12.08-6.24,23.25,23.25,0,0,1-7-23.44,24.6,24.6,0,0,1,5.48-10.59,22.54,22.54,0,0,1,9.54-6.32,26.36,26.36,0,0,1,12.27-1l-3.3,13.15a12.34,12.34,0,0,0-8.37,1.3,10.41,10.41,0,0,0-4.25,12.33,11.33,11.33,0,0,0,3.84,4.89,19.28,19.28,0,0,0,7.06,3.16,19.62,19.62,0,0,0,7.71.55,11,11,0,0,0,5.75-2.48,9.86,9.86,0,0,0,3.08-5.21,9.6,9.6,0,0,0-1-7.67,13,13,0,0,0-6.81-5.11l3.3-13.14A25.47,25.47,0,0,1,326,578.14a22.28,22.28,0,0,1,5.4,10A24.92,24.92,0,0,1,331.1,600.21Z"/><path class="cls-2" d="M283.6,534.75a7.09,7.09,0,0,1,4.69,3.62,8.88,8.88,0,0,1,.59,6.61,8.73,8.73,0,0,1-3.62,5.46,7.05,7.05,0,0,1-5.84,1,7.31,7.31,0,0,1-4.88-3.66,8.78,8.78,0,0,1-.61-6.52,8.92,8.92,0,0,1,3.65-5.55A7.3,7.3,0,0,1,283.6,534.75Zm58.75,16.87-3.14,12.52-48.09-12.08,3.15-12.52Z"/><path class="cls-2" d="M341.1,491.48A14.83,14.83,0,0,1,351.59,500q3,6.64.45,16.91t-8.64,14.73a18.1,18.1,0,0,1-14.27,3.26l3-12a7.48,7.48,0,0,0,6.66-1.53,12.51,12.51,0,0,0,4.09-7,14.07,14.07,0,0,0,.33-6.42,4.09,4.09,0,0,0-3.13-3.38,4.16,4.16,0,0,0-3.8.68,12.33,12.33,0,0,0-3.07,4.59l-3.8,8.23a19.9,19.9,0,0,1-7.24,9,12.34,12.34,0,0,1-10,1.41,13.72,13.72,0,0,1-7.31-4.42,16.21,16.21,0,0,1-3.59-8.18A26.71,26.71,0,0,1,302,505.1a27.35,27.35,0,0,1,4.7-10.16,17.62,17.62,0,0,1,17.39-6.89l-3,12a7.74,7.74,0,0,0-6.24,1.4,10.32,10.32,0,0,0-3.66,6,11.37,11.37,0,0,0-.17,5.84,4,4,0,0,0,3,3,3.69,3.69,0,0,0,3.58-.73,13.88,13.88,0,0,0,2.87-4.35l4-8.85q3.12-6.68,7.25-9.42A11.24,11.24,0,0,1,341.1,491.48Z"/><path class="cls-2" d="M362.92,469.77l-3.14,12.52-48.09-12.08,2.9-11.53,6.84,1.72a20.14,20.14,0,0,1-4.18-7.56A18.48,18.48,0,0,1,321.68,436a13.91,13.91,0,0,1,7.71-3.85,24,24,0,0,1-4.58-8.24,17.94,17.94,0,0,1,0-9.76,16.22,16.22,0,0,1,7.6-10.63q5.77-3.33,14.42-1.16l31.06,7.8-3.12,12.43-27.1-6.81c-3.43-.86-6.26-.82-8.51.11a7.55,7.55,0,0,0-4.4,5.55,8.55,8.55,0,0,0,.17,4.83,9.28,9.28,0,0,0,2.91,4.22,13.8,13.8,0,0,0,5.73,2.73L370.41,440l-3.12,12.42-27.1-6.81c-3.43-.86-6.26-.82-8.51.12a7.52,7.52,0,0,0-4.4,5.54,8.66,8.66,0,0,0,.15,4.92,9,9,0,0,0,2.92,4.18,14.2,14.2,0,0,0,5.74,2.69Z"/><path class="cls-2" d="M646.62,1214.75A19.65,19.65,0,0,1,657.8,1218a21.75,21.75,0,0,1,7.66,9.23,34,34,0,0,1,2.79,14.44,34.53,34.53,0,0,1-2.83,14.53,23,23,0,0,1-8,9.7,24.86,24.86,0,0,1-12.26,4.09v-14.3a12.41,12.41,0,0,0,8.82-3.76q3.25-3.48,3.25-10a18.21,18.21,0,0,0-1-6.36,9.83,9.83,0,0,0-3-4.32,7,7,0,0,0-4.55-1.58,6.23,6.23,0,0,0-5.06,2.32,14.83,14.83,0,0,0-2.74,6.6l-2.14,11a28.3,28.3,0,0,1-2.13,7.06,21.21,21.21,0,0,1-3.72,5.66,16,16,0,0,1-5.38,3.81,17.74,17.74,0,0,1-7.24,1.39,18.26,18.26,0,0,1-10.59-3.2,21.38,21.38,0,0,1-7.24-8.82,30.36,30.36,0,0,1-2.6-12.86,30.71,30.71,0,0,1,2.79-13.37,24.15,24.15,0,0,1,7.84-9.47,22.21,22.21,0,0,1,12-4v14.3a12.8,12.8,0,0,0-6.18,1.81,11.18,11.18,0,0,0-4.08,4.31,14.61,14.61,0,0,0-.28,12,9.19,9.19,0,0,0,3.06,3.66,7.46,7.46,0,0,0,4.32,1.3,5.54,5.54,0,0,0,3.71-1.25,8.79,8.79,0,0,0,2.37-3.3,21.22,21.22,0,0,0,1.35-4.45l2.32-11.42q1.75-8.82,6-13.42T646.62,1214.75Z"/><path class="cls-2" d="M668.16,1179.28a25.81,25.81,0,0,1-3.21,13,21.77,21.77,0,0,1-9.05,8.68,28.72,28.72,0,0,1-13.56,3.07,26.91,26.91,0,0,1-13.18-3.16,23.3,23.3,0,0,1-9-8.73,24.46,24.46,0,0,1-3.3-12.72,25.38,25.38,0,0,1,2.18-10.63,22.13,22.13,0,0,1,6.18-8,24.41,24.41,0,0,1,9.24-4.64,27.32,27.32,0,0,1,11.28-.46v40.76h-8.17v-27.12a12.22,12.22,0,0,0-8.22,3,9.67,9.67,0,0,0-3,7.38,10,10,0,0,0,1.86,6.13,11.61,11.61,0,0,0,5.43,3.85,29.26,29.26,0,0,0,17.41,0,11.11,11.11,0,0,0,5.38-3.9,10.56,10.56,0,0,0,1.86-6.31,11.64,11.64,0,0,0-2-7.06,10.65,10.65,0,0,0-5.66-3.9v-12.81a22.74,22.74,0,0,1,13,8.26Q668.16,1170.19,668.16,1179.28Z"/><path class="cls-2" d="M643.27,1129.51h24.05v12.91H617.74v-11.88h9.56a19.21,19.21,0,0,1-7.42-8.08,24.42,24.42,0,0,1-2.7-11.24h13.37a35.1,35.1,0,0,0,.51,9.52,10.77,10.77,0,0,0,3.81,6.45Q637.8,1129.51,643.27,1129.51Z"/><path class="cls-2" d="M617.74,1054.31l49.58,18.2v14.11l-49.58,18.29V1091l34.91-11.79-34.91-11.88Z"/><path class="cls-2" d="M668.25,1023.86a25.31,25.31,0,0,1-2,10,23.94,23.94,0,0,1-5.48,8,25.65,25.65,0,0,1-8.22,5.3,27.77,27.77,0,0,1-20.19,0,25.86,25.86,0,0,1-8.17-5.3,23.94,23.94,0,0,1-5.48-8,26.51,26.51,0,0,1,0-20,23.88,23.88,0,0,1,5.48-8,25.84,25.84,0,0,1,8.17-5.29,27.77,27.77,0,0,1,20.19,0,25.62,25.62,0,0,1,8.22,5.29,23.88,23.88,0,0,1,5.48,8A25.27,25.27,0,0,1,668.25,1023.86Zm-11.42,0a11.05,11.05,0,0,0-1.67-5.94,11.87,11.87,0,0,0-4.88-4.32,19.36,19.36,0,0,0-15.55,0,11.58,11.58,0,0,0-4.78,4.32,11.61,11.61,0,0,0,0,11.83,11.55,11.55,0,0,0,4.78,4.37,19.47,19.47,0,0,0,15.55,0,11.83,11.83,0,0,0,4.88-4.37A11.13,11.13,0,0,0,656.83,1023.86Z"/><path class="cls-2" d="M647.54,959v28.32H636V959Z"/><path class="cls-2" d="M667.32,914.67,623,932.13h44.29v12.81H600.66V928l49.39-19.31-49.39-19.4v-16.9h66.66v12.81H622.66l44.66,17.64Z"/><path class="cls-2" d="M668.16,833.71a25.84,25.84,0,0,1-3.21,13,21.83,21.83,0,0,1-9.05,8.68,28.84,28.84,0,0,1-13.56,3.06,26.91,26.91,0,0,1-13.18-3.16,23.35,23.35,0,0,1-9-8.72,24.49,24.49,0,0,1-3.3-12.72A25.38,25.38,0,0,1,619,823.27a22,22,0,0,1,6.18-8,24.29,24.29,0,0,1,9.24-4.65,27.49,27.49,0,0,1,11.28-.46v40.76h-8.17V823.78a12.21,12.21,0,0,0-8.22,3,9.68,9.68,0,0,0-3,7.39,10,10,0,0,0,1.86,6.12,11.63,11.63,0,0,0,5.43,3.86,29.37,29.37,0,0,0,17.41,0,11,11,0,0,0,5.38-3.9,10.54,10.54,0,0,0,1.86-6.31,11.64,11.64,0,0,0-2-7.06,10.69,10.69,0,0,0-5.66-3.89V810.22a22.75,22.75,0,0,1,13,8.27Q668.16,824.61,668.16,833.71Z"/><path class="cls-2" d="M668.25,776.89A24,24,0,0,1,665,789.47a22.63,22.63,0,0,1-9.1,8.5A28.43,28.43,0,0,1,642.53,801a27.61,27.61,0,0,1-13.23-3.11,23.22,23.22,0,0,1-12.49-21,24.62,24.62,0,0,1,2.74-11.61,22.49,22.49,0,0,1,7.71-8.44,26.23,26.23,0,0,1,11.65-4V766.4a12.43,12.43,0,0,0-7.8,3.29,10.42,10.42,0,0,0-1.11,13,11.33,11.33,0,0,0,4.92,3.81,19.29,19.29,0,0,0,7.61,1.35,19.71,19.71,0,0,0,7.61-1.35,11,11,0,0,0,5-3.81,9.83,9.83,0,0,0,1.72-5.8,9.57,9.57,0,0,0-2.83-7.2,13,13,0,0,0-7.85-3.29V752.84a25.72,25.72,0,0,1,11.75,3.9,22.41,22.41,0,0,1,7.66,8.36A24.94,24.94,0,0,1,668.25,776.89Z"/><path class="cls-2" d="M640.3,727h27v12.91H600.66V727h23.58a19.55,19.55,0,0,1-5.43-5.89,18,18,0,0,1,2.78-20.48q4.78-4.63,13.7-4.64h32v12.81H639.65q-5.56,0-8.49,2.19a7.63,7.63,0,0,0-2.93,6.54,8.9,8.9,0,0,0,1.35,4.78,9.15,9.15,0,0,0,4,3.44A15.82,15.82,0,0,0,640.3,727Z"/><path class="cls-2" d="M667.32,650.71h-6.13a16,16,0,0,1,5.25,6.13,19.92,19.92,0,0,1,1.81,8.82q0,7.71-4.18,12.44a14.11,14.11,0,0,1-11.14,4.74,12.43,12.43,0,0,1-11-5.76q-3.81-5.75-3.81-16.52c0-1.43,0-2.79.14-4.09s.24-2.69.42-4.18h-3a9,9,0,0,0-6.5,2.23,8.33,8.33,0,0,0-2.32,6.31,9.12,9.12,0,0,0,2.32,6.6,9.87,9.87,0,0,0,6.5,2.78v11.61a20.52,20.52,0,0,1-10-3.11,18.52,18.52,0,0,1-6.55-7.34,23.13,23.13,0,0,1-2.32-10.54q0-9.75,5.11-15.18t14.2-5.43h31.2Zm-14.76,20a6.28,6.28,0,0,0,4.92-2.09,8.3,8.3,0,0,0,1.86-5.71,11.14,11.14,0,0,0-2.56-7.76,8.75,8.75,0,0,0-6.82-2.83h-3.53q-.37,2.24-.51,4c-.09,1.18-.14,2.33-.14,3.44q0,5.38,1.67,8.17A5.56,5.56,0,0,0,652.56,670.68Z"/><path class="cls-2" d="M640.3,611.53h27v12.91H617.74V612.55h7.06A21.09,21.09,0,0,1,619,606a17.21,17.21,0,0,1-2.14-8.68,16.19,16.19,0,0,1,4.78-12.16q4.78-4.65,13.7-4.65h32v12.81H639.65q-5.56,0-8.49,2.19a7.63,7.63,0,0,0-2.93,6.54,8.88,8.88,0,0,0,1.35,4.78,9.15,9.15,0,0,0,4,3.44A15.67,15.67,0,0,0,640.3,611.53Z"/><path class="cls-2" d="M606.23,549.79a7.08,7.08,0,0,1,5.43,2.37,8.91,8.91,0,0,1,2.18,6.27,8.78,8.78,0,0,1-2.18,6.17,7.08,7.08,0,0,1-5.43,2.37,7.3,7.3,0,0,1-5.62-2.37,8.78,8.78,0,0,1-2.18-6.17,8.91,8.91,0,0,1,2.18-6.27A7.3,7.3,0,0,1,606.23,549.79Zm61.09,2v12.91H617.74V551.83Z"/><path class="cls-2" d="M651.44,493.81a14.84,14.84,0,0,1,12.26,5.71q4.54,5.7,4.55,16.29t-4.78,16.39a18.15,18.15,0,0,1-13.05,6.64V526.49a7.46,7.46,0,0,0,6.08-3.11,12.52,12.52,0,0,0,2.28-7.76,14.15,14.15,0,0,0-1.25-6.31,4.09,4.09,0,0,0-3.86-2.51,4.18,4.18,0,0,0-3.53,1.58,12.52,12.52,0,0,0-1.85,5.2l-1.67,8.92A20.07,20.07,0,0,1,641.79,533a12.36,12.36,0,0,1-9.38,3.8,13.75,13.75,0,0,1-8.17-2.5,16.3,16.3,0,0,1-5.48-7.06,26.93,26.93,0,0,1-2-10.68,27.32,27.32,0,0,1,2.09-11,17.62,17.62,0,0,1,15.18-10.91V507a7.77,7.77,0,0,0-5.71,2.88,10.34,10.34,0,0,0-2.09,6.68,11.32,11.32,0,0,0,1.26,5.71,4,4,0,0,0,3.66,2.19,3.71,3.71,0,0,0,3.3-1.58,14,14,0,0,0,1.72-4.92l1.76-9.57q1.39-7.23,4.74-10.91A11.24,11.24,0,0,1,651.44,493.81Z"/><path class="cls-2" d="M667.32,467.44v12.9H617.74V468.46h7.06a19.91,19.91,0,0,1-5.9-6.31,18.44,18.44,0,0,1,.19-17.41,13.88,13.88,0,0,1,6.54-5.62,23.8,23.8,0,0,1-6.45-6.87,17.92,17.92,0,0,1-2.37-9.47,16.21,16.21,0,0,1,4.78-12.16q4.78-4.65,13.7-4.64h32v12.81h-28q-5.28,0-8.21,2.18a7.54,7.54,0,0,0-2.93,6.45,8.57,8.57,0,0,0,1.35,4.65,9.37,9.37,0,0,0,3.85,3.38,13.78,13.78,0,0,0,6.22,1.26h27.67v12.81h-28q-5.28,0-8.21,2.18a7.56,7.56,0,0,0-2.93,6.46,8.66,8.66,0,0,0,1.35,4.73,9.08,9.08,0,0,0,3.85,3.34,14.22,14.22,0,0,0,6.22,1.21Z"/><path class="cls-2" d="M1016.7,686.32l-37.91,28.8,42.64-12,3.47,12.33-64.17,18.06-4.58-16.26,42.31-32-52.8-5.3-4.58-16.27,64.17-18.06,3.47,12.34-43,12.1L1013.5,675Z"/><path class="cls-2" d="M937.74,631.28a7.06,7.06,0,0,1,5.87.81,8.89,8.89,0,0,1,3.8,5.44,8.77,8.77,0,0,1-.43,6.54,7.09,7.09,0,0,1-4.59,3.75,7.29,7.29,0,0,1-6-.76,8.78,8.78,0,0,1-3.78-5.35,8.93,8.93,0,0,1,.4-6.63A7.34,7.34,0,0,1,937.74,631.28ZM997.1,616.7l3.5,12.42-47.73,13.43-3.49-12.42Z"/><path class="cls-2" d="M966.1,565.14a14.83,14.83,0,0,1,13.34,2.18q5.92,4.26,8.8,14.45t-.17,17.07a18.09,18.09,0,0,1-10.76,9.92L974,596.88a7.48,7.48,0,0,0,5-4.64,12.53,12.53,0,0,0,.09-8.08,14,14,0,0,0-2.92-5.74,4.09,4.09,0,0,0-4.39-1.37,4.21,4.21,0,0,0-3,2.47,12.57,12.57,0,0,0-.37,5.51l.8,9a20,20,0,0,1-1.8,11.41,12.36,12.36,0,0,1-8,6.21,13.73,13.73,0,0,1-8.54-.2,16.26,16.26,0,0,1-7.19-5.31,27.09,27.09,0,0,1-4.77-9.75,27.44,27.44,0,0,1-1-11.16,18.23,18.23,0,0,1,3.71-9,18,18,0,0,1,8-5.66L953,582.54a7.73,7.73,0,0,0-4.72,4.31,10.33,10.33,0,0,0-.2,7,11.46,11.46,0,0,0,2.75,5.16,4,4,0,0,0,4.12,1.11,3.73,3.73,0,0,0,2.75-2.41,13.74,13.74,0,0,0,.32-5.21l-.89-9.68q-.63-7.35,1.6-11.78A11.24,11.24,0,0,1,966.1,565.14Z"/><path class="cls-2" d="M951.11,511.87a14.86,14.86,0,0,1,13.34,2.18q5.92,4.26,8.79,14.45t-.16,17.07a18.11,18.11,0,0,1-10.76,9.93L959,543.61a7.5,7.5,0,0,0,5-4.64,12.6,12.6,0,0,0,.09-8.08,14.08,14.08,0,0,0-2.92-5.74,4.09,4.09,0,0,0-4.39-1.37,4.18,4.18,0,0,0-3,2.48,12.51,12.51,0,0,0-.38,5.51l.81,9a20.06,20.06,0,0,1-1.8,11.41,12.4,12.4,0,0,1-8,6.2,13.73,13.73,0,0,1-8.54-.2,16.21,16.21,0,0,1-7.19-5.31,26.93,26.93,0,0,1-4.77-9.75A27.24,27.24,0,0,1,923,532a17.61,17.61,0,0,1,11.66-14.62L938,529.27a7.72,7.72,0,0,0-4.71,4.32,10.33,10.33,0,0,0-.2,7,11.38,11.38,0,0,0,2.75,5.15,4,4,0,0,0,4.12,1.11,3.69,3.69,0,0,0,2.75-2.41,13.68,13.68,0,0,0,.32-5.2l-.9-9.69q-.62-7.34,1.61-11.78A11.26,11.26,0,0,1,951.11,511.87Z"/><path class="cls-2" d="M899.88,496.78a7,7,0,0,1,5.87.81,8.82,8.82,0,0,1,3.8,5.44,8.69,8.69,0,0,1-.43,6.53,7.1,7.1,0,0,1-4.58,3.75,7.28,7.28,0,0,1-6-.76,8.72,8.72,0,0,1-3.78-5.35,8.9,8.9,0,0,1,.41-6.62A7.3,7.3,0,0,1,899.88,496.78Zm59.36-14.59,3.5,12.42L915,508.05l-3.49-12.43Z"/><path class="cls-2" d="M951.35,454.13l3.52,12.51L890.7,484.7l-3.52-12.51Z"/><path class="cls-2" d="M941.91,417.53a25.78,25.78,0,0,1,.45,13.42A21.82,21.82,0,0,1,936,441.76a28.67,28.67,0,0,1-12.22,6.62,26.92,26.92,0,0,1-13.54.54A23.38,23.38,0,0,1,899.16,443a24.49,24.49,0,0,1-6.62-11.35,25.23,25.23,0,0,1-.78-10.83,22,22,0,0,1,3.77-9.4,24.25,24.25,0,0,1,7.63-7,27.34,27.34,0,0,1,10.73-3.5l11.05,39.23-7.87,2.21-7.34-26.09a12.2,12.2,0,0,0-7.09,5.13,9.64,9.64,0,0,0-.91,7.92,10,10,0,0,0,3.45,5.39,11.49,11.49,0,0,0,6.27,2.24,29.29,29.29,0,0,0,16.77-4.67,11.1,11.1,0,0,0,4.13-5.21,10.53,10.53,0,0,0,.07-6.58,11.64,11.64,0,0,0-3.87-6.24A10.7,10.7,0,0,0,922,412l-3.47-12.33a22.79,22.79,0,0,1,14.75,4.43Q939.46,408.77,941.91,417.53Z"/></svg>