<svg width="13" height="13" viewBox="0 0 13 13" fill="none" xmlns="http://www.w3.org/2000/svg">
<path d="M6.5 0C7.35359 -1.27195e-08 8.19883 0.168127 8.98744 0.494783C9.77606 0.821439 10.4926 1.30023 11.0962 1.90381C11.6998 2.50739 12.1786 3.22394 12.5052 4.01256C12.8319 4.80117 13 5.64641 13 6.5C13 7.35359 12.8319 8.19883 12.5052 8.98744C12.1786 9.77606 11.6998 10.4926 11.0962 11.0962C10.4926 11.6998 9.77606 12.1786 8.98744 12.5052C8.19883 12.8319 7.35359 13 6.5 13C4.77609 13 3.12279 12.3152 1.90381 11.0962C0.684819 9.87721 0 8.22391 0 6.5C0 4.77609 0.684819 3.12279 1.90381 1.90381C3.12279 0.684819 4.77609 2.56882e-08 6.5 0ZM6.5 1.08333C5.06341 1.08333 3.68566 1.65402 2.66984 2.66984C1.65402 3.68566 1.08333 5.06341 1.08333 6.5C1.08333 7.93659 1.65402 9.31434 2.66984 10.3302C3.68566 11.346 5.06341 11.9167 6.5 11.9167C7.93659 11.9167 9.31434 11.346 10.3302 10.3302C11.346 9.31434 11.9167 7.93659 11.9167 6.5C11.9167 5.06341 11.346 3.68566 10.3302 2.66984C9.31434 1.65402 7.93659 1.08333 6.5 1.08333ZM5.6875 7.62883L8.79667 4.511C8.89202 4.41466 9.02004 4.35758 9.15543 4.35102C9.29082 4.34446 9.42375 4.3889 9.52798 4.47557C9.6322 4.56224 9.70014 4.68484 9.71838 4.81916C9.73662 4.95348 9.70384 5.08976 9.6265 5.20108L9.56367 5.27692L6.071 8.77825C5.98151 8.86815 5.86331 8.92378 5.737 8.93546C5.61069 8.94714 5.48429 8.91413 5.37983 8.84217L5.304 8.77933L3.40817 6.8835C3.3122 6.78796 3.2555 6.65994 3.24924 6.52467C3.24298 6.38941 3.28761 6.2567 3.37434 6.1527C3.46107 6.04871 3.58361 5.98097 3.7178 5.96284C3.852 5.94471 3.98812 5.9775 4.09933 6.05475L4.17517 6.1165L5.6875 7.62883L8.79667 4.511L5.6875 7.62883Z" fill="#0067B2"/>
</svg>
