<svg width="90" height="44" viewBox="0 0 90 44" fill="none" xmlns="http://www.w3.org/2000/svg">
<path d="M89.5954 0.523438H1.30375V42.6573H89.5954V0.523438Z" fill="#860038"/>
<path d="M89.999 43.0483H0.921875V0.128906H89.999V43.0483ZM1.70047 42.2628H89.2135V0.914395H1.70047V42.2628ZM85.8993 38.7212H4.90444V4.45598H85.8993V38.7212ZM5.29718 38.3284H85.5066V4.84873H5.29718V38.3284Z" fill="#A2AAAD"/>
<path d="M19.6552 10.8992H13.7503C12.4205 10.8992 12.0553 11.4366 11.2285 12.4151C10.1467 13.676 9.43011 15.1849 8.31389 16.5148L7.84536 16.2598L9.35432 9.5625C10.3603 9.85189 11.4076 10.1413 12.4825 10.1413H30.404C31.4858 10.1413 32.5262 9.85189 33.5391 9.5625L34.8689 16.2943L34.3659 16.5492C33.4633 15.1781 32.7467 13.6691 31.6649 12.4082C30.8381 11.4366 30.4798 10.8923 29.1431 10.8923H23.2864V32.2039C23.2864 33.7473 24.0099 34.1056 26.6351 34.2158V34.9737H16.3824V34.2158C18.8698 34.1056 19.6552 33.7473 19.6552 32.2039V10.8992ZM38.19 34.9737H38.6241L39.9884 33.6439C41.8281 34.829 43.9503 35.4767 46.1414 35.4767C50.7509 35.4767 54.7059 33.4992 54.7059 28.3867C54.7059 23.5635 50.6751 21.9443 46.7546 20.7523C44.2328 19.9943 41.8625 19.2433 41.8625 16.1082C41.8625 12.8354 43.7367 10.5685 47.1129 10.5685C48.7321 10.5685 50.0275 11.3609 51.0748 12.546C52.3288 13.9516 52.8731 16.5079 53.3761 18.3062H54.0238V10.9337H53.5208L52.4459 11.8707C50.937 10.5065 48.6701 9.81744 46.6512 9.81744C42.4068 9.81744 38.9479 12.6631 38.9479 17.0522C38.9479 21.8065 41.4353 23.0605 45.5695 24.4317C48.2704 25.4376 51.5778 25.8717 51.5778 29.5098C51.5778 31.3081 50.5718 34.7257 45.7831 34.7257C41.2837 34.7257 39.3751 31.2737 38.9066 27.4565H38.1831V34.9737H38.19ZM59.536 10.8992C61.8718 11.0095 62.1267 11.2988 62.1267 13.6691V27.1257C62.1267 31.5906 64.2489 35.4767 71.5595 35.4767C79.0768 35.4767 80.9853 31.7284 80.9853 26.733V13.6691C80.9853 11.6502 82.136 10.8992 84.0446 10.8992V10.1413H76.2724V10.8992C78.7598 11.0439 80.0138 11.1886 80.0138 13.6691V26.733C80.0138 30.9429 78.6496 34.7257 72.6757 34.7257C66.7019 34.7257 65.7648 30.6604 65.7648 28.1042V13.6691C65.7648 11.726 66.2333 10.8648 68.9343 10.8992V10.1413H59.536V10.8992Z" fill="white"/>
</svg>
