<svg width="28" height="28" viewBox="0 0 28 28" fill="none" xmlns="http://www.w3.org/2000/svg">
<path d="M13.7811 27.9988C10.1261 27.9988 6.62083 26.5262 4.03638 23.9048C1.45193 21.2834 0 17.7281 0 14.0209V14.0209C0 10.3137 1.45193 6.75837 4.03638 4.137C6.62083 1.51563 10.1261 0.0429688 13.7811 0.0429688V0.0429688C17.436 0.0429688 20.9413 1.51563 23.5257 4.137C26.1102 6.75837 27.5621 10.3137 27.5621 14.0209V14.0209C27.5621 17.7281 26.1102 21.2834 23.5257 23.9048C20.9413 26.5262 17.436 27.9988 13.7811 27.9988V27.9988Z" fill="#0067B2"/>
<path d="M6.42578 18.6851C7.7514 19.5456 9.28466 20.02 10.8581 20.0566C12.4315 20.0932 13.9846 19.6905 15.3477 18.8925C16.7108 18.0946 17.8315 16.932 18.5874 15.5319C19.3433 14.1317 19.7053 12.5478 19.6338 10.9531C20.2211 10.5183 20.7291 9.98305 21.1353 9.37137C20.5843 9.61802 19.9999 9.77922 19.4017 9.84956C20.0329 9.46866 20.505 8.86688 20.7291 8.1575C20.1371 8.51223 19.4894 8.76108 18.8142 8.89318C18.3603 8.40034 17.7587 8.07336 17.1027 7.96308C16.4467 7.85279 15.7732 7.96537 15.1868 8.28331C14.6004 8.60125 14.134 9.10674 13.86 9.72124C13.586 10.3357 13.5198 11.0248 13.6717 11.6814C12.4728 11.6211 11.2998 11.3057 10.2289 10.7556C9.158 10.2055 8.21315 9.43313 7.45574 8.48856C7.06949 9.16125 6.9505 9.95796 7.12298 10.7165C7.29546 11.475 7.74645 12.1384 8.38414 12.5716C7.90601 12.5563 7.43844 12.4252 7.02054 12.189C7.01041 12.9029 7.24723 13.5977 7.68982 14.1528C8.13241 14.7079 8.75279 15.0881 9.44311 15.2274C8.9987 15.3518 8.53181 15.3694 8.07951 15.2789C8.26956 15.8878 8.64355 16.4207 9.14857 16.8023C9.6536 17.1838 10.2641 17.3947 10.8937 17.405C10.269 17.9067 9.55263 18.278 8.78583 18.4977C8.01903 18.7174 7.21695 18.7811 6.42578 18.6851V18.6851Z" fill="white"/>
</svg>
