<svg xmlns="http://www.w3.org/2000/svg" width="45" height="32" fill="none" viewBox="0 0 45 32">
    <path fill="#0067B2" d="M45 3.8c-1.656.625-3.455 1.075-5.31 1.25 1.912-1 3.368-2.575 4.054-4.45-1.77.925-3.77 1.6-5.854 1.95C36.206.975 33.807 0 31.152 0c-5.111 0-9.223 3.625-9.223 8.075 0 .625.086 1.25.228 1.85-7.652-.35-14.476-3.55-19.016-8.45-.8 1.2-1.256 2.575-1.256 4.075 0 2.8 1.627 5.275 4.111 6.725-1.513-.05-2.94-.425-4.169-1.025v.1c0 3.925 3.17 7.175 7.396 7.925-.771.175-1.6.275-2.427.275-.6 0-1.171-.05-1.742-.125 1.17 3.2 4.568 5.525 8.623 5.6-3.17 2.175-7.138 3.45-11.45 3.45-.77 0-1.485-.025-2.227-.1C4.083 30.675 8.937 32 14.162 32c16.961 0 26.24-12.3 26.24-22.975 0-.35 0-.7-.028-1.05C42.174 6.825 43.744 5.4 45 3.8z"/>
</svg>
