<svg width="197" height="47" viewBox="0 0 197 47" fill="none" xmlns="http://www.w3.org/2000/svg">
<path d="M5.50728 21.4554V25.335H12.2276V28.0735H5.50728V33.3984H2.10938V18.793H13.1337V21.5315H5.50728V21.4554Z" fill="#0067B2"/>
<path d="M16.457 18.793H19.8549V30.6599H27.1793V33.3984H16.457V18.793Z" fill="#0067B2"/>
<path d="M41.2977 30.7359V33.4745H30.0469V18.793H41.0712V21.5315H33.3693V24.7264H40.0896V27.3889H33.3693V30.812H41.2977V30.7359Z" fill="#0067B2"/>
<path d="M45 18.793H48.3979V33.4745H45V18.793Z" fill="#0067B2"/>
<path d="M54.2822 33.1699C53.225 32.8656 52.3189 32.4852 51.7148 31.9528L52.8475 29.3664C53.4516 29.8228 54.2066 30.2031 55.0372 30.5074C55.8678 30.8117 56.774 30.9638 57.6046 30.9638C58.5862 30.9638 59.2658 30.8117 59.7188 30.5074C60.1719 30.2031 60.3984 29.8228 60.3984 29.3664C60.3984 28.986 60.2474 28.7578 60.0208 28.5296C59.7188 28.3014 59.4168 28.1493 58.9637 27.9971C58.5107 27.845 57.9821 27.6928 57.227 27.5407C56.0944 27.3125 55.1883 27.0082 54.5087 26.78C53.8291 26.5518 53.225 26.0954 52.6965 25.4868C52.1679 24.8783 51.9414 24.1176 51.9414 23.1286C51.9414 22.2919 52.1679 21.5312 52.621 20.8466C53.074 20.1619 53.7536 19.6294 54.6597 19.173C55.5658 18.7927 56.6984 18.5645 58.0576 18.5645C58.9637 18.5645 59.8698 18.6405 60.7759 18.8687C61.682 19.0969 62.4371 19.4012 63.1167 19.8576L62.0596 22.444C60.7004 21.6833 59.3413 21.303 58.0576 21.303C57.1515 21.303 56.3964 21.4551 55.9434 21.7594C55.4903 22.0637 55.2638 22.444 55.2638 22.9765C55.2638 23.509 55.4903 23.8893 56.0189 24.1176C56.5474 24.3458 57.3025 24.574 58.4352 24.8783C59.5678 25.1065 60.4739 25.4107 61.1535 25.639C61.8331 25.8672 62.4371 26.3236 62.9657 26.9321C63.4943 27.5407 63.7208 28.3014 63.7208 29.2903C63.7208 30.1271 63.4943 30.8878 63.0412 31.5724C62.5882 32.257 61.9086 32.7895 60.9269 33.2459C59.9453 33.7024 58.8882 33.8545 57.529 33.8545C56.4719 33.7024 55.3393 33.5502 54.2822 33.1699Z" fill="#0067B2"/>
<path d="M70.0697 32.7155C68.8616 32.0309 67.9555 31.1941 67.2759 30.0531C66.5963 28.912 66.2188 27.6188 66.2188 26.1735C66.2188 24.7282 66.5963 23.435 67.2759 22.2939C67.9555 21.1529 68.9371 20.24 70.0697 19.6315C71.2779 18.9469 72.637 18.6426 74.1472 18.6426C75.4309 18.6426 76.5635 18.8708 77.5451 19.3272C78.5267 19.7836 79.4328 20.3922 80.1124 21.229L77.9227 23.2068C76.941 22.0657 75.7329 21.4572 74.2982 21.4572C73.3921 21.4572 72.5615 21.6854 71.8819 22.0657C71.2023 22.4461 70.5983 23.0546 70.2207 23.7393C69.8432 24.4239 69.6167 25.2607 69.6167 26.1735C69.6167 27.0863 69.8432 27.9231 70.2207 28.6077C70.5983 29.2924 71.2023 29.9009 71.8819 30.2813C72.5615 30.6616 73.3921 30.8898 74.2982 30.8898C75.7329 30.8898 76.941 30.2813 77.9227 29.1402L80.1124 31.118C79.4328 31.9548 78.5267 32.6394 77.5451 33.0959C76.488 33.5523 75.3553 33.7805 74.1472 33.7805C72.637 33.7044 71.2779 33.3241 70.0697 32.7155Z" fill="#0067B2"/>
<path d="M96.7961 18.793V33.4745H93.3982V27.4649H86.7534V33.4745H83.3555V18.793H86.7534V24.5743H93.3982V18.793H96.7961Z" fill="#0067B2"/>
<path d="M112.505 30.7359V33.4745H101.254V18.793H112.278V21.5315H104.652V24.7264H111.372V27.3889H104.652V30.812H112.505V30.7359Z" fill="#0067B2"/>
<path d="M125.491 33.3984L122.697 29.2906H122.546H119.601V33.3984H116.203V18.793H122.47C123.754 18.793 124.887 19.0212 125.793 19.4776C126.774 19.934 127.454 20.5426 127.983 21.3033C128.511 22.064 128.738 23.0529 128.738 24.1179C128.738 25.1828 128.511 26.1718 127.983 26.9324C127.454 27.6931 126.699 28.3017 125.793 28.7581L129.04 33.4745H125.491V33.3984ZM124.66 22.2161C124.132 21.7597 123.376 21.5315 122.319 21.5315H119.601V26.6282H122.319C123.301 26.6282 124.132 26.4 124.66 25.9435C125.189 25.4871 125.415 24.8786 125.415 24.0418C125.415 23.2811 125.189 22.5965 124.66 22.2161Z" fill="#0067B2"/>
<path d="M44.3983 44.0492C43.9452 43.8971 43.5677 43.6689 43.2656 43.3646L43.5677 42.756C43.7942 42.9842 44.1717 43.2124 44.5493 43.3646C45.0023 43.5167 45.3799 43.5928 45.8329 43.5928C46.437 43.5928 46.8901 43.4407 47.2676 43.2124C47.5696 42.9842 47.7207 42.68 47.7207 42.2996C47.7207 41.9953 47.6451 41.7671 47.4941 41.615C47.3431 41.4628 47.1166 41.3107 46.8901 41.2346C46.6635 41.1586 46.286 41.0825 45.8329 40.9303C45.3044 40.7782 44.9268 40.7021 44.5493 40.55C44.2472 40.3979 43.9452 40.2457 43.7187 40.0175C43.4922 39.7893 43.4166 39.4089 43.4166 38.9525C43.4166 38.5722 43.4922 38.2679 43.7187 37.9636C43.8697 37.6593 44.1717 37.4311 44.5493 37.279C44.9268 37.1269 45.3799 37.0508 45.9839 37.0508C46.3615 37.0508 46.739 37.1269 47.1921 37.2029C47.5696 37.279 47.8717 37.4311 48.1737 37.6593L47.9472 38.2679C47.6451 38.0397 47.3431 37.9636 47.0411 37.8115C46.739 37.7354 46.3615 37.6593 46.0595 37.6593C45.4554 37.6593 45.0023 37.8115 44.7003 38.0397C44.3983 38.2679 44.2472 38.5722 44.2472 38.9525C44.2472 39.2568 44.3228 39.485 44.4738 39.6372C44.6248 39.7893 44.8513 39.9414 45.0778 40.0175C45.3044 40.0936 45.6819 40.1697 46.135 40.3218C46.6635 40.4739 47.0411 40.55 47.3431 40.7021C47.6451 40.8543 47.9472 41.0064 48.1737 41.2346C48.4002 41.4628 48.4757 41.8432 48.4757 42.2235C48.4757 42.6039 48.4002 42.9082 48.1737 43.2124C47.9472 43.5167 47.7207 43.7449 47.2676 43.8971C46.8901 44.0492 46.3615 44.1253 45.8329 44.1253C45.3799 44.2774 44.8513 44.2014 44.3983 44.0492Z" fill="#0067B2"/>
<path d="M55.7992 43.8231C55.2706 43.5188 54.8176 43.0624 54.5156 42.5299C54.2135 41.9974 54.0625 41.3888 54.0625 40.7042C54.0625 40.0196 54.2135 39.411 54.5156 38.8785C54.8176 38.346 55.2706 37.8896 55.7992 37.5853C56.3278 37.281 57.0073 37.1289 57.6869 37.1289C58.2155 37.1289 58.6685 37.205 59.1216 37.3571C59.5746 37.5093 59.9522 37.8135 60.2542 38.1178L59.8012 38.5742C59.2726 38.0417 58.593 37.7375 57.7624 37.7375C57.2339 37.7375 56.7053 37.8896 56.2523 38.1178C55.7992 38.346 55.4217 38.7264 55.1951 39.1828C54.9686 39.6392 54.8176 40.0956 54.8176 40.7042C54.8176 41.2367 54.9686 41.7692 55.1951 42.2256C55.4217 42.682 55.7992 42.9863 56.2523 43.2906C56.7053 43.5948 57.2339 43.6709 57.7624 43.6709C58.593 43.6709 59.2726 43.3666 59.8012 42.8341L60.2542 43.2906C59.9522 43.5948 59.5746 43.8991 59.1216 44.0513C58.6685 44.2034 58.2155 44.2795 57.6869 44.2795C57.0073 44.2795 56.3278 44.1273 55.7992 43.8231Z" fill="#0067B2"/>
<path d="M72.1866 37.2031V44.2016H71.4315V40.9306H67.052V44.2016H66.2969V37.2031H67.052V40.322H71.4315V37.2031H72.1866Z" fill="#0067B2"/>
<path d="M80.1937 43.8231C79.6652 43.5188 79.2121 43.0624 78.9101 42.5299C78.608 41.9974 78.457 41.3888 78.457 40.7042C78.457 40.0196 78.608 39.411 78.9101 38.8785C79.2121 38.346 79.6652 37.8896 80.1937 37.5853C80.7223 37.281 81.4019 37.1289 82.0815 37.1289C82.761 37.1289 83.3651 37.281 83.9692 37.5853C84.4978 37.8896 84.9508 38.346 85.2528 38.8785C85.5549 39.411 85.7059 40.0196 85.7059 40.7042C85.7059 41.3888 85.5549 41.9974 85.2528 42.5299C84.9508 43.0624 84.4978 43.5188 83.9692 43.8231C83.4406 44.1273 82.761 44.2795 82.0815 44.2795C81.4019 44.2795 80.7223 44.1273 80.1937 43.8231ZM83.5916 43.2906C84.0447 43.0624 84.4222 42.682 84.6488 42.2256C84.8753 41.7692 85.0263 41.3128 85.0263 40.7042C85.0263 40.1717 84.8753 39.6392 84.6488 39.1828C84.4222 38.7264 84.0447 38.4221 83.5916 38.1178C83.1386 37.8896 82.6855 37.7375 82.0815 37.7375C81.4774 37.7375 81.0243 37.8896 80.5713 38.1178C80.1182 38.346 79.7407 38.7264 79.5142 39.1828C79.2876 39.6392 79.1366 40.0956 79.1366 40.7042C79.1366 41.2367 79.2876 41.7692 79.5142 42.2256C79.7407 42.682 80.1182 42.9863 80.5713 43.2906C81.0243 43.5948 81.5529 43.6709 82.0815 43.6709C82.61 43.6709 83.1386 43.5188 83.5916 43.2906Z" fill="#0067B2"/>
<path d="M91.8945 37.2031H92.6496V43.593H96.5761V44.2016H91.97V37.2031H91.8945Z" fill="#0067B2"/>
<path d="M106.761 42.3779H102.91L102.079 44.2797H101.324L104.496 37.2812H105.251L108.422 44.2797H107.667L106.761 42.3779ZM106.459 41.7694L104.798 37.9659L103.136 41.7694H106.459Z" fill="#0067B2"/>
<path d="M118.852 44.2776L117.266 41.9955C117.115 41.9955 116.889 41.9955 116.738 41.9955H114.775V44.2016H114.02V37.2031H116.662C117.568 37.2031 118.248 37.4313 118.777 37.8117C119.305 38.192 119.532 38.8006 119.532 39.5613C119.532 40.0938 119.381 40.5502 119.154 40.9306C118.852 41.3109 118.475 41.6152 117.946 41.7673L119.683 44.2016H118.852V44.2776ZM118.248 40.9306C118.626 40.6263 118.777 40.1699 118.777 39.6374C118.777 39.1049 118.626 38.6485 118.248 38.3442C117.871 38.0399 117.342 37.8878 116.662 37.8878H114.775V41.387H116.662C117.342 41.387 117.871 41.2348 118.248 40.9306Z" fill="#0067B2"/>
<path d="M126.25 44.0492C125.797 43.8971 125.419 43.6689 125.117 43.3646L125.419 42.756C125.646 42.9842 126.023 43.2124 126.401 43.3646C126.854 43.5167 127.231 43.5928 127.685 43.5928C128.289 43.5928 128.742 43.4407 129.119 43.2124C129.421 42.9842 129.572 42.68 129.572 42.2996C129.572 41.9953 129.497 41.7671 129.346 41.615C129.195 41.4628 128.968 41.3107 128.742 41.2346C128.515 41.1586 128.138 41.0825 127.685 40.9303C127.156 40.7782 126.778 40.7021 126.401 40.55C126.099 40.3979 125.797 40.2457 125.57 40.0175C125.344 39.7893 125.268 39.4089 125.268 38.9525C125.268 38.5722 125.344 38.2679 125.57 37.9636C125.721 37.6593 126.023 37.4311 126.401 37.279C126.778 37.1269 127.231 37.0508 127.836 37.0508C128.213 37.0508 128.591 37.1269 129.044 37.2029C129.421 37.279 129.723 37.4311 130.025 37.6593L129.799 38.2679C129.497 38.0397 129.195 37.9636 128.893 37.8115C128.591 37.7354 128.213 37.6593 127.911 37.6593C127.307 37.6593 126.854 37.8115 126.552 38.0397C126.25 38.2679 126.099 38.5722 126.099 38.9525C126.099 39.2568 126.174 39.485 126.325 39.6372C126.476 39.7893 126.703 39.9414 126.929 40.0175C127.156 40.0936 127.533 40.1697 127.987 40.3218C128.515 40.4739 128.893 40.55 129.195 40.7021C129.497 40.8543 129.799 41.0064 130.025 41.2346C130.252 41.4628 130.327 41.8432 130.327 42.2235C130.327 42.6039 130.252 42.9082 130.025 43.2124C129.799 43.5167 129.572 43.7449 129.119 43.8971C128.742 44.0492 128.213 44.1253 127.685 44.1253C127.231 44.2774 126.703 44.2014 126.25 44.0492Z" fill="#0067B2"/>
<path d="M36.1688 40.3223H0V40.9308H36.1688V40.3223Z" fill="#0067B2"/>
<path d="M133.644 28.2973H130.473L130.624 27.8409C130.926 27.0042 132.134 25.787 132.36 25.5588C133.493 23.9614 136.287 22.8203 136.362 22.8203L136.664 23.5049C136.664 23.5049 133.946 24.646 132.964 26.0152L132.889 26.0913C132.587 26.3195 131.983 27.0042 131.605 27.6127H132.964V26.2435L133.115 26.1674C133.795 25.6349 136.136 23.8853 137.117 24.0374L136.966 24.7221C136.589 24.646 135.003 25.5588 133.72 26.5477L133.644 28.2973Z" fill="#0067B2"/>
<path d="M166.271 21.0674L165.516 21.3717C165.516 13.8408 169.593 11.7869 169.744 11.7108L169.895 11.6348L171.33 12.4715L170.952 13.0801L169.895 12.4715C169.593 12.6997 168.838 13.1562 168.158 14.2211C167.328 15.4383 166.271 17.34 166.271 21.0674Z" fill="#0067B2"/>
<path d="M192.845 20.5438L192.165 20.2395L192.694 19.0985C192.165 19.1746 191.41 19.3267 191.032 19.7831L190.504 19.2506C191.41 18.2617 193.298 18.2617 193.373 18.2617H193.902L192.845 20.5438Z" fill="#0067B2"/>
<path d="M183.638 36.4386L183.713 35.9061C183.789 34.7651 184.393 33.1676 184.393 33.0916L184.619 32.5591L185.676 33.624L186.28 33.0155L185.525 30.0488C185.148 30.0488 184.544 30.2009 184.091 30.6573C183.185 31.5702 181.372 31.1898 181.297 31.1898L181.448 30.5052C181.901 30.5812 183.109 30.6573 183.638 30.2009C184.544 29.3641 185.827 29.3641 185.903 29.3641H186.205L187.187 33.3198L185.752 34.689L185.072 33.9283C184.921 34.3087 184.77 34.9172 184.695 35.4497L185.903 35.0694L187.564 33.8523C187.866 32.3309 188.168 28.6795 186.885 27.6906L187.338 27.082C189.301 28.6034 188.244 33.9283 188.244 34.1565V34.3087L186.28 35.754L183.638 36.4386Z" fill="#0067B2"/>
<path d="M188.401 38.6434L188.25 38.4152C188.25 38.3391 187.57 37.4263 188.325 35.6767L188.476 35.3724L190.137 35.7527L191.421 35.2963C191.496 34.6117 191.572 33.2424 191.421 32.7099C191.194 31.7971 189.533 31.4928 188.929 31.4167L189.005 30.656C189.156 30.656 191.799 30.8082 192.176 32.4817C192.403 33.3946 192.176 35.5245 192.176 35.6006V35.8288L190.288 36.4374L189.08 36.1331C188.854 36.8177 188.854 37.2741 188.929 37.5784L190.288 36.8938L192.327 36.3613C192.554 35.9049 193.384 34.0792 193.007 30.8843L193.762 30.5039C194.29 34.5356 192.931 36.7416 192.931 36.8938L192.856 37.0459L190.515 37.5784L188.401 38.6434Z" fill="#0067B2"/>
<path d="M179.177 34.8417L179.102 34.081C182.273 33.7007 183.859 31.875 183.859 31.875L184.387 32.3314C184.312 32.4075 182.575 34.3853 179.177 34.8417Z" fill="#0067B2"/>
<path d="M142.331 35.834L141.5 34.6168L141.953 34.4647C142.029 34.4647 142.784 34.2365 143.312 34.4647L143.01 35.1493C142.935 35.0733 142.784 35.0733 142.708 35.0733L142.935 35.4536L142.331 35.834Z" fill="#0067B2"/>
<path d="M141.584 27.0809C141.206 27.0809 140.904 27.0048 140.753 27.0048H139.092C137.959 27.0048 137.506 25.7877 137.506 25.7877V25.6356L137.431 21.9081C137.355 21.2235 137.506 20.691 137.808 20.3867C138.186 20.0064 138.639 20.0064 138.714 20.0064H141.735C140.829 15.6704 141.357 9.28053 141.433 8.06341C141.206 7.8352 140.904 7.60699 140.527 7.37878C140.149 7.15057 139.847 6.92236 139.621 6.69415C139.092 6.23773 138.639 5.85738 138.186 5.47703C138.035 5.32489 137.733 5.24882 137.431 5.24882C136.978 5.17275 136.6 4.94454 136.449 4.48812C136.298 4.10778 136.223 3.72743 136.223 3.34708C136.223 2.81459 136.525 2.51031 136.751 2.2821L136.902 2.12996C136.978 2.05389 137.053 1.97782 137.053 1.97782C137.431 1.5214 137.959 1.36926 138.488 1.5214C139.47 1.90175 140.451 1.97782 141.584 2.05389C141.886 2.05389 142.188 2.12996 142.49 2.12996C142.867 2.12996 143.169 2.20603 143.547 2.2821L144.604 0L144.982 0.532489C144.982 0.608559 145.737 1.59747 145.435 2.96673C146.039 3.65136 146.265 4.25992 146.869 6.08559C147.247 7.22664 147.776 8.74804 148.606 11.1062C149.588 13.9208 151.778 16.2029 154.647 17.6482C156.006 18.3328 157.441 18.7132 158.951 19.0935L159.102 19.1696C161.292 19.7782 163.934 20.9192 165.445 21.8321L164.992 22.5167C163.481 21.6799 161.065 20.4628 158.951 19.8542L158.8 19.7782C157.214 19.3978 155.779 18.9414 154.345 18.2568C151.324 16.7354 149.059 14.3011 148.002 11.3344C147.171 8.97625 146.643 7.45485 146.265 6.3138C145.661 4.41206 145.51 3.95564 144.906 3.34708L144.831 3.27101L144.604 3.11887L144.68 2.96673C144.831 2.43424 144.755 1.97782 144.68 1.59747L144 3.11887H143.698C143.245 3.0428 142.867 2.96673 142.49 2.96673C142.188 2.96673 141.886 2.89066 141.584 2.89066C140.527 2.81459 139.394 2.73852 138.337 2.2821C138.11 2.20603 137.884 2.2821 137.733 2.51031C137.657 2.58638 137.582 2.73852 137.431 2.81459L137.28 2.96673C137.053 3.19494 136.978 3.27101 136.978 3.49922C136.978 3.8035 136.978 4.03171 137.129 4.33599C137.204 4.48812 137.28 4.56419 137.582 4.64026C138.035 4.71633 138.412 4.7924 138.639 5.02061C139.168 5.40096 139.621 5.78131 140.149 6.23773C140.376 6.38987 140.678 6.61808 140.98 6.84629C141.357 7.15057 141.81 7.45485 142.112 7.68306L142.263 7.8352V7.98734C142.263 8.06341 141.508 15.7465 142.641 20.3107L142.792 20.7671L138.865 20.691C138.865 20.691 138.639 20.691 138.488 20.8432C138.337 20.9953 138.261 21.3756 138.337 21.8321L138.412 25.5595C138.488 25.7116 138.79 26.3202 139.319 26.3202H141.131C141.433 26.3963 142.188 26.4723 142.716 26.2441L142.112 25.4834C141.886 25.5595 141.357 25.6356 141.131 26.092L141.055 26.3202H139.319L139.243 26.0159C139.168 25.7877 139.092 25.5595 139.092 25.4074C139.016 25.4074 138.941 25.3313 138.865 25.2552C138.79 25.1791 138.563 24.9509 138.79 23.6577L138.865 23.4295L139.092 23.3535C139.847 23.1253 142.263 22.4406 142.943 22.7449C143.018 22.7449 143.245 22.821 143.472 22.897C144.604 23.1253 146.718 23.4295 148.984 25.4074L148.531 25.9398C146.416 24.1142 144.378 23.7338 143.321 23.5817C143.018 23.5056 142.792 23.5056 142.641 23.4295C142.339 23.3535 140.829 23.6577 139.47 24.0381C139.394 24.3424 139.394 24.5706 139.394 24.7227C139.545 24.7988 139.696 25.027 139.847 25.5595H140.527C141.055 24.7988 142.112 24.7227 142.188 24.7227H142.339L143.623 26.3202L143.396 26.5484C142.867 26.9287 142.188 27.0809 141.584 27.0809Z" fill="#0067B2"/>
<path d="M150.868 13.9219L150.717 13.6937C150.339 13.0091 149.962 12.3244 149.584 11.5637C148.98 10.2705 148.527 8.90128 148.074 7.6081C147.847 6.8474 147.545 6.0867 147.243 5.326V5.24993C147.017 4.64137 146.79 4.10888 146.488 3.50032L145.884 4.10888L145.355 3.57639L146.639 2.2832L146.866 2.66355C147.319 3.34818 147.621 4.18495 147.923 4.94565V5.02172C148.225 5.78242 148.451 6.54312 148.753 7.30382C149.206 8.59701 149.659 9.89019 150.264 11.1834C150.641 11.9441 151.019 12.6287 151.396 13.2373L151.547 13.4655L150.868 13.9219Z" fill="#0067B2"/>
<path d="M168.302 20.2283L167.547 20.5326C167.547 20.3044 167.849 14.3709 170.869 12.5453C170.869 11.6324 170.869 11.3281 171.096 10.7196L171.398 9.88281L171.775 10.6435C171.775 10.6435 172.077 11.176 172.53 11.5564C174.267 11.2521 174.418 11.7085 174.494 11.8606C174.569 12.0128 174.871 12.241 175.173 12.3931L176.079 12.4692C176.306 12.4692 176.91 12.3931 177.137 12.3931C177.967 12.317 178.496 12.6213 178.873 13.382C178.873 13.382 178.873 13.4581 178.949 13.4581C179.402 14.2188 179.175 14.7513 178.949 15.0556C178.647 15.512 178.118 15.7402 177.514 15.6641C177.363 15.6641 176.986 15.6641 176.91 15.7402C176.608 15.9684 174.871 17.2616 172.757 16.9573C172.606 17.4898 172.455 18.4787 172.455 18.9351L171.7 19.0873C171.7 18.3266 172.077 16.577 172.077 16.5009L172.153 16.1205L172.53 16.1966C174.645 16.653 176.457 15.2077 176.457 15.1316L176.532 15.0556C176.759 14.9034 177.363 14.9034 177.514 14.9034C177.892 14.9034 178.118 14.8274 178.269 14.5991C178.42 14.447 178.496 14.2188 178.269 13.7624C178.194 13.6863 178.194 13.6102 178.194 13.5342C177.967 13.0777 177.741 12.9256 177.212 12.9256C176.91 12.9256 176.381 13.0017 176.079 13.0017L174.947 12.9256L174.871 12.8495C174.72 12.7735 174.116 12.3931 173.89 11.9367C173.663 11.8606 173.059 11.9367 172.53 12.0128H172.379L172.228 11.9367C171.926 11.7846 171.7 11.5564 171.549 11.4042C171.549 11.6324 171.549 11.9367 171.549 12.3931V13.0017L171.322 13.0777C168.528 14.5231 168.302 20.1522 168.302 20.2283Z" fill="#0067B2"/>
<path d="M161.739 41.456L161.059 40.9236C160.984 40.6953 160.984 40.3911 160.833 40.1629C160.304 39.4022 159.021 38.6415 158.19 38.2611L158.039 38.185L158.568 37.8047L158.719 37.8808C159.398 38.185 160.229 38.5654 160.908 39.25C161.512 39.8586 161.815 40.6193 161.739 41.456Z" fill="#0067B2"/>
<path d="M153.213 38.1077C153.138 38.1077 153.138 38.0316 153.062 38.0316C152.534 37.8034 152.383 37.423 152.383 37.1948C152.383 36.9666 152.383 36.5863 152.76 36.2059C152.987 35.9777 153.289 35.7495 153.515 35.5973C153.591 35.5213 153.742 35.4452 153.817 35.3691L154.271 35.9777C154.195 36.0538 154.044 36.1298 153.968 36.2059C153.742 36.358 153.515 36.5863 153.289 36.7384C153.138 36.8905 153.062 36.9666 153.062 37.0427C153.062 37.1187 153.213 37.1948 153.364 37.347C153.44 37.347 153.44 37.423 153.515 37.423L153.213 38.1077Z" fill="#0067B2"/>
<path d="M172.303 42.3629L172.228 42.1347C172.228 42.1347 171.774 41.2218 172.076 40.4611C172.303 39.9286 172.756 39.6244 173.36 39.3961L173.511 39.3201L173.964 39.6244C174.191 39.7765 174.417 39.9286 174.644 40.0808C174.795 40.1568 174.795 40.1568 174.87 40.0808C175.248 39.7004 175.625 39.5483 176.003 39.4722C176.758 39.244 177.287 38.7115 177.891 38.103C177.891 38.103 177.966 38.0269 177.966 37.9508C177.966 37.8747 177.891 37.8747 177.815 37.7987C177.664 37.6465 177.513 37.5705 177.287 37.4944C176.607 37.1901 175.852 36.8858 175.172 36.5816L174.719 36.4294C174.644 36.8098 174.493 37.1901 174.417 37.5705C174.266 38.103 174.115 38.6354 174.04 39.0919L173.36 38.8637C173.511 38.4072 173.662 37.8747 173.738 37.3423C173.889 36.8098 174.04 36.2773 174.115 35.8209L174.191 35.4405L174.644 35.5927C174.719 35.5927 174.719 35.5927 174.795 35.6687L175.399 35.8969C176.078 36.2012 176.834 36.5055 177.513 36.8098C177.815 36.8858 178.042 37.038 178.193 37.2662C178.419 37.4944 178.57 37.7226 178.57 37.9508C178.57 38.103 178.57 38.4072 178.268 38.6354C177.74 39.1679 176.985 39.9286 176.078 40.1568C175.701 40.2329 175.474 40.3851 175.248 40.6133C174.946 40.9175 174.493 40.9936 174.115 40.6893C173.889 40.5372 173.662 40.3851 173.436 40.309C173.36 40.309 173.285 40.2329 173.285 40.2329C172.907 40.3851 172.681 40.5372 172.605 40.7654C172.454 41.0697 172.53 41.45 172.605 41.6022H173.285C173.511 41.6022 173.738 41.6022 173.964 41.6022L174.493 41.5261C174.87 41.5261 175.248 41.45 175.55 41.374C175.776 41.374 175.927 41.2979 176.078 41.1458C176.532 40.8415 176.909 40.4611 177.287 40.0808C177.74 39.7004 178.268 39.244 178.721 38.8637C179.174 38.4833 179.401 38.103 179.401 37.7226C179.401 37.3423 179.25 36.9619 178.872 36.5816C178.646 36.3534 178.419 36.1251 178.117 35.973L177.966 35.8969C176.758 34.908 175.927 33.843 175.248 32.7781C174.568 31.637 174.266 30.496 174.266 29.431C174.191 26.3121 179.325 23.1933 179.552 23.1172L179.929 23.7257C179.854 23.7257 174.946 26.7685 174.946 29.431C174.946 30.4199 175.248 31.4088 175.852 32.3977C176.456 33.4627 177.287 34.3755 178.419 35.3644L178.57 35.4405C178.797 35.6687 179.099 35.8969 179.325 36.1251C179.854 36.6576 180.156 37.2662 180.08 37.8748C180.08 38.4833 179.703 39.0919 179.099 39.5483C178.646 39.9286 178.117 40.309 177.664 40.7654C177.287 41.1458 176.834 41.45 176.381 41.8304C176.154 42.0586 175.776 42.1347 175.55 42.2107C175.172 42.2868 174.795 42.2868 174.417 42.3629L173.889 42.4389C173.662 42.4389 173.36 42.515 173.134 42.4389L172.303 42.3629Z" fill="#0067B2"/>
<path d="M191.862 30.8114C191.786 30.8114 191.786 30.8114 191.711 30.8114C191.409 30.8114 191.031 30.6593 190.729 30.1268V30.0507C190.729 29.8986 190.502 28.7575 190.729 28.0729C190.804 27.7686 190.502 27.084 190.276 26.7797L190.2 26.7036L189.823 25.5626C189.672 25.5626 189.445 25.4865 189.219 25.3344L189.37 28.8336L190.2 28.9857V29.7464L188.69 29.5182L188.464 22.9762L189.219 24.3455C189.521 24.954 190.049 24.954 190.125 24.954H190.427L190.502 25.2583L190.88 26.5515C191.106 26.8558 191.711 27.7686 191.409 28.5293C191.258 28.9097 191.333 29.6704 191.409 30.0507C191.56 30.2789 191.711 30.355 191.786 30.355C192.239 30.4311 192.994 29.8225 193.372 29.4421L193.976 21.5309L194.127 21.4548C194.655 21.0745 195.259 20.1616 195.637 19.5531L194.127 19.6291L194.051 19.4009C193.749 18.5642 193.221 17.9556 192.541 17.7274C191.56 17.4231 190.427 17.6513 189.068 18.412C187.935 19.0206 186.878 19.8573 185.896 20.618C185.745 20.7702 185.519 20.9223 185.368 21.0745C184.16 22.0634 182.725 23.1283 181.215 23.6608L180.988 22.9762C182.423 22.5198 183.782 21.4548 184.915 20.542C185.066 20.3898 185.292 20.2377 185.443 20.0855C186.5 19.2488 187.558 18.412 188.766 17.8035C190.276 17.0428 191.635 16.7385 192.768 17.1188C193.598 17.347 194.278 18.0317 194.655 19.0206L196.996 18.8684L196.694 19.477C196.619 19.5531 195.637 21.3027 194.731 22.0634L194.051 29.4421L193.976 29.5182C193.9 29.6704 192.843 30.8114 191.862 30.8114Z" fill="#0067B2"/>
<path d="M183.401 20.5372L183.023 19.9286C183.779 19.4722 184.458 18.8636 185.138 18.4072C185.289 18.2551 185.515 18.1029 185.666 17.9508C186.723 17.114 187.781 16.2772 188.989 15.6687C190.499 14.908 191.858 14.6037 192.991 14.9841C194.048 15.2883 195.105 16.5055 195.407 17.4183L195.558 17.7986L193.897 18.1029L193.746 17.4183L194.576 17.2662C194.199 16.5815 193.444 15.8969 192.84 15.6687C191.858 15.3644 190.725 15.5926 189.366 16.3533C188.234 16.9619 187.176 17.7986 186.195 18.5593C186.044 18.7115 185.817 18.8636 185.666 19.0158C184.911 19.4722 184.156 20.0807 183.401 20.5372Z" fill="#0067B2"/>
<path d="M166.042 23.3518L165.438 22.8954C167.627 20.0047 174.272 19.244 174.499 19.244L174.876 19.168V20.9936H174.121V20.0047C172.762 20.2329 167.703 21.1458 166.042 23.3518Z" fill="#0067B2"/>
<path d="M162.116 46.552C162.041 46.552 161.965 46.552 161.814 46.4759C161.059 46.1717 160.531 45.7152 160.153 45.1067C160.002 44.8024 159.927 44.346 160.153 43.8896C159.7 43.7374 159.323 43.4331 159.02 42.9007C159.02 42.9007 158.945 42.8246 158.869 42.7485L158.794 42.6724C157.661 41.7596 156.378 40.6946 154.867 40.01C154.716 39.9339 154.565 39.8579 154.414 39.7818L154.339 39.7057C153.81 39.3254 153.206 38.945 153.659 37.7279C154.112 36.4347 154.565 35.2937 155.018 34.1526C155.17 33.8483 155.018 33.6962 154.943 33.6201C154.792 33.5441 154.641 33.468 154.414 33.3919L154.263 33.3158C152.98 32.8594 151.998 32.0227 151.47 30.8055C150.941 29.5884 151.017 28.1431 151.092 26.8499C150.639 27.2303 150.412 27.991 150.337 28.2952C150.11 29.132 150.337 29.9688 150.563 30.8816C150.79 31.7944 151.017 32.7834 150.79 33.7723C150.639 34.4569 150.186 34.9894 149.808 35.5219C149.657 35.7501 149.506 35.9022 149.355 36.1304C148.978 36.6629 148.978 37.2715 148.902 37.88C148.902 38.1843 148.902 38.4125 148.827 38.7168L148.676 39.6297L148.147 38.8689C147.845 38.4886 147.619 37.9561 147.317 37.1954C147.015 36.2826 146.939 35.5219 147.166 34.9133C147.241 34.6851 147.317 34.4569 147.468 34.3048C147.543 34.1526 147.619 34.0765 147.619 33.9244C147.921 33.1637 147.619 32.4791 147.317 31.6423C147.166 31.338 147.09 31.0338 146.939 30.7295C146.41 28.9038 147.015 26.6217 148.449 25.6328C149.204 25.1003 150.035 25.1003 150.865 25.1003C151.621 25.1003 152.3 25.1003 152.753 24.6439C154.716 23.0464 157.284 22.4379 160.078 23.0464C161.437 23.3507 162.871 23.5789 164.457 23.8071C165.061 23.8832 165.59 23.8071 166.043 23.5789C166.42 23.1986 169.063 20.7643 174.651 20.384C174.877 19.0908 176.01 18.5583 176.086 18.5583L176.539 18.3301L176.69 20.384H177.973L178.653 20.6882L180.541 20.46C180.616 20.46 180.616 20.46 180.692 20.46C180.918 20.384 181.22 20.3079 181.522 20.46C181.9 20.6122 181.975 21.1447 181.975 21.3729L181.296 21.6011C181.296 21.4489 181.22 21.1447 181.145 21.0686C181.069 21.0686 180.918 21.0686 180.843 21.1447C180.767 21.1447 180.692 21.1447 180.616 21.1447L178.502 21.4489L177.822 21.0686H176.086L175.934 19.4711C175.632 19.6993 175.406 20.1558 175.33 20.6882V20.9925H175.028C169.214 21.2968 166.571 23.9593 166.571 24.0353L166.496 24.1114C165.892 24.4157 165.212 24.5678 164.382 24.4157C162.796 24.1875 161.286 23.9593 159.927 23.655C157.359 23.1225 154.943 23.655 153.206 25.1003C152.527 25.7089 151.696 25.7089 150.865 25.7089C150.11 25.7089 149.431 25.7089 148.902 26.1653C147.77 27.002 147.166 28.9799 147.694 30.5013C147.77 30.8055 147.921 31.0337 147.996 31.338C148.374 32.1748 148.751 33.0876 148.298 34.1526C148.223 34.3048 148.147 34.4569 148.072 34.609C147.996 34.7612 147.921 34.9894 147.845 35.1415C147.694 35.5979 147.77 36.2065 147.996 36.9672C148.072 37.1193 148.147 37.2715 148.147 37.4236C148.223 36.8911 148.298 36.2826 148.676 35.7501C148.827 35.5219 148.978 35.2937 149.129 35.0655C149.506 34.609 149.808 34.1526 149.959 33.6201C150.186 32.7834 149.959 31.9466 149.733 31.0338C149.506 30.1209 149.28 29.132 149.506 28.067C149.657 27.4585 150.186 25.9371 151.394 25.861H151.847L151.772 26.6978C151.696 27.991 151.545 29.2841 152.074 30.3491C152.527 31.338 153.433 32.0987 154.414 32.4791L154.565 32.5551C154.792 32.6312 155.094 32.7073 155.321 32.9355C155.698 33.2398 155.849 33.7723 155.623 34.3048C155.17 35.4458 154.716 36.5869 154.263 37.804C154.037 38.4125 154.188 38.5647 154.641 38.945L154.716 39.0211C154.792 39.0972 154.867 39.0972 155.018 39.1732C156.604 39.8579 157.963 40.9989 159.171 41.9117L159.247 41.9878C159.322 42.0639 159.474 42.14 159.549 42.2921C159.776 42.7485 160.153 42.9767 160.531 43.0528C160.682 43.0528 160.757 43.1289 160.833 43.2049C160.833 43.2049 160.833 43.2049 160.908 43.2049L161.21 43.4331L160.984 43.8135C160.984 43.8896 160.908 43.8896 160.908 43.9656C160.682 44.1938 160.682 44.4221 160.757 44.5742C160.984 45.0306 161.361 45.3349 161.965 45.5631C162.267 44.346 162.041 43.4331 161.361 42.6724C159.096 40.0861 156.378 38.2604 156.378 38.2604L156 38.0322L156.982 37.1954C157.284 36.8911 157.51 36.5869 157.812 36.2826C158.341 35.5979 158.869 34.9133 159.7 34.533C160.229 34.3048 160.606 33.8483 160.833 33.2398L160.984 32.8594L161.663 33.1637C161.89 33.2398 162.116 33.3158 162.267 33.468C164.759 34.609 167.326 35.0655 169.894 34.9133C169.969 34.9133 170.045 34.9133 170.12 34.9133C171.026 34.8372 171.328 34.9133 171.63 35.8262C171.781 36.2065 171.857 36.5869 171.857 37.0433C171.857 38.0322 171.857 39.0211 171.781 40.0861C171.781 40.5425 171.706 41.075 171.555 41.5314C171.253 42.7485 170.12 43.7374 168.837 43.8896C168.459 43.9656 168.082 44.0417 167.628 44.1938C167.477 44.2699 167.251 44.2699 167.024 44.1938C166.798 44.0417 166.722 43.8135 166.722 43.7374C166.571 43.281 166.043 42.9007 165.59 42.9767C165.288 43.0528 164.986 43.2049 164.684 43.3571C164.684 43.3571 164.608 43.3571 164.608 43.4331C164.684 43.5092 164.759 43.5092 164.759 43.5853L165.137 43.8896C165.363 44.0417 165.59 44.2699 165.816 44.4221C165.967 44.4981 166.118 44.5742 166.345 44.6503C166.496 44.7263 166.647 44.7263 166.798 44.7263C167.024 44.8024 167.251 44.8024 167.477 44.9545C167.931 45.1067 168.384 45.1067 168.837 44.8024C169.743 44.2699 170.649 43.7374 171.479 43.3571C171.706 43.2049 172.008 43.1289 172.084 42.9007L172.839 42.9767C172.612 43.4331 172.084 43.8135 171.781 43.9656C170.951 44.346 170.045 44.8785 169.214 45.411C168.61 45.7913 167.931 45.8674 167.251 45.6392C167.1 45.5631 166.873 45.487 166.647 45.487C166.496 45.411 166.345 45.411 166.194 45.3349C165.967 45.2588 165.741 45.1828 165.514 45.0306C165.288 44.8785 164.986 44.6503 164.759 44.4981L164.382 44.1938C164.231 44.1178 164.155 44.0417 164.004 43.8896C163.853 43.7374 163.778 43.5092 163.778 43.3571C163.778 43.2049 163.929 42.9767 164.155 42.9007C164.231 42.8246 164.306 42.8246 164.382 42.7485C164.759 42.5964 165.061 42.3682 165.439 42.2921C166.194 42.14 167.175 42.7485 167.402 43.5092C167.855 43.3571 168.308 43.2049 168.761 43.1289C169.743 42.9767 170.649 42.216 170.875 41.3032C170.951 40.9228 171.026 40.4664 171.026 40.01C171.102 39.0211 171.102 38.0322 171.102 37.0433C171.102 36.739 171.026 36.3586 170.951 36.0544C170.8 35.5219 170.8 35.5219 170.196 35.5979C170.12 35.5979 169.969 35.5979 169.894 35.5979C167.175 35.7501 164.533 35.2937 161.89 34.1526C161.663 34.0765 161.512 34.0005 161.286 33.9244C160.984 34.533 160.531 34.9894 160.002 35.2937C159.322 35.674 158.869 36.2065 158.341 36.8911C158.039 37.2715 157.812 37.5758 157.435 37.9561L157.133 38.1843C157.963 38.7929 160.002 40.3143 161.89 42.4442C162.72 43.3571 162.947 44.5742 162.645 46.0195C162.645 46.0956 162.569 46.3999 162.267 46.552C162.267 46.552 162.192 46.552 162.116 46.552Z" fill="#0067B2"/>
<path d="M151.918 45.7984H151.012H150.937C150.71 45.7223 150.635 45.5702 150.559 45.418C150.559 45.2659 150.484 45.1138 150.635 44.8856L150.71 44.8095C150.786 44.6573 150.861 44.5052 151.088 44.3531C151.239 44.2009 151.39 44.0488 151.39 43.8206C151.39 43.7445 151.465 43.6684 151.465 43.5163C151.465 43.4402 151.541 43.3642 151.541 43.2881C151.692 42.5274 151.692 41.9188 151.39 41.3103L151.314 41.0821C151.163 40.8539 151.088 40.6256 151.012 40.3974C150.937 40.1692 150.861 40.0171 150.861 39.7889C150.786 39.8649 150.635 39.8649 150.559 39.941C150.031 40.0932 149.578 40.3214 148.974 40.2453C148.898 40.3214 148.898 40.3974 148.747 40.6256C148.596 40.9299 148.521 41.2342 148.445 41.5385C148.294 41.9188 148.219 42.3753 147.917 42.7556C147.69 43.136 147.539 43.4402 147.69 43.8206C147.765 43.9727 147.765 44.277 147.463 44.5052C147.463 44.6574 147.463 44.8095 147.463 44.8856C147.388 45.1138 147.161 45.1898 147.01 45.2659C146.859 45.342 146.784 45.342 146.633 45.342L146.406 45.418H146.104H146.029C145.953 45.418 145.878 45.418 145.802 45.342C145.5 45.2659 145.425 45.1138 145.349 45.0377C145.274 44.9616 145.274 44.7334 145.425 44.5052C145.425 44.4291 145.5 44.4291 145.5 44.3531C145.651 44.1249 145.727 43.8967 145.953 43.7445C146.255 43.5163 146.406 43.212 146.482 42.7556V42.5274C146.557 41.9949 146.633 41.3863 146.935 40.8539C147.01 40.7017 147.01 40.6256 146.784 40.3214C146.708 40.2453 146.633 40.1692 146.633 40.0932C146.18 40.4735 145.349 40.8539 144.972 40.9299C144.745 40.9299 144.519 41.0821 144.292 41.1581H144.217C144.217 41.2342 144.292 41.3103 144.368 41.3863C144.443 41.4624 144.443 41.5385 144.519 41.6146C144.519 41.6906 144.594 41.6906 144.594 41.6906C144.745 41.6146 144.896 41.6146 144.972 41.6146C145.576 41.6906 145.878 42.071 146.029 42.7556C146.029 42.9077 146.104 43.212 145.878 43.4402C145.651 43.6684 145.349 43.5924 145.198 43.5163C144.896 43.4402 144.519 43.3642 144.217 43.3642C143.688 43.3642 143.386 43.212 143.31 42.6035C143.235 42.3753 143.159 42.147 143.008 41.9188C142.782 41.6906 142.631 41.4624 142.555 41.1581C142.253 40.6256 142.48 40.2453 142.631 40.0932C142.782 39.941 143.159 39.6367 143.612 39.3325C143.764 39.1803 143.99 39.1042 144.066 39.0282L144.141 38.9521C144.519 38.6478 144.745 38.4957 144.745 38.3435C144.67 38.2675 144.67 38.1153 144.594 38.0393C144.368 37.5068 144.141 36.8982 143.764 36.4418C143.386 36.8221 143.159 37.4307 143.008 37.8871C142.933 38.1914 142.857 38.2675 142.782 38.4196C142.706 38.5718 142.555 38.8 142.404 39.4085C142.404 39.4846 142.404 39.4846 142.404 39.6367C142.404 39.7128 142.404 39.8649 142.404 39.941C142.329 40.6256 141.574 41.006 140.819 41.006C140.819 41.006 140.819 41.006 140.743 41.006C140.29 41.006 140.064 40.7778 139.913 40.6256L139.837 40.4735C139.837 40.3974 139.762 40.3974 139.762 40.3974C139.384 40.0932 139.308 39.7128 139.459 39.2564C139.762 38.5718 139.762 37.8871 139.837 37.1264C139.837 36.8982 139.913 36.67 139.913 36.5179C139.913 36.3657 139.988 36.1375 139.988 35.9854L138.629 35.7572L138.855 35.3007C138.855 35.2247 139.384 34.464 140.215 34.1597C140.29 33.399 140.668 31.1169 142.329 29.7476C143.461 28.8348 144.745 28.5305 146.482 28.8348V29.5955C144.972 29.2912 143.688 29.5955 142.782 30.2801C141.045 31.6494 140.894 34.3879 140.894 34.3879V34.6922L140.592 34.7683C140.29 34.8443 140.064 34.9965 139.837 35.1486L140.743 35.3007L140.668 35.6811C140.592 35.9854 140.592 36.2897 140.517 36.5179C140.517 36.7461 140.441 36.8982 140.441 37.1264C140.366 37.8871 140.29 38.6478 139.988 39.4846C139.913 39.6367 139.988 39.7128 140.064 39.7889C140.139 39.8649 140.215 39.941 140.29 40.0171L140.366 40.0932C140.517 40.2453 140.517 40.2453 140.668 40.2453C141.045 40.2453 141.498 40.0932 141.574 39.8649C141.574 39.7889 141.574 39.7889 141.574 39.7128C141.574 39.5607 141.574 39.4085 141.649 39.2564C141.876 38.5718 142.027 38.3435 142.102 38.1153C142.178 37.9632 142.178 37.8871 142.253 37.6589C142.48 36.9743 142.782 36.1375 143.537 35.605L143.839 35.4529L144.066 35.6811C144.594 36.2897 144.896 37.0504 145.198 37.735C145.274 37.8871 145.349 38.0393 145.425 38.1914C145.576 38.6478 145.123 39.0282 144.519 39.5607L144.443 39.6367C144.368 39.7128 144.141 39.8649 143.99 40.0171C143.688 40.2453 143.235 40.5496 143.084 40.7017C143.084 40.7017 143.008 40.7778 143.084 41.006C143.159 41.1581 143.31 41.3863 143.461 41.6146L143.537 41.6906C143.537 41.6146 143.461 41.6146 143.461 41.5385C143.386 41.3863 143.386 41.1581 143.461 41.006C143.537 40.8539 143.688 40.7017 143.839 40.6256H143.915C144.141 40.4735 144.443 40.3974 144.821 40.3214C145.198 40.2453 146.104 39.7889 146.331 39.4846C146.406 39.4085 146.482 39.3325 146.482 39.3325L146.935 39.0282L147.01 39.5607C147.01 39.7128 147.161 39.8649 147.312 40.0932C147.539 40.3974 147.841 40.8539 147.539 41.4624C147.312 41.8428 147.237 42.2992 147.161 42.7556C147.161 42.7556 147.161 42.6795 147.237 42.6795C147.463 42.3753 147.539 41.9949 147.69 41.6146C147.765 41.3103 147.917 41.006 148.068 40.6256C148.294 40.1692 148.521 39.8649 148.747 39.7889C148.898 39.7889 148.974 39.7889 149.049 39.7889C149.502 39.8649 149.88 39.7128 150.333 39.5607C150.484 39.4846 150.71 39.4085 150.861 39.4085L151.39 39.2564L151.465 39.6367C151.465 39.7128 151.541 39.8649 151.541 39.941C151.616 40.1692 151.616 40.3214 151.692 40.5496C151.767 40.7778 151.843 40.9299 151.994 41.1581L152.07 41.3863C152.372 41.9188 152.447 42.4513 152.447 43.0599C152.523 42.9077 152.598 42.7556 152.674 42.6795C152.749 42.5274 152.749 42.4513 152.674 42.3753C152.296 41.8428 152.221 41.2342 152.447 40.5496C152.598 40.1692 152.598 40.0932 152.825 39.8649L153.278 39.4085L153.504 39.8649C153.882 40.5496 154.108 40.7017 154.788 40.7778C155.241 40.8539 155.316 41.1581 155.316 41.3103C155.316 41.3863 155.392 41.4624 155.392 41.5385C155.467 41.8428 155.543 42.071 155.316 42.5274C155.165 42.9077 155.165 42.9838 155.316 43.136L155.392 42.8317C155.392 42.7556 155.769 41.8428 155.769 41.7667L156.298 42.071C156.298 42.2231 156.223 42.5274 156.147 42.6035C156.449 42.6795 156.525 42.9838 156.676 43.2881C156.751 43.4402 156.751 43.5924 156.751 43.7445L156.902 44.4291H156.449C155.92 44.4291 155.467 44.277 155.165 43.9727C154.41 43.3642 154.335 43.136 154.637 42.2231C154.712 41.9188 154.712 41.9188 154.637 41.6906C154.637 41.6146 154.561 41.5385 154.561 41.4624C153.882 41.3863 153.429 41.1581 153.051 40.6256V40.7017C152.9 41.2342 152.976 41.6146 153.202 41.9188C153.429 42.2992 153.429 42.6795 153.202 43.0599C152.976 43.3642 152.825 43.5924 152.825 43.8966C152.825 44.0488 152.825 44.277 152.825 44.4291C152.825 44.5813 152.9 44.8856 152.598 45.1138C152.674 45.2659 152.674 45.4941 152.598 45.6463C152.447 45.8745 152.221 45.9505 151.994 46.0266L151.918 45.7984ZM151.465 45.0377H151.767H151.843H151.918V44.9616C151.843 44.7334 151.918 44.4291 152.145 44.277C152.145 44.277 152.145 44.277 152.145 44.2009C152.145 44.1249 152.145 44.0488 152.145 44.0488C152.07 44.4291 151.843 44.6573 151.541 44.9616L151.465 45.0377ZM146.104 44.8095H146.255H146.331C146.406 44.8095 146.482 44.8095 146.557 44.7334C146.482 44.5052 146.633 44.277 146.784 44.1249C146.784 44.0488 146.708 43.9727 146.708 43.8966C146.557 44.1249 146.406 44.277 146.255 44.4291C146.18 44.5052 146.104 44.6573 146.029 44.8095C146.029 44.8095 146.029 44.8095 146.104 44.8095ZM155.543 42.9838C155.618 42.9838 155.618 43.0599 155.694 43.0599C155.769 43.136 155.92 43.212 156.071 43.2881C156.071 43.212 156.071 43.212 155.996 43.136C155.92 42.9838 155.92 42.9077 155.92 42.9077C155.92 42.9077 155.845 42.9077 155.769 42.9077L155.543 42.9838ZM143.99 42.7556C143.99 42.7556 144.066 42.7556 144.217 42.7556C144.594 42.7556 144.972 42.8317 145.274 42.9077C145.198 42.5274 145.047 42.4513 144.896 42.4513C144.896 42.4513 144.896 42.4513 144.821 42.4513C144.594 42.5274 144.141 42.6035 143.839 42.071C143.839 41.9949 143.764 41.9949 143.688 41.9188C143.688 41.9188 143.688 41.9188 143.688 41.8428C143.839 42.071 143.915 42.3753 143.99 42.6035C143.915 42.6795 143.915 42.7556 143.99 42.7556Z" fill="#0067B2"/>
</svg>
