<svg width="104" height="95" viewBox="0 0 104 95" fill="none" xmlns="http://www.w3.org/2000/svg">
<path d="M35.1026 54.1555C34.5557 54.0228 31.9181 52.7127 39.939 52.9129C39.939 52.9129 32.703 51.1361 31.9069 49.718C31.1953 48.4518 39.3707 50.1487 39.3685 50.1454C39.3662 50.142 32.1685 48.1988 31.3329 46.9078C30.2797 45.2806 40.1285 47.3576 40.1285 47.3576C40.1285 47.3576 35.3924 45.7034 34.4192 44.4439C33.1991 42.8696 42.7762 45.9519 43.6783 45.6528C44.5105 45.3852 39.9503 44.3933 40.195 41.7821C40.283 40.869 44.1192 44.616 50.9651 45.2806C62.2686 46.4051 76.1025 41.6494 86.5467 35.7714C96.9638 29.7708 103.992 22.6536 101.064 16.2189C96.5365 6.07209 67.2539 0.672021 53.5 17.0601C48.3636 8.28858 38.2453 0.27955 27.5519 0.00291168C9.40929 -0.200631 0.197588 10.2948 0.329522 22.8953C0.59339 49.1636 38.4787 68.3473 55.9538 62.1893C60.5501 60.5699 63.2947 58.1409 63.1887 59.1946C62.9113 61.7024 58.2271 63.243 59.3074 63.2981C60.3336 63.3386 70.8826 60.4361 69.4765 62.0611C68.3556 63.3442 63.1301 64.9635 63.1312 64.9647C63.1324 64.9658 73.9194 63.0597 72.6914 64.7251C71.7193 66.0386 63.8067 67.9548 63.8089 67.9548C63.8112 67.9548 72.7624 66.3321 71.928 67.6388C70.992 69.1008 63.0489 70.9 63.0512 70.9C71.7622 70.7808 68.9679 71.947 68.368 72.0909C48.3828 76.5812 27.4222 74.3052 18.5635 71.423C31.1085 85.8824 46.2561 95.4883 53.4392 94.926C63.9488 94.177 92.1793 69.9892 103.15 48.9252C85.1383 52.8016 53.3907 58.6031 35.1026 54.1555Z" fill="url(#paint0_linear_8349_5013)"/>
<defs>
<linearGradient id="paint0_linear_8349_5013" x1="-4.84672" y1="21.061" x2="98.4336" y2="22.9479" gradientUnits="userSpaceOnUse">
<stop stop-color="#FF6454"/>
<stop offset="1" stop-color="#FFA67B"/>
</linearGradient>
</defs>
</svg>
