<svg width="17" height="17" viewBox="0 0 17 17" fill="none" xmlns="http://www.w3.org/2000/svg">
<path d="M10.25 2.375C10.0179 2.375 9.79538 2.28281 9.63128 2.11872C9.46719 1.95462 9.375 1.73206 9.375 1.5C9.375 1.26794 9.46719 1.04538 9.63128 0.881282C9.79538 0.717187 10.0179 0.625 10.25 0.625H15.5C15.7321 0.625 15.9546 0.717187 16.1187 0.881282C16.2828 1.04538 16.375 1.26794 16.375 1.5V6.75C16.375 6.98206 16.2828 7.20462 16.1187 7.36872C15.9546 7.53281 15.7321 7.625 15.5 7.625C15.2679 7.625 15.0454 7.53281 14.8813 7.36872C14.7172 7.20462 14.625 6.98206 14.625 6.75V3.61225L6.49362 11.7436C6.3286 11.903 6.10757 11.9912 5.87815 11.9892C5.64873 11.9872 5.42927 11.8952 5.26703 11.733C5.1048 11.5707 5.01278 11.3513 5.01079 11.1219C5.00879 10.8924 5.09699 10.6714 5.25638 10.5064L13.3878 2.375H10.25ZM0.625 4.125C0.625 3.66087 0.809374 3.21575 1.13756 2.88756C1.46575 2.55937 1.91087 2.375 2.375 2.375H6.75C6.98206 2.375 7.20462 2.46719 7.36872 2.63128C7.53281 2.79538 7.625 3.01794 7.625 3.25C7.625 3.48206 7.53281 3.70462 7.36872 3.86872C7.20462 4.03281 6.98206 4.125 6.75 4.125H2.375V14.625H12.875V10.25C12.875 10.0179 12.9672 9.79538 13.1313 9.63128C13.2954 9.46719 13.5179 9.375 13.75 9.375C13.9821 9.375 14.2046 9.46719 14.3687 9.63128C14.5328 9.79538 14.625 10.0179 14.625 10.25V14.625C14.625 15.0891 14.4406 15.5342 14.1124 15.8624C13.7842 16.1906 13.3391 16.375 12.875 16.375H2.375C1.91087 16.375 1.46575 16.1906 1.13756 15.8624C0.809374 15.5342 0.625 15.0891 0.625 14.625V4.125Z" fill="white"/>
</svg>
