<svg width="199" height="47" viewBox="0 0 199 47" fill="none" xmlns="http://www.w3.org/2000/svg">
<path d="M5.55166 21.3938V25.2632H12.3134V27.9946H5.55166V33.3055H2.13281V18.7383H13.2251V21.4696H5.55166V21.3938Z" fill="#0067B2"/>
<path d="M16.5625 18.7383H19.9813V30.5742H27.3509V33.3055H16.5625V18.7383Z" fill="#0067B2"/>
<path d="M41.5702 30.6501V33.3814H30.25V18.7383H41.3423V21.4696H33.5929V24.6562H40.3546V27.3117H33.5929V30.7259H41.5702V30.6501Z" fill="#0067B2"/>
<path d="M45.2891 18.7383H48.7079V33.3814H45.2891V18.7383Z" fill="#0067B2"/>
<path d="M54.63 33.079C53.5664 32.7755 52.6547 32.3961 52.0469 31.865L53.1865 29.2854C53.7943 29.7406 54.554 30.12 55.3898 30.4235C56.2255 30.727 57.1372 30.8787 57.9729 30.8787C58.9606 30.8787 59.6443 30.727 60.1002 30.4235C60.556 30.12 60.7839 29.7406 60.7839 29.2854C60.7839 28.9061 60.632 28.6785 60.4041 28.4508C60.1002 28.2232 59.7963 28.0715 59.3404 27.9197C58.8846 27.768 58.3528 27.6163 57.593 27.4645C56.4534 27.2369 55.5417 26.9334 54.8579 26.7058C54.1742 26.4782 53.5664 26.023 53.0345 25.416C52.5027 24.809 52.2748 24.0503 52.2748 23.064C52.2748 22.2294 52.5027 21.4707 52.9586 20.7879C53.4144 20.105 54.0982 19.5739 55.0099 19.1187C55.9216 18.7393 57.0612 18.5117 58.4287 18.5117C59.3404 18.5117 60.2521 18.5876 61.1638 18.8152C62.0755 19.0428 62.8352 19.3463 63.519 19.8015L62.4554 22.3811C61.0878 21.6224 59.7203 21.2431 58.4287 21.2431C57.517 21.2431 56.7573 21.3948 56.3014 21.6983C55.8456 22.0018 55.6177 22.3811 55.6177 22.9122C55.6177 23.4433 55.8456 23.8227 56.3774 24.0503C56.9092 24.2779 57.669 24.5055 58.8086 24.809C59.9482 25.0366 60.8599 25.3401 61.5437 25.5677C62.2275 25.7953 62.8353 26.2506 63.3671 26.8575C63.8989 27.4645 64.1268 28.2232 64.1268 29.2095C64.1268 30.0441 63.8989 30.8028 63.443 31.4857C62.9872 32.1685 62.3034 32.6996 61.3158 33.1548C60.3281 33.6101 59.2644 33.7618 57.8969 33.7618C56.8333 33.6101 55.6937 33.4583 54.63 33.079Z" fill="#0067B2"/>
<path d="M70.5153 32.6221C69.2997 31.9393 68.388 31.1047 67.7043 29.9666C67.0205 28.8285 66.6406 27.5387 66.6406 26.0972C66.6406 24.6556 67.0205 23.3658 67.7043 22.2278C68.388 21.0897 69.3757 20.1792 70.5153 19.5723C71.7309 18.8894 73.0984 18.5859 74.6179 18.5859C75.9095 18.5859 77.0491 18.8136 78.0368 19.2688C79.0245 19.724 79.9361 20.331 80.6199 21.1656L78.4167 23.1382C77.429 22.0001 76.2134 21.3932 74.7699 21.3932C73.8582 21.3932 73.0225 21.6208 72.3387 22.0001C71.6549 22.3795 71.0471 22.9865 70.6673 23.6693C70.2874 24.3521 70.0595 25.1867 70.0595 26.0972C70.0595 27.0076 70.2874 27.8422 70.6673 28.5251C71.0471 29.2079 71.6549 29.8149 72.3387 30.1942C73.0225 30.5736 73.8582 30.8012 74.7699 30.8012C76.2134 30.8012 77.429 30.1942 78.4167 29.0562L80.6199 31.0288C79.9361 31.8634 79.0245 32.5462 78.0368 33.0015C76.9731 33.4567 75.8335 33.6843 74.6179 33.6843C73.0984 33.6084 71.7309 33.2291 70.5153 32.6221Z" fill="#0067B2"/>
<path d="M97.3984 18.7383V33.3814H93.9796V27.3876H87.2938V33.3814H83.875V18.7383H87.2938V24.5045H93.9796V18.7383H97.3984Z" fill="#0067B2"/>
<path d="M113.211 30.6501V33.3814H101.891V18.7383H112.983V21.4696H105.309V24.6562H112.071V27.3117H105.309V30.7259H113.211V30.6501Z" fill="#0067B2"/>
<path d="M126.282 33.3055L123.471 29.2085H123.319H120.356V33.3055H116.938V18.7383H123.243C124.535 18.7383 125.675 18.9659 126.586 19.4211C127.574 19.8763 128.258 20.4833 128.79 21.242C129.321 22.0007 129.549 22.9871 129.549 24.0493C129.549 25.1115 129.321 26.0978 128.79 26.8565C128.258 27.6152 127.498 28.2222 126.586 28.6774L129.853 33.3814H126.282V33.3055ZM125.447 22.1525C124.915 21.6973 124.155 21.4696 123.091 21.4696H120.356V26.553H123.091C124.079 26.553 124.915 26.3254 125.447 25.8702C125.978 25.4149 126.206 24.808 126.206 23.9734C126.206 23.2147 125.978 22.5318 125.447 22.1525Z" fill="#0067B2"/>
<path d="M44.6709 43.9372C44.215 43.7854 43.8351 43.5578 43.5312 43.2543L43.8351 42.6474C44.0631 42.875 44.4429 43.1026 44.8228 43.2543C45.2787 43.4061 45.6585 43.482 46.1144 43.482C46.7222 43.482 47.178 43.3302 47.5579 43.1026C47.8618 42.875 48.0137 42.5715 48.0137 42.1921C48.0137 41.8887 47.9378 41.661 47.7858 41.5093C47.6339 41.3576 47.4059 41.2058 47.178 41.1299C46.9501 41.0541 46.5702 40.9782 46.1144 40.8265C45.5826 40.6747 45.2027 40.5988 44.8228 40.4471C44.5189 40.2954 44.215 40.1436 43.9871 39.916C43.7592 39.6884 43.6832 39.309 43.6832 38.8538C43.6832 38.4745 43.7592 38.171 43.9871 37.8675C44.139 37.564 44.4429 37.3364 44.8228 37.1846C45.2027 37.0329 45.6585 36.957 46.2663 36.957C46.6462 36.957 47.0261 37.0329 47.4819 37.1088C47.8618 37.1846 48.1657 37.3364 48.4696 37.564L48.2417 38.171C47.9378 37.9434 47.6339 37.8675 47.33 37.7157C47.0261 37.6399 46.6462 37.564 46.3423 37.564C45.7345 37.564 45.2787 37.7157 44.9748 37.9434C44.6709 38.171 44.5189 38.4745 44.5189 38.8538C44.5189 39.1573 44.5949 39.3849 44.7468 39.5367C44.8988 39.6884 45.1267 39.8401 45.3546 39.916C45.5826 39.9919 45.9624 40.0678 46.4183 40.2195C46.9501 40.3712 47.33 40.4471 47.6339 40.5988C47.9378 40.7506 48.2417 40.9023 48.4696 41.1299C48.6975 41.3576 48.7735 41.7369 48.7735 42.1163C48.7735 42.4956 48.6975 42.7991 48.4696 43.1026C48.2417 43.4061 48.0137 43.6337 47.5579 43.7854C47.178 43.9372 46.6462 44.013 46.1144 44.013C45.6585 44.1648 45.1267 44.0889 44.6709 43.9372Z" fill="#0067B2"/>
<path d="M56.138 43.7079C55.6062 43.4044 55.1504 42.9492 54.8465 42.4181C54.5426 41.887 54.3906 41.28 54.3906 40.5972C54.3906 39.9144 54.5426 39.3074 54.8465 38.7763C55.1504 38.2452 55.6062 37.79 56.138 37.4865C56.6699 37.183 57.3536 37.0312 58.0374 37.0312C58.5692 37.0312 59.0251 37.1071 59.4809 37.2589C59.9367 37.4106 60.3166 37.7141 60.6205 38.0176L60.1647 38.4728C59.6328 37.9417 58.9491 37.6382 58.1134 37.6382C57.5815 37.6382 57.0497 37.79 56.5939 38.0176C56.138 38.2452 55.7582 38.6245 55.5302 39.0798C55.3023 39.535 55.1504 39.9902 55.1504 40.5972C55.1504 41.1283 55.3023 41.6594 55.5302 42.1146C55.7582 42.5698 56.138 42.8733 56.5939 43.1768C57.0497 43.4803 57.5815 43.5562 58.1134 43.5562C58.9491 43.5562 59.6328 43.2527 60.1647 42.7216L60.6205 43.1768C60.3166 43.4803 59.9367 43.7838 59.4809 43.9355C59.0251 44.0873 58.5692 44.1631 58.0374 44.1631C57.3536 44.1631 56.6699 44.0114 56.138 43.7079Z" fill="#0067B2"/>
<path d="M72.6291 37.1133V44.0934H71.8694V40.831H67.4629V44.0934H66.7031V37.1133H67.4629V40.224H71.8694V37.1133H72.6291Z" fill="#0067B2"/>
<path d="M80.6849 43.7079C80.1531 43.4044 79.6972 42.9492 79.3933 42.4181C79.0894 41.887 78.9375 41.28 78.9375 40.5972C78.9375 39.9144 79.0894 39.3074 79.3933 38.7763C79.6972 38.2452 80.1531 37.79 80.6849 37.4865C81.2167 37.183 81.9005 37.0312 82.5843 37.0312C83.268 37.0312 83.8758 37.183 84.4836 37.4865C85.0155 37.79 85.4713 38.2452 85.7752 38.7763C86.0791 39.3074 86.231 39.9144 86.231 40.5972C86.231 41.28 86.0791 41.887 85.7752 42.4181C85.4713 42.9492 85.0155 43.4044 84.4836 43.7079C83.9518 44.0114 83.268 44.1631 82.5843 44.1631C81.9005 44.1631 81.2167 44.0114 80.6849 43.7079ZM84.1038 43.1768C84.5596 42.9492 84.9395 42.5698 85.1674 42.1146C85.3953 41.6594 85.5473 41.2042 85.5473 40.5972C85.5473 40.0661 85.3953 39.535 85.1674 39.0798C84.9395 38.6245 84.5596 38.3211 84.1038 38.0176C83.6479 37.79 83.1921 37.6382 82.5843 37.6382C81.9765 37.6382 81.5206 37.79 81.0648 38.0176C80.6089 38.2452 80.2291 38.6245 80.0011 39.0798C79.7732 39.535 79.6213 39.9902 79.6213 40.5972C79.6213 41.1283 79.7732 41.6594 80.0011 42.1146C80.2291 42.5698 80.6089 42.8733 81.0648 43.1768C81.5206 43.4803 82.0524 43.5562 82.5843 43.5562C83.1161 43.5562 83.6479 43.4044 84.1038 43.1768Z" fill="#0067B2"/>
<path d="M92.4609 37.1133H93.2207V43.4865H97.1714V44.0934H92.5369V37.1133H92.4609Z" fill="#0067B2"/>
<path d="M107.423 42.267H103.549L102.713 44.1637H101.953L105.144 37.1836H105.904L109.095 44.1637H108.335L107.423 42.267ZM107.119 41.66L105.448 37.8664L103.777 41.66H107.119Z" fill="#0067B2"/>
<path d="M119.581 44.1693L117.986 41.8932C117.834 41.8932 117.606 41.8932 117.454 41.8932H115.478V44.0934H114.719V37.1133H117.378C118.29 37.1133 118.973 37.3409 119.505 37.7202C120.037 38.0996 120.265 38.7066 120.265 39.4653C120.265 39.9964 120.113 40.4516 119.885 40.831C119.581 41.2103 119.201 41.5138 118.669 41.6655L120.417 44.0934H119.581V44.1693ZM118.973 40.831C119.353 40.5275 119.505 40.0723 119.505 39.5412C119.505 39.0101 119.353 38.5548 118.973 38.2513C118.593 37.9479 118.062 37.7961 117.378 37.7961H115.478V41.2862H117.378C118.062 41.2862 118.593 41.1345 118.973 40.831Z" fill="#0067B2"/>
<path d="M127.03 43.9372C126.574 43.7854 126.195 43.5578 125.891 43.2543L126.195 42.6474C126.422 42.875 126.802 43.1026 127.182 43.2543C127.638 43.4061 128.018 43.482 128.474 43.482C129.082 43.482 129.537 43.3302 129.917 43.1026C130.221 42.875 130.373 42.5715 130.373 42.1921C130.373 41.8887 130.297 41.661 130.145 41.5093C129.993 41.3576 129.765 41.2058 129.537 41.1299C129.309 41.0541 128.93 40.9782 128.474 40.8265C127.942 40.6747 127.562 40.5988 127.182 40.4471C126.878 40.2954 126.574 40.1436 126.346 39.916C126.119 39.6884 126.043 39.309 126.043 38.8538C126.043 38.4745 126.119 38.171 126.346 37.8675C126.498 37.564 126.802 37.3364 127.182 37.1846C127.562 37.0329 128.018 36.957 128.626 36.957C129.006 36.957 129.385 37.0329 129.841 37.1088C130.221 37.1846 130.525 37.3364 130.829 37.564L130.601 38.171C130.297 37.9434 129.993 37.8675 129.689 37.7157C129.385 37.6399 129.006 37.564 128.702 37.564C128.094 37.564 127.638 37.7157 127.334 37.9434C127.03 38.171 126.878 38.4745 126.878 38.8538C126.878 39.1573 126.954 39.3849 127.106 39.5367C127.258 39.6884 127.486 39.8401 127.714 39.916C127.942 39.9919 128.322 40.0678 128.778 40.2195C129.309 40.3712 129.689 40.4471 129.993 40.5988C130.297 40.7506 130.601 40.9023 130.829 41.1299C131.057 41.3576 131.133 41.7369 131.133 42.1163C131.133 42.4956 131.057 42.7991 130.829 43.1026C130.601 43.4061 130.373 43.6337 129.917 43.7854C129.537 43.9372 129.006 44.013 128.474 44.013C128.018 44.1648 127.486 44.0889 127.03 43.9372Z" fill="#0067B2"/>
<path d="M36.3918 40.1992H0V40.8062H36.3918V40.1992Z" fill="#0067B2"/>
<path d="M134.472 28.2244H131.281L131.433 27.7692C131.737 26.9346 132.953 25.7207 133.181 25.4931C134.32 23.8998 137.131 22.7617 137.207 22.7617L137.511 23.4446C137.511 23.4446 134.776 24.5826 133.788 25.9483L133.712 26.0242C133.409 26.2518 132.801 26.9346 132.421 27.5416H133.788V26.1759L133.94 26.1C134.624 25.5689 136.979 23.8239 137.967 23.9757L137.815 24.6585C137.435 24.5826 135.84 25.4931 134.548 26.4794L134.472 28.2244Z" fill="#0067B2"/>
<path d="M167.307 21.0213L166.547 21.3248C166.547 13.8135 170.649 11.765 170.801 11.6892L170.953 11.6133L172.397 12.4479L172.017 13.0548L170.953 12.4479C170.649 12.6755 169.89 13.1307 169.206 14.1929C168.37 15.4068 167.307 17.3036 167.307 21.0213Z" fill="#0067B2"/>
<path d="M194.035 20.4832L193.351 20.1797L193.883 19.0416C193.351 19.1175 192.591 19.2692 192.212 19.7245L191.68 19.1934C192.591 18.207 194.491 18.207 194.567 18.207H195.099L194.035 20.4832Z" fill="#0067B2"/>
<path d="M184.777 36.3478L184.853 35.8167C184.929 34.6786 185.537 33.0853 185.537 33.0094L185.765 32.4783L186.828 33.5405L187.436 32.9336L186.676 29.9746C186.297 29.9746 185.689 30.1263 185.233 30.5816C184.321 31.492 182.498 31.1127 182.422 31.1127L182.574 30.4298C183.03 30.5057 184.245 30.5816 184.777 30.1263C185.689 29.2918 186.98 29.2918 187.056 29.2918H187.36L188.348 33.2371L186.904 34.6027L186.221 33.844C186.069 34.2234 185.917 34.8304 185.841 35.3615L187.056 34.9821L188.728 33.7682C189.032 32.2507 189.336 28.6089 188.044 27.6226L188.5 27.0156C190.475 28.533 189.412 33.844 189.412 34.0716V34.2234L187.436 35.6649L184.777 36.3478Z" fill="#0067B2"/>
<path d="M189.567 38.5401L189.415 38.3125C189.415 38.2366 188.732 37.3261 189.491 35.5811L189.643 35.2776L191.315 35.657L192.606 35.2018C192.682 34.5189 192.758 33.1532 192.606 32.6221C192.378 31.7117 190.707 31.4082 190.099 31.3323L190.175 30.5736C190.327 30.5736 192.986 30.7254 193.366 32.3945C193.594 33.305 193.366 35.4294 193.366 35.5052V35.7329L191.467 36.3398L190.251 36.0363C190.023 36.7192 190.023 37.1744 190.099 37.4779L191.467 36.795L193.518 36.264C193.746 35.8087 194.582 33.9878 194.202 30.8012L194.962 30.4219C195.493 34.443 194.126 36.6433 194.126 36.795L194.05 36.9468L191.695 37.4779L189.567 38.5401Z" fill="#0067B2"/>
<path d="M180.295 34.7363L180.219 33.9776C183.41 33.5983 185.005 31.7773 185.005 31.7773L185.537 32.2326C185.461 32.3084 183.714 34.2811 180.295 34.7363Z" fill="#0067B2"/>
<path d="M143.211 35.7403L142.375 34.5263L142.831 34.3746C142.907 34.3746 143.667 34.147 144.198 34.3746L143.895 35.0574C143.819 34.9816 143.667 34.9816 143.591 34.9816L143.819 35.3609L143.211 35.7403Z" fill="#0067B2"/>
<path d="M142.457 27.0101C142.077 27.0101 141.773 26.9343 141.621 26.9343H139.95C138.81 26.9343 138.354 25.7203 138.354 25.7203V25.5686L138.278 21.8509C138.202 21.1681 138.354 20.637 138.658 20.3335C139.038 19.9541 139.494 19.9541 139.57 19.9541H142.609C141.697 15.6295 142.229 9.25628 142.305 8.04234C142.077 7.81473 141.773 7.58712 141.393 7.3595C141.013 7.13189 140.709 6.90427 140.481 6.67666C139.95 6.22143 139.494 5.84208 139.038 5.46272C138.886 5.31098 138.582 5.23511 138.278 5.23511C137.822 5.15924 137.442 4.93162 137.29 4.4764C137.138 4.09704 137.062 3.71769 137.062 3.33833C137.062 2.80723 137.366 2.50375 137.594 2.27613L137.746 2.12439C137.822 2.04852 137.898 1.97265 137.898 1.97265C138.278 1.51742 138.81 1.36568 139.342 1.51742C140.329 1.89678 141.317 1.97265 142.457 2.04852C142.761 2.04852 143.064 2.12439 143.368 2.12439C143.748 2.12439 144.052 2.20026 144.432 2.27613L145.496 0L145.876 0.531098C145.876 0.606969 146.635 1.59329 146.331 2.95897C146.939 3.64181 147.167 4.24878 147.775 6.06969C148.155 7.20776 148.687 8.72518 149.522 11.0772C150.51 13.8844 152.713 16.1606 155.6 17.6021C156.968 18.2849 158.411 18.6643 159.931 19.0437L160.083 19.1195C162.286 19.7265 164.945 20.8646 166.465 21.775L166.009 22.4579C164.489 21.6233 162.058 20.4093 159.931 19.8024L159.779 19.7265C158.183 19.3471 156.74 18.8919 155.296 18.2091C152.257 16.6917 149.978 14.2638 148.915 11.3048C148.079 8.9528 147.547 7.43537 147.167 6.29731C146.559 4.40053 146.407 3.9453 145.8 3.33833L145.724 3.26246L145.496 3.11072L145.572 2.95897C145.724 2.42788 145.648 1.97265 145.572 1.59329L144.888 3.11072H144.584C144.128 3.03485 143.748 2.95897 143.368 2.95897C143.064 2.95897 142.761 2.8831 142.457 2.8831C141.393 2.80723 140.253 2.73136 139.19 2.27613C138.962 2.20026 138.734 2.27613 138.582 2.50375C138.506 2.57962 138.43 2.73136 138.278 2.80723L138.126 2.95897C137.898 3.18659 137.822 3.26246 137.822 3.49007C137.822 3.79356 137.822 4.02117 137.974 4.32466C138.05 4.4764 138.126 4.55227 138.43 4.62814C138.886 4.70401 139.266 4.77988 139.494 5.0075C140.026 5.38685 140.481 5.76621 141.013 6.22143C141.241 6.37318 141.545 6.60079 141.849 6.8284C142.229 7.13189 142.685 7.43537 142.989 7.66299L143.14 7.81473V7.96647C143.14 8.04234 142.381 15.7053 143.52 20.2576L143.672 20.7128L139.722 20.637C139.722 20.637 139.494 20.637 139.342 20.7887C139.19 20.9404 139.114 21.3198 139.19 21.775L139.266 25.4927C139.342 25.6444 139.646 26.2514 140.177 26.2514H142.001C142.305 26.3273 143.064 26.4032 143.596 26.1755L142.989 25.4168C142.761 25.4927 142.229 25.5686 142.001 26.0238L141.925 26.2514H140.177L140.101 25.9479C140.026 25.7203 139.95 25.4927 139.95 25.341C139.874 25.341 139.798 25.2651 139.722 25.1892C139.646 25.1133 139.418 24.8857 139.646 23.5959L139.722 23.3683L139.95 23.2924C140.709 23.0648 143.14 22.382 143.824 22.6855C143.9 22.6855 144.128 22.7613 144.356 22.8372C145.496 23.0648 147.623 23.3683 149.902 25.341L149.446 25.8721C147.319 24.0512 145.268 23.6718 144.204 23.5201C143.9 23.4442 143.672 23.4442 143.52 23.3683C143.216 23.2924 141.697 23.5959 140.329 23.9753C140.253 24.2788 140.253 24.5064 140.253 24.6581C140.405 24.734 140.557 24.9616 140.709 25.4927H141.393C141.925 24.734 142.989 24.6581 143.064 24.6581H143.216L144.508 26.2514L144.28 26.479C143.748 26.8584 143.064 27.0101 142.457 27.0101Z" fill="#0067B2"/>
<path d="M151.796 13.8778L151.644 13.6502C151.264 12.9674 150.884 12.2845 150.505 11.5258C149.897 10.236 149.441 8.87032 148.985 7.58051C148.757 6.8218 148.453 6.06309 148.149 5.30438V5.22851C147.921 4.62154 147.694 4.09044 147.39 3.48347L146.782 4.09044L146.25 3.55934L147.542 2.26953L147.769 2.64889C148.225 3.33173 148.529 4.16631 148.833 4.92502V5.00089C149.137 5.7596 149.365 6.51831 149.669 7.27703C150.125 8.56684 150.581 9.85665 151.188 11.1465C151.568 11.9052 151.948 12.588 152.328 13.195L152.48 13.4226L151.796 13.8778Z" fill="#0067B2"/>
<path d="M169.353 20.1778L168.594 20.4813C168.594 20.2537 168.898 14.3358 171.937 12.5149C171.937 11.6044 171.937 11.3009 172.165 10.694L172.468 9.85938L172.848 10.6181C172.848 10.6181 173.152 11.1492 173.608 11.5285C175.355 11.2251 175.507 11.6803 175.583 11.832C175.659 11.9838 175.963 12.2114 176.267 12.3631L177.179 12.439C177.407 12.439 178.015 12.3631 178.243 12.3631C179.078 12.2873 179.61 12.5907 179.99 13.3494C179.99 13.3494 179.99 13.4253 180.066 13.4253C180.522 14.184 180.294 14.7151 180.066 15.0186C179.762 15.4738 179.23 15.7015 178.622 15.6256C178.47 15.6256 178.091 15.6256 178.015 15.7015C177.711 15.9291 175.963 17.2189 173.836 16.9154C173.684 17.4465 173.532 18.4328 173.532 18.888L172.772 19.0398C172.772 18.2811 173.152 16.536 173.152 16.4602L173.228 16.0808L173.608 16.1567C175.735 16.6119 177.559 15.1704 177.559 15.0945L177.635 15.0186C177.863 14.8669 178.47 14.8669 178.622 14.8669C179.002 14.8669 179.23 14.791 179.382 14.5634C179.534 14.4116 179.61 14.184 179.382 13.7288C179.306 13.6529 179.306 13.5771 179.306 13.5012C179.078 13.046 178.85 12.8942 178.318 12.8942C178.015 12.8942 177.483 12.9701 177.179 12.9701L176.039 12.8942L175.963 12.8183C175.811 12.7425 175.204 12.3631 174.976 11.9079C174.748 11.832 174.14 11.9079 173.608 11.9838H173.456L173.304 11.9079C173 11.7562 172.772 11.5285 172.62 11.3768C172.62 11.6044 172.62 11.9079 172.62 12.3631V12.9701L172.392 13.046C169.581 14.4875 169.353 20.102 169.353 20.1778Z" fill="#0067B2"/>
<path d="M162.738 41.3449L162.055 40.8138C161.979 40.5862 161.979 40.2827 161.827 40.0551C161.295 39.2964 160.003 38.5377 159.168 38.1584L159.016 38.0825L159.547 37.7031L159.699 37.779C160.383 38.0825 161.219 38.4618 161.903 39.1447C162.51 39.7516 162.814 40.5104 162.738 41.3449Z" fill="#0067B2"/>
<path d="M154.164 38.0126C154.088 38.0126 154.088 37.9367 154.012 37.9367C153.48 37.7091 153.328 37.3298 153.328 37.1022C153.328 36.8745 153.328 36.4952 153.708 36.1158C153.936 35.8882 154.24 35.6606 154.468 35.5089C154.544 35.433 154.696 35.3571 154.772 35.2812L155.227 35.8882C155.151 35.9641 155 36.04 154.924 36.1158C154.696 36.2676 154.468 36.4952 154.24 36.6469C154.088 36.7987 154.012 36.8745 154.012 36.9504C154.012 37.0263 154.164 37.1022 154.316 37.2539C154.392 37.2539 154.392 37.3298 154.468 37.3298L154.164 38.0126Z" fill="#0067B2"/>
<path d="M173.371 42.2501L173.295 42.0225C173.295 42.0225 172.84 41.112 173.144 40.3533C173.371 39.8222 173.827 39.5187 174.435 39.2911L174.587 39.2152L175.043 39.5187C175.271 39.6705 175.499 39.8222 175.727 39.974C175.879 40.0498 175.879 40.0498 175.955 39.974C176.334 39.5946 176.714 39.4429 177.094 39.367C177.854 39.1394 178.386 38.6083 178.994 38.0013C178.994 38.0013 179.07 37.9254 179.07 37.8496C179.07 37.7737 178.994 37.7737 178.918 37.6978C178.766 37.5461 178.614 37.4702 178.386 37.3943C177.702 37.0909 176.942 36.7874 176.258 36.4839L175.803 36.3321C175.727 36.7115 175.575 37.0908 175.499 37.4702C175.347 38.0013 175.195 38.5324 175.119 38.9876L174.435 38.76C174.587 38.3048 174.739 37.7737 174.815 37.2426C174.967 36.7115 175.119 36.1804 175.195 35.7252L175.271 35.3458L175.727 35.4976C175.803 35.4976 175.803 35.4976 175.879 35.5734L176.486 35.801C177.17 36.1045 177.93 36.408 178.614 36.7115C178.918 36.7874 179.146 36.9391 179.297 37.1667C179.525 37.3943 179.677 37.6219 179.677 37.8496C179.677 38.0013 179.677 38.3048 179.373 38.5324C178.842 39.0635 178.082 39.8222 177.17 40.0498C176.79 40.1257 176.562 40.2774 176.334 40.5051C176.031 40.8085 175.575 40.8844 175.195 40.5809C174.967 40.4292 174.739 40.2774 174.511 40.2016C174.435 40.2016 174.359 40.1257 174.359 40.1257C173.979 40.2774 173.751 40.4292 173.675 40.6568C173.523 40.9603 173.599 41.3396 173.675 41.4914H174.359C174.587 41.4914 174.815 41.4914 175.043 41.4914L175.575 41.4155C175.955 41.4155 176.334 41.3396 176.638 41.2638C176.866 41.2638 177.018 41.1879 177.17 41.0361C177.626 40.7327 178.006 40.3533 178.386 39.974C178.842 39.5946 179.373 39.1394 179.829 38.76C180.285 38.3807 180.513 38.0013 180.513 37.6219C180.513 37.2426 180.361 36.8632 179.981 36.4839C179.753 36.2563 179.525 36.0287 179.221 35.8769L179.07 35.801C177.854 34.8147 177.018 33.7525 176.334 32.6903C175.651 31.5523 175.347 30.4142 175.347 29.352C175.271 26.2413 180.437 23.1306 180.665 23.0547L181.045 23.6617C180.969 23.6617 176.031 26.6965 176.031 29.352C176.031 30.3383 176.334 31.3246 176.942 32.311C177.55 33.3732 178.386 34.2836 179.525 35.2699L179.677 35.3458C179.905 35.5734 180.209 35.801 180.437 36.0287C180.969 36.5598 181.273 37.1667 181.197 37.7737C181.197 38.3807 180.817 38.9876 180.209 39.4429C179.753 39.8222 179.221 40.2016 178.766 40.6568C178.386 41.0361 177.93 41.3396 177.474 41.719C177.246 41.9466 176.866 42.0225 176.638 42.0983C176.258 42.1742 175.879 42.1742 175.499 42.2501L174.967 42.326C174.739 42.326 174.435 42.4018 174.207 42.326L173.371 42.2501Z" fill="#0067B2"/>
<path d="M193.05 30.7225C192.974 30.7225 192.974 30.7225 192.898 30.7225C192.594 30.7225 192.214 30.5707 191.91 30.0396V29.9638C191.91 29.812 191.682 28.6739 191.91 27.9911C191.986 27.6876 191.682 27.0048 191.454 26.7013L191.378 26.6254L190.998 25.4874C190.846 25.4874 190.619 25.4115 190.391 25.2597L190.543 28.7498L191.378 28.9016V29.6603L189.859 29.4327L189.631 22.9077L190.391 24.2734C190.694 24.8804 191.226 24.8804 191.302 24.8804H191.606L191.682 25.1839L192.062 26.4737C192.29 26.7772 192.898 27.6876 192.594 28.4463C192.442 28.8257 192.518 29.5844 192.594 29.9638C192.746 30.1914 192.898 30.2672 192.974 30.2672C193.43 30.3431 194.189 29.7361 194.569 29.3568L195.177 21.4662L195.329 21.3903C195.861 21.011 196.469 20.1005 196.848 19.4935L195.329 19.5694L195.253 19.3418C194.949 18.5072 194.417 17.9002 193.733 17.6726C192.746 17.3691 191.606 17.5968 190.239 18.3555C189.099 18.9624 188.035 19.797 187.048 20.5557C186.896 20.7075 186.668 20.8592 186.516 21.011C185.3 21.9973 183.857 23.0595 182.337 23.5906L182.109 22.9077C183.553 22.4525 184.92 21.3903 186.06 20.4799C186.212 20.3281 186.44 20.1764 186.592 20.0246C187.656 19.1901 188.719 18.3555 189.935 17.7485C191.454 16.9898 192.822 16.6863 193.961 17.0657C194.797 17.2933 195.481 17.9761 195.861 18.9624L198.216 18.8107L197.912 19.4177C197.836 19.4935 196.848 21.2386 195.937 21.9973L195.253 29.3568L195.177 29.4327C195.101 29.5844 194.037 30.7225 193.05 30.7225Z" fill="#0067B2"/>
<path d="M184.536 20.4871L184.156 19.8801C184.916 19.4249 185.6 18.8179 186.284 18.3627C186.435 18.2109 186.663 18.0592 186.815 17.9074C187.879 17.0729 188.943 16.2383 190.158 15.6313C191.678 14.8726 193.045 14.5691 194.185 14.9485C195.249 15.252 196.312 16.4659 196.616 17.3763L196.768 17.7557L195.097 18.0592L194.945 17.3763L195.78 17.2246C195.4 16.5418 194.641 15.8589 194.033 15.6313C193.045 15.3278 191.906 15.5554 190.538 16.3142C189.398 16.9211 188.335 17.7557 187.347 18.5144C187.195 18.6662 186.967 18.8179 186.815 18.9696C186.056 19.4249 185.296 20.0318 184.536 20.4871Z" fill="#0067B2"/>
<path d="M167.077 23.2745L166.469 22.8192C168.672 19.9361 175.358 19.1774 175.586 19.1774L175.966 19.1016V20.9225H175.206V19.9361C173.838 20.1638 168.748 21.0742 167.077 23.2745Z" fill="#0067B2"/>
<path d="M163.125 46.4294C163.049 46.4294 162.973 46.4294 162.821 46.3536C162.061 46.0501 161.53 45.5949 161.15 44.9879C160.998 44.6844 160.922 44.2292 161.15 43.7739C160.694 43.6222 160.314 43.3187 160.01 42.7876C160.01 42.7876 159.934 42.7118 159.858 42.6359L159.782 42.56C158.643 41.6496 157.351 40.5874 155.832 39.9045C155.68 39.8286 155.528 39.7528 155.376 39.6769L155.3 39.601C154.768 39.2217 154.16 38.8423 154.616 37.6284C155.072 36.3386 155.528 35.2005 155.984 34.0624C156.135 33.759 155.984 33.6072 155.908 33.5313C155.756 33.4555 155.604 33.3796 155.376 33.3037L155.224 33.2279C153.932 32.7726 152.945 31.9381 152.413 30.7241C151.881 29.5102 151.957 28.0686 152.033 26.7788C151.577 27.1582 151.349 27.9169 151.273 28.2204C151.045 29.0549 151.273 29.8895 151.501 30.8C151.729 31.7104 151.957 32.6968 151.729 33.6831C151.577 34.3659 151.121 34.897 150.741 35.4281C150.589 35.6557 150.437 35.8075 150.285 36.0351C149.906 36.5662 149.906 37.1732 149.83 37.7801C149.83 38.0836 149.83 38.3112 149.754 38.6147L149.602 39.5252L149.07 38.7665C148.766 38.3871 148.538 37.856 148.234 37.0973C147.93 36.1868 147.854 35.4281 148.082 34.8212C148.158 34.5935 148.234 34.3659 148.386 34.2142C148.462 34.0624 148.538 33.9866 148.538 33.8348C148.842 33.0761 148.538 32.3933 148.234 31.5587C148.082 31.2552 148.006 30.9517 147.854 30.6482C147.322 28.8273 147.93 26.5512 149.374 25.5649C150.133 25.0338 150.969 25.0338 151.805 25.0338C152.565 25.0338 153.248 25.0338 153.704 24.5786C155.68 22.9853 158.263 22.3783 161.074 22.9853C162.441 23.2887 163.885 23.5164 165.48 23.744C166.088 23.8198 166.62 23.744 167.076 23.5164C167.456 23.137 170.115 20.7091 175.737 20.3298C175.965 19.04 177.104 18.5089 177.18 18.5089L177.636 18.2812L177.788 20.3298H179.08L179.764 20.6333L181.663 20.4056C181.739 20.4056 181.739 20.4056 181.815 20.4056C182.043 20.3298 182.347 20.2539 182.651 20.4056C183.03 20.5574 183.106 21.0885 183.106 21.3161L182.423 21.5437C182.423 21.392 182.347 21.0885 182.271 21.0126C182.195 21.0126 182.043 21.0126 181.967 21.0885C181.891 21.0885 181.815 21.0885 181.739 21.0885L179.612 21.392L178.928 21.0126H177.18L177.028 19.4193C176.725 19.6469 176.497 20.1022 176.421 20.6333V20.9367H176.117C170.267 21.2402 167.608 23.8957 167.608 23.9716L167.532 24.0475C166.924 24.3509 166.24 24.5027 165.404 24.3509C163.809 24.1233 162.289 23.8957 160.922 23.5922C158.339 23.0611 155.908 23.5922 154.16 25.0338C153.476 25.6408 152.641 25.6407 151.805 25.6407C151.045 25.6407 150.361 25.6407 149.83 26.096C148.69 26.9306 148.082 28.9032 148.614 30.4206C148.69 30.7241 148.842 30.9517 148.918 31.2552C149.298 32.0898 149.678 33.0002 149.222 34.0624C149.146 34.2142 149.07 34.3659 148.994 34.5177C148.918 34.6694 148.842 34.897 148.766 35.0488C148.614 35.504 148.69 36.111 148.918 36.8697C148.994 37.0214 149.07 37.1732 149.07 37.3249C149.146 36.7938 149.222 36.1868 149.602 35.6557C149.754 35.4281 149.906 35.2005 150.058 34.9729C150.437 34.5177 150.741 34.0624 150.893 33.5313C151.121 32.6968 150.893 31.8622 150.665 30.9517C150.437 30.0413 150.209 29.0549 150.437 27.9928C150.589 27.3858 151.121 25.8684 152.337 25.7925H152.793L152.717 26.6271C152.641 27.9169 152.489 29.2067 153.021 30.2689C153.476 31.2552 154.388 32.0139 155.376 32.3933L155.528 32.4692C155.756 32.545 156.059 32.6209 156.287 32.8485C156.667 33.152 156.819 33.6831 156.591 34.2142C156.135 35.3523 155.68 36.4903 155.224 37.7043C154.996 38.3112 155.148 38.463 155.604 38.8423L155.68 38.9182C155.756 38.9941 155.832 38.9941 155.984 39.0699C157.579 39.7528 158.947 40.8908 160.162 41.8013L160.238 41.8772C160.314 41.953 160.466 42.0289 160.542 42.1807C160.77 42.6359 161.15 42.8635 161.53 42.9394C161.682 42.9394 161.758 43.0152 161.834 43.0911C161.834 43.0911 161.834 43.0911 161.91 43.0911L162.213 43.3187L161.985 43.6981C161.985 43.7739 161.91 43.7739 161.91 43.8498C161.682 44.0774 161.682 44.305 161.758 44.4568C161.985 44.912 162.365 45.2155 162.973 45.4431C163.277 44.2292 163.049 43.3187 162.365 42.56C160.086 39.9804 157.351 38.1595 157.351 38.1595L156.971 37.9319L157.959 37.0973C158.263 36.7938 158.491 36.4903 158.795 36.1868C159.326 35.504 159.858 34.8212 160.694 34.4418C161.226 34.2142 161.606 33.759 161.834 33.152L161.985 32.7726L162.669 33.0761C162.897 33.152 163.125 33.2279 163.277 33.3796C165.784 34.5177 168.367 34.9729 170.95 34.8212C171.026 34.8212 171.102 34.8212 171.178 34.8212C172.09 34.7453 172.394 34.8212 172.698 35.7316C172.85 36.111 172.926 36.4903 172.926 36.9455C172.926 37.9319 172.926 38.9182 172.85 39.9804C172.85 40.4356 172.774 40.9667 172.622 41.4219C172.318 42.6359 171.178 43.6222 169.887 43.7739C169.507 43.8498 169.127 43.9257 168.671 44.0774C168.519 44.1533 168.291 44.1533 168.063 44.0774C167.836 43.9257 167.76 43.6981 167.76 43.6222C167.608 43.167 167.076 42.7876 166.62 42.8635C166.316 42.9394 166.012 43.0911 165.708 43.2429C165.708 43.2429 165.632 43.2429 165.632 43.3187C165.708 43.3946 165.784 43.3946 165.784 43.4705L166.164 43.7739C166.392 43.9257 166.62 44.1533 166.848 44.305C167 44.3809 167.152 44.4568 167.38 44.5327C167.532 44.6085 167.684 44.6085 167.836 44.6085C168.063 44.6844 168.291 44.6844 168.519 44.8361C168.975 44.9879 169.431 44.9879 169.887 44.6844C170.799 44.1533 171.71 43.6222 172.546 43.2429C172.774 43.0911 173.078 43.0152 173.154 42.7876L173.913 42.8635C173.686 43.3187 173.154 43.6981 172.85 43.8498C172.014 44.2292 171.102 44.7603 170.267 45.2914C169.659 45.6707 168.975 45.7466 168.291 45.519C168.139 45.4431 167.911 45.3672 167.684 45.3672C167.532 45.2914 167.38 45.2914 167.228 45.2155C167 45.1396 166.772 45.0638 166.544 44.912C166.316 44.7603 166.012 44.5327 165.784 44.3809L165.404 44.0774C165.252 44.0016 165.176 43.9257 165.024 43.7739C164.873 43.6222 164.797 43.3946 164.797 43.2429C164.797 43.0911 164.948 42.8635 165.176 42.7876C165.252 42.7118 165.328 42.7118 165.404 42.6359C165.784 42.4841 166.088 42.2565 166.468 42.1807C167.228 42.0289 168.215 42.6359 168.443 43.3946C168.899 43.2428 169.355 43.0911 169.811 43.0152C170.799 42.8635 171.71 42.1048 171.938 41.1943C172.014 40.815 172.09 40.3597 172.09 39.9045C172.166 38.9182 172.166 37.9319 172.166 36.9455C172.166 36.6421 172.09 36.2627 172.014 35.9592C171.862 35.4281 171.862 35.4281 171.254 35.504C171.178 35.504 171.026 35.504 170.95 35.504C168.215 35.6557 165.556 35.2005 162.897 34.0624C162.669 33.9866 162.517 33.9107 162.289 33.8348C161.985 34.4418 161.53 34.897 160.998 35.2005C160.314 35.5799 159.858 36.111 159.326 36.7938C159.022 37.1732 158.795 37.4766 158.415 37.856L158.111 38.0836C158.947 38.6906 160.998 40.208 162.897 42.3324C163.733 43.2429 163.961 44.4568 163.657 45.8983C163.657 45.9742 163.581 46.2777 163.277 46.4294C163.277 46.4294 163.201 46.4294 163.125 46.4294Z" fill="#0067B2"/>
<path d="M152.856 45.6698H151.944H151.868C151.64 45.5939 151.564 45.4422 151.488 45.2904C151.488 45.1387 151.412 44.987 151.564 44.7593L151.64 44.6835C151.716 44.5317 151.792 44.38 152.02 44.2282C152.172 44.0765 152.324 43.9248 152.324 43.6971C152.324 43.6213 152.4 43.5454 152.4 43.3937C152.4 43.3178 152.476 43.2419 152.476 43.166C152.628 42.4073 152.628 41.8004 152.324 41.1934L152.248 40.9658C152.096 40.7382 152.02 40.5106 151.944 40.2829C151.868 40.0553 151.792 39.9036 151.792 39.676C151.716 39.7518 151.564 39.7518 151.488 39.8277C150.957 39.9795 150.501 40.2071 149.893 40.1312C149.817 40.2071 149.817 40.2829 149.665 40.5106C149.513 40.814 149.437 41.1175 149.361 41.421C149.209 41.8004 149.133 42.2556 148.829 42.6349C148.601 43.0143 148.449 43.3178 148.601 43.6971C148.677 43.8489 148.677 44.1524 148.373 44.38C148.373 44.5317 148.373 44.6835 148.373 44.7593C148.297 44.987 148.069 45.0628 147.918 45.1387C147.766 45.2146 147.69 45.2146 147.538 45.2146L147.31 45.2904H147.006H146.93C146.854 45.2904 146.778 45.2904 146.702 45.2146C146.398 45.1387 146.322 44.987 146.246 44.9111C146.17 44.8352 146.17 44.6076 146.322 44.38C146.322 44.3041 146.398 44.3041 146.398 44.2282C146.55 44.0006 146.626 43.773 146.854 43.6213C147.158 43.3937 147.31 43.0902 147.386 42.6349V42.4073C147.462 41.8762 147.538 41.2693 147.842 40.7382C147.918 40.5864 147.918 40.5106 147.69 40.2071C147.614 40.1312 147.538 40.0553 147.538 39.9795C147.082 40.3588 146.246 40.7382 145.866 40.814C145.638 40.814 145.41 40.9658 145.182 41.0417H145.106C145.106 41.1175 145.182 41.1934 145.258 41.2693C145.334 41.3451 145.334 41.421 145.41 41.4969C145.41 41.5727 145.486 41.5728 145.486 41.5728C145.638 41.4969 145.79 41.4969 145.866 41.4969C146.474 41.5727 146.778 41.9521 146.93 42.6349C146.93 42.7867 147.006 43.0902 146.778 43.3178C146.55 43.5454 146.246 43.4695 146.094 43.3937C145.79 43.3178 145.41 43.2419 145.106 43.2419C144.575 43.2419 144.271 43.0902 144.195 42.4832C144.119 42.2556 144.043 42.028 143.891 41.8004C143.663 41.5728 143.511 41.3451 143.435 41.0417C143.131 40.5106 143.359 40.1312 143.511 39.9795C143.663 39.8277 144.043 39.5242 144.499 39.2207C144.651 39.069 144.879 38.9931 144.955 38.9173L145.03 38.8414C145.41 38.5379 145.638 38.3862 145.638 38.2344C145.562 38.1585 145.562 38.0068 145.486 37.9309C145.258 37.3998 145.03 36.7929 144.651 36.3376C144.271 36.717 144.043 37.324 143.891 37.7792C143.815 38.0827 143.739 38.1585 143.663 38.3103C143.587 38.462 143.435 38.6896 143.283 39.2966C143.283 39.3725 143.283 39.3725 143.283 39.5242C143.283 39.6001 143.283 39.7518 143.283 39.8277C143.207 40.5106 142.447 40.8899 141.688 40.8899C141.688 40.8899 141.688 40.8899 141.612 40.8899C141.156 40.8899 140.928 40.6623 140.776 40.5106L140.7 40.3588C140.7 40.2829 140.624 40.2829 140.624 40.2829C140.244 39.9795 140.168 39.6001 140.32 39.1449C140.624 38.462 140.624 37.7792 140.7 37.0205C140.7 36.7929 140.776 36.5653 140.776 36.4135C140.776 36.2618 140.852 36.0342 140.852 35.8824L139.484 35.6548L139.712 35.1996C139.712 35.1237 140.244 34.365 141.08 34.0615C141.156 33.3028 141.536 31.0267 143.207 29.661C144.347 28.7505 145.638 28.447 147.386 28.7505V29.5092C145.866 29.2058 144.575 29.5092 143.663 30.1921C141.916 31.5578 141.764 34.2891 141.764 34.2891V34.5926L141.46 34.6685C141.156 34.7443 140.928 34.8961 140.7 35.0478L141.612 35.1996L141.536 35.5789C141.46 35.8824 141.46 36.1859 141.384 36.4135C141.384 36.6411 141.308 36.7929 141.308 37.0205C141.232 37.7792 141.156 38.5379 140.852 39.3725C140.776 39.5242 140.852 39.6001 140.928 39.676C141.004 39.7518 141.08 39.8277 141.156 39.9036L141.232 39.9795C141.384 40.1312 141.384 40.1312 141.536 40.1312C141.916 40.1312 142.371 39.9795 142.447 39.7518C142.447 39.676 142.447 39.676 142.447 39.6001C142.447 39.4484 142.447 39.2966 142.523 39.1449C142.751 38.462 142.903 38.2344 142.979 38.0068C143.055 37.8551 143.055 37.7792 143.131 37.5516C143.359 36.8687 143.663 36.0342 144.423 35.5031L144.727 35.3513L144.955 35.5789C145.486 36.1859 145.79 36.9446 146.094 37.6275C146.17 37.7792 146.246 37.9309 146.322 38.0827C146.474 38.5379 146.018 38.9173 145.41 39.4484L145.334 39.5242C145.258 39.6001 145.031 39.7518 144.879 39.9036C144.575 40.1312 144.119 40.4347 143.967 40.5864C143.967 40.5864 143.891 40.6623 143.967 40.8899C144.043 41.0417 144.195 41.2693 144.347 41.4969L144.423 41.5728C144.423 41.4969 144.347 41.4969 144.347 41.421C144.271 41.2693 144.271 41.0417 144.347 40.8899C144.423 40.7382 144.575 40.5864 144.727 40.5106H144.803C145.031 40.3588 145.334 40.2829 145.714 40.2071C146.094 40.1312 147.006 39.676 147.234 39.3725C147.31 39.2966 147.386 39.2207 147.386 39.2207L147.842 38.9173L147.918 39.4484C147.918 39.6001 148.069 39.7518 148.221 39.9795C148.449 40.2829 148.753 40.7382 148.449 41.3451C148.221 41.7245 148.145 42.1797 148.069 42.6349C148.069 42.6349 148.069 42.5591 148.145 42.5591C148.373 42.2556 148.449 41.8762 148.601 41.4969C148.677 41.1934 148.829 40.8899 148.981 40.5106C149.209 40.0553 149.437 39.7518 149.665 39.676C149.817 39.676 149.893 39.676 149.969 39.676C150.425 39.7518 150.805 39.6001 151.26 39.4484C151.412 39.3725 151.64 39.2966 151.792 39.2966L152.324 39.1449L152.4 39.5242C152.4 39.6001 152.476 39.7518 152.476 39.8277C152.552 40.0553 152.552 40.2071 152.628 40.4347C152.704 40.6623 152.78 40.814 152.932 41.0417L153.008 41.2693C153.312 41.8004 153.388 42.3315 153.388 42.9384C153.464 42.7867 153.54 42.6349 153.616 42.5591C153.692 42.4073 153.692 42.3315 153.616 42.2556C153.236 41.7245 153.16 41.1175 153.388 40.4347C153.54 40.0553 153.54 39.9795 153.768 39.7518L154.223 39.2966L154.451 39.7518C154.831 40.4347 155.059 40.5864 155.743 40.6623C156.199 40.7382 156.275 41.0417 156.275 41.1934C156.275 41.2693 156.351 41.3451 156.351 41.421C156.427 41.7245 156.503 41.9521 156.275 42.4073C156.123 42.7867 156.123 42.8626 156.275 43.0143L156.351 42.7108C156.351 42.6349 156.731 41.7245 156.731 41.6486L157.262 41.9521C157.262 42.1038 157.186 42.4073 157.11 42.4832C157.414 42.5591 157.49 42.8626 157.642 43.166C157.718 43.3178 157.718 43.4695 157.718 43.6213L157.87 44.3041H157.414C156.883 44.3041 156.427 44.1524 156.123 43.8489C155.363 43.2419 155.287 43.0143 155.591 42.1038C155.667 41.8004 155.667 41.8004 155.591 41.5728C155.591 41.4969 155.515 41.421 155.515 41.3451C154.831 41.2693 154.375 41.0417 153.995 40.5106V40.5864C153.844 41.1175 153.92 41.4969 154.147 41.8004C154.375 42.1797 154.375 42.5591 154.147 42.9384C153.92 43.2419 153.768 43.4695 153.768 43.773C153.768 43.9248 153.768 44.1524 153.768 44.3041C153.768 44.4559 153.844 44.7593 153.54 44.987C153.616 45.1387 153.616 45.3663 153.54 45.5181C153.388 45.7457 153.16 45.8215 152.932 45.8974L152.856 45.6698ZM152.4 44.9111H152.704H152.78H152.856V44.8352C152.78 44.6076 152.856 44.3041 153.084 44.1524C153.084 44.1524 153.084 44.1524 153.084 44.0765C153.084 44.0006 153.084 43.9248 153.084 43.9248C153.008 44.3041 152.78 44.5317 152.476 44.8352L152.4 44.9111ZM147.006 44.6835H147.158H147.234C147.31 44.6835 147.386 44.6835 147.462 44.6076C147.386 44.38 147.538 44.1524 147.69 44.0006C147.69 43.9248 147.614 43.8489 147.614 43.773C147.462 44.0006 147.31 44.1524 147.158 44.3041C147.082 44.38 147.006 44.5317 146.93 44.6835C146.93 44.6835 146.93 44.6835 147.006 44.6835ZM156.503 42.8626C156.579 42.8626 156.579 42.9384 156.655 42.9384C156.731 43.0143 156.883 43.0902 157.034 43.166C157.034 43.0902 157.034 43.0902 156.958 43.0143C156.883 42.8626 156.883 42.7867 156.883 42.7867C156.883 42.7867 156.807 42.7867 156.731 42.7867L156.503 42.8626ZM144.879 42.6349C144.879 42.6349 144.955 42.6349 145.106 42.6349C145.486 42.6349 145.866 42.7108 146.17 42.7867C146.094 42.4073 145.942 42.3315 145.79 42.3315C145.79 42.3315 145.79 42.3315 145.714 42.3315C145.486 42.4073 145.031 42.4832 144.727 41.9521C144.727 41.8762 144.651 41.8762 144.575 41.8004C144.575 41.8004 144.575 41.8004 144.575 41.7245C144.727 41.9521 144.803 42.2556 144.879 42.4832C144.803 42.5591 144.803 42.6349 144.879 42.6349Z" fill="#0067B2"/>
</svg>
