<svg width="13" height="10" viewBox="0 0 13 10" fill="none" xmlns="http://www.w3.org/2000/svg">
<path d="M8.25397 9.89583L13 5.10417C13.1032 5 13.1032 4.89583 13 4.89583L8.25397 0C8.15079 0 8.04762 0 7.94444 0L6.70635 1.35417C6.60317 1.45833 6.60317 1.5625 6.70635 1.5625L8.76984 3.64583C8.87301 3.75 8.76984 3.95833 8.66667 3.95833H0.206349C0.103175 3.95833 0 3.95833 0 4.0625V5.83333C0 5.9375 0.103175 6.04167 0.206349 6.04167H8.66667C8.76984 6.04167 8.87301 6.25 8.76984 6.35417L6.70635 8.4375C6.60317 8.54167 6.60317 8.64583 6.70635 8.64583L7.94444 9.89583C8.04762 10 8.15079 10 8.25397 9.89583Z" fill="white"/>
</svg>
