<svg width="28" height="28" viewBox="0 0 28 28" fill="none" xmlns="http://www.w3.org/2000/svg">
<path d="M13.7811 27.9988C10.1261 27.9988 6.62083 26.5262 4.03638 23.9048C1.45193 21.2834 0 17.7281 0 14.0209C0 10.3137 1.45193 6.75837 4.03638 4.137C6.62083 1.51563 10.1261 0.0429688 13.7811 0.0429688C17.436 0.0429688 20.9413 1.51563 23.5257 4.137C26.1102 6.75837 27.5621 10.3137 27.5621 14.0209C27.5621 17.7281 26.1102 21.2834 23.5257 23.9048C20.9413 26.5262 17.436 27.9988 13.7811 27.9988Z" fill="#0067B2"/>
<path d="M6.42188 18.6851C7.7475 19.5456 9.28076 20.02 10.8542 20.0566C12.4276 20.0932 13.9807 19.6905 15.3438 18.8925C16.7069 18.0946 17.8276 16.932 18.5835 15.5319C19.3394 14.1317 19.7014 12.5478 19.6299 10.9531C20.2172 10.5183 20.7252 9.98305 21.1313 9.37137C20.5804 9.61802 19.996 9.77922 19.3978 9.84956C20.029 9.46866 20.5011 8.86688 20.7252 8.1575C20.1332 8.51223 19.4855 8.76108 18.8103 8.89318C18.3564 8.40034 17.7548 8.07336 17.0988 7.96308C16.4428 7.85279 15.7693 7.96537 15.1829 8.28331C14.5965 8.60125 14.1301 9.10674 13.8561 9.72124C13.5821 10.3357 13.5159 11.0248 13.6678 11.6814C12.4689 11.6211 11.2959 11.3057 10.225 10.7556C9.15409 10.2055 8.20925 9.43313 7.45183 8.48856C7.06559 9.16125 6.94659 9.95796 7.11907 10.7165C7.29155 11.475 7.74254 12.1384 8.38024 12.5716C7.90211 12.5563 7.43453 12.4252 7.01664 12.189C7.00651 12.9029 7.24332 13.5977 7.68591 14.1528C8.1285 14.7079 8.74888 15.0881 9.4392 15.2274C8.99479 15.3518 8.52791 15.3694 8.0756 15.2789C8.26566 15.8878 8.63964 16.4207 9.14467 16.8023C9.64969 17.1838 10.2602 17.3947 10.8898 17.405C10.2651 17.9067 9.54873 18.278 8.78192 18.4977C8.01512 18.7174 7.21304 18.7811 6.42188 18.6851Z" fill="white"/>
</svg>
